%FSLAX25Y25*%
%MOIN*%
G70*
G01*
G75*
G04 Layer_Physical_Order=1*
G04 Layer_Color=255*
%ADD10O,0.08661X0.02362*%
%ADD11R,0.05000X0.06000*%
%ADD12C,0.01500*%
%ADD13C,0.01000*%
%ADD14C,0.02500*%
%ADD15O,0.06300X0.07874*%
%ADD16R,0.06300X0.07874*%
%ADD17C,0.03937*%
G04:AMPARAMS|DCode=18|XSize=78.74mil|YSize=78.74mil|CornerRadius=19.69mil|HoleSize=0mil|Usage=FLASHONLY|Rotation=180.000|XOffset=0mil|YOffset=0mil|HoleType=Round|Shape=RoundedRectangle|*
%AMROUNDEDRECTD18*
21,1,0.07874,0.03937,0,0,180.0*
21,1,0.03937,0.07874,0,0,180.0*
1,1,0.03937,-0.01969,0.01969*
1,1,0.03937,0.01969,0.01969*
1,1,0.03937,0.01969,-0.01969*
1,1,0.03937,-0.01969,-0.01969*
%
%ADD18ROUNDEDRECTD18*%
%ADD19R,0.03937X0.03937*%
%ADD20C,0.05200*%
%ADD21R,0.05200X0.05200*%
%ADD22R,0.02000X0.02500*%
%ADD23R,0.06000X0.06000*%
%ADD24R,0.06000X0.05000*%
%ADD25R,0.15000X0.08500*%
%ADD26C,0.09700*%
%ADD27C,0.05000*%
%ADD28C,0.02000*%
G36*
X48500Y135074D02*
X47118D01*
X47021Y135807D01*
X46724Y136524D01*
X46252Y137140D01*
X45636Y137613D01*
X44918Y137910D01*
X44149Y138011D01*
X40212D01*
X39442Y137910D01*
X38725Y137613D01*
X38109Y137140D01*
X37636Y136524D01*
X37339Y135807D01*
X37242Y135074D01*
X25142D01*
X24982Y135282D01*
X24255Y135840D01*
X23408Y136190D01*
X22500Y136310D01*
X21591Y136190D01*
X20745Y135840D01*
X20018Y135282D01*
X19460Y134555D01*
X19110Y133709D01*
X18990Y132800D01*
X19110Y131892D01*
X19460Y131045D01*
X20018Y130318D01*
X20745Y129760D01*
X21591Y129410D01*
X22500Y129290D01*
X23408Y129410D01*
X24255Y129760D01*
X24982Y130318D01*
X25142Y130526D01*
X37313D01*
X37339Y130330D01*
X37636Y129613D01*
X38109Y128997D01*
X38725Y128525D01*
X39442Y128227D01*
X40212Y128126D01*
X44149D01*
X44918Y128227D01*
X45636Y128525D01*
X46252Y128997D01*
X46724Y129613D01*
X47021Y130330D01*
X47047Y130526D01*
X48500D01*
Y120000D01*
X66291D01*
Y100977D01*
X65793Y100928D01*
X65793D01*
Y100928D01*
D01*
X65665Y101573D01*
X65228Y102227D01*
X64573Y102665D01*
X63800Y102819D01*
X63027Y102665D01*
X62372Y102227D01*
X61935Y101573D01*
X61781Y100800D01*
X61935Y100027D01*
X62372Y99373D01*
X63027Y98935D01*
X63800Y98781D01*
X64573Y98935D01*
X65228Y99373D01*
X65665Y100027D01*
X65793Y100672D01*
X66291Y100623D01*
Y96925D01*
X65675Y96309D01*
X61625D01*
X58967Y98967D01*
X58477Y99294D01*
X57900Y99409D01*
X50480D01*
Y101880D01*
X49000D01*
Y101880D01*
Y102000D01*
X49000Y102234D01*
X49000Y102234D01*
X49000D01*
Y105500D01*
X42000D01*
Y102254D01*
X42000Y102254D01*
X42000D01*
X42000Y102000D01*
X41900Y101900D01*
X40300D01*
Y97900D01*
Y93900D01*
X43166D01*
X43166Y93900D01*
Y93900D01*
X43300Y93900D01*
X43520Y93920D01*
X43520D01*
X43654Y93920D01*
X43654Y93920D01*
Y93920D01*
X50480D01*
Y96391D01*
X57275D01*
X59933Y93733D01*
X60422Y93406D01*
X61000Y93291D01*
X66300D01*
X66878Y93406D01*
X67367Y93733D01*
X67367Y93733D01*
X67367Y93733D01*
X68867Y95233D01*
X68867Y95233D01*
X68867Y95233D01*
X69194Y95723D01*
X69309Y96300D01*
Y120000D01*
X86500D01*
Y97500D01*
X115000D01*
Y84000D01*
X92500D01*
Y67000D01*
X100000D01*
Y50500D01*
X80000D01*
Y63500D01*
X60000D01*
Y51500D01*
X40000D01*
Y65000D01*
X55000D01*
Y75650D01*
X58350D01*
Y79650D01*
Y83650D01*
X55498D01*
X55307Y84112D01*
X55931Y84736D01*
X62669D01*
X63736Y83669D01*
Y74200D01*
X63736Y74200D01*
X63736D01*
X63870Y73525D01*
X64253Y72953D01*
X67853Y69353D01*
X68425Y68970D01*
X69100Y68836D01*
X83475D01*
X91574Y60737D01*
X91292Y60370D01*
X90876Y59365D01*
X90734Y58287D01*
Y56713D01*
X90876Y55635D01*
X91292Y54630D01*
X91954Y53767D01*
X92817Y53105D01*
X93822Y52689D01*
X94900Y52547D01*
X95978Y52689D01*
X96983Y53105D01*
X97846Y53767D01*
X98508Y54630D01*
X98924Y55635D01*
X99066Y56713D01*
Y58287D01*
X98924Y59365D01*
X98508Y60370D01*
X97846Y61233D01*
X96983Y61895D01*
X95978Y62311D01*
X94900Y62453D01*
X94854Y62446D01*
X85453Y71847D01*
X84881Y72230D01*
X84206Y72364D01*
X69831D01*
X67264Y74931D01*
Y84400D01*
X67130Y85075D01*
X66747Y85647D01*
X64647Y87747D01*
X64075Y88130D01*
X63400Y88264D01*
X55200D01*
X54525Y88130D01*
X53953Y87747D01*
X50942Y84737D01*
X50480Y84928D01*
Y92880D01*
X43634D01*
X43634Y92880D01*
Y92880D01*
X43520Y92880D01*
X43400D01*
X43280D01*
X43166Y92880D01*
X43166Y92880D01*
Y92880D01*
X36320D01*
Y84920D01*
X38036D01*
Y84800D01*
X38118Y84386D01*
X37801Y84000D01*
X22500D01*
Y107500D01*
X9000D01*
Y122724D01*
X9010Y122800D01*
X9000Y122876D01*
Y145783D01*
X48500D01*
Y135074D01*
D02*
G37*
G36*
X130983Y7622D02*
X95140Y1617D01*
X70675D01*
X70507Y2088D01*
X70592Y2158D01*
X71321Y3045D01*
X71862Y4058D01*
X72196Y5157D01*
X72308Y6300D01*
X72196Y7443D01*
X71862Y8542D01*
X71321Y9555D01*
X70592Y10442D01*
X69705Y11171D01*
X68692Y11712D01*
X67593Y12046D01*
X66450Y12158D01*
X65307Y12046D01*
X64208Y11712D01*
X63195Y11171D01*
X62308Y10442D01*
X61579Y9555D01*
X61038Y8542D01*
X60704Y7443D01*
X60592Y6300D01*
X60704Y5157D01*
X61038Y4058D01*
X61579Y3045D01*
X62308Y2158D01*
X62393Y2088D01*
X62225Y1617D01*
X37760D01*
X1917Y7622D01*
Y121075D01*
X2407Y121173D01*
X2460Y121045D01*
X3018Y120318D01*
X3226Y120158D01*
Y86500D01*
X3226Y86500D01*
X3226D01*
X3399Y85630D01*
X3892Y84892D01*
X18236Y70548D01*
Y62417D01*
X10770D01*
Y52583D01*
X18236D01*
Y44674D01*
X17899Y44170D01*
X17726Y43300D01*
Y29000D01*
X17726Y29000D01*
X17726D01*
X17899Y28130D01*
X18392Y27392D01*
X22626Y23158D01*
Y21748D01*
X21954Y21233D01*
X21292Y20370D01*
X20876Y19365D01*
X20734Y18287D01*
Y16713D01*
X20876Y15635D01*
X21292Y14630D01*
X21954Y13767D01*
X22817Y13105D01*
X23822Y12689D01*
X24900Y12547D01*
X25978Y12689D01*
X26983Y13105D01*
X27845Y13767D01*
X28508Y14630D01*
X28924Y15635D01*
X29066Y16713D01*
Y18287D01*
X28924Y19365D01*
X28508Y20370D01*
X27845Y21233D01*
X27174Y21748D01*
Y24100D01*
X27001Y24970D01*
X26508Y25708D01*
X22274Y29942D01*
Y43300D01*
X22101Y44170D01*
X21764Y44674D01*
Y53348D01*
X22212Y53570D01*
X22817Y53105D01*
X23822Y52689D01*
X24900Y52547D01*
X25978Y52689D01*
X26983Y53105D01*
X27845Y53767D01*
X28508Y54630D01*
X28924Y55635D01*
X29066Y56713D01*
Y58287D01*
X28924Y59365D01*
X28508Y60370D01*
X27845Y61233D01*
X26983Y61895D01*
X25978Y62311D01*
X24900Y62453D01*
X23822Y62311D01*
X22817Y61895D01*
X22212Y61430D01*
X21764Y61652D01*
Y70626D01*
X22101Y71130D01*
X22274Y72000D01*
X22101Y72870D01*
X21608Y73608D01*
X7774Y87442D01*
Y106710D01*
X8252Y106855D01*
X8293Y106793D01*
X8618Y106577D01*
X9000Y106501D01*
X11998D01*
X12096Y106010D01*
X11895Y105927D01*
X11147Y105353D01*
X10573Y104605D01*
X10212Y103735D01*
X10089Y102800D01*
X10212Y101865D01*
X10573Y100995D01*
X11147Y100247D01*
X11895Y99673D01*
X12765Y99312D01*
X13700Y99189D01*
X14635Y99312D01*
X15505Y99673D01*
X16253Y100247D01*
X16827Y100995D01*
X17188Y101865D01*
X17311Y102800D01*
X17188Y103735D01*
X16827Y104605D01*
X16253Y105353D01*
X15505Y105927D01*
X15304Y106010D01*
X15402Y106501D01*
X21501D01*
Y84000D01*
X21577Y83618D01*
X21793Y83293D01*
X22118Y83077D01*
X22500Y83001D01*
X37801D01*
X37850Y83011D01*
X37899Y83006D01*
X38040Y83048D01*
X38184Y83077D01*
X38225Y83104D01*
X38272Y83119D01*
X38386Y83212D01*
X38508Y83293D01*
X39425Y82681D01*
X40853Y81253D01*
X41425Y80870D01*
X42100Y80736D01*
X51200D01*
X51875Y80870D01*
X52447Y81253D01*
X52447Y81253D01*
X52447Y81253D01*
X54251Y83056D01*
X54602Y83022D01*
X54791Y82943D01*
X54791Y82943D01*
X54791Y82943D01*
X54856Y82900D01*
X54870Y82891D01*
Y76623D01*
X54618Y76573D01*
X54294Y76357D01*
X54077Y76032D01*
X54001Y75650D01*
Y65999D01*
X40000D01*
X39618Y65923D01*
X39294Y65706D01*
X39077Y65382D01*
X39001Y65000D01*
Y60461D01*
X38510Y60363D01*
X38508Y60370D01*
X37846Y61233D01*
X36983Y61895D01*
X35978Y62311D01*
X34900Y62453D01*
X33822Y62311D01*
X32817Y61895D01*
X31955Y61233D01*
X31293Y60370D01*
X30876Y59365D01*
X30734Y58287D01*
Y56713D01*
X30876Y55635D01*
X31293Y54630D01*
X31955Y53767D01*
X32817Y53105D01*
X33136Y52973D01*
Y51500D01*
X33136Y51500D01*
X33136D01*
X33270Y50825D01*
X33653Y50253D01*
X36573Y47333D01*
X37145Y46950D01*
X37820Y46816D01*
X39070D01*
Y39870D01*
X47030D01*
Y40122D01*
X47492Y40314D01*
X49653Y38153D01*
X50225Y37770D01*
X50900Y37636D01*
X50940Y37644D01*
X51358Y37364D01*
X52202Y37197D01*
X58501D01*
X59344Y37364D01*
X60059Y37842D01*
X60536Y38557D01*
X60704Y39400D01*
X60536Y40243D01*
X60059Y40958D01*
X59344Y41436D01*
X58501Y41603D01*
X52202D01*
X51359Y41436D01*
X50365Y42430D01*
X50682Y42816D01*
X51358Y42364D01*
X52202Y42197D01*
X58501D01*
X59344Y42364D01*
X60059Y42842D01*
X60536Y43557D01*
X60704Y44400D01*
X60536Y45243D01*
X60059Y45958D01*
X59344Y46436D01*
X58501Y46603D01*
X52202D01*
X51358Y46436D01*
X50643Y45958D01*
X50166Y45243D01*
X50042Y44618D01*
X49544Y44667D01*
Y47567D01*
X49410Y48242D01*
X49027Y48814D01*
X48014Y49827D01*
X47722Y50022D01*
X47867Y50501D01*
X60000D01*
X60382Y50577D01*
X60707Y50793D01*
X60923Y51118D01*
X60999Y51500D01*
Y54235D01*
X61473Y54395D01*
X61954Y53767D01*
X62817Y53105D01*
X63822Y52689D01*
X64900Y52547D01*
X65978Y52689D01*
X66983Y53105D01*
X67846Y53767D01*
X68508Y54630D01*
X68924Y55635D01*
X69066Y56713D01*
Y58287D01*
X68924Y59365D01*
X68508Y60370D01*
X67846Y61233D01*
X66983Y61895D01*
X66703Y62010D01*
X66801Y62501D01*
X72999D01*
X73097Y62010D01*
X72817Y61895D01*
X71954Y61233D01*
X71292Y60370D01*
X70876Y59365D01*
X70734Y58287D01*
Y56713D01*
X70876Y55635D01*
X71292Y54630D01*
X71954Y53767D01*
X72817Y53105D01*
X73822Y52689D01*
X74900Y52547D01*
X75978Y52689D01*
X76983Y53105D01*
X77846Y53767D01*
X78508Y54630D01*
X78510Y54637D01*
X79001Y54540D01*
Y50500D01*
X79077Y50118D01*
X79294Y49793D01*
X79618Y49577D01*
X80000Y49501D01*
X100000D01*
X100382Y49577D01*
X100707Y49793D01*
X100923Y50118D01*
X100999Y50500D01*
Y54235D01*
X101473Y54395D01*
X101954Y53767D01*
X102817Y53105D01*
X103822Y52689D01*
X104900Y52547D01*
X105978Y52689D01*
X106983Y53105D01*
X107846Y53767D01*
X108508Y54630D01*
X108924Y55635D01*
X109066Y56713D01*
Y58287D01*
X108924Y59365D01*
X108508Y60370D01*
X107846Y61233D01*
X106983Y61895D01*
X105978Y62311D01*
X104900Y62453D01*
X103822Y62311D01*
X102817Y61895D01*
X101954Y61233D01*
X101473Y60605D01*
X100999Y60765D01*
Y67000D01*
X100923Y67382D01*
X100707Y67707D01*
X100382Y67923D01*
X100000Y67999D01*
X93499D01*
Y83001D01*
X115000D01*
X115382Y83077D01*
X115707Y83293D01*
X115923Y83618D01*
X115999Y84000D01*
Y97500D01*
X115923Y97882D01*
X115707Y98207D01*
X115382Y98423D01*
X115000Y98499D01*
X87499D01*
Y120000D01*
X87423Y120382D01*
X87207Y120706D01*
X86882Y120923D01*
X86500Y120999D01*
X70587D01*
X70395Y121461D01*
X78759Y129825D01*
X78759Y129825D01*
X78978Y130152D01*
X79086Y130315D01*
X79201Y130892D01*
X79201Y130892D01*
Y132123D01*
X79626Y132388D01*
X79744Y132329D01*
Y128152D01*
X85641D01*
Y134048D01*
X84201D01*
Y138120D01*
X89280D01*
Y145080D01*
X81320D01*
Y139602D01*
X81298Y139570D01*
X81183Y138992D01*
Y134453D01*
X80715Y134276D01*
X80585Y134424D01*
X80666Y135037D01*
X80565Y135807D01*
X80268Y136524D01*
X79795Y137140D01*
X79201Y137596D01*
Y138120D01*
X80280D01*
Y145080D01*
X72320D01*
Y138120D01*
X72320D01*
Y137962D01*
X71922Y137910D01*
X71205Y137612D01*
X70589Y137140D01*
X70117Y136524D01*
X69820Y135807D01*
X69718Y135037D01*
X69820Y134267D01*
X70108Y133572D01*
X69711Y133267D01*
X69179Y133676D01*
X68462Y133973D01*
X67692Y134074D01*
X66922Y133973D01*
X66205Y133676D01*
X65673Y133267D01*
X65277Y133572D01*
X65565Y134267D01*
X65666Y135037D01*
X65565Y135807D01*
X65268Y136524D01*
X64795Y137140D01*
X64179Y137612D01*
X63462Y137910D01*
X62692Y138011D01*
X61923Y137910D01*
X61205Y137612D01*
X60589Y137140D01*
X60442Y136948D01*
X59942D01*
X59795Y137140D01*
X59179Y137612D01*
X58462Y137910D01*
X57692Y138011D01*
X56923Y137910D01*
X56205Y137612D01*
X55589Y137140D01*
X55117Y136524D01*
X54820Y135807D01*
X54718Y135037D01*
X54820Y134267D01*
X55092Y133609D01*
X54696Y133304D01*
X54189Y133693D01*
X53467Y133992D01*
X53192Y134028D01*
Y131600D01*
X55620D01*
X55584Y131875D01*
X55309Y132541D01*
X55705Y132845D01*
X56205Y132462D01*
X56923Y132164D01*
X57692Y132063D01*
X58462Y132164D01*
X59179Y132462D01*
X59795Y132934D01*
X59942Y133126D01*
X60442D01*
X60589Y132934D01*
X61205Y132462D01*
X61923Y132164D01*
X62692Y132063D01*
X63462Y132164D01*
X64179Y132462D01*
X64711Y132870D01*
X65108Y132565D01*
X64820Y131870D01*
X64718Y131100D01*
X64820Y130330D01*
X65117Y129613D01*
X65589Y128997D01*
X66205Y128524D01*
X66922Y128227D01*
X67692Y128126D01*
X68462Y128227D01*
X69179Y128524D01*
X69795Y128997D01*
X70268Y129613D01*
X70565Y130330D01*
X70666Y131100D01*
X70565Y131870D01*
X70277Y132565D01*
X70673Y132870D01*
X71205Y132462D01*
X71922Y132164D01*
X72692Y132063D01*
X73462Y132164D01*
X74179Y132462D01*
X74795Y132934D01*
X74942Y133126D01*
X75442D01*
X75589Y132934D01*
X76183Y132478D01*
Y131517D01*
X66733Y122067D01*
X66406Y121578D01*
X66291Y121000D01*
Y120999D01*
X49499D01*
Y129770D01*
X49990Y129867D01*
X50099Y129603D01*
X50575Y128983D01*
X51195Y128507D01*
X51917Y128208D01*
X52192Y128172D01*
Y131100D01*
Y134028D01*
X51917Y133992D01*
X51195Y133693D01*
X50575Y133217D01*
X50099Y132597D01*
X49800Y131875D01*
X49724Y131300D01*
X49237Y131187D01*
X49207Y131233D01*
X48882Y131449D01*
X48500Y131526D01*
X47143D01*
Y132569D01*
X37218D01*
Y131526D01*
X26242D01*
X25912Y131901D01*
X25964Y132300D01*
X22500D01*
Y133300D01*
X25964D01*
X25912Y133699D01*
X26242Y134074D01*
X37218D01*
Y133569D01*
X47143D01*
Y134074D01*
X48500D01*
X48882Y134151D01*
X49207Y134367D01*
X49423Y134691D01*
X49499Y135074D01*
Y145783D01*
X130983D01*
Y7622D01*
D02*
G37*
%LPC*%
G36*
X29050Y47850D02*
X25550D01*
Y44350D01*
X29050D01*
Y47850D01*
D02*
G37*
G36*
X104900Y44509D02*
X104323Y44394D01*
X103833Y44067D01*
X103506Y43578D01*
X103475Y43424D01*
X103323Y43394D01*
X102833Y43067D01*
X102506Y42577D01*
X102288Y42432D01*
X101900Y42509D01*
X101322Y42394D01*
X100833Y42067D01*
X100506Y41578D01*
X100391Y41000D01*
X100504Y40430D01*
X100322Y40394D01*
X99833Y40067D01*
X99506Y39577D01*
X99476Y39424D01*
X99322Y39394D01*
X98833Y39067D01*
X98506Y38577D01*
X98391Y38000D01*
X98506Y37422D01*
X98833Y36933D01*
X99322Y36606D01*
X99476Y36575D01*
X99506Y36423D01*
X99833Y35933D01*
X100322Y35606D01*
X100504Y35570D01*
X100391Y35000D01*
X100506Y34422D01*
X100833Y33933D01*
X101322Y33606D01*
X101900Y33491D01*
X102288Y33568D01*
X102506Y33422D01*
X102833Y32933D01*
X103323Y32606D01*
X103475Y32576D01*
X103506Y32423D01*
X103833Y31933D01*
X104323Y31606D01*
X104900Y31491D01*
X105477Y31606D01*
X105967Y31933D01*
X106294Y32423D01*
X106325Y32576D01*
X106477Y32606D01*
X106967Y32933D01*
X107294Y33422D01*
X107294Y33422D01*
Y33422D01*
X107512Y33568D01*
X107900Y33491D01*
X108477Y33606D01*
X108967Y33933D01*
X109294Y34422D01*
X109409Y35000D01*
X109332Y35388D01*
X109477Y35606D01*
X109477D01*
X109477Y35606D01*
X109967Y35933D01*
X110294Y36423D01*
X110325Y36575D01*
X110477Y36606D01*
X110967Y36933D01*
X111294Y37422D01*
X111409Y38000D01*
X111294Y38577D01*
X110967Y39067D01*
X110477Y39394D01*
X110325Y39424D01*
X110294Y39577D01*
X109967Y40067D01*
X109477Y40394D01*
X109477Y40394D01*
X109477D01*
X109332Y40612D01*
X109409Y41000D01*
X109294Y41578D01*
X108967Y42067D01*
X108477Y42394D01*
X107900Y42509D01*
X107512Y42432D01*
X107294Y42577D01*
Y42577D01*
X107294Y42577D01*
X106967Y43067D01*
X106477Y43394D01*
X106325Y43424D01*
X106294Y43578D01*
X105967Y44067D01*
X105477Y44394D01*
X104900Y44509D01*
D02*
G37*
G36*
X84380Y46630D02*
X80420D01*
Y46164D01*
X78648D01*
X78242Y46436D01*
X77398Y46603D01*
X71099D01*
X70256Y46436D01*
X69541Y45958D01*
X69064Y45243D01*
X68896Y44400D01*
X69064Y43557D01*
X69541Y42842D01*
X70256Y42364D01*
X71099Y42197D01*
X77398D01*
X78242Y42364D01*
X78648Y42636D01*
X80420D01*
Y42170D01*
X84380D01*
Y46630D01*
D02*
G37*
G36*
X33550Y47850D02*
X30050D01*
Y44350D01*
X33550D01*
Y47850D01*
D02*
G37*
G36*
X31300Y38500D02*
X27800D01*
Y35500D01*
X31300D01*
Y38500D01*
D02*
G37*
G36*
X26800D02*
X23300D01*
Y35500D01*
X26800D01*
Y38500D01*
D02*
G37*
G36*
X29050Y43350D02*
X25550D01*
Y39850D01*
X29050D01*
Y43350D01*
D02*
G37*
G36*
X84380Y41630D02*
X80420D01*
Y41164D01*
X78648D01*
X78242Y41436D01*
X77398Y41603D01*
X71099D01*
X70256Y41436D01*
X69541Y40958D01*
X69064Y40243D01*
X68896Y39400D01*
X69064Y38557D01*
X69541Y37842D01*
X70256Y37364D01*
X71099Y37197D01*
X77398D01*
X78242Y37364D01*
X78648Y37636D01*
X80420D01*
Y37170D01*
X84380D01*
Y41630D01*
D02*
G37*
G36*
X33550Y43350D02*
X30050D01*
Y39850D01*
X33550D01*
Y43350D01*
D02*
G37*
G36*
X44400Y62407D02*
X43817Y62330D01*
X42807Y61912D01*
X41940Y61247D01*
X41275Y60380D01*
X40857Y59370D01*
X40714Y58287D01*
Y58000D01*
X44400D01*
Y62407D01*
D02*
G37*
G36*
X119086Y57000D02*
X115400D01*
Y52593D01*
X115983Y52670D01*
X116993Y53088D01*
X117860Y53753D01*
X118525Y54620D01*
X118943Y55630D01*
X119086Y56713D01*
Y57000D01*
D02*
G37*
G36*
X45400Y62407D02*
Y58000D01*
X49086D01*
Y58287D01*
X48943Y59370D01*
X48525Y60380D01*
X47860Y61247D01*
X46993Y61912D01*
X45983Y62330D01*
X45400Y62407D01*
D02*
G37*
G36*
X115400D02*
Y58000D01*
X119086D01*
Y58287D01*
X118943Y59370D01*
X118525Y60380D01*
X117860Y61247D01*
X116993Y61912D01*
X115983Y62330D01*
X115400Y62407D01*
D02*
G37*
G36*
X114400D02*
X113817Y62330D01*
X112807Y61912D01*
X111940Y61247D01*
X111275Y60380D01*
X110857Y59370D01*
X110714Y58287D01*
Y58000D01*
X114400D01*
Y62407D01*
D02*
G37*
G36*
X84900Y62453D02*
X83822Y62311D01*
X82817Y61895D01*
X81954Y61233D01*
X81292Y60370D01*
X80876Y59365D01*
X80734Y58287D01*
Y56713D01*
X80876Y55635D01*
X81292Y54630D01*
X81954Y53767D01*
X82817Y53105D01*
X83822Y52689D01*
X84900Y52547D01*
X85978Y52689D01*
X86983Y53105D01*
X87846Y53767D01*
X88508Y54630D01*
X88924Y55635D01*
X89066Y56713D01*
Y58287D01*
X88924Y59365D01*
X88508Y60370D01*
X87846Y61233D01*
X86983Y61895D01*
X85978Y62311D01*
X84900Y62453D01*
D02*
G37*
G36*
X54900D02*
X53822Y62311D01*
X52817Y61895D01*
X51954Y61233D01*
X51292Y60370D01*
X50876Y59365D01*
X50734Y58287D01*
Y56713D01*
X50876Y55635D01*
X51292Y54630D01*
X51954Y53767D01*
X52817Y53105D01*
X53822Y52689D01*
X54900Y52547D01*
X55978Y52689D01*
X56983Y53105D01*
X57846Y53767D01*
X58508Y54630D01*
X58924Y55635D01*
X59066Y56713D01*
Y58287D01*
X58924Y59365D01*
X58508Y60370D01*
X57846Y61233D01*
X56983Y61895D01*
X55978Y62311D01*
X54900Y62453D01*
D02*
G37*
G36*
X44400Y57000D02*
X40714D01*
Y56713D01*
X40857Y55630D01*
X41275Y54620D01*
X41940Y53753D01*
X42807Y53088D01*
X43817Y52670D01*
X44400Y52593D01*
Y57000D01*
D02*
G37*
G36*
X114400D02*
X110714D01*
Y56713D01*
X110857Y55630D01*
X111275Y54620D01*
X111940Y53753D01*
X112807Y53088D01*
X113817Y52670D01*
X114400Y52593D01*
Y57000D01*
D02*
G37*
G36*
X49086D02*
X45400D01*
Y52593D01*
X45983Y52670D01*
X46993Y53088D01*
X47860Y53753D01*
X48525Y54620D01*
X48943Y55630D01*
X49086Y56713D01*
Y57000D01*
D02*
G37*
G36*
X77398Y36603D02*
X71099D01*
X70256Y36436D01*
X69541Y35958D01*
X69064Y35243D01*
X68896Y34400D01*
X69064Y33557D01*
X69541Y32842D01*
X70256Y32364D01*
X71099Y32197D01*
X77398D01*
X78242Y32364D01*
X78957Y32842D01*
X79434Y33557D01*
X79602Y34400D01*
X79434Y35243D01*
X78957Y35958D01*
X78242Y36436D01*
X77398Y36603D01*
D02*
G37*
G36*
X84900Y22453D02*
X83822Y22311D01*
X82817Y21895D01*
X81954Y21233D01*
X81292Y20370D01*
X80876Y19365D01*
X80734Y18287D01*
Y16713D01*
X80876Y15635D01*
X81292Y14630D01*
X81954Y13767D01*
X82817Y13105D01*
X83822Y12689D01*
X84900Y12547D01*
X85978Y12689D01*
X86983Y13105D01*
X87846Y13767D01*
X88508Y14630D01*
X88924Y15635D01*
X89066Y16713D01*
Y18287D01*
X88924Y19365D01*
X88508Y20370D01*
X87846Y21233D01*
X86983Y21895D01*
X85978Y22311D01*
X84900Y22453D01*
D02*
G37*
G36*
X74900D02*
X73822Y22311D01*
X72817Y21895D01*
X71954Y21233D01*
X71292Y20370D01*
X70876Y19365D01*
X70734Y18287D01*
Y16713D01*
X70876Y15635D01*
X71292Y14630D01*
X71954Y13767D01*
X72817Y13105D01*
X73822Y12689D01*
X74900Y12547D01*
X75978Y12689D01*
X76983Y13105D01*
X77846Y13767D01*
X78508Y14630D01*
X78924Y15635D01*
X79066Y16713D01*
Y18287D01*
X78924Y19365D01*
X78508Y20370D01*
X77846Y21233D01*
X76983Y21895D01*
X75978Y22311D01*
X74900Y22453D01*
D02*
G37*
G36*
X104900D02*
X103822Y22311D01*
X102817Y21895D01*
X101954Y21233D01*
X101292Y20370D01*
X100876Y19365D01*
X100734Y18287D01*
Y16713D01*
X100876Y15635D01*
X101292Y14630D01*
X101954Y13767D01*
X102817Y13105D01*
X103822Y12689D01*
X104900Y12547D01*
X105978Y12689D01*
X106983Y13105D01*
X107846Y13767D01*
X108508Y14630D01*
X108924Y15635D01*
X109066Y16713D01*
Y18287D01*
X108924Y19365D01*
X108508Y20370D01*
X107846Y21233D01*
X106983Y21895D01*
X105978Y22311D01*
X104900Y22453D01*
D02*
G37*
G36*
X94900D02*
X93822Y22311D01*
X92817Y21895D01*
X91954Y21233D01*
X91292Y20370D01*
X90876Y19365D01*
X90734Y18287D01*
Y16713D01*
X90876Y15635D01*
X91292Y14630D01*
X91954Y13767D01*
X92817Y13105D01*
X93822Y12689D01*
X94900Y12547D01*
X95978Y12689D01*
X96983Y13105D01*
X97846Y13767D01*
X98508Y14630D01*
X98924Y15635D01*
X99066Y16713D01*
Y18287D01*
X98924Y19365D01*
X98508Y20370D01*
X97846Y21233D01*
X96983Y21895D01*
X95978Y22311D01*
X94900Y22453D01*
D02*
G37*
G36*
X64900D02*
X63822Y22311D01*
X62817Y21895D01*
X61954Y21233D01*
X61292Y20370D01*
X60876Y19365D01*
X60734Y18287D01*
Y16713D01*
X60876Y15635D01*
X61292Y14630D01*
X61954Y13767D01*
X62817Y13105D01*
X63822Y12689D01*
X64900Y12547D01*
X65978Y12689D01*
X66983Y13105D01*
X67846Y13767D01*
X68508Y14630D01*
X68924Y15635D01*
X69066Y16713D01*
Y18287D01*
X68924Y19365D01*
X68508Y20370D01*
X67846Y21233D01*
X66983Y21895D01*
X65978Y22311D01*
X64900Y22453D01*
D02*
G37*
G36*
X34900D02*
X33822Y22311D01*
X32817Y21895D01*
X31955Y21233D01*
X31293Y20370D01*
X30876Y19365D01*
X30734Y18287D01*
Y16713D01*
X30876Y15635D01*
X31293Y14630D01*
X31955Y13767D01*
X32817Y13105D01*
X33822Y12689D01*
X34900Y12547D01*
X35978Y12689D01*
X36983Y13105D01*
X37846Y13767D01*
X38508Y14630D01*
X38924Y15635D01*
X39066Y16713D01*
Y18287D01*
X38924Y19365D01*
X38508Y20370D01*
X37846Y21233D01*
X36983Y21895D01*
X35978Y22311D01*
X34900Y22453D01*
D02*
G37*
G36*
X14900D02*
X13822Y22311D01*
X12817Y21895D01*
X11954Y21233D01*
X11292Y20370D01*
X10876Y19365D01*
X10734Y18287D01*
Y16713D01*
X10876Y15635D01*
X11292Y14630D01*
X11954Y13767D01*
X12817Y13105D01*
X13822Y12689D01*
X14900Y12547D01*
X15978Y12689D01*
X16983Y13105D01*
X17846Y13767D01*
X18508Y14630D01*
X18924Y15635D01*
X19066Y16713D01*
Y18287D01*
X18924Y19365D01*
X18508Y20370D01*
X17846Y21233D01*
X16983Y21895D01*
X15978Y22311D01*
X14900Y22453D01*
D02*
G37*
G36*
X54900D02*
X53822Y22311D01*
X52817Y21895D01*
X51954Y21233D01*
X51292Y20370D01*
X50876Y19365D01*
X50734Y18287D01*
Y16713D01*
X50876Y15635D01*
X51292Y14630D01*
X51954Y13767D01*
X52817Y13105D01*
X53822Y12689D01*
X54900Y12547D01*
X55978Y12689D01*
X56983Y13105D01*
X57846Y13767D01*
X58508Y14630D01*
X58924Y15635D01*
X59066Y16713D01*
Y18287D01*
X58924Y19365D01*
X58508Y20370D01*
X57846Y21233D01*
X56983Y21895D01*
X55978Y22311D01*
X54900Y22453D01*
D02*
G37*
G36*
X44900D02*
X43822Y22311D01*
X42817Y21895D01*
X41954Y21233D01*
X41293Y20370D01*
X40876Y19365D01*
X40734Y18287D01*
Y16713D01*
X40876Y15635D01*
X41293Y14630D01*
X41954Y13767D01*
X42817Y13105D01*
X43822Y12689D01*
X44900Y12547D01*
X45978Y12689D01*
X46983Y13105D01*
X47846Y13767D01*
X48507Y14630D01*
X48924Y15635D01*
X49066Y16713D01*
Y18287D01*
X48924Y19365D01*
X48507Y20370D01*
X47846Y21233D01*
X46983Y21895D01*
X45978Y22311D01*
X44900Y22453D01*
D02*
G37*
G36*
X114900D02*
X113822Y22311D01*
X112817Y21895D01*
X111954Y21233D01*
X111293Y20370D01*
X110876Y19365D01*
X110734Y18287D01*
Y16713D01*
X110876Y15635D01*
X111293Y14630D01*
X111954Y13767D01*
X112817Y13105D01*
X113822Y12689D01*
X114900Y12547D01*
X115978Y12689D01*
X116983Y13105D01*
X117846Y13767D01*
X118508Y14630D01*
X118924Y15635D01*
X119066Y16713D01*
Y18287D01*
X118924Y19365D01*
X118508Y20370D01*
X117846Y21233D01*
X116983Y21895D01*
X115978Y22311D01*
X114900Y22453D01*
D02*
G37*
G36*
X31300Y34500D02*
X27800D01*
Y31500D01*
X31300D01*
Y34500D01*
D02*
G37*
G36*
X26800D02*
X23300D01*
Y31500D01*
X26800D01*
Y34500D01*
D02*
G37*
G36*
X48280Y36630D02*
X44320D01*
Y32170D01*
X48280D01*
Y32636D01*
X50952D01*
X51358Y32364D01*
X52202Y32197D01*
X58501D01*
X59344Y32364D01*
X60059Y32842D01*
X60536Y33557D01*
X60704Y34400D01*
X60536Y35243D01*
X60059Y35958D01*
X59344Y36436D01*
X58501Y36603D01*
X52202D01*
X51358Y36436D01*
X50952Y36164D01*
X48280D01*
Y36630D01*
D02*
G37*
G36*
X40280Y38480D02*
X32320D01*
Y31520D01*
X40280D01*
Y38480D01*
D02*
G37*
G36*
X77398Y31624D02*
X74749D01*
Y29900D01*
X79523D01*
X79453Y30251D01*
X78971Y30972D01*
X78249Y31455D01*
X77398Y31624D01*
D02*
G37*
G36*
X79523Y28900D02*
X74749D01*
Y27176D01*
X77398D01*
X78249Y27345D01*
X78971Y27828D01*
X79453Y28549D01*
X79523Y28900D01*
D02*
G37*
G36*
X73749D02*
X68975D01*
X69045Y28549D01*
X69527Y27828D01*
X70248Y27345D01*
X71099Y27176D01*
X73749D01*
Y28900D01*
D02*
G37*
G36*
Y31624D02*
X71099D01*
X70248Y31455D01*
X69527Y30972D01*
X69045Y30251D01*
X68975Y29900D01*
X73749D01*
Y31624D01*
D02*
G37*
G36*
X48280Y31630D02*
X44320D01*
Y27170D01*
X48280D01*
Y27636D01*
X50952D01*
X51358Y27364D01*
X52202Y27197D01*
X58501D01*
X59344Y27364D01*
X60059Y27842D01*
X60536Y28557D01*
X60704Y29400D01*
X60536Y30243D01*
X60059Y30958D01*
X59344Y31436D01*
X58501Y31603D01*
X52202D01*
X51358Y31436D01*
X50952Y31164D01*
X48280D01*
Y31630D01*
D02*
G37*
G36*
X9380Y75058D02*
X8237Y74946D01*
X7138Y74612D01*
X6125Y74071D01*
X5238Y73342D01*
X4509Y72455D01*
X3968Y71442D01*
X3634Y70343D01*
X3522Y69200D01*
X3634Y68057D01*
X3968Y66958D01*
X4509Y65945D01*
X5238Y65058D01*
X6125Y64329D01*
X7138Y63788D01*
X8237Y63454D01*
X9380Y63342D01*
X10523Y63454D01*
X11622Y63788D01*
X12635Y64329D01*
X13522Y65058D01*
X14251Y65945D01*
X14792Y66958D01*
X15126Y68057D01*
X15238Y69200D01*
X15126Y70343D01*
X14792Y71442D01*
X14251Y72455D01*
X13522Y73342D01*
X12635Y74071D01*
X11622Y74612D01*
X10523Y74946D01*
X9380Y75058D01*
D02*
G37*
G36*
X92704Y132569D02*
X88241D01*
Y131100D01*
X88343Y130325D01*
X88643Y129603D01*
X89118Y128983D01*
X89738Y128507D01*
X90460Y128208D01*
X91236Y128106D01*
X92704D01*
Y132569D01*
D02*
G37*
G36*
X13700Y126411D02*
X12765Y126288D01*
X11895Y125927D01*
X11147Y125353D01*
X10573Y124605D01*
X10212Y123735D01*
X10089Y122800D01*
X10212Y121865D01*
X10573Y120995D01*
X11147Y120247D01*
X11895Y119673D01*
X12765Y119312D01*
X13700Y119189D01*
X14635Y119312D01*
X15505Y119673D01*
X16253Y120247D01*
X16827Y120995D01*
X17188Y121865D01*
X17311Y122800D01*
X17188Y123735D01*
X16827Y124605D01*
X16253Y125353D01*
X15505Y125927D01*
X14635Y126288D01*
X13700Y126411D01*
D02*
G37*
G36*
X55620Y130600D02*
X53192D01*
Y128172D01*
X53467Y128208D01*
X54189Y128507D01*
X54809Y128983D01*
X55285Y129603D01*
X55584Y130325D01*
X55620Y130600D01*
D02*
G37*
G36*
X98167Y132569D02*
X93704D01*
Y128106D01*
X95173D01*
X95947Y128208D01*
X96670Y128507D01*
X97290Y128983D01*
X97765Y129603D01*
X98065Y130325D01*
X98167Y131100D01*
Y132569D01*
D02*
G37*
G36*
X129480Y127730D02*
X112520D01*
Y117270D01*
X129480D01*
Y127730D01*
D02*
G37*
G36*
X59580Y119280D02*
X52620D01*
Y111320D01*
X59580D01*
Y119280D01*
D02*
G37*
G36*
X13700Y116411D02*
X12765Y116288D01*
X11895Y115927D01*
X11147Y115353D01*
X10573Y114605D01*
X10212Y113735D01*
X10089Y112800D01*
X10212Y111865D01*
X10573Y110995D01*
X11147Y110247D01*
X11895Y109673D01*
X12765Y109312D01*
X13700Y109189D01*
X14635Y109312D01*
X15505Y109673D01*
X16253Y110247D01*
X16827Y110995D01*
X17188Y111865D01*
X17311Y112800D01*
X17188Y113735D01*
X16827Y114605D01*
X16253Y115353D01*
X15505Y115927D01*
X14635Y116288D01*
X13700Y116411D01*
D02*
G37*
G36*
X85880Y119280D02*
X78920D01*
Y111320D01*
X85880D01*
Y119280D01*
D02*
G37*
G36*
X76880D02*
X69920D01*
Y111320D01*
X76880D01*
Y119280D01*
D02*
G37*
G36*
X13200Y132300D02*
X10100D01*
Y129200D01*
X13200D01*
Y132300D01*
D02*
G37*
G36*
X129500Y138800D02*
X121500D01*
Y134050D01*
X129500D01*
Y138800D01*
D02*
G37*
G36*
X120500D02*
X112500D01*
Y134050D01*
X120500D01*
Y138800D01*
D02*
G37*
G36*
X129500Y144550D02*
X121500D01*
Y139800D01*
X129500D01*
Y144550D01*
D02*
G37*
G36*
X120500D02*
X112500D01*
Y139800D01*
X120500D01*
Y144550D01*
D02*
G37*
G36*
X95173Y138031D02*
X93704D01*
Y133569D01*
X98167D01*
Y135037D01*
X98065Y135812D01*
X97765Y136534D01*
X97290Y137154D01*
X96670Y137630D01*
X95947Y137929D01*
X95173Y138031D01*
D02*
G37*
G36*
X13200Y136400D02*
X10100D01*
Y133300D01*
X13200D01*
Y136400D01*
D02*
G37*
G36*
X17300Y132300D02*
X14200D01*
Y129200D01*
X17300D01*
Y132300D01*
D02*
G37*
G36*
X92704Y138031D02*
X91236D01*
X90460Y137929D01*
X89738Y137630D01*
X89118Y137154D01*
X88643Y136534D01*
X88343Y135812D01*
X88241Y135037D01*
Y133569D01*
X92704D01*
Y138031D01*
D02*
G37*
G36*
X17300Y136400D02*
X14200D01*
Y133300D01*
X17300D01*
Y136400D01*
D02*
G37*
G36*
X85900Y110300D02*
X82900D01*
Y106800D01*
X85900D01*
Y110300D01*
D02*
G37*
G36*
X39300Y97400D02*
X36300D01*
Y93900D01*
X39300D01*
Y97400D01*
D02*
G37*
G36*
X112880Y96130D02*
X95920D01*
Y85670D01*
X112880D01*
Y96130D01*
D02*
G37*
G36*
X97700Y104219D02*
X96927Y104065D01*
X96272Y103628D01*
X95835Y102973D01*
X95681Y102200D01*
X95835Y101427D01*
X96272Y100773D01*
X96927Y100335D01*
X97700Y100181D01*
X98473Y100335D01*
X99128Y100773D01*
X99565Y101427D01*
X99719Y102200D01*
X99565Y102973D01*
X99128Y103628D01*
X98473Y104065D01*
X97700Y104219D01*
D02*
G37*
G36*
X39300Y101900D02*
X36300D01*
Y98400D01*
X39300D01*
Y101900D01*
D02*
G37*
G36*
X84080Y92880D02*
X77120D01*
Y84920D01*
X84080D01*
Y92880D01*
D02*
G37*
G36*
X62850Y79150D02*
X59350D01*
Y75650D01*
X62850D01*
Y79150D01*
D02*
G37*
G36*
X123480Y75058D02*
X122337Y74946D01*
X121238Y74612D01*
X120225Y74071D01*
X119338Y73342D01*
X118609Y72455D01*
X118068Y71442D01*
X117734Y70343D01*
X117622Y69200D01*
X117734Y68057D01*
X118068Y66958D01*
X118609Y65945D01*
X119338Y65058D01*
X120225Y64329D01*
X121238Y63788D01*
X122337Y63454D01*
X123480Y63342D01*
X124623Y63454D01*
X125722Y63788D01*
X126735Y64329D01*
X127622Y65058D01*
X128351Y65945D01*
X128892Y66958D01*
X129226Y68057D01*
X129338Y69200D01*
X129226Y70343D01*
X128892Y71442D01*
X128351Y72455D01*
X127622Y73342D01*
X126735Y74071D01*
X125722Y74612D01*
X124623Y74946D01*
X123480Y75058D01*
D02*
G37*
G36*
X62850Y83650D02*
X59350D01*
Y80150D01*
X62850D01*
Y83650D01*
D02*
G37*
G36*
X76330Y83630D02*
X68370D01*
Y75670D01*
X76330D01*
Y83630D01*
D02*
G37*
G36*
X85900Y105800D02*
X78900D01*
Y102300D01*
X78900D01*
Y102234D01*
X78546Y101880D01*
X77120D01*
Y101880D01*
D01*
X76900Y102300D01*
X76900Y102300D01*
Y105800D01*
X69900D01*
Y102300D01*
X71624D01*
X71860Y101859D01*
X71535Y101373D01*
X71381Y100600D01*
X71535Y99827D01*
X71973Y99173D01*
X72627Y98735D01*
X73400Y98581D01*
X74173Y98735D01*
X74705Y99091D01*
X75675D01*
X77120Y97646D01*
Y93920D01*
X84080D01*
Y101880D01*
X84080D01*
Y101946D01*
X84434Y102300D01*
X85900D01*
Y105800D01*
D02*
G37*
G36*
X72900Y110300D02*
X69900D01*
Y106800D01*
X72900D01*
Y110300D01*
D02*
G37*
G36*
X59600D02*
X56600D01*
Y106800D01*
X59600D01*
Y110300D01*
D02*
G37*
G36*
X81900D02*
X78900D01*
Y106800D01*
X81900D01*
Y110300D01*
D02*
G37*
G36*
X76900D02*
X73900D01*
Y106800D01*
X76900D01*
Y110300D01*
D02*
G37*
G36*
X55600D02*
X52600D01*
Y106800D01*
X55600D01*
Y110300D01*
D02*
G37*
G36*
X59600Y105800D02*
X56600D01*
Y102300D01*
X59600D01*
Y105800D01*
D02*
G37*
G36*
X55600D02*
X52600D01*
Y102300D01*
X55600D01*
Y105800D01*
D02*
G37*
G36*
X49000Y110000D02*
X46000D01*
Y106500D01*
X49000D01*
Y110000D01*
D02*
G37*
G36*
X45000D02*
X42000D01*
Y106500D01*
X45000D01*
Y110000D01*
D02*
G37*
%LPD*%
D10*
X55351Y39400D02*
D03*
Y34400D02*
D03*
Y29400D02*
D03*
X74249Y44400D02*
D03*
Y39400D02*
D03*
Y29400D02*
D03*
X55351Y44400D02*
D03*
X74249Y34400D02*
D03*
D11*
X80600Y97900D02*
D03*
X39800Y88900D02*
D03*
Y97900D02*
D03*
X47000D02*
D03*
X73400Y106300D02*
D03*
X39800Y88900D02*
D03*
X56100Y115300D02*
D03*
X80600Y88900D02*
D03*
X82400Y106300D02*
D03*
Y115300D02*
D03*
X45500Y106000D02*
D03*
X56100Y106300D02*
D03*
X47000Y88900D02*
D03*
X73400Y115300D02*
D03*
D12*
X47780Y42520D02*
X50900Y39400D01*
X47780Y42520D02*
Y47567D01*
X46767Y48580D02*
X47780Y47567D01*
X37820Y48580D02*
X46767D01*
X34900Y51500D02*
X37820Y48580D01*
X46300Y34400D02*
X55351D01*
X46300Y29400D02*
X55351D01*
X34900Y51500D02*
Y57500D01*
X74249Y39400D02*
X82400D01*
X74249Y44400D02*
X82400D01*
X20000Y43300D02*
Y72000D01*
X65500Y74200D02*
X69100Y70600D01*
X65500Y74200D02*
Y84400D01*
X63400Y86500D02*
X65500Y84400D01*
X55200Y86500D02*
X63400D01*
X51200Y82500D02*
X55200Y86500D01*
X42100Y82500D02*
X51200D01*
X39800Y84800D02*
X42100Y82500D01*
X39800Y84800D02*
Y88900D01*
X69100Y70600D02*
X84206D01*
X94900Y59905D01*
Y57500D02*
Y59905D01*
D13*
X73400Y100600D02*
X76300D01*
X79000Y97900D01*
X80600D01*
X82692Y131100D02*
Y138992D01*
X76300Y141600D02*
X77692Y140208D01*
Y135037D02*
Y140208D01*
Y130892D02*
Y135037D01*
X67800Y121000D02*
X77692Y130892D01*
X67800Y96300D02*
Y121000D01*
X82692Y138992D02*
X85300Y141600D01*
X47000Y97900D02*
X57900D01*
X61000Y94800D01*
X66300D01*
X67800Y96300D01*
X104900Y33000D02*
Y35000D01*
Y41000D02*
Y43000D01*
X99900Y38000D02*
X101900D01*
X107900D02*
X109900D01*
X101900Y35000D02*
X103900Y37000D01*
X105900D02*
X107900Y35000D01*
X105900Y39000D02*
X107900Y41000D01*
X101900D02*
X103900Y39000D01*
X104900Y41000D02*
X105900Y42000D01*
X103900D02*
X104900Y41000D01*
X107900Y38000D02*
X108900Y37000D01*
X107900Y38000D02*
X108900Y39000D01*
X104900Y35000D02*
X105900Y34000D01*
X103900D02*
X104900Y35000D01*
X100900Y37000D02*
X101900Y38000D01*
X100900Y39000D02*
X101900Y38000D01*
X102900D02*
X104900D01*
Y40000D01*
Y36000D02*
Y38000D01*
X106900D01*
X104900Y33000D02*
Y35000D01*
Y41000D02*
Y43000D01*
X107900Y38000D02*
X109900D01*
X99900D02*
X101900D01*
X105900Y37000D02*
X107900Y35000D01*
X101900D02*
X103900Y37000D01*
X101900Y41000D02*
X103900Y39000D01*
X105900D02*
X107900Y41000D01*
X103900Y42000D02*
X104900Y41000D01*
X105900Y42000D01*
X100900Y37000D02*
X101900Y38000D01*
X100900Y39000D02*
X101900Y38000D01*
X103900Y34000D02*
X104900Y35000D01*
X105900Y34000D01*
X107900Y38000D02*
X108900Y37000D01*
X107900Y38000D02*
X108900Y39000D01*
X104900Y38000D02*
X106900D01*
X104900D02*
Y40000D01*
Y36000D02*
Y38000D01*
X102900D02*
X104900D01*
D14*
X42200Y106000D02*
X45500D01*
X39800Y97900D02*
Y103600D01*
X42200Y106000D01*
X73400Y106300D02*
X82400D01*
X20000Y29000D02*
Y43300D01*
X5500Y86500D02*
X20000Y72000D01*
X5500Y86500D02*
Y122800D01*
X20000Y29000D02*
X24900Y24100D01*
Y17500D02*
Y24100D01*
X50992Y132800D02*
X52692Y131100D01*
X22500Y132800D02*
X50992D01*
D15*
X114900Y17500D02*
D03*
X104900D02*
D03*
X94900D02*
D03*
X84900D02*
D03*
X74900D02*
D03*
X64900D02*
D03*
X54900D02*
D03*
X44900D02*
D03*
X34900D02*
D03*
X24900D02*
D03*
X14900D02*
D03*
X114900Y57500D02*
D03*
X104900D02*
D03*
X94900D02*
D03*
X84900D02*
D03*
X74900D02*
D03*
X64900D02*
D03*
X54900D02*
D03*
X44900D02*
D03*
X34900D02*
D03*
X24900D02*
D03*
D16*
X14900D02*
D03*
D17*
X72692Y135037D02*
D03*
X67692Y131100D02*
D03*
X62692Y135037D02*
D03*
X77692D02*
D03*
X57692D02*
D03*
X52692Y131100D02*
D03*
D18*
X93204Y133069D02*
D03*
X42180D02*
D03*
D19*
X82692Y131100D02*
D03*
D20*
X13700Y102800D02*
D03*
Y112800D02*
D03*
Y122800D02*
D03*
D21*
Y132800D02*
D03*
D22*
X82400Y44400D02*
D03*
Y39400D02*
D03*
X46300Y29400D02*
D03*
Y34400D02*
D03*
D23*
X43050Y43850D02*
D03*
X29550D02*
D03*
X72350Y79650D02*
D03*
X58850D02*
D03*
D24*
X27300Y35000D02*
D03*
X36300D02*
D03*
X85300Y141600D02*
D03*
X76300D02*
D03*
D25*
X121000Y122500D02*
D03*
Y139300D02*
D03*
X104400Y90900D02*
D03*
D26*
X123480Y69200D02*
D03*
X66450Y6300D02*
D03*
X9380Y69200D02*
D03*
D27*
X5500Y122800D02*
D03*
X22500Y132800D02*
D03*
D28*
X63800Y100800D02*
D03*
X73400Y100600D02*
D03*
X97700Y102200D02*
D03*
M02*
