%FSLAX25Y25*%
%MOIN*%
G70*
G01*
G75*
G04 Layer_Color=65535*
%ADD10O,0.08661X0.02362*%
%ADD11R,0.05000X0.06000*%
%ADD12C,0.01500*%
%ADD13C,0.01000*%
%ADD14C,0.02500*%
%ADD15O,0.06300X0.07874*%
%ADD16R,0.06300X0.07874*%
%ADD17C,0.03937*%
G04:AMPARAMS|DCode=18|XSize=78.74mil|YSize=78.74mil|CornerRadius=19.69mil|HoleSize=0mil|Usage=FLASHONLY|Rotation=180.000|XOffset=0mil|YOffset=0mil|HoleType=Round|Shape=RoundedRectangle|*
%AMROUNDEDRECTD18*
21,1,0.07874,0.03937,0,0,180.0*
21,1,0.03937,0.07874,0,0,180.0*
1,1,0.03937,-0.01969,0.01969*
1,1,0.03937,0.01969,0.01969*
1,1,0.03937,0.01969,-0.01969*
1,1,0.03937,-0.01969,-0.01969*
%
%ADD18ROUNDEDRECTD18*%
%ADD19R,0.03937X0.03937*%
%ADD20C,0.05200*%
%ADD21R,0.05200X0.05200*%
%ADD22R,0.02000X0.02500*%
%ADD23R,0.06000X0.06000*%
%ADD24R,0.06000X0.05000*%
%ADD25R,0.15000X0.08500*%
%ADD26C,0.09700*%
%ADD27C,0.05000*%
%ADD28C,0.02000*%
%ADD29C,0.04000*%
%ADD30C,0.09100*%
G04:AMPARAMS|DCode=31|XSize=111mil|YSize=111mil|CornerRadius=0mil|HoleSize=0mil|Usage=FLASHONLY|Rotation=0.000|XOffset=0mil|YOffset=0mil|HoleType=Round|Shape=Relief|Width=10mil|Gap=10mil|Entries=4|*
%AMTHD31*
7,0,0,0.11100,0.09100,0.01000,45*
%
%ADD31THD31*%
%ADD32C,0.06913*%
%ADD33C,0.09315*%
%ADD34C,0.07800*%
%ADD35C,0.04800*%
G04:AMPARAMS|DCode=36|XSize=68mil|YSize=68mil|CornerRadius=0mil|HoleSize=0mil|Usage=FLASHONLY|Rotation=0.000|XOffset=0mil|YOffset=0mil|HoleType=Round|Shape=Relief|Width=10mil|Gap=10mil|Entries=4|*
%AMTHD36*
7,0,0,0.06800,0.04800,0.01000,45*
%
%ADD36THD36*%
%ADD37C,0.12500*%
G04:AMPARAMS|DCode=38|XSize=88mil|YSize=88mil|CornerRadius=0mil|HoleSize=0mil|Usage=FLASHONLY|Rotation=0.000|XOffset=0mil|YOffset=0mil|HoleType=Round|Shape=Relief|Width=10mil|Gap=10mil|Entries=4|*
%AMTHD38*
7,0,0,0.08800,0.06800,0.01000,45*
%
%ADD38THD38*%
%ADD39C,0.06800*%
%ADD40C,0.03000*%
%ADD41C,0.00600*%
G04:AMPARAMS|DCode=42|XSize=98mil|YSize=98mil|CornerRadius=0mil|HoleSize=0mil|Usage=FLASHONLY|Rotation=0.000|XOffset=0mil|YOffset=0mil|HoleType=Round|Shape=Relief|Width=10mil|Gap=10mil|Entries=4|*
%AMTHD42*
7,0,0,0.09800,0.07800,0.01000,45*
%
%ADD42THD42*%
%ADD43R,0.06102X0.01575*%
%ADD44C,0.01200*%
%ADD45C,0.00984*%
%ADD46C,0.00984*%
%ADD47C,0.00787*%
G36*
X85982Y91423D02*
X86412D01*
Y91064D01*
X85982D01*
Y90300D01*
X85588D01*
Y91064D01*
X84200D01*
Y91423D01*
X85660Y93498D01*
X85982D01*
Y91423D01*
D02*
G37*
G36*
X89062Y98507D02*
X89096D01*
X89134Y98504D01*
X89178Y98498D01*
X89227Y98489D01*
X89284Y98479D01*
X89340Y98464D01*
X89399Y98448D01*
X89461Y98426D01*
X89521Y98401D01*
X89583Y98373D01*
X89639Y98339D01*
X89695Y98298D01*
X89749Y98255D01*
X89752Y98251D01*
X89761Y98242D01*
X89773Y98230D01*
X89789Y98208D01*
X89811Y98183D01*
X89833Y98155D01*
X89858Y98120D01*
X89883Y98080D01*
X89908Y98036D01*
X89933Y97986D01*
X89954Y97936D01*
X89976Y97880D01*
X89992Y97821D01*
X90004Y97755D01*
X90014Y97690D01*
X90017Y97621D01*
Y97618D01*
Y97612D01*
Y97603D01*
Y97590D01*
X90014Y97571D01*
Y97553D01*
X90007Y97503D01*
X89998Y97447D01*
X89982Y97381D01*
X89964Y97312D01*
X89936Y97244D01*
Y97241D01*
X89933Y97234D01*
X89926Y97225D01*
X89920Y97213D01*
X89911Y97194D01*
X89901Y97175D01*
X89873Y97125D01*
X89839Y97069D01*
X89792Y97000D01*
X89739Y96929D01*
X89674Y96854D01*
X89670Y96851D01*
X89664Y96844D01*
X89655Y96832D01*
X89639Y96816D01*
X89617Y96794D01*
X89596Y96769D01*
X89564Y96741D01*
X89530Y96707D01*
X89493Y96670D01*
X89446Y96626D01*
X89399Y96579D01*
X89343Y96529D01*
X89284Y96476D01*
X89218Y96417D01*
X89146Y96358D01*
X89071Y96292D01*
X89068Y96289D01*
X89056Y96280D01*
X89037Y96264D01*
X89015Y96245D01*
X88987Y96220D01*
X88956Y96192D01*
X88881Y96130D01*
X88806Y96064D01*
X88731Y95999D01*
X88697Y95968D01*
X88666Y95937D01*
X88638Y95912D01*
X88616Y95890D01*
X88613Y95887D01*
X88600Y95871D01*
X88582Y95849D01*
X88557Y95824D01*
X88532Y95790D01*
X88504Y95755D01*
X88476Y95718D01*
X88451Y95678D01*
X90020D01*
Y95300D01*
X87908D01*
Y95303D01*
Y95306D01*
Y95325D01*
Y95350D01*
X87911Y95387D01*
X87917Y95428D01*
X87923Y95475D01*
X87936Y95521D01*
X87951Y95571D01*
Y95575D01*
X87954Y95581D01*
X87961Y95593D01*
X87967Y95609D01*
X87976Y95628D01*
X87986Y95649D01*
X88014Y95706D01*
X88051Y95771D01*
X88095Y95843D01*
X88148Y95918D01*
X88210Y95996D01*
X88213Y95999D01*
X88220Y96005D01*
X88229Y96018D01*
X88245Y96033D01*
X88263Y96052D01*
X88285Y96077D01*
X88310Y96105D01*
X88341Y96136D01*
X88376Y96167D01*
X88413Y96205D01*
X88457Y96245D01*
X88500Y96289D01*
X88550Y96333D01*
X88603Y96380D01*
X88663Y96429D01*
X88722Y96479D01*
X88728Y96486D01*
X88744Y96498D01*
X88772Y96520D01*
X88806Y96551D01*
X88850Y96585D01*
X88897Y96629D01*
X88950Y96676D01*
X89006Y96726D01*
X89125Y96835D01*
X89240Y96947D01*
X89293Y97004D01*
X89343Y97060D01*
X89390Y97110D01*
X89427Y97159D01*
X89430Y97163D01*
X89437Y97172D01*
X89446Y97184D01*
X89455Y97203D01*
X89471Y97225D01*
X89486Y97250D01*
X89502Y97281D01*
X89521Y97312D01*
X89555Y97384D01*
X89586Y97462D01*
X89596Y97506D01*
X89605Y97546D01*
X89611Y97590D01*
X89614Y97631D01*
Y97634D01*
Y97640D01*
Y97653D01*
X89611Y97671D01*
X89608Y97690D01*
X89605Y97712D01*
X89592Y97768D01*
X89574Y97830D01*
X89543Y97896D01*
X89524Y97927D01*
X89502Y97961D01*
X89477Y97993D01*
X89446Y98024D01*
X89443Y98027D01*
X89440Y98030D01*
X89427Y98039D01*
X89415Y98049D01*
X89399Y98061D01*
X89377Y98074D01*
X89355Y98089D01*
X89327Y98105D01*
X89299Y98120D01*
X89265Y98136D01*
X89190Y98161D01*
X89106Y98180D01*
X89059Y98183D01*
X89009Y98186D01*
X88981D01*
X88962Y98183D01*
X88937Y98180D01*
X88909Y98177D01*
X88878Y98170D01*
X88847Y98164D01*
X88772Y98145D01*
X88697Y98114D01*
X88660Y98096D01*
X88622Y98071D01*
X88588Y98046D01*
X88554Y98014D01*
X88550Y98011D01*
X88547Y98008D01*
X88538Y97996D01*
X88529Y97983D01*
X88516Y97968D01*
X88500Y97946D01*
X88485Y97921D01*
X88469Y97893D01*
X88454Y97861D01*
X88438Y97827D01*
X88426Y97787D01*
X88410Y97746D01*
X88401Y97702D01*
X88391Y97653D01*
X88388Y97603D01*
X88385Y97546D01*
X87983Y97587D01*
Y97593D01*
X87986Y97606D01*
X87989Y97631D01*
X87992Y97662D01*
X88001Y97699D01*
X88011Y97743D01*
X88023Y97790D01*
X88036Y97843D01*
X88054Y97896D01*
X88076Y97952D01*
X88101Y98008D01*
X88129Y98067D01*
X88164Y98124D01*
X88201Y98177D01*
X88245Y98227D01*
X88291Y98273D01*
X88295Y98277D01*
X88304Y98283D01*
X88319Y98295D01*
X88341Y98311D01*
X88369Y98330D01*
X88401Y98348D01*
X88441Y98370D01*
X88485Y98392D01*
X88535Y98414D01*
X88588Y98436D01*
X88647Y98454D01*
X88713Y98473D01*
X88781Y98489D01*
X88856Y98501D01*
X88934Y98507D01*
X89018Y98510D01*
X89040D01*
X89062Y98507D01*
D02*
G37*
G36*
X87869Y93507D02*
X87897Y93504D01*
X87928Y93501D01*
X87966Y93498D01*
X88003Y93489D01*
X88094Y93470D01*
X88187Y93439D01*
X88237Y93420D01*
X88287Y93398D01*
X88337Y93373D01*
X88387Y93342D01*
X88390Y93339D01*
X88399Y93336D01*
X88412Y93323D01*
X88431Y93311D01*
X88453Y93292D01*
X88477Y93273D01*
X88503Y93248D01*
X88534Y93220D01*
X88565Y93186D01*
X88596Y93152D01*
X88630Y93111D01*
X88662Y93067D01*
X88693Y93021D01*
X88724Y92971D01*
X88755Y92918D01*
X88780Y92861D01*
X88783Y92858D01*
X88786Y92846D01*
X88793Y92830D01*
X88802Y92805D01*
X88811Y92771D01*
X88824Y92734D01*
X88836Y92687D01*
X88849Y92634D01*
X88861Y92575D01*
X88871Y92506D01*
X88883Y92434D01*
X88893Y92353D01*
X88902Y92266D01*
X88908Y92172D01*
X88914Y92069D01*
Y91963D01*
Y91960D01*
Y91957D01*
Y91947D01*
Y91935D01*
Y91904D01*
X88911Y91863D01*
Y91810D01*
X88908Y91751D01*
X88902Y91685D01*
X88899Y91610D01*
X88889Y91536D01*
X88883Y91454D01*
X88858Y91292D01*
X88843Y91211D01*
X88824Y91133D01*
X88805Y91058D01*
X88780Y90986D01*
Y90983D01*
X88774Y90971D01*
X88768Y90952D01*
X88755Y90927D01*
X88740Y90896D01*
X88724Y90862D01*
X88705Y90824D01*
X88680Y90781D01*
X88624Y90693D01*
X88556Y90600D01*
X88477Y90512D01*
X88431Y90472D01*
X88384Y90434D01*
X88381Y90431D01*
X88371Y90425D01*
X88359Y90415D01*
X88337Y90406D01*
X88312Y90390D01*
X88281Y90375D01*
X88247Y90359D01*
X88209Y90341D01*
X88165Y90322D01*
X88119Y90306D01*
X88069Y90291D01*
X88013Y90275D01*
X87957Y90266D01*
X87897Y90256D01*
X87835Y90250D01*
X87769Y90247D01*
X87732D01*
X87707Y90250D01*
X87676Y90253D01*
X87638Y90259D01*
X87595Y90266D01*
X87551Y90272D01*
X87454Y90297D01*
X87401Y90312D01*
X87351Y90334D01*
X87298Y90356D01*
X87248Y90384D01*
X87201Y90415D01*
X87155Y90453D01*
X87151Y90456D01*
X87145Y90462D01*
X87133Y90475D01*
X87117Y90490D01*
X87098Y90512D01*
X87077Y90540D01*
X87055Y90568D01*
X87030Y90606D01*
X87005Y90643D01*
X86980Y90690D01*
X86958Y90737D01*
X86936Y90790D01*
X86914Y90846D01*
X86896Y90908D01*
X86883Y90974D01*
X86871Y91043D01*
X87248Y91077D01*
Y91074D01*
X87251Y91064D01*
X87255Y91052D01*
X87258Y91033D01*
X87264Y91011D01*
X87270Y90986D01*
X87289Y90927D01*
X87314Y90865D01*
X87345Y90799D01*
X87382Y90740D01*
X87404Y90712D01*
X87429Y90687D01*
X87432D01*
X87435Y90681D01*
X87454Y90668D01*
X87482Y90649D01*
X87523Y90628D01*
X87573Y90606D01*
X87632Y90587D01*
X87701Y90575D01*
X87775Y90568D01*
X87807D01*
X87841Y90571D01*
X87885Y90578D01*
X87932Y90587D01*
X87988Y90603D01*
X88041Y90621D01*
X88094Y90649D01*
X88097D01*
X88100Y90653D01*
X88116Y90665D01*
X88141Y90684D01*
X88172Y90709D01*
X88209Y90740D01*
X88247Y90777D01*
X88281Y90821D01*
X88315Y90871D01*
Y90874D01*
X88318Y90877D01*
X88325Y90887D01*
X88331Y90896D01*
X88346Y90927D01*
X88365Y90971D01*
X88390Y91024D01*
X88415Y91089D01*
X88440Y91161D01*
X88462Y91245D01*
Y91249D01*
X88465Y91255D01*
X88468Y91270D01*
X88471Y91286D01*
X88474Y91308D01*
X88481Y91333D01*
X88487Y91361D01*
X88493Y91395D01*
X88503Y91467D01*
X88512Y91548D01*
X88518Y91635D01*
X88521Y91726D01*
Y91732D01*
Y91748D01*
Y91769D01*
Y91801D01*
X88515Y91795D01*
X88509Y91785D01*
X88499Y91773D01*
X88474Y91738D01*
X88437Y91695D01*
X88390Y91648D01*
X88334Y91598D01*
X88269Y91548D01*
X88197Y91501D01*
X88194D01*
X88187Y91495D01*
X88178Y91492D01*
X88162Y91483D01*
X88144Y91473D01*
X88119Y91464D01*
X88094Y91454D01*
X88066Y91445D01*
X88000Y91423D01*
X87925Y91404D01*
X87844Y91392D01*
X87757Y91386D01*
X87738D01*
X87719Y91389D01*
X87691D01*
X87657Y91395D01*
X87616Y91401D01*
X87573Y91411D01*
X87526Y91423D01*
X87473Y91436D01*
X87420Y91454D01*
X87364Y91479D01*
X87308Y91507D01*
X87251Y91539D01*
X87195Y91579D01*
X87139Y91623D01*
X87086Y91673D01*
X87083Y91676D01*
X87073Y91685D01*
X87061Y91704D01*
X87042Y91726D01*
X87024Y91754D01*
X86999Y91788D01*
X86974Y91829D01*
X86949Y91876D01*
X86924Y91926D01*
X86899Y91985D01*
X86874Y92047D01*
X86855Y92113D01*
X86836Y92188D01*
X86824Y92263D01*
X86815Y92344D01*
X86811Y92431D01*
Y92437D01*
Y92453D01*
X86815Y92478D01*
Y92512D01*
X86821Y92553D01*
X86827Y92599D01*
X86836Y92652D01*
X86846Y92712D01*
X86861Y92771D01*
X86880Y92837D01*
X86905Y92902D01*
X86930Y92968D01*
X86964Y93033D01*
X87002Y93095D01*
X87045Y93158D01*
X87095Y93214D01*
X87098Y93217D01*
X87108Y93227D01*
X87123Y93242D01*
X87148Y93261D01*
X87177Y93283D01*
X87208Y93308D01*
X87248Y93336D01*
X87292Y93364D01*
X87342Y93389D01*
X87398Y93417D01*
X87457Y93442D01*
X87520Y93464D01*
X87588Y93482D01*
X87660Y93498D01*
X87738Y93507D01*
X87816Y93511D01*
X87847D01*
X87869Y93507D01*
D02*
G37*
G36*
X89963Y90300D02*
X89517D01*
Y90746D01*
X89963D01*
Y90300D01*
D02*
G37*
G36*
X68288Y110283D02*
X67006D01*
X66834Y109419D01*
X66837Y109422D01*
X66847Y109428D01*
X66862Y109438D01*
X66884Y109450D01*
X66909Y109466D01*
X66943Y109484D01*
X66978Y109500D01*
X67018Y109522D01*
X67062Y109540D01*
X67109Y109556D01*
X67212Y109590D01*
X67265Y109603D01*
X67321Y109612D01*
X67380Y109618D01*
X67439Y109622D01*
X67458D01*
X67480Y109618D01*
X67511D01*
X67545Y109612D01*
X67589Y109606D01*
X67636Y109597D01*
X67686Y109584D01*
X67739Y109569D01*
X67798Y109550D01*
X67857Y109528D01*
X67917Y109500D01*
X67976Y109466D01*
X68035Y109428D01*
X68091Y109381D01*
X68148Y109331D01*
X68151Y109328D01*
X68160Y109319D01*
X68176Y109300D01*
X68194Y109278D01*
X68216Y109250D01*
X68238Y109216D01*
X68266Y109175D01*
X68294Y109129D01*
X68319Y109079D01*
X68347Y109023D01*
X68369Y108960D01*
X68394Y108895D01*
X68410Y108823D01*
X68425Y108748D01*
X68435Y108667D01*
X68438Y108583D01*
Y108576D01*
Y108564D01*
X68435Y108542D01*
Y108511D01*
X68432Y108473D01*
X68425Y108430D01*
X68416Y108380D01*
X68406Y108327D01*
X68391Y108271D01*
X68375Y108208D01*
X68353Y108146D01*
X68328Y108083D01*
X68300Y108021D01*
X68266Y107956D01*
X68226Y107893D01*
X68182Y107834D01*
X68179Y107831D01*
X68166Y107818D01*
X68151Y107799D01*
X68126Y107775D01*
X68094Y107743D01*
X68057Y107712D01*
X68013Y107678D01*
X67963Y107640D01*
X67904Y107603D01*
X67842Y107569D01*
X67773Y107537D01*
X67698Y107506D01*
X67617Y107481D01*
X67533Y107463D01*
X67439Y107450D01*
X67343Y107447D01*
X67324D01*
X67302Y107450D01*
X67271D01*
X67233Y107453D01*
X67190Y107459D01*
X67143Y107469D01*
X67090Y107478D01*
X67034Y107491D01*
X66978Y107506D01*
X66918Y107525D01*
X66856Y107550D01*
X66797Y107578D01*
X66737Y107609D01*
X66681Y107647D01*
X66628Y107690D01*
X66625Y107693D01*
X66616Y107703D01*
X66603Y107715D01*
X66584Y107734D01*
X66563Y107759D01*
X66541Y107790D01*
X66513Y107825D01*
X66488Y107862D01*
X66460Y107906D01*
X66432Y107956D01*
X66407Y108009D01*
X66382Y108068D01*
X66360Y108130D01*
X66341Y108196D01*
X66325Y108264D01*
X66316Y108339D01*
X66728Y108374D01*
Y108370D01*
X66731Y108361D01*
X66734Y108345D01*
X66737Y108324D01*
X66744Y108299D01*
X66750Y108271D01*
X66772Y108202D01*
X66800Y108130D01*
X66834Y108055D01*
X66881Y107981D01*
X66909Y107949D01*
X66937Y107918D01*
X66940Y107915D01*
X66946Y107912D01*
X66956Y107906D01*
X66968Y107896D01*
X66984Y107884D01*
X67002Y107871D01*
X67052Y107843D01*
X67112Y107815D01*
X67180Y107793D01*
X67258Y107775D01*
X67299Y107771D01*
X67343Y107768D01*
X67371D01*
X67389Y107771D01*
X67414Y107775D01*
X67442Y107781D01*
X67474Y107787D01*
X67508Y107796D01*
X67586Y107821D01*
X67623Y107837D01*
X67664Y107859D01*
X67704Y107884D01*
X67745Y107912D01*
X67786Y107943D01*
X67823Y107981D01*
X67826Y107984D01*
X67832Y107990D01*
X67842Y108002D01*
X67854Y108021D01*
X67870Y108040D01*
X67886Y108068D01*
X67904Y108099D01*
X67923Y108133D01*
X67939Y108171D01*
X67957Y108214D01*
X67973Y108261D01*
X67988Y108311D01*
X68001Y108364D01*
X68010Y108423D01*
X68016Y108483D01*
X68020Y108548D01*
Y108551D01*
Y108564D01*
Y108580D01*
X68016Y108605D01*
X68013Y108633D01*
X68010Y108664D01*
X68004Y108701D01*
X67995Y108742D01*
X67973Y108826D01*
X67957Y108870D01*
X67939Y108913D01*
X67917Y108957D01*
X67892Y109001D01*
X67864Y109041D01*
X67829Y109079D01*
X67826Y109082D01*
X67820Y109088D01*
X67811Y109097D01*
X67795Y109110D01*
X67776Y109125D01*
X67754Y109141D01*
X67726Y109160D01*
X67698Y109179D01*
X67664Y109194D01*
X67627Y109213D01*
X67586Y109229D01*
X67542Y109244D01*
X67492Y109257D01*
X67442Y109266D01*
X67389Y109272D01*
X67333Y109275D01*
X67302D01*
X67283Y109272D01*
X67265D01*
X67218Y109266D01*
X67165Y109253D01*
X67109Y109238D01*
X67049Y109216D01*
X66990Y109188D01*
X66987D01*
X66984Y109185D01*
X66965Y109172D01*
X66937Y109154D01*
X66906Y109129D01*
X66865Y109094D01*
X66828Y109057D01*
X66787Y109013D01*
X66753Y108966D01*
X66385Y109013D01*
X66694Y110657D01*
X68288D01*
Y110283D01*
D02*
G37*
G36*
X61958Y110707D02*
X61992D01*
X62029Y110704D01*
X62073Y110698D01*
X62123Y110689D01*
X62179Y110679D01*
X62235Y110664D01*
X62294Y110648D01*
X62357Y110626D01*
X62416Y110601D01*
X62479Y110573D01*
X62535Y110539D01*
X62591Y110498D01*
X62644Y110455D01*
X62647Y110451D01*
X62656Y110442D01*
X62669Y110430D01*
X62684Y110408D01*
X62706Y110383D01*
X62728Y110355D01*
X62753Y110320D01*
X62778Y110280D01*
X62803Y110236D01*
X62828Y110186D01*
X62850Y110136D01*
X62872Y110080D01*
X62887Y110021D01*
X62900Y109955D01*
X62909Y109890D01*
X62912Y109821D01*
Y109818D01*
Y109812D01*
Y109803D01*
Y109790D01*
X62909Y109771D01*
Y109753D01*
X62903Y109703D01*
X62893Y109647D01*
X62878Y109581D01*
X62859Y109512D01*
X62831Y109444D01*
Y109441D01*
X62828Y109434D01*
X62822Y109425D01*
X62815Y109413D01*
X62806Y109394D01*
X62797Y109375D01*
X62769Y109325D01*
X62734Y109269D01*
X62688Y109200D01*
X62634Y109129D01*
X62569Y109054D01*
X62566Y109051D01*
X62560Y109044D01*
X62550Y109032D01*
X62535Y109016D01*
X62513Y108994D01*
X62491Y108969D01*
X62460Y108941D01*
X62426Y108907D01*
X62388Y108870D01*
X62341Y108826D01*
X62294Y108779D01*
X62238Y108729D01*
X62179Y108676D01*
X62113Y108617D01*
X62042Y108558D01*
X61967Y108492D01*
X61964Y108489D01*
X61951Y108480D01*
X61932Y108464D01*
X61911Y108445D01*
X61883Y108420D01*
X61851Y108392D01*
X61777Y108330D01*
X61702Y108264D01*
X61627Y108199D01*
X61592Y108168D01*
X61561Y108136D01*
X61533Y108112D01*
X61511Y108090D01*
X61508Y108087D01*
X61496Y108071D01*
X61477Y108049D01*
X61452Y108024D01*
X61427Y107990D01*
X61399Y107956D01*
X61371Y107918D01*
X61346Y107878D01*
X62915D01*
Y107500D01*
X60803D01*
Y107503D01*
Y107506D01*
Y107525D01*
Y107550D01*
X60806Y107587D01*
X60812Y107628D01*
X60819Y107675D01*
X60831Y107721D01*
X60847Y107771D01*
Y107775D01*
X60850Y107781D01*
X60856Y107793D01*
X60862Y107809D01*
X60872Y107828D01*
X60881Y107849D01*
X60909Y107906D01*
X60947Y107971D01*
X60990Y108043D01*
X61043Y108118D01*
X61106Y108196D01*
X61109Y108199D01*
X61115Y108205D01*
X61124Y108218D01*
X61140Y108233D01*
X61159Y108252D01*
X61181Y108277D01*
X61206Y108305D01*
X61237Y108336D01*
X61271Y108367D01*
X61308Y108405D01*
X61352Y108445D01*
X61396Y108489D01*
X61446Y108533D01*
X61499Y108580D01*
X61558Y108629D01*
X61617Y108679D01*
X61624Y108686D01*
X61639Y108698D01*
X61667Y108720D01*
X61702Y108751D01*
X61745Y108785D01*
X61792Y108829D01*
X61845Y108876D01*
X61901Y108926D01*
X62020Y109035D01*
X62135Y109147D01*
X62188Y109204D01*
X62238Y109260D01*
X62285Y109310D01*
X62322Y109360D01*
X62326Y109363D01*
X62332Y109372D01*
X62341Y109385D01*
X62351Y109403D01*
X62366Y109425D01*
X62382Y109450D01*
X62397Y109481D01*
X62416Y109512D01*
X62450Y109584D01*
X62482Y109662D01*
X62491Y109706D01*
X62500Y109746D01*
X62507Y109790D01*
X62510Y109831D01*
Y109834D01*
Y109840D01*
Y109853D01*
X62507Y109871D01*
X62503Y109890D01*
X62500Y109912D01*
X62488Y109968D01*
X62469Y110030D01*
X62438Y110096D01*
X62419Y110127D01*
X62397Y110161D01*
X62372Y110193D01*
X62341Y110224D01*
X62338Y110227D01*
X62335Y110230D01*
X62322Y110239D01*
X62310Y110249D01*
X62294Y110261D01*
X62273Y110274D01*
X62251Y110289D01*
X62223Y110305D01*
X62195Y110320D01*
X62160Y110336D01*
X62085Y110361D01*
X62001Y110380D01*
X61954Y110383D01*
X61904Y110386D01*
X61876D01*
X61858Y110383D01*
X61833Y110380D01*
X61805Y110377D01*
X61773Y110370D01*
X61742Y110364D01*
X61667Y110345D01*
X61592Y110314D01*
X61555Y110295D01*
X61518Y110271D01*
X61483Y110246D01*
X61449Y110214D01*
X61446Y110211D01*
X61443Y110208D01*
X61433Y110196D01*
X61424Y110183D01*
X61411Y110168D01*
X61396Y110146D01*
X61380Y110121D01*
X61365Y110093D01*
X61349Y110062D01*
X61334Y110027D01*
X61321Y109987D01*
X61305Y109946D01*
X61296Y109902D01*
X61287Y109853D01*
X61284Y109803D01*
X61280Y109746D01*
X60878Y109787D01*
Y109793D01*
X60881Y109806D01*
X60884Y109831D01*
X60887Y109862D01*
X60897Y109899D01*
X60906Y109943D01*
X60918Y109990D01*
X60931Y110043D01*
X60950Y110096D01*
X60972Y110152D01*
X60997Y110208D01*
X61025Y110267D01*
X61059Y110324D01*
X61096Y110377D01*
X61140Y110427D01*
X61187Y110473D01*
X61190Y110477D01*
X61199Y110483D01*
X61215Y110495D01*
X61237Y110511D01*
X61265Y110529D01*
X61296Y110548D01*
X61337Y110570D01*
X61380Y110592D01*
X61430Y110614D01*
X61483Y110636D01*
X61542Y110654D01*
X61608Y110673D01*
X61677Y110689D01*
X61752Y110701D01*
X61830Y110707D01*
X61914Y110711D01*
X61936D01*
X61958Y110707D01*
D02*
G37*
G36*
X86423Y98495D02*
X86463D01*
X86510Y98492D01*
X86557Y98489D01*
X86663Y98476D01*
X86772Y98461D01*
X86875Y98439D01*
X86922Y98426D01*
X86965Y98411D01*
X86969D01*
X86975Y98408D01*
X86987Y98401D01*
X87003Y98395D01*
X87022Y98383D01*
X87043Y98370D01*
X87093Y98339D01*
X87150Y98298D01*
X87209Y98245D01*
X87268Y98180D01*
X87321Y98105D01*
X87324Y98102D01*
X87327Y98096D01*
X87334Y98083D01*
X87343Y98067D01*
X87352Y98046D01*
X87365Y98021D01*
X87377Y97996D01*
X87390Y97965D01*
X87412Y97893D01*
X87433Y97812D01*
X87449Y97721D01*
X87455Y97674D01*
Y97624D01*
Y97621D01*
Y97609D01*
Y97590D01*
X87452Y97568D01*
X87449Y97537D01*
X87443Y97506D01*
X87437Y97465D01*
X87427Y97425D01*
X87415Y97381D01*
X87402Y97334D01*
X87384Y97287D01*
X87362Y97237D01*
X87337Y97191D01*
X87305Y97141D01*
X87274Y97094D01*
X87234Y97050D01*
X87231Y97047D01*
X87224Y97041D01*
X87212Y97028D01*
X87193Y97013D01*
X87168Y96994D01*
X87140Y96972D01*
X87106Y96951D01*
X87065Y96925D01*
X87022Y96901D01*
X86972Y96876D01*
X86915Y96851D01*
X86853Y96826D01*
X86788Y96804D01*
X86716Y96785D01*
X86638Y96766D01*
X86554Y96754D01*
X86557D01*
X86560Y96751D01*
X86569Y96745D01*
X86582Y96741D01*
X86613Y96723D01*
X86650Y96704D01*
X86691Y96679D01*
X86731Y96654D01*
X86772Y96623D01*
X86809Y96595D01*
X86813Y96592D01*
X86819Y96589D01*
X86828Y96576D01*
X86841Y96564D01*
X86856Y96548D01*
X86875Y96526D01*
X86897Y96504D01*
X86922Y96476D01*
X86975Y96414D01*
X87034Y96342D01*
X87097Y96258D01*
X87159Y96167D01*
X87711Y95300D01*
X87184D01*
X86760Y95965D01*
X86756Y95968D01*
X86750Y95977D01*
X86741Y95993D01*
X86728Y96011D01*
X86713Y96036D01*
X86694Y96064D01*
X86653Y96127D01*
X86603Y96199D01*
X86554Y96270D01*
X86501Y96342D01*
X86479Y96373D01*
X86454Y96404D01*
Y96408D01*
X86448Y96411D01*
X86435Y96429D01*
X86410Y96457D01*
X86382Y96489D01*
X86348Y96523D01*
X86313Y96557D01*
X86276Y96592D01*
X86238Y96617D01*
X86235Y96620D01*
X86223Y96626D01*
X86204Y96639D01*
X86179Y96651D01*
X86151Y96667D01*
X86120Y96679D01*
X86086Y96695D01*
X86048Y96704D01*
X86045D01*
X86036Y96707D01*
X86017Y96710D01*
X85992Y96713D01*
X85961D01*
X85920Y96716D01*
X85870Y96720D01*
X85324D01*
Y95300D01*
X84900D01*
Y98498D01*
X86388D01*
X86423Y98495D01*
D02*
G37*
G36*
X64722Y109400D02*
X66123Y107500D01*
X65564D01*
X64425Y109113D01*
X63904Y108608D01*
Y107500D01*
X63480D01*
Y110698D01*
X63904D01*
Y109113D01*
X65489Y110698D01*
X66063D01*
X64722Y109400D01*
D02*
G37*
G36*
X94083Y143307D02*
X94117D01*
X94155Y143304D01*
X94198Y143298D01*
X94248Y143289D01*
X94304Y143279D01*
X94361Y143264D01*
X94420Y143248D01*
X94482Y143226D01*
X94541Y143201D01*
X94604Y143173D01*
X94660Y143139D01*
X94716Y143098D01*
X94769Y143055D01*
X94772Y143052D01*
X94782Y143042D01*
X94794Y143030D01*
X94810Y143008D01*
X94832Y142983D01*
X94853Y142955D01*
X94878Y142920D01*
X94903Y142880D01*
X94928Y142836D01*
X94953Y142786D01*
X94975Y142736D01*
X94997Y142680D01*
X95013Y142621D01*
X95025Y142555D01*
X95034Y142490D01*
X95038Y142421D01*
Y142418D01*
Y142412D01*
Y142403D01*
Y142390D01*
X95034Y142371D01*
Y142353D01*
X95028Y142303D01*
X95019Y142247D01*
X95003Y142181D01*
X94985Y142112D01*
X94956Y142044D01*
Y142041D01*
X94953Y142034D01*
X94947Y142025D01*
X94941Y142013D01*
X94931Y141994D01*
X94922Y141975D01*
X94894Y141925D01*
X94860Y141869D01*
X94813Y141800D01*
X94760Y141729D01*
X94694Y141654D01*
X94691Y141651D01*
X94685Y141644D01*
X94676Y141632D01*
X94660Y141616D01*
X94638Y141595D01*
X94616Y141569D01*
X94585Y141541D01*
X94551Y141507D01*
X94513Y141470D01*
X94467Y141426D01*
X94420Y141379D01*
X94364Y141329D01*
X94304Y141276D01*
X94239Y141217D01*
X94167Y141158D01*
X94092Y141092D01*
X94089Y141089D01*
X94077Y141080D01*
X94058Y141064D01*
X94036Y141045D01*
X94008Y141020D01*
X93977Y140992D01*
X93902Y140930D01*
X93827Y140864D01*
X93752Y140799D01*
X93718Y140768D01*
X93687Y140736D01*
X93659Y140711D01*
X93637Y140690D01*
X93634Y140687D01*
X93621Y140671D01*
X93602Y140649D01*
X93577Y140624D01*
X93552Y140590D01*
X93524Y140556D01*
X93496Y140518D01*
X93471Y140478D01*
X95041D01*
Y140100D01*
X92928D01*
Y140103D01*
Y140106D01*
Y140125D01*
Y140150D01*
X92931Y140187D01*
X92938Y140228D01*
X92944Y140275D01*
X92957Y140322D01*
X92972Y140371D01*
Y140375D01*
X92975Y140381D01*
X92981Y140393D01*
X92988Y140409D01*
X92997Y140428D01*
X93006Y140449D01*
X93034Y140506D01*
X93072Y140571D01*
X93116Y140643D01*
X93169Y140718D01*
X93231Y140796D01*
X93234Y140799D01*
X93240Y140805D01*
X93250Y140818D01*
X93265Y140833D01*
X93284Y140852D01*
X93306Y140877D01*
X93331Y140905D01*
X93362Y140936D01*
X93396Y140967D01*
X93434Y141005D01*
X93477Y141045D01*
X93521Y141089D01*
X93571Y141133D01*
X93624Y141180D01*
X93683Y141229D01*
X93743Y141279D01*
X93749Y141286D01*
X93765Y141298D01*
X93793Y141320D01*
X93827Y141351D01*
X93871Y141385D01*
X93917Y141429D01*
X93971Y141476D01*
X94027Y141526D01*
X94145Y141635D01*
X94261Y141747D01*
X94314Y141804D01*
X94364Y141860D01*
X94410Y141910D01*
X94448Y141960D01*
X94451Y141963D01*
X94457Y141972D01*
X94467Y141984D01*
X94476Y142003D01*
X94491Y142025D01*
X94507Y142050D01*
X94523Y142081D01*
X94541Y142112D01*
X94576Y142184D01*
X94607Y142262D01*
X94616Y142306D01*
X94626Y142346D01*
X94632Y142390D01*
X94635Y142431D01*
Y142434D01*
Y142440D01*
Y142453D01*
X94632Y142471D01*
X94629Y142490D01*
X94626Y142512D01*
X94613Y142568D01*
X94595Y142630D01*
X94563Y142696D01*
X94545Y142727D01*
X94523Y142761D01*
X94498Y142793D01*
X94467Y142824D01*
X94463Y142827D01*
X94460Y142830D01*
X94448Y142839D01*
X94435Y142849D01*
X94420Y142861D01*
X94398Y142874D01*
X94376Y142889D01*
X94348Y142905D01*
X94320Y142920D01*
X94286Y142936D01*
X94211Y142961D01*
X94126Y142980D01*
X94080Y142983D01*
X94030Y142986D01*
X94002D01*
X93983Y142983D01*
X93958Y142980D01*
X93930Y142977D01*
X93899Y142970D01*
X93867Y142964D01*
X93793Y142945D01*
X93718Y142914D01*
X93680Y142895D01*
X93643Y142871D01*
X93609Y142846D01*
X93574Y142814D01*
X93571Y142811D01*
X93568Y142808D01*
X93559Y142796D01*
X93549Y142783D01*
X93537Y142768D01*
X93521Y142746D01*
X93506Y142721D01*
X93490Y142693D01*
X93474Y142661D01*
X93459Y142627D01*
X93446Y142587D01*
X93431Y142546D01*
X93421Y142502D01*
X93412Y142453D01*
X93409Y142403D01*
X93406Y142346D01*
X93003Y142387D01*
Y142393D01*
X93006Y142406D01*
X93010Y142431D01*
X93013Y142462D01*
X93022Y142499D01*
X93031Y142543D01*
X93044Y142590D01*
X93056Y142643D01*
X93075Y142696D01*
X93097Y142752D01*
X93122Y142808D01*
X93150Y142867D01*
X93184Y142924D01*
X93222Y142977D01*
X93265Y143027D01*
X93312Y143073D01*
X93315Y143077D01*
X93325Y143083D01*
X93340Y143095D01*
X93362Y143111D01*
X93390Y143130D01*
X93421Y143148D01*
X93462Y143170D01*
X93506Y143192D01*
X93555Y143214D01*
X93609Y143236D01*
X93668Y143254D01*
X93733Y143273D01*
X93802Y143289D01*
X93877Y143301D01*
X93955Y143307D01*
X94039Y143310D01*
X94061D01*
X94083Y143307D01*
D02*
G37*
G36*
X92404Y140100D02*
X91958D01*
Y140546D01*
X92404D01*
Y140100D01*
D02*
G37*
G36*
X96713Y142468D02*
X96735D01*
X96788Y142462D01*
X96847Y142453D01*
X96909Y142437D01*
X96978Y142418D01*
X97044Y142393D01*
X97047D01*
X97050Y142390D01*
X97059Y142387D01*
X97072Y142381D01*
X97103Y142362D01*
X97144Y142340D01*
X97184Y142312D01*
X97228Y142278D01*
X97268Y142240D01*
X97306Y142197D01*
X97309Y142190D01*
X97321Y142175D01*
X97337Y142150D01*
X97356Y142115D01*
X97374Y142072D01*
X97396Y142022D01*
X97415Y141969D01*
X97431Y141906D01*
Y141900D01*
X97434Y141885D01*
X97437Y141857D01*
X97440Y141838D01*
X97443Y141819D01*
Y141794D01*
X97446Y141766D01*
Y141735D01*
X97449Y141697D01*
Y141660D01*
X97452Y141619D01*
Y141573D01*
Y141523D01*
Y140100D01*
X97059D01*
Y141510D01*
Y141513D01*
Y141520D01*
Y141532D01*
Y141551D01*
Y141569D01*
X97056Y141591D01*
X97053Y141644D01*
X97047Y141704D01*
X97041Y141763D01*
X97028Y141819D01*
X97013Y141869D01*
X97009Y141875D01*
X97003Y141888D01*
X96991Y141910D01*
X96975Y141938D01*
X96953Y141969D01*
X96925Y142000D01*
X96891Y142031D01*
X96850Y142059D01*
X96844Y142062D01*
X96828Y142072D01*
X96807Y142081D01*
X96772Y142097D01*
X96732Y142109D01*
X96685Y142119D01*
X96632Y142128D01*
X96576Y142131D01*
X96551D01*
X96535Y142128D01*
X96513Y142125D01*
X96488Y142122D01*
X96429Y142112D01*
X96360Y142091D01*
X96289Y142062D01*
X96251Y142044D01*
X96217Y142022D01*
X96179Y141997D01*
X96145Y141969D01*
X96142Y141966D01*
X96139Y141963D01*
X96130Y141950D01*
X96117Y141938D01*
X96105Y141919D01*
X96089Y141894D01*
X96070Y141866D01*
X96055Y141835D01*
X96039Y141797D01*
X96020Y141754D01*
X96005Y141704D01*
X95992Y141648D01*
X95980Y141588D01*
X95973Y141520D01*
X95967Y141448D01*
X95964Y141367D01*
Y140100D01*
X95571D01*
Y142418D01*
X95924D01*
Y142087D01*
X95927Y142091D01*
X95936Y142103D01*
X95952Y142122D01*
X95970Y142147D01*
X95999Y142178D01*
X96030Y142209D01*
X96067Y142243D01*
X96111Y142281D01*
X96161Y142315D01*
X96214Y142350D01*
X96276Y142384D01*
X96342Y142412D01*
X96413Y142437D01*
X96488Y142456D01*
X96573Y142468D01*
X96660Y142471D01*
X96694D01*
X96713Y142468D01*
D02*
G37*
G36*
X100285Y142920D02*
X98551D01*
Y141931D01*
X100051D01*
Y141554D01*
X98551D01*
Y140100D01*
X98126D01*
Y143298D01*
X100285D01*
Y142920D01*
D02*
G37*
G36*
X72067Y140100D02*
X71674D01*
Y142599D01*
X71671D01*
X71668Y142593D01*
X71659Y142587D01*
X71649Y142577D01*
X71618Y142549D01*
X71575Y142515D01*
X71522Y142474D01*
X71456Y142428D01*
X71381Y142378D01*
X71300Y142328D01*
X71297D01*
X71291Y142321D01*
X71278Y142315D01*
X71263Y142306D01*
X71241Y142293D01*
X71219Y142281D01*
X71163Y142253D01*
X71100Y142222D01*
X71032Y142187D01*
X70960Y142156D01*
X70891Y142128D01*
Y142506D01*
X70894Y142509D01*
X70907Y142512D01*
X70922Y142521D01*
X70947Y142534D01*
X70976Y142549D01*
X71007Y142568D01*
X71044Y142587D01*
X71085Y142612D01*
X71175Y142665D01*
X71272Y142730D01*
X71369Y142802D01*
X71465Y142880D01*
X71469Y142883D01*
X71475Y142889D01*
X71490Y142902D01*
X71506Y142917D01*
X71525Y142939D01*
X71550Y142961D01*
X71575Y142989D01*
X71603Y143017D01*
X71659Y143083D01*
X71715Y143155D01*
X71768Y143233D01*
X71793Y143270D01*
X71812Y143310D01*
X72067D01*
Y140100D01*
D02*
G37*
G36*
X91594Y93507D02*
X91623Y93504D01*
X91654Y93501D01*
X91691Y93498D01*
X91729Y93489D01*
X91819Y93470D01*
X91913Y93439D01*
X91963Y93420D01*
X92013Y93398D01*
X92062Y93373D01*
X92112Y93342D01*
X92115Y93339D01*
X92125Y93336D01*
X92137Y93323D01*
X92156Y93311D01*
X92178Y93292D01*
X92203Y93273D01*
X92228Y93248D01*
X92259Y93220D01*
X92290Y93186D01*
X92321Y93152D01*
X92356Y93111D01*
X92387Y93067D01*
X92418Y93021D01*
X92449Y92971D01*
X92480Y92918D01*
X92505Y92861D01*
X92509Y92858D01*
X92512Y92846D01*
X92518Y92830D01*
X92527Y92805D01*
X92537Y92771D01*
X92549Y92734D01*
X92562Y92687D01*
X92574Y92634D01*
X92587Y92575D01*
X92596Y92506D01*
X92608Y92434D01*
X92618Y92353D01*
X92627Y92266D01*
X92633Y92172D01*
X92640Y92069D01*
Y91963D01*
Y91960D01*
Y91957D01*
Y91947D01*
Y91935D01*
Y91904D01*
X92637Y91863D01*
Y91810D01*
X92633Y91751D01*
X92627Y91685D01*
X92624Y91610D01*
X92615Y91536D01*
X92608Y91454D01*
X92583Y91292D01*
X92568Y91211D01*
X92549Y91133D01*
X92530Y91058D01*
X92505Y90986D01*
Y90983D01*
X92499Y90971D01*
X92493Y90952D01*
X92480Y90927D01*
X92465Y90896D01*
X92449Y90862D01*
X92431Y90824D01*
X92406Y90781D01*
X92349Y90693D01*
X92281Y90600D01*
X92203Y90512D01*
X92156Y90472D01*
X92109Y90434D01*
X92106Y90431D01*
X92097Y90425D01*
X92084Y90415D01*
X92062Y90406D01*
X92037Y90390D01*
X92006Y90375D01*
X91972Y90359D01*
X91935Y90341D01*
X91891Y90322D01*
X91844Y90306D01*
X91794Y90291D01*
X91738Y90275D01*
X91682Y90266D01*
X91623Y90256D01*
X91560Y90250D01*
X91495Y90247D01*
X91457D01*
X91432Y90250D01*
X91401Y90253D01*
X91364Y90259D01*
X91320Y90266D01*
X91276Y90272D01*
X91179Y90297D01*
X91126Y90312D01*
X91076Y90334D01*
X91023Y90356D01*
X90974Y90384D01*
X90927Y90415D01*
X90880Y90453D01*
X90877Y90456D01*
X90871Y90462D01*
X90858Y90475D01*
X90842Y90490D01*
X90824Y90512D01*
X90802Y90540D01*
X90780Y90568D01*
X90755Y90606D01*
X90730Y90643D01*
X90705Y90690D01*
X90683Y90737D01*
X90662Y90790D01*
X90640Y90846D01*
X90621Y90908D01*
X90609Y90974D01*
X90596Y91043D01*
X90974Y91077D01*
Y91074D01*
X90977Y91064D01*
X90980Y91052D01*
X90983Y91033D01*
X90989Y91011D01*
X90995Y90986D01*
X91014Y90927D01*
X91039Y90865D01*
X91070Y90799D01*
X91108Y90740D01*
X91129Y90712D01*
X91154Y90687D01*
X91158D01*
X91161Y90681D01*
X91179Y90668D01*
X91207Y90649D01*
X91248Y90628D01*
X91298Y90606D01*
X91357Y90587D01*
X91426Y90575D01*
X91501Y90568D01*
X91532D01*
X91566Y90571D01*
X91610Y90578D01*
X91657Y90587D01*
X91713Y90603D01*
X91766Y90621D01*
X91819Y90649D01*
X91822D01*
X91825Y90653D01*
X91841Y90665D01*
X91866Y90684D01*
X91897Y90709D01*
X91935Y90740D01*
X91972Y90777D01*
X92006Y90821D01*
X92041Y90871D01*
Y90874D01*
X92044Y90877D01*
X92050Y90887D01*
X92056Y90896D01*
X92072Y90927D01*
X92090Y90971D01*
X92115Y91024D01*
X92140Y91089D01*
X92165Y91161D01*
X92187Y91245D01*
Y91249D01*
X92190Y91255D01*
X92193Y91270D01*
X92197Y91286D01*
X92200Y91308D01*
X92206Y91333D01*
X92212Y91361D01*
X92218Y91395D01*
X92228Y91467D01*
X92237Y91548D01*
X92243Y91635D01*
X92247Y91726D01*
Y91732D01*
Y91748D01*
Y91769D01*
Y91801D01*
X92240Y91795D01*
X92234Y91785D01*
X92225Y91773D01*
X92200Y91738D01*
X92162Y91695D01*
X92115Y91648D01*
X92059Y91598D01*
X91994Y91548D01*
X91922Y91501D01*
X91919D01*
X91913Y91495D01*
X91903Y91492D01*
X91888Y91483D01*
X91869Y91473D01*
X91844Y91464D01*
X91819Y91454D01*
X91791Y91445D01*
X91725Y91423D01*
X91651Y91404D01*
X91569Y91392D01*
X91482Y91386D01*
X91463D01*
X91445Y91389D01*
X91417D01*
X91382Y91395D01*
X91342Y91401D01*
X91298Y91411D01*
X91251Y91423D01*
X91198Y91436D01*
X91145Y91454D01*
X91089Y91479D01*
X91033Y91507D01*
X90977Y91539D01*
X90921Y91579D01*
X90864Y91623D01*
X90811Y91673D01*
X90808Y91676D01*
X90799Y91685D01*
X90786Y91704D01*
X90768Y91726D01*
X90749Y91754D01*
X90724Y91788D01*
X90699Y91829D01*
X90674Y91876D01*
X90649Y91926D01*
X90624Y91985D01*
X90599Y92047D01*
X90580Y92113D01*
X90562Y92188D01*
X90549Y92263D01*
X90540Y92344D01*
X90537Y92431D01*
Y92437D01*
Y92453D01*
X90540Y92478D01*
Y92512D01*
X90546Y92553D01*
X90552Y92599D01*
X90562Y92652D01*
X90571Y92712D01*
X90587Y92771D01*
X90605Y92837D01*
X90630Y92902D01*
X90655Y92968D01*
X90690Y93033D01*
X90727Y93095D01*
X90771Y93158D01*
X90821Y93214D01*
X90824Y93217D01*
X90833Y93227D01*
X90849Y93242D01*
X90874Y93261D01*
X90902Y93283D01*
X90933Y93308D01*
X90974Y93336D01*
X91017Y93364D01*
X91067Y93389D01*
X91123Y93417D01*
X91183Y93442D01*
X91245Y93464D01*
X91314Y93482D01*
X91385Y93498D01*
X91463Y93507D01*
X91541Y93511D01*
X91573D01*
X91594Y93507D01*
D02*
G37*
G36*
X90358Y143307D02*
X90392D01*
X90429Y143304D01*
X90473Y143298D01*
X90523Y143289D01*
X90579Y143279D01*
X90635Y143264D01*
X90694Y143248D01*
X90757Y143226D01*
X90816Y143201D01*
X90879Y143173D01*
X90935Y143139D01*
X90991Y143098D01*
X91044Y143055D01*
X91047Y143052D01*
X91056Y143042D01*
X91069Y143030D01*
X91084Y143008D01*
X91106Y142983D01*
X91128Y142955D01*
X91153Y142920D01*
X91178Y142880D01*
X91203Y142836D01*
X91228Y142786D01*
X91250Y142736D01*
X91272Y142680D01*
X91287Y142621D01*
X91300Y142555D01*
X91309Y142490D01*
X91312Y142421D01*
Y142418D01*
Y142412D01*
Y142403D01*
Y142390D01*
X91309Y142371D01*
Y142353D01*
X91303Y142303D01*
X91294Y142247D01*
X91278Y142181D01*
X91259Y142112D01*
X91231Y142044D01*
Y142041D01*
X91228Y142034D01*
X91222Y142025D01*
X91215Y142013D01*
X91206Y141994D01*
X91197Y141975D01*
X91169Y141925D01*
X91134Y141869D01*
X91088Y141800D01*
X91035Y141729D01*
X90969Y141654D01*
X90966Y141651D01*
X90960Y141644D01*
X90950Y141632D01*
X90935Y141616D01*
X90913Y141595D01*
X90891Y141569D01*
X90860Y141541D01*
X90825Y141507D01*
X90788Y141470D01*
X90741Y141426D01*
X90694Y141379D01*
X90638Y141329D01*
X90579Y141276D01*
X90513Y141217D01*
X90442Y141158D01*
X90367Y141092D01*
X90364Y141089D01*
X90351Y141080D01*
X90333Y141064D01*
X90311Y141045D01*
X90283Y141020D01*
X90251Y140992D01*
X90177Y140930D01*
X90102Y140864D01*
X90027Y140799D01*
X89992Y140768D01*
X89961Y140736D01*
X89933Y140711D01*
X89911Y140690D01*
X89908Y140687D01*
X89896Y140671D01*
X89877Y140649D01*
X89852Y140624D01*
X89827Y140590D01*
X89799Y140556D01*
X89771Y140518D01*
X89746Y140478D01*
X91315D01*
Y140100D01*
X89203D01*
Y140103D01*
Y140106D01*
Y140125D01*
Y140150D01*
X89206Y140187D01*
X89213Y140228D01*
X89219Y140275D01*
X89231Y140322D01*
X89247Y140371D01*
Y140375D01*
X89250Y140381D01*
X89256Y140393D01*
X89262Y140409D01*
X89272Y140428D01*
X89281Y140449D01*
X89309Y140506D01*
X89347Y140571D01*
X89390Y140643D01*
X89443Y140718D01*
X89506Y140796D01*
X89509Y140799D01*
X89515Y140805D01*
X89525Y140818D01*
X89540Y140833D01*
X89559Y140852D01*
X89581Y140877D01*
X89606Y140905D01*
X89637Y140936D01*
X89671Y140967D01*
X89709Y141005D01*
X89752Y141045D01*
X89796Y141089D01*
X89846Y141133D01*
X89899Y141180D01*
X89958Y141229D01*
X90017Y141279D01*
X90024Y141286D01*
X90039Y141298D01*
X90067Y141320D01*
X90102Y141351D01*
X90145Y141385D01*
X90192Y141429D01*
X90245Y141476D01*
X90301Y141526D01*
X90420Y141635D01*
X90535Y141747D01*
X90588Y141804D01*
X90638Y141860D01*
X90685Y141910D01*
X90723Y141960D01*
X90726Y141963D01*
X90732Y141972D01*
X90741Y141984D01*
X90751Y142003D01*
X90766Y142025D01*
X90782Y142050D01*
X90797Y142081D01*
X90816Y142112D01*
X90851Y142184D01*
X90882Y142262D01*
X90891Y142306D01*
X90900Y142346D01*
X90907Y142390D01*
X90910Y142431D01*
Y142434D01*
Y142440D01*
Y142453D01*
X90907Y142471D01*
X90904Y142490D01*
X90900Y142512D01*
X90888Y142568D01*
X90869Y142630D01*
X90838Y142696D01*
X90819Y142727D01*
X90797Y142761D01*
X90772Y142793D01*
X90741Y142824D01*
X90738Y142827D01*
X90735Y142830D01*
X90723Y142839D01*
X90710Y142849D01*
X90694Y142861D01*
X90673Y142874D01*
X90651Y142889D01*
X90623Y142905D01*
X90595Y142920D01*
X90560Y142936D01*
X90485Y142961D01*
X90401Y142980D01*
X90354Y142983D01*
X90304Y142986D01*
X90276D01*
X90258Y142983D01*
X90233Y142980D01*
X90205Y142977D01*
X90173Y142970D01*
X90142Y142964D01*
X90067Y142945D01*
X89992Y142914D01*
X89955Y142895D01*
X89918Y142871D01*
X89883Y142846D01*
X89849Y142814D01*
X89846Y142811D01*
X89843Y142808D01*
X89833Y142796D01*
X89824Y142783D01*
X89811Y142768D01*
X89796Y142746D01*
X89780Y142721D01*
X89765Y142693D01*
X89749Y142661D01*
X89733Y142627D01*
X89721Y142587D01*
X89705Y142546D01*
X89696Y142502D01*
X89687Y142453D01*
X89684Y142403D01*
X89680Y142346D01*
X89278Y142387D01*
Y142393D01*
X89281Y142406D01*
X89284Y142431D01*
X89287Y142462D01*
X89297Y142499D01*
X89306Y142543D01*
X89319Y142590D01*
X89331Y142643D01*
X89350Y142696D01*
X89372Y142752D01*
X89397Y142808D01*
X89425Y142867D01*
X89459Y142924D01*
X89496Y142977D01*
X89540Y143027D01*
X89587Y143073D01*
X89590Y143077D01*
X89599Y143083D01*
X89615Y143095D01*
X89637Y143111D01*
X89665Y143130D01*
X89696Y143148D01*
X89737Y143170D01*
X89780Y143192D01*
X89830Y143214D01*
X89883Y143236D01*
X89943Y143254D01*
X90008Y143273D01*
X90077Y143289D01*
X90152Y143301D01*
X90230Y143307D01*
X90314Y143310D01*
X90336D01*
X90358Y143307D01*
D02*
G37*
G36*
X68991Y143351D02*
X69032Y143348D01*
X69079Y143342D01*
X69132Y143332D01*
X69191Y143323D01*
X69250Y143310D01*
X69316Y143295D01*
X69384Y143273D01*
X69450Y143251D01*
X69519Y143223D01*
X69587Y143189D01*
X69653Y143151D01*
X69715Y143108D01*
X69718Y143105D01*
X69731Y143095D01*
X69746Y143083D01*
X69768Y143064D01*
X69796Y143039D01*
X69824Y143008D01*
X69859Y142970D01*
X69896Y142930D01*
X69933Y142883D01*
X69971Y142833D01*
X70008Y142777D01*
X70046Y142715D01*
X70083Y142649D01*
X70117Y142577D01*
X70146Y142502D01*
X70174Y142421D01*
X69756Y142325D01*
Y142328D01*
X69749Y142340D01*
X69743Y142359D01*
X69734Y142381D01*
X69724Y142409D01*
X69709Y142443D01*
X69693Y142477D01*
X69674Y142518D01*
X69628Y142599D01*
X69572Y142683D01*
X69506Y142761D01*
X69469Y142799D01*
X69431Y142830D01*
X69428Y142833D01*
X69422Y142836D01*
X69409Y142846D01*
X69394Y142855D01*
X69372Y142867D01*
X69347Y142880D01*
X69319Y142895D01*
X69284Y142911D01*
X69250Y142927D01*
X69210Y142942D01*
X69166Y142955D01*
X69119Y142967D01*
X69016Y142986D01*
X68960Y142989D01*
X68901Y142992D01*
X68866D01*
X68838Y142989D01*
X68807Y142986D01*
X68770Y142983D01*
X68729Y142977D01*
X68685Y142970D01*
X68586Y142949D01*
X68536Y142936D01*
X68483Y142917D01*
X68433Y142895D01*
X68380Y142874D01*
X68330Y142846D01*
X68283Y142814D01*
X68280Y142811D01*
X68274Y142805D01*
X68261Y142796D01*
X68242Y142783D01*
X68224Y142764D01*
X68199Y142743D01*
X68174Y142718D01*
X68149Y142690D01*
X68118Y142655D01*
X68089Y142621D01*
X68061Y142580D01*
X68033Y142537D01*
X68005Y142493D01*
X67980Y142443D01*
X67958Y142393D01*
X67937Y142337D01*
Y142334D01*
X67933Y142325D01*
X67927Y142309D01*
X67921Y142287D01*
X67915Y142259D01*
X67905Y142228D01*
X67896Y142190D01*
X67887Y142150D01*
X67877Y142106D01*
X67868Y142056D01*
X67852Y141953D01*
X67840Y141841D01*
X67837Y141726D01*
Y141722D01*
Y141707D01*
Y141685D01*
X67840Y141657D01*
Y141623D01*
X67843Y141579D01*
X67846Y141535D01*
X67852Y141482D01*
X67859Y141429D01*
X67865Y141373D01*
X67887Y141251D01*
X67915Y141130D01*
X67955Y141011D01*
Y141008D01*
X67962Y140999D01*
X67968Y140983D01*
X67977Y140961D01*
X67990Y140936D01*
X68005Y140908D01*
X68046Y140843D01*
X68099Y140768D01*
X68161Y140693D01*
X68236Y140621D01*
X68280Y140590D01*
X68323Y140559D01*
X68327Y140556D01*
X68336Y140552D01*
X68348Y140546D01*
X68367Y140537D01*
X68389Y140524D01*
X68417Y140512D01*
X68448Y140499D01*
X68486Y140484D01*
X68523Y140471D01*
X68567Y140456D01*
X68657Y140434D01*
X68760Y140415D01*
X68813Y140412D01*
X68866Y140409D01*
X68901D01*
X68926Y140412D01*
X68957Y140415D01*
X68991Y140418D01*
X69032Y140425D01*
X69075Y140434D01*
X69169Y140459D01*
X69219Y140474D01*
X69272Y140493D01*
X69322Y140518D01*
X69372Y140546D01*
X69422Y140577D01*
X69469Y140612D01*
X69472Y140615D01*
X69478Y140621D01*
X69494Y140633D01*
X69509Y140649D01*
X69528Y140671D01*
X69553Y140699D01*
X69578Y140730D01*
X69603Y140765D01*
X69631Y140805D01*
X69659Y140852D01*
X69687Y140902D01*
X69715Y140955D01*
X69740Y141014D01*
X69762Y141080D01*
X69784Y141148D01*
X69802Y141220D01*
X70227Y141114D01*
Y141108D01*
X70221Y141092D01*
X70211Y141064D01*
X70202Y141030D01*
X70186Y140986D01*
X70167Y140936D01*
X70143Y140880D01*
X70117Y140821D01*
X70086Y140755D01*
X70052Y140690D01*
X70011Y140624D01*
X69968Y140559D01*
X69918Y140493D01*
X69868Y140431D01*
X69809Y140371D01*
X69746Y140318D01*
X69743Y140315D01*
X69731Y140306D01*
X69712Y140293D01*
X69684Y140275D01*
X69649Y140256D01*
X69609Y140234D01*
X69562Y140209D01*
X69512Y140184D01*
X69453Y140156D01*
X69387Y140134D01*
X69319Y140109D01*
X69244Y140091D01*
X69163Y140072D01*
X69082Y140059D01*
X68991Y140050D01*
X68901Y140047D01*
X68851D01*
X68813Y140050D01*
X68770Y140053D01*
X68720Y140059D01*
X68664Y140066D01*
X68601Y140072D01*
X68536Y140084D01*
X68467Y140097D01*
X68398Y140116D01*
X68327Y140134D01*
X68258Y140159D01*
X68186Y140187D01*
X68121Y140219D01*
X68058Y140256D01*
X68055Y140259D01*
X68046Y140265D01*
X68027Y140278D01*
X68005Y140297D01*
X67977Y140315D01*
X67949Y140343D01*
X67915Y140375D01*
X67877Y140412D01*
X67837Y140453D01*
X67796Y140496D01*
X67756Y140546D01*
X67715Y140602D01*
X67678Y140662D01*
X67637Y140724D01*
X67603Y140793D01*
X67568Y140864D01*
X67565Y140871D01*
X67562Y140883D01*
X67553Y140905D01*
X67544Y140933D01*
X67531Y140971D01*
X67515Y141014D01*
X67500Y141064D01*
X67484Y141120D01*
X67469Y141183D01*
X67453Y141248D01*
X67441Y141320D01*
X67425Y141395D01*
X67416Y141473D01*
X67406Y141554D01*
X67403Y141638D01*
X67400Y141722D01*
Y141729D01*
Y141744D01*
Y141772D01*
X67403Y141807D01*
X67406Y141850D01*
X67409Y141900D01*
X67416Y141956D01*
X67425Y142019D01*
X67434Y142084D01*
X67447Y142153D01*
X67462Y142228D01*
X67481Y142300D01*
X67503Y142375D01*
X67528Y142449D01*
X67556Y142521D01*
X67590Y142593D01*
X67593Y142596D01*
X67600Y142608D01*
X67609Y142630D01*
X67625Y142655D01*
X67646Y142686D01*
X67668Y142721D01*
X67696Y142761D01*
X67731Y142805D01*
X67765Y142849D01*
X67806Y142895D01*
X67852Y142942D01*
X67899Y142989D01*
X67952Y143036D01*
X68008Y143080D01*
X68068Y143123D01*
X68133Y143161D01*
X68136Y143164D01*
X68149Y143170D01*
X68168Y143179D01*
X68196Y143192D01*
X68227Y143204D01*
X68267Y143223D01*
X68311Y143239D01*
X68364Y143257D01*
X68417Y143276D01*
X68476Y143292D01*
X68542Y143310D01*
X68611Y143323D01*
X68682Y143335D01*
X68754Y143345D01*
X68832Y143351D01*
X68910Y143354D01*
X68957D01*
X68991Y143351D01*
D02*
G37*
G36*
X69236Y112000D02*
X68843D01*
Y114499D01*
X68840D01*
X68837Y114493D01*
X68828Y114487D01*
X68818Y114477D01*
X68787Y114449D01*
X68743Y114415D01*
X68691Y114374D01*
X68625Y114328D01*
X68550Y114278D01*
X68469Y114228D01*
X68466D01*
X68460Y114221D01*
X68447Y114215D01*
X68432Y114206D01*
X68410Y114193D01*
X68388Y114181D01*
X68332Y114153D01*
X68269Y114122D01*
X68201Y114087D01*
X68129Y114056D01*
X68060Y114028D01*
Y114406D01*
X68063Y114409D01*
X68076Y114412D01*
X68091Y114421D01*
X68116Y114434D01*
X68145Y114449D01*
X68176Y114468D01*
X68213Y114487D01*
X68254Y114512D01*
X68344Y114565D01*
X68441Y114630D01*
X68538Y114702D01*
X68634Y114780D01*
X68637Y114783D01*
X68644Y114789D01*
X68659Y114802D01*
X68675Y114817D01*
X68694Y114839D01*
X68719Y114861D01*
X68743Y114889D01*
X68772Y114917D01*
X68828Y114983D01*
X68884Y115055D01*
X68937Y115132D01*
X68962Y115170D01*
X68981Y115210D01*
X69236D01*
Y112000D01*
D02*
G37*
G36*
X32923Y98195D02*
X32963D01*
X33010Y98192D01*
X33057Y98189D01*
X33163Y98176D01*
X33272Y98161D01*
X33375Y98139D01*
X33422Y98126D01*
X33465Y98111D01*
X33469D01*
X33475Y98107D01*
X33487Y98101D01*
X33503Y98095D01*
X33522Y98083D01*
X33543Y98070D01*
X33593Y98039D01*
X33650Y97998D01*
X33709Y97945D01*
X33768Y97880D01*
X33821Y97805D01*
X33824Y97802D01*
X33827Y97795D01*
X33834Y97783D01*
X33843Y97767D01*
X33852Y97746D01*
X33865Y97721D01*
X33877Y97696D01*
X33890Y97664D01*
X33912Y97593D01*
X33933Y97512D01*
X33949Y97421D01*
X33955Y97374D01*
Y97324D01*
Y97321D01*
Y97309D01*
Y97290D01*
X33952Y97268D01*
X33949Y97237D01*
X33943Y97206D01*
X33937Y97165D01*
X33927Y97125D01*
X33915Y97081D01*
X33902Y97034D01*
X33884Y96987D01*
X33862Y96938D01*
X33837Y96891D01*
X33806Y96841D01*
X33774Y96794D01*
X33734Y96750D01*
X33731Y96747D01*
X33724Y96741D01*
X33712Y96728D01*
X33693Y96713D01*
X33668Y96694D01*
X33640Y96672D01*
X33606Y96650D01*
X33565Y96626D01*
X33522Y96601D01*
X33472Y96576D01*
X33415Y96551D01*
X33353Y96526D01*
X33288Y96504D01*
X33216Y96485D01*
X33138Y96466D01*
X33054Y96454D01*
X33057D01*
X33060Y96451D01*
X33069Y96445D01*
X33082Y96441D01*
X33113Y96423D01*
X33150Y96404D01*
X33191Y96379D01*
X33231Y96354D01*
X33272Y96323D01*
X33309Y96295D01*
X33313Y96292D01*
X33319Y96289D01*
X33328Y96276D01*
X33341Y96264D01*
X33356Y96248D01*
X33375Y96226D01*
X33397Y96204D01*
X33422Y96176D01*
X33475Y96114D01*
X33534Y96042D01*
X33597Y95958D01*
X33659Y95867D01*
X34211Y95000D01*
X33684D01*
X33259Y95665D01*
X33256Y95668D01*
X33250Y95677D01*
X33241Y95693D01*
X33228Y95711D01*
X33213Y95736D01*
X33194Y95764D01*
X33153Y95827D01*
X33103Y95899D01*
X33054Y95970D01*
X33001Y96042D01*
X32979Y96073D01*
X32954Y96105D01*
Y96108D01*
X32947Y96111D01*
X32935Y96129D01*
X32910Y96157D01*
X32882Y96189D01*
X32848Y96223D01*
X32813Y96257D01*
X32776Y96292D01*
X32739Y96317D01*
X32735Y96320D01*
X32723Y96326D01*
X32704Y96338D01*
X32679Y96351D01*
X32651Y96367D01*
X32620Y96379D01*
X32586Y96395D01*
X32548Y96404D01*
X32545D01*
X32536Y96407D01*
X32517Y96410D01*
X32492Y96413D01*
X32461D01*
X32420Y96416D01*
X32370Y96420D01*
X31824D01*
Y95000D01*
X31400D01*
Y98198D01*
X32888D01*
X32923Y98195D01*
D02*
G37*
G36*
X121100Y103940D02*
X121149D01*
X121197Y103936D01*
X121310Y103929D01*
X121423Y103921D01*
X121531Y103906D01*
X121584Y103899D01*
X121629Y103887D01*
X121633D01*
X121644Y103884D01*
X121662Y103880D01*
X121685Y103873D01*
X121715Y103865D01*
X121745Y103854D01*
X121783Y103839D01*
X121824Y103824D01*
X121914Y103786D01*
X122008Y103737D01*
X122105Y103681D01*
X122195Y103610D01*
X122199Y103606D01*
X122210Y103599D01*
X122225Y103584D01*
X122244Y103565D01*
X122270Y103539D01*
X122300Y103509D01*
X122330Y103471D01*
X122368Y103434D01*
X122401Y103389D01*
X122439Y103336D01*
X122476Y103284D01*
X122514Y103227D01*
X122551Y103164D01*
X122585Y103096D01*
X122649Y102954D01*
Y102950D01*
X122656Y102935D01*
X122664Y102912D01*
X122671Y102883D01*
X122686Y102845D01*
X122697Y102800D01*
X122713Y102747D01*
X122728Y102691D01*
X122739Y102628D01*
X122754Y102556D01*
X122769Y102481D01*
X122780Y102402D01*
X122787Y102316D01*
X122795Y102230D01*
X122802Y102042D01*
Y102039D01*
Y102024D01*
Y102001D01*
Y101968D01*
X122799Y101930D01*
Y101885D01*
X122795Y101836D01*
X122791Y101780D01*
X122784Y101720D01*
X122776Y101660D01*
X122757Y101529D01*
X122731Y101394D01*
X122697Y101262D01*
Y101259D01*
X122694Y101248D01*
X122686Y101229D01*
X122679Y101206D01*
X122668Y101176D01*
X122656Y101143D01*
X122641Y101105D01*
X122626Y101067D01*
X122589Y100978D01*
X122544Y100884D01*
X122491Y100790D01*
X122435Y100704D01*
Y100700D01*
X122427Y100692D01*
X122420Y100681D01*
X122409Y100666D01*
X122375Y100629D01*
X122334Y100576D01*
X122281Y100520D01*
X122221Y100464D01*
X122158Y100408D01*
X122086Y100355D01*
X122082D01*
X122079Y100351D01*
X122067Y100344D01*
X122053Y100332D01*
X122034Y100325D01*
X122011Y100310D01*
X121959Y100284D01*
X121891Y100254D01*
X121812Y100220D01*
X121722Y100190D01*
X121625Y100164D01*
X121621D01*
X121614Y100160D01*
X121599Y100156D01*
X121576Y100153D01*
X121554Y100149D01*
X121524Y100145D01*
X121486Y100137D01*
X121449Y100134D01*
X121404Y100126D01*
X121359Y100119D01*
X121254Y100111D01*
X121137Y100104D01*
X121010Y100100D01*
X119623D01*
Y103944D01*
X121059D01*
X121100Y103940D01*
D02*
G37*
G36*
X28758Y94007D02*
X28792D01*
X28829Y94004D01*
X28873Y93998D01*
X28923Y93989D01*
X28979Y93979D01*
X29035Y93964D01*
X29094Y93948D01*
X29157Y93926D01*
X29216Y93901D01*
X29279Y93873D01*
X29335Y93839D01*
X29391Y93798D01*
X29444Y93755D01*
X29447Y93752D01*
X29456Y93742D01*
X29469Y93730D01*
X29485Y93708D01*
X29506Y93683D01*
X29528Y93655D01*
X29553Y93621D01*
X29578Y93580D01*
X29603Y93536D01*
X29628Y93486D01*
X29650Y93436D01*
X29672Y93380D01*
X29687Y93321D01*
X29700Y93255D01*
X29709Y93190D01*
X29712Y93121D01*
Y93118D01*
Y93112D01*
Y93103D01*
Y93090D01*
X29709Y93071D01*
Y93053D01*
X29703Y93003D01*
X29693Y92947D01*
X29678Y92881D01*
X29659Y92812D01*
X29631Y92744D01*
Y92741D01*
X29628Y92734D01*
X29622Y92725D01*
X29616Y92713D01*
X29606Y92694D01*
X29597Y92675D01*
X29569Y92625D01*
X29534Y92569D01*
X29488Y92500D01*
X29435Y92429D01*
X29369Y92354D01*
X29366Y92351D01*
X29360Y92344D01*
X29350Y92332D01*
X29335Y92316D01*
X29313Y92295D01*
X29291Y92269D01*
X29260Y92241D01*
X29226Y92207D01*
X29188Y92170D01*
X29141Y92126D01*
X29094Y92079D01*
X29038Y92029D01*
X28979Y91976D01*
X28914Y91917D01*
X28842Y91858D01*
X28767Y91792D01*
X28764Y91789D01*
X28751Y91780D01*
X28733Y91764D01*
X28711Y91745D01*
X28683Y91720D01*
X28651Y91692D01*
X28577Y91630D01*
X28502Y91564D01*
X28427Y91499D01*
X28392Y91468D01*
X28361Y91436D01*
X28333Y91412D01*
X28311Y91390D01*
X28308Y91387D01*
X28296Y91371D01*
X28277Y91349D01*
X28252Y91324D01*
X28227Y91290D01*
X28199Y91255D01*
X28171Y91218D01*
X28146Y91177D01*
X29715D01*
Y90800D01*
X27603D01*
Y90803D01*
Y90806D01*
Y90825D01*
Y90850D01*
X27606Y90887D01*
X27613Y90928D01*
X27619Y90975D01*
X27631Y91022D01*
X27647Y91071D01*
Y91075D01*
X27650Y91081D01*
X27656Y91093D01*
X27662Y91109D01*
X27672Y91128D01*
X27681Y91149D01*
X27709Y91206D01*
X27747Y91271D01*
X27790Y91343D01*
X27843Y91418D01*
X27906Y91496D01*
X27909Y91499D01*
X27915Y91505D01*
X27924Y91518D01*
X27940Y91533D01*
X27959Y91552D01*
X27981Y91577D01*
X28006Y91605D01*
X28037Y91636D01*
X28071Y91667D01*
X28109Y91705D01*
X28152Y91745D01*
X28196Y91789D01*
X28246Y91833D01*
X28299Y91879D01*
X28358Y91929D01*
X28417Y91979D01*
X28424Y91986D01*
X28439Y91998D01*
X28467Y92020D01*
X28502Y92051D01*
X28545Y92085D01*
X28592Y92129D01*
X28645Y92176D01*
X28701Y92226D01*
X28820Y92335D01*
X28935Y92447D01*
X28988Y92503D01*
X29038Y92560D01*
X29085Y92610D01*
X29123Y92659D01*
X29126Y92663D01*
X29132Y92672D01*
X29141Y92685D01*
X29151Y92703D01*
X29166Y92725D01*
X29182Y92750D01*
X29197Y92781D01*
X29216Y92812D01*
X29250Y92884D01*
X29282Y92962D01*
X29291Y93006D01*
X29300Y93046D01*
X29307Y93090D01*
X29310Y93131D01*
Y93134D01*
Y93140D01*
Y93152D01*
X29307Y93171D01*
X29304Y93190D01*
X29300Y93212D01*
X29288Y93268D01*
X29269Y93330D01*
X29238Y93396D01*
X29219Y93427D01*
X29197Y93461D01*
X29173Y93493D01*
X29141Y93524D01*
X29138Y93527D01*
X29135Y93530D01*
X29123Y93539D01*
X29110Y93549D01*
X29094Y93561D01*
X29073Y93574D01*
X29051Y93589D01*
X29023Y93605D01*
X28995Y93621D01*
X28960Y93636D01*
X28885Y93661D01*
X28801Y93680D01*
X28754Y93683D01*
X28705Y93686D01*
X28676D01*
X28658Y93683D01*
X28633Y93680D01*
X28605Y93677D01*
X28573Y93670D01*
X28542Y93664D01*
X28467Y93645D01*
X28392Y93614D01*
X28355Y93595D01*
X28318Y93571D01*
X28283Y93546D01*
X28249Y93514D01*
X28246Y93511D01*
X28243Y93508D01*
X28233Y93496D01*
X28224Y93483D01*
X28212Y93468D01*
X28196Y93446D01*
X28180Y93421D01*
X28165Y93393D01*
X28149Y93362D01*
X28133Y93327D01*
X28121Y93287D01*
X28105Y93246D01*
X28096Y93202D01*
X28087Y93152D01*
X28084Y93103D01*
X28080Y93046D01*
X27678Y93087D01*
Y93093D01*
X27681Y93106D01*
X27684Y93131D01*
X27687Y93162D01*
X27697Y93199D01*
X27706Y93243D01*
X27719Y93290D01*
X27731Y93343D01*
X27750Y93396D01*
X27772Y93452D01*
X27797Y93508D01*
X27825Y93567D01*
X27859Y93624D01*
X27896Y93677D01*
X27940Y93727D01*
X27987Y93773D01*
X27990Y93777D01*
X27999Y93783D01*
X28015Y93795D01*
X28037Y93811D01*
X28065Y93830D01*
X28096Y93848D01*
X28137Y93870D01*
X28180Y93892D01*
X28230Y93914D01*
X28283Y93936D01*
X28343Y93954D01*
X28408Y93973D01*
X28477Y93989D01*
X28552Y94001D01*
X28630Y94007D01*
X28714Y94011D01*
X28736D01*
X28758Y94007D01*
D02*
G37*
G36*
X35506Y98207D02*
X35531D01*
X35556Y98204D01*
X35587Y98201D01*
X35621Y98198D01*
X35696Y98182D01*
X35774Y98164D01*
X35859Y98136D01*
X35943Y98098D01*
X35946D01*
X35952Y98092D01*
X35965Y98086D01*
X35980Y98076D01*
X35999Y98067D01*
X36018Y98051D01*
X36068Y98017D01*
X36124Y97973D01*
X36180Y97920D01*
X36233Y97858D01*
X36280Y97789D01*
Y97786D01*
X36286Y97780D01*
X36292Y97771D01*
X36298Y97755D01*
X36308Y97739D01*
X36317Y97717D01*
X36339Y97664D01*
X36361Y97605D01*
X36380Y97533D01*
X36392Y97459D01*
X36398Y97377D01*
Y97374D01*
Y97368D01*
Y97359D01*
X36395Y97343D01*
Y97324D01*
X36392Y97303D01*
X36386Y97253D01*
X36370Y97193D01*
X36351Y97131D01*
X36323Y97065D01*
X36286Y97000D01*
Y96997D01*
X36280Y96994D01*
X36273Y96984D01*
X36264Y96972D01*
X36239Y96941D01*
X36202Y96903D01*
X36155Y96860D01*
X36099Y96816D01*
X36033Y96772D01*
X35955Y96732D01*
X35958D01*
X35968Y96728D01*
X35983Y96725D01*
X36002Y96719D01*
X36027Y96710D01*
X36052Y96700D01*
X36117Y96672D01*
X36186Y96638D01*
X36261Y96588D01*
X36333Y96532D01*
X36364Y96498D01*
X36395Y96460D01*
X36398Y96457D01*
X36401Y96451D01*
X36411Y96438D01*
X36420Y96423D01*
X36433Y96404D01*
X36445Y96379D01*
X36461Y96351D01*
X36476Y96320D01*
X36489Y96282D01*
X36504Y96245D01*
X36517Y96201D01*
X36529Y96157D01*
X36548Y96058D01*
X36551Y96001D01*
X36554Y95945D01*
Y95942D01*
Y95927D01*
X36551Y95905D01*
Y95877D01*
X36545Y95839D01*
X36539Y95799D01*
X36529Y95752D01*
X36517Y95699D01*
X36501Y95646D01*
X36479Y95590D01*
X36454Y95530D01*
X36426Y95471D01*
X36389Y95412D01*
X36348Y95349D01*
X36301Y95293D01*
X36248Y95237D01*
X36245Y95234D01*
X36236Y95225D01*
X36217Y95209D01*
X36192Y95193D01*
X36164Y95169D01*
X36127Y95147D01*
X36086Y95119D01*
X36036Y95094D01*
X35983Y95065D01*
X35924Y95037D01*
X35862Y95016D01*
X35793Y94994D01*
X35721Y94975D01*
X35643Y94959D01*
X35562Y94950D01*
X35475Y94947D01*
X35456D01*
X35434Y94950D01*
X35406D01*
X35369Y94953D01*
X35328Y94959D01*
X35281Y94969D01*
X35228Y94978D01*
X35175Y94991D01*
X35119Y95009D01*
X35060Y95028D01*
X35004Y95053D01*
X34944Y95081D01*
X34885Y95115D01*
X34829Y95153D01*
X34776Y95197D01*
X34773Y95200D01*
X34763Y95209D01*
X34751Y95222D01*
X34732Y95243D01*
X34710Y95268D01*
X34685Y95296D01*
X34660Y95331D01*
X34632Y95371D01*
X34604Y95415D01*
X34576Y95465D01*
X34551Y95518D01*
X34526Y95577D01*
X34504Y95640D01*
X34486Y95705D01*
X34470Y95774D01*
X34461Y95849D01*
X34854Y95902D01*
Y95899D01*
X34857Y95886D01*
X34860Y95871D01*
X34866Y95846D01*
X34873Y95821D01*
X34882Y95786D01*
X34894Y95752D01*
X34907Y95714D01*
X34938Y95636D01*
X34979Y95555D01*
X35025Y95481D01*
X35054Y95449D01*
X35082Y95418D01*
X35085D01*
X35088Y95412D01*
X35097Y95406D01*
X35110Y95396D01*
X35125Y95384D01*
X35144Y95371D01*
X35191Y95346D01*
X35250Y95318D01*
X35319Y95293D01*
X35394Y95278D01*
X35434Y95275D01*
X35478Y95271D01*
X35506D01*
X35525Y95275D01*
X35550Y95278D01*
X35575Y95281D01*
X35606Y95287D01*
X35640Y95296D01*
X35715Y95318D01*
X35752Y95334D01*
X35793Y95353D01*
X35833Y95374D01*
X35871Y95399D01*
X35908Y95427D01*
X35946Y95462D01*
X35949Y95465D01*
X35955Y95471D01*
X35965Y95481D01*
X35977Y95496D01*
X35989Y95515D01*
X36005Y95537D01*
X36024Y95562D01*
X36043Y95593D01*
X36058Y95624D01*
X36077Y95661D01*
X36108Y95743D01*
X36117Y95786D01*
X36127Y95833D01*
X36133Y95883D01*
X36136Y95936D01*
Y95939D01*
Y95948D01*
Y95961D01*
X36133Y95983D01*
X36130Y96005D01*
X36127Y96033D01*
X36121Y96061D01*
X36114Y96095D01*
X36092Y96164D01*
X36080Y96201D01*
X36061Y96239D01*
X36039Y96276D01*
X36018Y96314D01*
X35989Y96348D01*
X35958Y96382D01*
X35955Y96385D01*
X35949Y96388D01*
X35940Y96398D01*
X35927Y96410D01*
X35908Y96423D01*
X35887Y96438D01*
X35865Y96454D01*
X35837Y96469D01*
X35805Y96485D01*
X35771Y96501D01*
X35693Y96529D01*
X35606Y96551D01*
X35559Y96554D01*
X35509Y96557D01*
X35490D01*
X35465Y96554D01*
X35434Y96551D01*
X35394Y96548D01*
X35347Y96541D01*
X35294Y96529D01*
X35234Y96516D01*
X35278Y96860D01*
X35284D01*
X35300Y96856D01*
X35322Y96853D01*
X35366D01*
X35384Y96856D01*
X35406D01*
X35431Y96860D01*
X35459Y96866D01*
X35490Y96869D01*
X35562Y96885D01*
X35637Y96909D01*
X35715Y96941D01*
X35793Y96984D01*
X35796Y96987D01*
X35802Y96991D01*
X35812Y96997D01*
X35824Y97009D01*
X35840Y97022D01*
X35859Y97040D01*
X35874Y97059D01*
X35896Y97084D01*
X35915Y97109D01*
X35930Y97140D01*
X35949Y97175D01*
X35965Y97209D01*
X35977Y97250D01*
X35986Y97293D01*
X35993Y97337D01*
X35996Y97387D01*
Y97390D01*
Y97396D01*
Y97409D01*
X35993Y97424D01*
Y97443D01*
X35989Y97465D01*
X35977Y97515D01*
X35961Y97571D01*
X35933Y97630D01*
X35899Y97689D01*
X35874Y97717D01*
X35849Y97746D01*
X35846Y97749D01*
X35843Y97752D01*
X35833Y97758D01*
X35824Y97767D01*
X35790Y97792D01*
X35746Y97817D01*
X35693Y97842D01*
X35628Y97867D01*
X35553Y97883D01*
X35515Y97889D01*
X35450D01*
X35434Y97886D01*
X35412D01*
X35390Y97883D01*
X35337Y97870D01*
X35275Y97855D01*
X35213Y97827D01*
X35147Y97792D01*
X35116Y97767D01*
X35088Y97742D01*
X35085Y97739D01*
X35082Y97736D01*
X35072Y97727D01*
X35063Y97714D01*
X35050Y97702D01*
X35038Y97683D01*
X35022Y97661D01*
X35007Y97636D01*
X34991Y97605D01*
X34972Y97574D01*
X34957Y97540D01*
X34941Y97499D01*
X34929Y97459D01*
X34913Y97412D01*
X34904Y97365D01*
X34894Y97312D01*
X34501Y97381D01*
Y97384D01*
X34504Y97399D01*
X34511Y97418D01*
X34517Y97446D01*
X34526Y97477D01*
X34539Y97518D01*
X34551Y97558D01*
X34570Y97605D01*
X34589Y97652D01*
X34614Y97702D01*
X34639Y97755D01*
X34670Y97805D01*
X34701Y97855D01*
X34738Y97905D01*
X34782Y97948D01*
X34826Y97992D01*
X34829Y97995D01*
X34838Y98001D01*
X34851Y98011D01*
X34873Y98026D01*
X34898Y98042D01*
X34926Y98061D01*
X34963Y98083D01*
X35001Y98101D01*
X35044Y98123D01*
X35094Y98142D01*
X35147Y98161D01*
X35203Y98176D01*
X35263Y98192D01*
X35325Y98201D01*
X35394Y98207D01*
X35462Y98211D01*
X35487D01*
X35506Y98207D01*
D02*
G37*
G36*
X105935Y103940D02*
X105980Y103936D01*
X106029Y103932D01*
X106078Y103929D01*
X106190Y103914D01*
X106310Y103895D01*
X106426Y103865D01*
X106479Y103846D01*
X106531Y103824D01*
X106535D01*
X106543Y103820D01*
X106558Y103813D01*
X106576Y103801D01*
X106599Y103790D01*
X106625Y103775D01*
X106685Y103734D01*
X106749Y103685D01*
X106820Y103621D01*
X106887Y103550D01*
X106948Y103464D01*
Y103460D01*
X106955Y103453D01*
X106963Y103441D01*
X106970Y103422D01*
X106985Y103400D01*
X106996Y103374D01*
X107026Y103310D01*
X107053Y103235D01*
X107079Y103149D01*
X107094Y103055D01*
X107101Y102957D01*
Y102954D01*
Y102946D01*
Y102935D01*
X107097Y102916D01*
Y102894D01*
X107094Y102867D01*
X107086Y102807D01*
X107068Y102736D01*
X107045Y102657D01*
X107011Y102575D01*
X106966Y102492D01*
Y102489D01*
X106959Y102481D01*
X106951Y102470D01*
X106940Y102455D01*
X106910Y102418D01*
X106865Y102369D01*
X106809Y102313D01*
X106737Y102252D01*
X106655Y102196D01*
X106561Y102144D01*
X106565D01*
X106576Y102140D01*
X106595Y102132D01*
X106617Y102125D01*
X106648Y102114D01*
X106681Y102099D01*
X106760Y102061D01*
X106846Y102013D01*
X106936Y101953D01*
X107023Y101877D01*
X107060Y101836D01*
X107097Y101791D01*
X107101Y101787D01*
X107105Y101780D01*
X107116Y101765D01*
X107127Y101746D01*
X107142Y101724D01*
X107158Y101698D01*
X107176Y101664D01*
X107195Y101626D01*
X107210Y101585D01*
X107229Y101544D01*
X107259Y101443D01*
X107281Y101334D01*
X107285Y101274D01*
X107289Y101210D01*
Y101206D01*
Y101199D01*
Y101184D01*
Y101165D01*
X107285Y101139D01*
X107281Y101112D01*
X107274Y101045D01*
X107259Y100970D01*
X107240Y100884D01*
X107210Y100797D01*
X107173Y100707D01*
Y100704D01*
X107169Y100696D01*
X107161Y100685D01*
X107154Y100670D01*
X107127Y100629D01*
X107094Y100576D01*
X107056Y100520D01*
X107008Y100460D01*
X106951Y100404D01*
X106891Y100351D01*
X106884Y100347D01*
X106861Y100332D01*
X106824Y100310D01*
X106775Y100280D01*
X106715Y100250D01*
X106640Y100220D01*
X106558Y100190D01*
X106467Y100164D01*
X106464D01*
X106456Y100160D01*
X106441Y100156D01*
X106422Y100153D01*
X106400Y100149D01*
X106370Y100145D01*
X106336Y100137D01*
X106295Y100134D01*
X106254Y100126D01*
X106205Y100119D01*
X106156Y100115D01*
X106100Y100111D01*
X105980Y100104D01*
X105849Y100100D01*
X104386D01*
Y103944D01*
X105897D01*
X105935Y103940D01*
D02*
G37*
G36*
X109764Y104007D02*
X109809Y104004D01*
X109865Y103996D01*
X109925Y103989D01*
X109993Y103981D01*
X110067Y103966D01*
X110143Y103947D01*
X110221Y103929D01*
X110304Y103902D01*
X110386Y103876D01*
X110469Y103839D01*
X110551Y103801D01*
X110634Y103756D01*
X110637Y103753D01*
X110652Y103745D01*
X110675Y103730D01*
X110705Y103711D01*
X110739Y103685D01*
X110780Y103651D01*
X110825Y103614D01*
X110878Y103572D01*
X110926Y103524D01*
X110983Y103471D01*
X111035Y103411D01*
X111091Y103348D01*
X111144Y103280D01*
X111193Y103205D01*
X111241Y103126D01*
X111286Y103044D01*
X111290Y103040D01*
X111298Y103025D01*
X111309Y102999D01*
X111320Y102965D01*
X111339Y102920D01*
X111357Y102871D01*
X111376Y102811D01*
X111399Y102744D01*
X111421Y102673D01*
X111440Y102594D01*
X111459Y102507D01*
X111477Y102418D01*
X111489Y102324D01*
X111500Y102226D01*
X111507Y102121D01*
X111511Y102016D01*
Y102009D01*
Y101990D01*
Y101960D01*
X111507Y101919D01*
X111504Y101866D01*
X111500Y101806D01*
X111493Y101739D01*
X111481Y101667D01*
X111470Y101589D01*
X111455Y101503D01*
X111436Y101416D01*
X111410Y101330D01*
X111384Y101236D01*
X111354Y101146D01*
X111316Y101056D01*
X111275Y100970D01*
X111271Y100966D01*
X111264Y100951D01*
X111249Y100925D01*
X111230Y100895D01*
X111207Y100857D01*
X111178Y100812D01*
X111144Y100764D01*
X111102Y100711D01*
X111057Y100655D01*
X111009Y100599D01*
X110952Y100539D01*
X110892Y100482D01*
X110829Y100426D01*
X110758Y100370D01*
X110682Y100321D01*
X110604Y100273D01*
X110600Y100269D01*
X110585Y100261D01*
X110563Y100250D01*
X110529Y100235D01*
X110487Y100216D01*
X110442Y100198D01*
X110386Y100175D01*
X110326Y100156D01*
X110259Y100134D01*
X110187Y100111D01*
X110109Y100092D01*
X110026Y100074D01*
X109944Y100059D01*
X109854Y100048D01*
X109764Y100040D01*
X109670Y100036D01*
X109617D01*
X109580Y100040D01*
X109531Y100044D01*
X109475Y100051D01*
X109415Y100059D01*
X109344Y100070D01*
X109273Y100081D01*
X109194Y100100D01*
X109115Y100119D01*
X109032Y100145D01*
X108946Y100175D01*
X108864Y100209D01*
X108781Y100250D01*
X108699Y100295D01*
X108695Y100299D01*
X108680Y100306D01*
X108658Y100321D01*
X108627Y100344D01*
X108594Y100370D01*
X108553Y100404D01*
X108508Y100441D01*
X108459Y100482D01*
X108406Y100531D01*
X108354Y100584D01*
X108298Y100644D01*
X108245Y100707D01*
X108193Y100775D01*
X108140Y100850D01*
X108095Y100929D01*
X108050Y101011D01*
X108046Y101015D01*
X108043Y101030D01*
X108031Y101056D01*
X108016Y101090D01*
X108001Y101131D01*
X107983Y101180D01*
X107960Y101240D01*
X107941Y101300D01*
X107922Y101371D01*
X107900Y101446D01*
X107881Y101525D01*
X107866Y101608D01*
X107851Y101694D01*
X107844Y101784D01*
X107836Y101877D01*
X107833Y101971D01*
Y101975D01*
Y101982D01*
Y101994D01*
Y102013D01*
X107836Y102035D01*
Y102065D01*
Y102095D01*
X107840Y102129D01*
X107847Y102211D01*
X107859Y102301D01*
X107878Y102406D01*
X107896Y102519D01*
X107922Y102635D01*
X107956Y102759D01*
X108001Y102883D01*
X108050Y103006D01*
X108110Y103130D01*
X108177Y103250D01*
X108256Y103363D01*
X108346Y103468D01*
X108354Y103475D01*
X108369Y103490D01*
X108399Y103516D01*
X108440Y103554D01*
X108489Y103595D01*
X108553Y103640D01*
X108624Y103689D01*
X108706Y103741D01*
X108796Y103790D01*
X108897Y103839D01*
X109006Y103884D01*
X109123Y103925D01*
X109250Y103963D01*
X109385Y103989D01*
X109524Y104004D01*
X109674Y104011D01*
X109726D01*
X109764Y104007D01*
D02*
G37*
G36*
X117586Y103940D02*
X117635D01*
X117691Y103936D01*
X117747Y103932D01*
X117875Y103918D01*
X118006Y103899D01*
X118130Y103873D01*
X118186Y103858D01*
X118239Y103839D01*
X118243D01*
X118250Y103835D01*
X118265Y103828D01*
X118284Y103820D01*
X118306Y103805D01*
X118333Y103790D01*
X118393Y103753D01*
X118460Y103704D01*
X118531Y103640D01*
X118603Y103561D01*
X118666Y103471D01*
X118670Y103468D01*
X118674Y103460D01*
X118681Y103445D01*
X118693Y103426D01*
X118704Y103400D01*
X118719Y103370D01*
X118734Y103340D01*
X118749Y103303D01*
X118775Y103216D01*
X118801Y103119D01*
X118820Y103010D01*
X118827Y102954D01*
Y102894D01*
Y102890D01*
Y102875D01*
Y102852D01*
X118824Y102826D01*
X118820Y102789D01*
X118813Y102751D01*
X118805Y102702D01*
X118794Y102654D01*
X118779Y102601D01*
X118764Y102545D01*
X118741Y102489D01*
X118715Y102429D01*
X118685Y102373D01*
X118648Y102313D01*
X118610Y102256D01*
X118561Y102204D01*
X118558Y102200D01*
X118550Y102192D01*
X118535Y102178D01*
X118512Y102159D01*
X118482Y102136D01*
X118449Y102110D01*
X118407Y102084D01*
X118359Y102054D01*
X118306Y102024D01*
X118246Y101994D01*
X118179Y101964D01*
X118104Y101934D01*
X118025Y101908D01*
X117939Y101885D01*
X117845Y101863D01*
X117744Y101848D01*
X117747D01*
X117751Y101844D01*
X117762Y101836D01*
X117778Y101832D01*
X117815Y101810D01*
X117860Y101787D01*
X117909Y101758D01*
X117957Y101727D01*
X118006Y101690D01*
X118051Y101656D01*
X118055Y101653D01*
X118062Y101649D01*
X118074Y101634D01*
X118089Y101619D01*
X118107Y101600D01*
X118130Y101574D01*
X118156Y101548D01*
X118186Y101514D01*
X118250Y101439D01*
X118321Y101353D01*
X118396Y101251D01*
X118471Y101143D01*
X119135Y100100D01*
X118501D01*
X117991Y100899D01*
X117988Y100902D01*
X117980Y100914D01*
X117969Y100933D01*
X117954Y100955D01*
X117935Y100985D01*
X117912Y101019D01*
X117864Y101094D01*
X117804Y101180D01*
X117744Y101266D01*
X117680Y101353D01*
X117654Y101390D01*
X117624Y101427D01*
Y101431D01*
X117616Y101435D01*
X117601Y101458D01*
X117571Y101491D01*
X117537Y101529D01*
X117496Y101570D01*
X117455Y101611D01*
X117410Y101653D01*
X117365Y101682D01*
X117361Y101686D01*
X117346Y101694D01*
X117324Y101709D01*
X117294Y101724D01*
X117260Y101742D01*
X117222Y101758D01*
X117181Y101776D01*
X117136Y101787D01*
X117132D01*
X117121Y101791D01*
X117099Y101795D01*
X117069Y101799D01*
X117031D01*
X116982Y101803D01*
X116922Y101806D01*
X116266D01*
Y100100D01*
X115756D01*
Y103944D01*
X117545D01*
X117586Y103940D01*
D02*
G37*
G36*
X115340Y100100D02*
X114762D01*
X114316Y101262D01*
X112704D01*
X112284Y100100D01*
X111748D01*
X113217Y103944D01*
X113769D01*
X115340Y100100D01*
D02*
G37*
G36*
X57788Y93583D02*
X56506D01*
X56334Y92719D01*
X56337Y92722D01*
X56347Y92728D01*
X56362Y92738D01*
X56384Y92750D01*
X56409Y92766D01*
X56443Y92784D01*
X56478Y92800D01*
X56518Y92822D01*
X56562Y92840D01*
X56609Y92856D01*
X56712Y92890D01*
X56765Y92903D01*
X56821Y92912D01*
X56880Y92918D01*
X56939Y92922D01*
X56958D01*
X56980Y92918D01*
X57011D01*
X57045Y92912D01*
X57089Y92906D01*
X57136Y92897D01*
X57186Y92884D01*
X57239Y92869D01*
X57298Y92850D01*
X57357Y92828D01*
X57417Y92800D01*
X57476Y92766D01*
X57535Y92728D01*
X57591Y92681D01*
X57648Y92631D01*
X57651Y92628D01*
X57660Y92619D01*
X57676Y92600D01*
X57694Y92578D01*
X57716Y92550D01*
X57738Y92516D01*
X57766Y92475D01*
X57794Y92429D01*
X57819Y92379D01*
X57847Y92323D01*
X57869Y92260D01*
X57894Y92195D01*
X57910Y92123D01*
X57925Y92048D01*
X57935Y91967D01*
X57938Y91883D01*
Y91876D01*
Y91864D01*
X57935Y91842D01*
Y91811D01*
X57932Y91773D01*
X57925Y91730D01*
X57916Y91680D01*
X57907Y91627D01*
X57891Y91571D01*
X57875Y91508D01*
X57854Y91446D01*
X57829Y91383D01*
X57801Y91321D01*
X57766Y91255D01*
X57726Y91193D01*
X57682Y91134D01*
X57679Y91131D01*
X57666Y91118D01*
X57651Y91100D01*
X57626Y91075D01*
X57595Y91043D01*
X57557Y91012D01*
X57513Y90978D01*
X57464Y90940D01*
X57404Y90903D01*
X57342Y90869D01*
X57273Y90837D01*
X57198Y90806D01*
X57117Y90781D01*
X57033Y90763D01*
X56939Y90750D01*
X56843Y90747D01*
X56824D01*
X56802Y90750D01*
X56771D01*
X56733Y90753D01*
X56690Y90759D01*
X56643Y90769D01*
X56590Y90778D01*
X56534Y90791D01*
X56478Y90806D01*
X56418Y90825D01*
X56356Y90850D01*
X56297Y90878D01*
X56237Y90909D01*
X56181Y90947D01*
X56128Y90990D01*
X56125Y90993D01*
X56116Y91003D01*
X56103Y91015D01*
X56085Y91034D01*
X56063Y91059D01*
X56041Y91090D01*
X56013Y91124D01*
X55988Y91162D01*
X55960Y91206D01*
X55932Y91255D01*
X55907Y91309D01*
X55882Y91368D01*
X55860Y91430D01*
X55841Y91496D01*
X55826Y91564D01*
X55816Y91639D01*
X56228Y91674D01*
Y91671D01*
X56231Y91661D01*
X56234Y91645D01*
X56237Y91624D01*
X56244Y91599D01*
X56250Y91571D01*
X56272Y91502D01*
X56300Y91430D01*
X56334Y91355D01*
X56381Y91281D01*
X56409Y91249D01*
X56437Y91218D01*
X56440Y91215D01*
X56446Y91212D01*
X56456Y91206D01*
X56468Y91196D01*
X56484Y91184D01*
X56503Y91171D01*
X56552Y91143D01*
X56612Y91115D01*
X56680Y91093D01*
X56758Y91075D01*
X56799Y91071D01*
X56843Y91068D01*
X56871D01*
X56889Y91071D01*
X56914Y91075D01*
X56942Y91081D01*
X56974Y91087D01*
X57008Y91096D01*
X57086Y91121D01*
X57123Y91137D01*
X57164Y91159D01*
X57205Y91184D01*
X57245Y91212D01*
X57286Y91243D01*
X57323Y91281D01*
X57326Y91284D01*
X57332Y91290D01*
X57342Y91302D01*
X57354Y91321D01*
X57370Y91340D01*
X57385Y91368D01*
X57404Y91399D01*
X57423Y91433D01*
X57439Y91471D01*
X57457Y91514D01*
X57473Y91561D01*
X57489Y91611D01*
X57501Y91664D01*
X57510Y91724D01*
X57517Y91783D01*
X57520Y91848D01*
Y91851D01*
Y91864D01*
Y91879D01*
X57517Y91904D01*
X57513Y91933D01*
X57510Y91964D01*
X57504Y92001D01*
X57495Y92042D01*
X57473Y92126D01*
X57457Y92170D01*
X57439Y92213D01*
X57417Y92257D01*
X57392Y92301D01*
X57364Y92341D01*
X57329Y92379D01*
X57326Y92382D01*
X57320Y92388D01*
X57311Y92397D01*
X57295Y92410D01*
X57276Y92426D01*
X57254Y92441D01*
X57226Y92460D01*
X57198Y92479D01*
X57164Y92494D01*
X57127Y92513D01*
X57086Y92528D01*
X57042Y92544D01*
X56992Y92557D01*
X56942Y92566D01*
X56889Y92572D01*
X56833Y92575D01*
X56802D01*
X56783Y92572D01*
X56765D01*
X56718Y92566D01*
X56665Y92553D01*
X56609Y92538D01*
X56549Y92516D01*
X56490Y92488D01*
X56487D01*
X56484Y92485D01*
X56465Y92472D01*
X56437Y92454D01*
X56406Y92429D01*
X56365Y92394D01*
X56328Y92357D01*
X56287Y92313D01*
X56253Y92266D01*
X55885Y92313D01*
X56194Y93957D01*
X57788D01*
Y93583D01*
D02*
G37*
G36*
X51458Y94007D02*
X51492D01*
X51529Y94004D01*
X51573Y93998D01*
X51623Y93989D01*
X51679Y93979D01*
X51735Y93964D01*
X51794Y93948D01*
X51857Y93926D01*
X51916Y93901D01*
X51979Y93873D01*
X52035Y93839D01*
X52091Y93798D01*
X52144Y93755D01*
X52147Y93752D01*
X52156Y93742D01*
X52169Y93730D01*
X52184Y93708D01*
X52206Y93683D01*
X52228Y93655D01*
X52253Y93621D01*
X52278Y93580D01*
X52303Y93536D01*
X52328Y93486D01*
X52350Y93436D01*
X52372Y93380D01*
X52387Y93321D01*
X52400Y93255D01*
X52409Y93190D01*
X52412Y93121D01*
Y93118D01*
Y93112D01*
Y93103D01*
Y93090D01*
X52409Y93071D01*
Y93053D01*
X52403Y93003D01*
X52394Y92947D01*
X52378Y92881D01*
X52359Y92812D01*
X52331Y92744D01*
Y92741D01*
X52328Y92734D01*
X52322Y92725D01*
X52315Y92713D01*
X52306Y92694D01*
X52297Y92675D01*
X52269Y92625D01*
X52234Y92569D01*
X52188Y92500D01*
X52135Y92429D01*
X52069Y92354D01*
X52066Y92351D01*
X52060Y92344D01*
X52050Y92332D01*
X52035Y92316D01*
X52013Y92295D01*
X51991Y92269D01*
X51960Y92241D01*
X51925Y92207D01*
X51888Y92170D01*
X51841Y92126D01*
X51794Y92079D01*
X51738Y92029D01*
X51679Y91976D01*
X51613Y91917D01*
X51542Y91858D01*
X51467Y91792D01*
X51464Y91789D01*
X51451Y91780D01*
X51433Y91764D01*
X51411Y91745D01*
X51383Y91720D01*
X51351Y91692D01*
X51277Y91630D01*
X51202Y91564D01*
X51127Y91499D01*
X51092Y91468D01*
X51061Y91436D01*
X51033Y91412D01*
X51011Y91390D01*
X51008Y91387D01*
X50996Y91371D01*
X50977Y91349D01*
X50952Y91324D01*
X50927Y91290D01*
X50899Y91255D01*
X50871Y91218D01*
X50846Y91177D01*
X52415D01*
Y90800D01*
X50303D01*
Y90803D01*
Y90806D01*
Y90825D01*
Y90850D01*
X50306Y90887D01*
X50313Y90928D01*
X50319Y90975D01*
X50331Y91022D01*
X50347Y91071D01*
Y91075D01*
X50350Y91081D01*
X50356Y91093D01*
X50362Y91109D01*
X50372Y91128D01*
X50381Y91149D01*
X50409Y91206D01*
X50447Y91271D01*
X50490Y91343D01*
X50543Y91418D01*
X50606Y91496D01*
X50609Y91499D01*
X50615Y91505D01*
X50625Y91518D01*
X50640Y91533D01*
X50659Y91552D01*
X50681Y91577D01*
X50706Y91605D01*
X50737Y91636D01*
X50771Y91667D01*
X50809Y91705D01*
X50852Y91745D01*
X50896Y91789D01*
X50946Y91833D01*
X50999Y91879D01*
X51058Y91929D01*
X51117Y91979D01*
X51124Y91986D01*
X51139Y91998D01*
X51167Y92020D01*
X51202Y92051D01*
X51245Y92085D01*
X51292Y92129D01*
X51345Y92176D01*
X51401Y92226D01*
X51520Y92335D01*
X51635Y92447D01*
X51688Y92503D01*
X51738Y92560D01*
X51785Y92610D01*
X51823Y92659D01*
X51826Y92663D01*
X51832Y92672D01*
X51841Y92685D01*
X51851Y92703D01*
X51866Y92725D01*
X51882Y92750D01*
X51897Y92781D01*
X51916Y92812D01*
X51951Y92884D01*
X51982Y92962D01*
X51991Y93006D01*
X52000Y93046D01*
X52007Y93090D01*
X52010Y93131D01*
Y93134D01*
Y93140D01*
Y93152D01*
X52007Y93171D01*
X52004Y93190D01*
X52000Y93212D01*
X51988Y93268D01*
X51969Y93330D01*
X51938Y93396D01*
X51919Y93427D01*
X51897Y93461D01*
X51872Y93493D01*
X51841Y93524D01*
X51838Y93527D01*
X51835Y93530D01*
X51823Y93539D01*
X51810Y93549D01*
X51794Y93561D01*
X51773Y93574D01*
X51751Y93589D01*
X51723Y93605D01*
X51695Y93621D01*
X51660Y93636D01*
X51585Y93661D01*
X51501Y93680D01*
X51454Y93683D01*
X51405Y93686D01*
X51376D01*
X51358Y93683D01*
X51333Y93680D01*
X51305Y93677D01*
X51273Y93670D01*
X51242Y93664D01*
X51167Y93645D01*
X51092Y93614D01*
X51055Y93595D01*
X51018Y93571D01*
X50983Y93546D01*
X50949Y93514D01*
X50946Y93511D01*
X50943Y93508D01*
X50933Y93496D01*
X50924Y93483D01*
X50911Y93468D01*
X50896Y93446D01*
X50880Y93421D01*
X50865Y93393D01*
X50849Y93362D01*
X50833Y93327D01*
X50821Y93287D01*
X50805Y93246D01*
X50796Y93202D01*
X50787Y93152D01*
X50784Y93103D01*
X50780Y93046D01*
X50378Y93087D01*
Y93093D01*
X50381Y93106D01*
X50384Y93131D01*
X50387Y93162D01*
X50397Y93199D01*
X50406Y93243D01*
X50419Y93290D01*
X50431Y93343D01*
X50450Y93396D01*
X50472Y93452D01*
X50497Y93508D01*
X50525Y93567D01*
X50559Y93624D01*
X50596Y93677D01*
X50640Y93727D01*
X50687Y93773D01*
X50690Y93777D01*
X50699Y93783D01*
X50715Y93795D01*
X50737Y93811D01*
X50765Y93830D01*
X50796Y93848D01*
X50837Y93870D01*
X50880Y93892D01*
X50930Y93914D01*
X50983Y93936D01*
X51043Y93954D01*
X51108Y93973D01*
X51177Y93989D01*
X51252Y94001D01*
X51330Y94007D01*
X51414Y94011D01*
X51436D01*
X51458Y94007D01*
D02*
G37*
G36*
X66223Y115195D02*
X66263D01*
X66310Y115192D01*
X66357Y115189D01*
X66463Y115176D01*
X66572Y115161D01*
X66675Y115139D01*
X66722Y115126D01*
X66765Y115111D01*
X66769D01*
X66775Y115108D01*
X66787Y115101D01*
X66803Y115095D01*
X66822Y115083D01*
X66843Y115070D01*
X66893Y115039D01*
X66949Y114998D01*
X67009Y114945D01*
X67068Y114880D01*
X67121Y114805D01*
X67124Y114802D01*
X67127Y114795D01*
X67134Y114783D01*
X67143Y114767D01*
X67152Y114746D01*
X67165Y114721D01*
X67177Y114696D01*
X67190Y114664D01*
X67212Y114593D01*
X67233Y114512D01*
X67249Y114421D01*
X67255Y114374D01*
Y114324D01*
Y114321D01*
Y114309D01*
Y114290D01*
X67252Y114268D01*
X67249Y114237D01*
X67243Y114206D01*
X67237Y114165D01*
X67227Y114125D01*
X67215Y114081D01*
X67202Y114034D01*
X67184Y113987D01*
X67162Y113937D01*
X67137Y113891D01*
X67106Y113841D01*
X67074Y113794D01*
X67034Y113750D01*
X67031Y113747D01*
X67024Y113741D01*
X67012Y113728D01*
X66993Y113713D01*
X66968Y113694D01*
X66940Y113672D01*
X66906Y113651D01*
X66865Y113626D01*
X66822Y113601D01*
X66772Y113576D01*
X66716Y113551D01*
X66653Y113526D01*
X66588Y113504D01*
X66516Y113485D01*
X66438Y113466D01*
X66354Y113454D01*
X66357D01*
X66360Y113451D01*
X66369Y113445D01*
X66382Y113441D01*
X66413Y113423D01*
X66450Y113404D01*
X66491Y113379D01*
X66531Y113354D01*
X66572Y113323D01*
X66609Y113295D01*
X66613Y113292D01*
X66619Y113289D01*
X66628Y113276D01*
X66641Y113264D01*
X66656Y113248D01*
X66675Y113226D01*
X66697Y113204D01*
X66722Y113176D01*
X66775Y113114D01*
X66834Y113042D01*
X66896Y112958D01*
X66959Y112867D01*
X67511Y112000D01*
X66984D01*
X66559Y112665D01*
X66556Y112668D01*
X66550Y112677D01*
X66541Y112693D01*
X66528Y112711D01*
X66513Y112736D01*
X66494Y112764D01*
X66453Y112827D01*
X66404Y112899D01*
X66354Y112970D01*
X66301Y113042D01*
X66279Y113073D01*
X66254Y113104D01*
Y113108D01*
X66247Y113111D01*
X66235Y113129D01*
X66210Y113157D01*
X66182Y113189D01*
X66148Y113223D01*
X66113Y113257D01*
X66076Y113292D01*
X66039Y113317D01*
X66035Y113320D01*
X66023Y113326D01*
X66004Y113338D01*
X65979Y113351D01*
X65951Y113367D01*
X65920Y113379D01*
X65886Y113395D01*
X65848Y113404D01*
X65845D01*
X65836Y113407D01*
X65817Y113410D01*
X65792Y113413D01*
X65761D01*
X65720Y113417D01*
X65670Y113420D01*
X65124D01*
Y112000D01*
X64700D01*
Y115198D01*
X66188D01*
X66223Y115195D01*
D02*
G37*
G36*
X54222Y92700D02*
X55623Y90800D01*
X55064D01*
X53925Y92413D01*
X53404Y91908D01*
Y90800D01*
X52980D01*
Y93998D01*
X53404D01*
Y92413D01*
X54989Y93998D01*
X55563D01*
X54222Y92700D01*
D02*
G37*
G36*
X31522D02*
X32923Y90800D01*
X32364D01*
X31225Y92413D01*
X30704Y91908D01*
Y90800D01*
X30280D01*
Y93998D01*
X30704D01*
Y92413D01*
X32289Y93998D01*
X32863D01*
X31522Y92700D01*
D02*
G37*
G36*
X35088Y93583D02*
X33806D01*
X33634Y92719D01*
X33637Y92722D01*
X33647Y92728D01*
X33662Y92738D01*
X33684Y92750D01*
X33709Y92766D01*
X33743Y92784D01*
X33778Y92800D01*
X33818Y92822D01*
X33862Y92840D01*
X33909Y92856D01*
X34012Y92890D01*
X34065Y92903D01*
X34121Y92912D01*
X34180Y92918D01*
X34239Y92922D01*
X34258D01*
X34280Y92918D01*
X34311D01*
X34345Y92912D01*
X34389Y92906D01*
X34436Y92897D01*
X34486Y92884D01*
X34539Y92869D01*
X34598Y92850D01*
X34657Y92828D01*
X34717Y92800D01*
X34776Y92766D01*
X34835Y92728D01*
X34891Y92681D01*
X34948Y92631D01*
X34951Y92628D01*
X34960Y92619D01*
X34976Y92600D01*
X34994Y92578D01*
X35016Y92550D01*
X35038Y92516D01*
X35066Y92475D01*
X35094Y92429D01*
X35119Y92379D01*
X35147Y92323D01*
X35169Y92260D01*
X35194Y92195D01*
X35210Y92123D01*
X35225Y92048D01*
X35235Y91967D01*
X35238Y91883D01*
Y91876D01*
Y91864D01*
X35235Y91842D01*
Y91811D01*
X35232Y91773D01*
X35225Y91730D01*
X35216Y91680D01*
X35207Y91627D01*
X35191Y91571D01*
X35175Y91508D01*
X35153Y91446D01*
X35129Y91383D01*
X35100Y91321D01*
X35066Y91255D01*
X35026Y91193D01*
X34982Y91134D01*
X34979Y91131D01*
X34966Y91118D01*
X34951Y91100D01*
X34926Y91075D01*
X34895Y91043D01*
X34857Y91012D01*
X34813Y90978D01*
X34764Y90940D01*
X34704Y90903D01*
X34642Y90869D01*
X34573Y90837D01*
X34498Y90806D01*
X34417Y90781D01*
X34333Y90763D01*
X34239Y90750D01*
X34143Y90747D01*
X34124D01*
X34102Y90750D01*
X34071D01*
X34033Y90753D01*
X33990Y90759D01*
X33943Y90769D01*
X33890Y90778D01*
X33834Y90791D01*
X33778Y90806D01*
X33718Y90825D01*
X33656Y90850D01*
X33597Y90878D01*
X33537Y90909D01*
X33481Y90947D01*
X33428Y90990D01*
X33425Y90993D01*
X33416Y91003D01*
X33403Y91015D01*
X33384Y91034D01*
X33363Y91059D01*
X33341Y91090D01*
X33313Y91124D01*
X33288Y91162D01*
X33260Y91206D01*
X33232Y91255D01*
X33207Y91309D01*
X33182Y91368D01*
X33160Y91430D01*
X33141Y91496D01*
X33125Y91564D01*
X33116Y91639D01*
X33528Y91674D01*
Y91671D01*
X33531Y91661D01*
X33534Y91645D01*
X33537Y91624D01*
X33544Y91599D01*
X33550Y91571D01*
X33572Y91502D01*
X33600Y91430D01*
X33634Y91355D01*
X33681Y91281D01*
X33709Y91249D01*
X33737Y91218D01*
X33740Y91215D01*
X33746Y91212D01*
X33756Y91206D01*
X33768Y91196D01*
X33784Y91184D01*
X33803Y91171D01*
X33852Y91143D01*
X33912Y91115D01*
X33980Y91093D01*
X34058Y91075D01*
X34099Y91071D01*
X34143Y91068D01*
X34171D01*
X34189Y91071D01*
X34214Y91075D01*
X34242Y91081D01*
X34274Y91087D01*
X34308Y91096D01*
X34386Y91121D01*
X34423Y91137D01*
X34464Y91159D01*
X34505Y91184D01*
X34545Y91212D01*
X34586Y91243D01*
X34623Y91281D01*
X34626Y91284D01*
X34633Y91290D01*
X34642Y91302D01*
X34654Y91321D01*
X34670Y91340D01*
X34686Y91368D01*
X34704Y91399D01*
X34723Y91433D01*
X34739Y91471D01*
X34757Y91514D01*
X34773Y91561D01*
X34789Y91611D01*
X34801Y91664D01*
X34810Y91724D01*
X34817Y91783D01*
X34820Y91848D01*
Y91851D01*
Y91864D01*
Y91879D01*
X34817Y91904D01*
X34813Y91933D01*
X34810Y91964D01*
X34804Y92001D01*
X34795Y92042D01*
X34773Y92126D01*
X34757Y92170D01*
X34739Y92213D01*
X34717Y92257D01*
X34692Y92301D01*
X34664Y92341D01*
X34629Y92379D01*
X34626Y92382D01*
X34620Y92388D01*
X34611Y92397D01*
X34595Y92410D01*
X34576Y92426D01*
X34554Y92441D01*
X34526Y92460D01*
X34498Y92479D01*
X34464Y92494D01*
X34427Y92513D01*
X34386Y92528D01*
X34342Y92544D01*
X34292Y92557D01*
X34242Y92566D01*
X34189Y92572D01*
X34133Y92575D01*
X34102D01*
X34083Y92572D01*
X34065D01*
X34018Y92566D01*
X33965Y92553D01*
X33909Y92538D01*
X33849Y92516D01*
X33790Y92488D01*
X33787D01*
X33784Y92485D01*
X33765Y92472D01*
X33737Y92454D01*
X33706Y92429D01*
X33665Y92394D01*
X33628Y92357D01*
X33587Y92313D01*
X33553Y92266D01*
X33185Y92313D01*
X33494Y93957D01*
X35088D01*
Y93583D01*
D02*
G37*
G36*
X55111Y96123D02*
X55542D01*
Y95764D01*
X55111D01*
Y95000D01*
X54718D01*
Y95764D01*
X53330D01*
Y96123D01*
X54790Y98198D01*
X55111D01*
Y96123D01*
D02*
G37*
G36*
X51923Y98195D02*
X51963D01*
X52010Y98192D01*
X52057Y98189D01*
X52163Y98176D01*
X52272Y98161D01*
X52375Y98139D01*
X52422Y98126D01*
X52465Y98111D01*
X52469D01*
X52475Y98107D01*
X52487Y98101D01*
X52503Y98095D01*
X52522Y98083D01*
X52543Y98070D01*
X52593Y98039D01*
X52649Y97998D01*
X52709Y97945D01*
X52768Y97880D01*
X52821Y97805D01*
X52824Y97802D01*
X52827Y97795D01*
X52834Y97783D01*
X52843Y97767D01*
X52852Y97746D01*
X52865Y97721D01*
X52877Y97696D01*
X52890Y97664D01*
X52912Y97593D01*
X52933Y97512D01*
X52949Y97421D01*
X52955Y97374D01*
Y97324D01*
Y97321D01*
Y97309D01*
Y97290D01*
X52952Y97268D01*
X52949Y97237D01*
X52943Y97206D01*
X52937Y97165D01*
X52927Y97125D01*
X52915Y97081D01*
X52902Y97034D01*
X52883Y96987D01*
X52862Y96938D01*
X52837Y96891D01*
X52806Y96841D01*
X52774Y96794D01*
X52734Y96750D01*
X52731Y96747D01*
X52724Y96741D01*
X52712Y96728D01*
X52693Y96713D01*
X52668Y96694D01*
X52640Y96672D01*
X52606Y96650D01*
X52565Y96626D01*
X52522Y96601D01*
X52472Y96576D01*
X52416Y96551D01*
X52353Y96526D01*
X52288Y96504D01*
X52216Y96485D01*
X52138Y96466D01*
X52054Y96454D01*
X52057D01*
X52060Y96451D01*
X52069Y96445D01*
X52082Y96441D01*
X52113Y96423D01*
X52150Y96404D01*
X52191Y96379D01*
X52231Y96354D01*
X52272Y96323D01*
X52309Y96295D01*
X52313Y96292D01*
X52319Y96289D01*
X52328Y96276D01*
X52341Y96264D01*
X52356Y96248D01*
X52375Y96226D01*
X52397Y96204D01*
X52422Y96176D01*
X52475Y96114D01*
X52534Y96042D01*
X52596Y95958D01*
X52659Y95867D01*
X53211Y95000D01*
X52684D01*
X52259Y95665D01*
X52256Y95668D01*
X52250Y95677D01*
X52241Y95693D01*
X52228Y95711D01*
X52213Y95736D01*
X52194Y95764D01*
X52153Y95827D01*
X52104Y95899D01*
X52054Y95970D01*
X52001Y96042D01*
X51979Y96073D01*
X51954Y96105D01*
Y96108D01*
X51947Y96111D01*
X51935Y96129D01*
X51910Y96157D01*
X51882Y96189D01*
X51848Y96223D01*
X51813Y96257D01*
X51776Y96292D01*
X51739Y96317D01*
X51735Y96320D01*
X51723Y96326D01*
X51704Y96338D01*
X51679Y96351D01*
X51651Y96367D01*
X51620Y96379D01*
X51586Y96395D01*
X51548Y96404D01*
X51545D01*
X51536Y96407D01*
X51517Y96410D01*
X51492Y96413D01*
X51461D01*
X51420Y96416D01*
X51370Y96420D01*
X50824D01*
Y95000D01*
X50400D01*
Y98198D01*
X51888D01*
X51923Y98195D01*
D02*
G37*
G36*
X66837Y48900D02*
X66443D01*
Y51399D01*
X66440D01*
X66437Y51393D01*
X66428Y51387D01*
X66418Y51377D01*
X66387Y51349D01*
X66343Y51315D01*
X66290Y51274D01*
X66225Y51227D01*
X66150Y51178D01*
X66069Y51128D01*
X66066D01*
X66060Y51121D01*
X66047Y51115D01*
X66031Y51106D01*
X66010Y51093D01*
X65988Y51081D01*
X65932Y51053D01*
X65869Y51022D01*
X65801Y50987D01*
X65729Y50956D01*
X65660Y50928D01*
Y51306D01*
X65663Y51309D01*
X65676Y51312D01*
X65691Y51321D01*
X65716Y51334D01*
X65745Y51349D01*
X65776Y51368D01*
X65813Y51387D01*
X65854Y51412D01*
X65944Y51465D01*
X66041Y51530D01*
X66138Y51602D01*
X66234Y51680D01*
X66237Y51683D01*
X66244Y51689D01*
X66259Y51702D01*
X66275Y51717D01*
X66294Y51739D01*
X66319Y51761D01*
X66343Y51789D01*
X66372Y51817D01*
X66428Y51883D01*
X66484Y51955D01*
X66537Y52033D01*
X66562Y52070D01*
X66581Y52110D01*
X66837D01*
Y48900D01*
D02*
G37*
G36*
X17088Y44107D02*
X17113Y44104D01*
X17145Y44101D01*
X17176Y44098D01*
X17244Y44085D01*
X17319Y44067D01*
X17397Y44039D01*
X17472Y44004D01*
X17475D01*
X17482Y43998D01*
X17491Y43995D01*
X17507Y43986D01*
X17541Y43961D01*
X17588Y43929D01*
X17638Y43886D01*
X17691Y43836D01*
X17744Y43773D01*
X17794Y43705D01*
Y43702D01*
X17800Y43696D01*
X17806Y43686D01*
X17815Y43671D01*
X17825Y43652D01*
X17837Y43630D01*
X17850Y43602D01*
X17865Y43574D01*
X17881Y43540D01*
X17897Y43505D01*
X17928Y43424D01*
X17962Y43330D01*
X17990Y43231D01*
Y43227D01*
X17993Y43218D01*
X17996Y43203D01*
X18003Y43181D01*
X18009Y43153D01*
X18015Y43118D01*
X18021Y43078D01*
X18028Y43031D01*
X18034Y42981D01*
X18040Y42922D01*
X18046Y42862D01*
X18053Y42794D01*
X18059Y42722D01*
X18062Y42644D01*
X18065Y42563D01*
Y42476D01*
Y42469D01*
Y42451D01*
Y42423D01*
X18062Y42382D01*
Y42335D01*
X18059Y42279D01*
X18056Y42220D01*
X18049Y42151D01*
X18043Y42079D01*
X18037Y42008D01*
X18015Y41855D01*
X17987Y41705D01*
X17968Y41636D01*
X17946Y41568D01*
Y41565D01*
X17940Y41552D01*
X17934Y41533D01*
X17925Y41511D01*
X17912Y41480D01*
X17897Y41449D01*
X17881Y41412D01*
X17859Y41371D01*
X17812Y41287D01*
X17753Y41196D01*
X17681Y41112D01*
X17641Y41072D01*
X17600Y41034D01*
X17597Y41031D01*
X17591Y41025D01*
X17578Y41015D01*
X17560Y41006D01*
X17538Y40990D01*
X17510Y40975D01*
X17479Y40959D01*
X17444Y40941D01*
X17404Y40922D01*
X17360Y40906D01*
X17313Y40891D01*
X17260Y40875D01*
X17207Y40866D01*
X17148Y40856D01*
X17088Y40850D01*
X17023Y40847D01*
X17001D01*
X16979Y40850D01*
X16945Y40853D01*
X16907Y40856D01*
X16861Y40866D01*
X16811Y40875D01*
X16758Y40887D01*
X16702Y40906D01*
X16642Y40928D01*
X16580Y40953D01*
X16521Y40984D01*
X16461Y41022D01*
X16402Y41065D01*
X16346Y41118D01*
X16296Y41175D01*
X16293Y41181D01*
X16284Y41193D01*
X16268Y41218D01*
X16246Y41253D01*
X16224Y41296D01*
X16196Y41349D01*
X16168Y41415D01*
X16140Y41490D01*
X16109Y41574D01*
X16081Y41671D01*
X16053Y41777D01*
X16031Y41892D01*
X16009Y42023D01*
X15993Y42160D01*
X15984Y42313D01*
X15981Y42476D01*
Y42479D01*
Y42482D01*
Y42501D01*
Y42532D01*
X15984Y42569D01*
Y42619D01*
X15987Y42672D01*
X15990Y42735D01*
X15996Y42803D01*
X16003Y42875D01*
X16009Y42950D01*
X16031Y43100D01*
X16059Y43253D01*
X16078Y43321D01*
X16096Y43390D01*
Y43393D01*
X16103Y43405D01*
X16109Y43424D01*
X16118Y43446D01*
X16131Y43477D01*
X16146Y43508D01*
X16162Y43546D01*
X16184Y43586D01*
X16230Y43674D01*
X16290Y43761D01*
X16362Y43845D01*
X16402Y43886D01*
X16443Y43923D01*
X16446Y43926D01*
X16452Y43933D01*
X16468Y43942D01*
X16483Y43951D01*
X16508Y43967D01*
X16533Y43983D01*
X16567Y43998D01*
X16602Y44017D01*
X16642Y44036D01*
X16686Y44051D01*
X16733Y44067D01*
X16786Y44082D01*
X16839Y44092D01*
X16898Y44101D01*
X16957Y44107D01*
X17023Y44111D01*
X17067D01*
X17088Y44107D01*
D02*
G37*
G36*
X18391Y49151D02*
X18432Y49148D01*
X18479Y49142D01*
X18532Y49132D01*
X18591Y49123D01*
X18650Y49110D01*
X18716Y49095D01*
X18784Y49073D01*
X18850Y49051D01*
X18918Y49023D01*
X18987Y48989D01*
X19053Y48951D01*
X19115Y48908D01*
X19118Y48905D01*
X19131Y48895D01*
X19146Y48883D01*
X19168Y48864D01*
X19196Y48839D01*
X19224Y48808D01*
X19259Y48770D01*
X19296Y48730D01*
X19333Y48683D01*
X19371Y48633D01*
X19408Y48577D01*
X19446Y48515D01*
X19483Y48449D01*
X19518Y48377D01*
X19546Y48302D01*
X19574Y48221D01*
X19156Y48125D01*
Y48128D01*
X19149Y48140D01*
X19143Y48159D01*
X19134Y48181D01*
X19124Y48209D01*
X19109Y48243D01*
X19093Y48277D01*
X19074Y48318D01*
X19028Y48399D01*
X18971Y48483D01*
X18906Y48561D01*
X18869Y48599D01*
X18831Y48630D01*
X18828Y48633D01*
X18822Y48636D01*
X18809Y48646D01*
X18794Y48655D01*
X18772Y48667D01*
X18747Y48680D01*
X18719Y48695D01*
X18685Y48711D01*
X18650Y48727D01*
X18610Y48742D01*
X18566Y48755D01*
X18519Y48767D01*
X18416Y48786D01*
X18360Y48789D01*
X18301Y48792D01*
X18266D01*
X18238Y48789D01*
X18207Y48786D01*
X18170Y48783D01*
X18129Y48777D01*
X18085Y48770D01*
X17986Y48749D01*
X17936Y48736D01*
X17883Y48717D01*
X17833Y48695D01*
X17780Y48674D01*
X17730Y48646D01*
X17683Y48614D01*
X17680Y48611D01*
X17674Y48605D01*
X17661Y48596D01*
X17642Y48583D01*
X17624Y48564D01*
X17599Y48543D01*
X17574Y48518D01*
X17549Y48490D01*
X17518Y48455D01*
X17490Y48421D01*
X17461Y48380D01*
X17433Y48337D01*
X17405Y48293D01*
X17380Y48243D01*
X17358Y48193D01*
X17337Y48137D01*
Y48134D01*
X17334Y48125D01*
X17327Y48109D01*
X17321Y48087D01*
X17315Y48059D01*
X17305Y48028D01*
X17296Y47990D01*
X17287Y47950D01*
X17277Y47906D01*
X17268Y47856D01*
X17252Y47753D01*
X17240Y47641D01*
X17237Y47526D01*
Y47522D01*
Y47507D01*
Y47485D01*
X17240Y47457D01*
Y47423D01*
X17243Y47379D01*
X17246Y47335D01*
X17252Y47282D01*
X17259Y47229D01*
X17265Y47173D01*
X17287Y47051D01*
X17315Y46930D01*
X17355Y46811D01*
Y46808D01*
X17362Y46799D01*
X17368Y46783D01*
X17377Y46761D01*
X17390Y46736D01*
X17405Y46708D01*
X17446Y46643D01*
X17499Y46568D01*
X17561Y46493D01*
X17636Y46421D01*
X17680Y46390D01*
X17724Y46359D01*
X17727Y46356D01*
X17736Y46352D01*
X17749Y46346D01*
X17767Y46337D01*
X17789Y46324D01*
X17817Y46312D01*
X17848Y46299D01*
X17886Y46284D01*
X17923Y46271D01*
X17967Y46256D01*
X18057Y46234D01*
X18160Y46215D01*
X18213Y46212D01*
X18266Y46209D01*
X18301D01*
X18326Y46212D01*
X18357Y46215D01*
X18391Y46218D01*
X18432Y46224D01*
X18475Y46234D01*
X18569Y46259D01*
X18619Y46274D01*
X18672Y46293D01*
X18722Y46318D01*
X18772Y46346D01*
X18822Y46377D01*
X18869Y46412D01*
X18872Y46415D01*
X18878Y46421D01*
X18893Y46433D01*
X18909Y46449D01*
X18928Y46471D01*
X18953Y46499D01*
X18978Y46530D01*
X19003Y46565D01*
X19031Y46605D01*
X19059Y46652D01*
X19087Y46702D01*
X19115Y46755D01*
X19140Y46814D01*
X19162Y46880D01*
X19184Y46948D01*
X19202Y47020D01*
X19627Y46914D01*
Y46908D01*
X19621Y46892D01*
X19611Y46864D01*
X19602Y46830D01*
X19586Y46786D01*
X19567Y46736D01*
X19543Y46680D01*
X19518Y46621D01*
X19486Y46555D01*
X19452Y46490D01*
X19411Y46424D01*
X19368Y46359D01*
X19318Y46293D01*
X19268Y46231D01*
X19209Y46171D01*
X19146Y46118D01*
X19143Y46115D01*
X19131Y46106D01*
X19112Y46093D01*
X19084Y46075D01*
X19049Y46056D01*
X19009Y46034D01*
X18962Y46009D01*
X18912Y45984D01*
X18853Y45956D01*
X18787Y45934D01*
X18719Y45909D01*
X18644Y45891D01*
X18563Y45872D01*
X18482Y45859D01*
X18391Y45850D01*
X18301Y45847D01*
X18251D01*
X18213Y45850D01*
X18170Y45853D01*
X18120Y45859D01*
X18064Y45866D01*
X18001Y45872D01*
X17936Y45884D01*
X17867Y45897D01*
X17798Y45916D01*
X17727Y45934D01*
X17658Y45959D01*
X17586Y45987D01*
X17521Y46019D01*
X17458Y46056D01*
X17455Y46059D01*
X17446Y46065D01*
X17427Y46078D01*
X17405Y46097D01*
X17377Y46115D01*
X17349Y46143D01*
X17315Y46175D01*
X17277Y46212D01*
X17237Y46253D01*
X17196Y46296D01*
X17156Y46346D01*
X17115Y46402D01*
X17078Y46462D01*
X17037Y46524D01*
X17003Y46593D01*
X16969Y46664D01*
X16965Y46671D01*
X16962Y46683D01*
X16953Y46705D01*
X16943Y46733D01*
X16931Y46771D01*
X16915Y46814D01*
X16900Y46864D01*
X16884Y46920D01*
X16869Y46983D01*
X16853Y47048D01*
X16841Y47120D01*
X16825Y47195D01*
X16816Y47273D01*
X16806Y47354D01*
X16803Y47438D01*
X16800Y47522D01*
Y47529D01*
Y47544D01*
Y47572D01*
X16803Y47607D01*
X16806Y47650D01*
X16809Y47700D01*
X16816Y47756D01*
X16825Y47819D01*
X16834Y47884D01*
X16847Y47953D01*
X16862Y48028D01*
X16881Y48100D01*
X16903Y48175D01*
X16928Y48249D01*
X16956Y48321D01*
X16990Y48393D01*
X16993Y48396D01*
X17000Y48408D01*
X17009Y48430D01*
X17025Y48455D01*
X17047Y48487D01*
X17068Y48521D01*
X17096Y48561D01*
X17131Y48605D01*
X17165Y48649D01*
X17206Y48695D01*
X17252Y48742D01*
X17299Y48789D01*
X17352Y48836D01*
X17408Y48880D01*
X17468Y48923D01*
X17533Y48961D01*
X17536Y48964D01*
X17549Y48970D01*
X17568Y48979D01*
X17596Y48992D01*
X17627Y49004D01*
X17667Y49023D01*
X17711Y49039D01*
X17764Y49057D01*
X17817Y49076D01*
X17876Y49092D01*
X17942Y49110D01*
X18011Y49123D01*
X18082Y49135D01*
X18154Y49145D01*
X18232Y49151D01*
X18310Y49154D01*
X18357D01*
X18391Y49151D01*
D02*
G37*
G36*
X23288Y43720D02*
X21553D01*
Y42731D01*
X23054D01*
Y42354D01*
X21553D01*
Y40900D01*
X21129D01*
Y44098D01*
X23288D01*
Y43720D01*
D02*
G37*
G36*
X14976Y40900D02*
X14583D01*
Y43399D01*
X14580D01*
X14577Y43393D01*
X14568Y43387D01*
X14558Y43377D01*
X14527Y43349D01*
X14483Y43315D01*
X14430Y43274D01*
X14365Y43227D01*
X14290Y43178D01*
X14209Y43128D01*
X14206D01*
X14199Y43121D01*
X14187Y43115D01*
X14171Y43106D01*
X14149Y43093D01*
X14128Y43081D01*
X14071Y43053D01*
X14009Y43022D01*
X13940Y42987D01*
X13869Y42956D01*
X13800Y42928D01*
Y43306D01*
X13803Y43309D01*
X13816Y43312D01*
X13831Y43321D01*
X13856Y43334D01*
X13884Y43349D01*
X13915Y43368D01*
X13953Y43387D01*
X13993Y43412D01*
X14084Y43465D01*
X14181Y43530D01*
X14277Y43602D01*
X14374Y43680D01*
X14377Y43683D01*
X14383Y43689D01*
X14399Y43702D01*
X14415Y43717D01*
X14433Y43739D01*
X14458Y43761D01*
X14483Y43789D01*
X14511Y43817D01*
X14568Y43883D01*
X14624Y43955D01*
X14677Y44032D01*
X14702Y44070D01*
X14720Y44111D01*
X14976D01*
Y40900D01*
D02*
G37*
G36*
X52172Y27107D02*
X52197Y27104D01*
X52228Y27101D01*
X52259Y27098D01*
X52328Y27086D01*
X52403Y27067D01*
X52481Y27039D01*
X52556Y27004D01*
X52559D01*
X52565Y26998D01*
X52574Y26995D01*
X52590Y26986D01*
X52624Y26961D01*
X52671Y26930D01*
X52721Y26886D01*
X52774Y26836D01*
X52827Y26774D01*
X52877Y26705D01*
Y26702D01*
X52883Y26695D01*
X52890Y26686D01*
X52899Y26671D01*
X52908Y26652D01*
X52921Y26630D01*
X52933Y26602D01*
X52949Y26574D01*
X52965Y26539D01*
X52980Y26505D01*
X53011Y26424D01*
X53046Y26331D01*
X53074Y26231D01*
Y26228D01*
X53077Y26218D01*
X53080Y26203D01*
X53086Y26181D01*
X53092Y26153D01*
X53099Y26118D01*
X53105Y26078D01*
X53111Y26031D01*
X53117Y25981D01*
X53124Y25922D01*
X53130Y25863D01*
X53136Y25794D01*
X53142Y25722D01*
X53145Y25644D01*
X53149Y25563D01*
Y25476D01*
Y25469D01*
Y25451D01*
Y25423D01*
X53145Y25382D01*
Y25335D01*
X53142Y25279D01*
X53139Y25220D01*
X53133Y25151D01*
X53127Y25079D01*
X53120Y25008D01*
X53099Y24855D01*
X53071Y24705D01*
X53052Y24636D01*
X53030Y24568D01*
Y24565D01*
X53024Y24552D01*
X53017Y24533D01*
X53008Y24511D01*
X52996Y24480D01*
X52980Y24449D01*
X52965Y24412D01*
X52943Y24371D01*
X52896Y24287D01*
X52837Y24196D01*
X52765Y24112D01*
X52724Y24072D01*
X52684Y24034D01*
X52681Y24031D01*
X52674Y24025D01*
X52662Y24015D01*
X52643Y24006D01*
X52621Y23990D01*
X52593Y23975D01*
X52562Y23959D01*
X52528Y23941D01*
X52487Y23922D01*
X52443Y23906D01*
X52397Y23891D01*
X52344Y23875D01*
X52291Y23866D01*
X52231Y23856D01*
X52172Y23850D01*
X52106Y23847D01*
X52085D01*
X52063Y23850D01*
X52029Y23853D01*
X51991Y23856D01*
X51944Y23866D01*
X51894Y23875D01*
X51841Y23888D01*
X51785Y23906D01*
X51726Y23928D01*
X51663Y23953D01*
X51604Y23984D01*
X51545Y24022D01*
X51486Y24065D01*
X51429Y24118D01*
X51380Y24175D01*
X51376Y24181D01*
X51367Y24193D01*
X51351Y24218D01*
X51330Y24253D01*
X51308Y24296D01*
X51280Y24349D01*
X51252Y24415D01*
X51223Y24490D01*
X51192Y24574D01*
X51164Y24671D01*
X51136Y24777D01*
X51114Y24892D01*
X51092Y25023D01*
X51077Y25161D01*
X51068Y25313D01*
X51064Y25476D01*
Y25479D01*
Y25482D01*
Y25501D01*
Y25532D01*
X51068Y25569D01*
Y25619D01*
X51071Y25672D01*
X51074Y25735D01*
X51080Y25803D01*
X51086Y25875D01*
X51092Y25950D01*
X51114Y26100D01*
X51142Y26252D01*
X51161Y26321D01*
X51180Y26390D01*
Y26393D01*
X51186Y26405D01*
X51192Y26424D01*
X51202Y26446D01*
X51214Y26477D01*
X51230Y26508D01*
X51245Y26546D01*
X51267Y26586D01*
X51314Y26674D01*
X51373Y26761D01*
X51445Y26845D01*
X51486Y26886D01*
X51526Y26923D01*
X51529Y26926D01*
X51535Y26933D01*
X51551Y26942D01*
X51567Y26951D01*
X51592Y26967D01*
X51617Y26983D01*
X51651Y26998D01*
X51685Y27017D01*
X51726Y27036D01*
X51770Y27051D01*
X51816Y27067D01*
X51869Y27082D01*
X51922Y27092D01*
X51982Y27101D01*
X52041Y27107D01*
X52106Y27110D01*
X52150D01*
X52172Y27107D01*
D02*
G37*
G36*
X49689D02*
X49713Y27104D01*
X49745Y27101D01*
X49776Y27098D01*
X49845Y27086D01*
X49919Y27067D01*
X49997Y27039D01*
X50072Y27004D01*
X50075D01*
X50082Y26998D01*
X50091Y26995D01*
X50107Y26986D01*
X50141Y26961D01*
X50188Y26930D01*
X50238Y26886D01*
X50291Y26836D01*
X50344Y26774D01*
X50394Y26705D01*
Y26702D01*
X50400Y26695D01*
X50406Y26686D01*
X50415Y26671D01*
X50425Y26652D01*
X50437Y26630D01*
X50450Y26602D01*
X50465Y26574D01*
X50481Y26539D01*
X50497Y26505D01*
X50528Y26424D01*
X50562Y26331D01*
X50590Y26231D01*
Y26228D01*
X50593Y26218D01*
X50596Y26203D01*
X50603Y26181D01*
X50609Y26153D01*
X50615Y26118D01*
X50621Y26078D01*
X50628Y26031D01*
X50634Y25981D01*
X50640Y25922D01*
X50646Y25863D01*
X50653Y25794D01*
X50659Y25722D01*
X50662Y25644D01*
X50665Y25563D01*
Y25476D01*
Y25469D01*
Y25451D01*
Y25423D01*
X50662Y25382D01*
Y25335D01*
X50659Y25279D01*
X50656Y25220D01*
X50649Y25151D01*
X50643Y25079D01*
X50637Y25008D01*
X50615Y24855D01*
X50587Y24705D01*
X50568Y24636D01*
X50546Y24568D01*
Y24565D01*
X50540Y24552D01*
X50534Y24533D01*
X50525Y24511D01*
X50512Y24480D01*
X50497Y24449D01*
X50481Y24412D01*
X50459Y24371D01*
X50412Y24287D01*
X50353Y24196D01*
X50281Y24112D01*
X50241Y24072D01*
X50200Y24034D01*
X50197Y24031D01*
X50191Y24025D01*
X50178Y24015D01*
X50160Y24006D01*
X50138Y23990D01*
X50110Y23975D01*
X50078Y23959D01*
X50044Y23941D01*
X50004Y23922D01*
X49960Y23906D01*
X49913Y23891D01*
X49860Y23875D01*
X49807Y23866D01*
X49748Y23856D01*
X49689Y23850D01*
X49623Y23847D01*
X49601D01*
X49579Y23850D01*
X49545Y23853D01*
X49507Y23856D01*
X49461Y23866D01*
X49411Y23875D01*
X49358Y23888D01*
X49302Y23906D01*
X49242Y23928D01*
X49180Y23953D01*
X49121Y23984D01*
X49061Y24022D01*
X49002Y24065D01*
X48946Y24118D01*
X48896Y24175D01*
X48893Y24181D01*
X48884Y24193D01*
X48868Y24218D01*
X48846Y24253D01*
X48824Y24296D01*
X48796Y24349D01*
X48768Y24415D01*
X48740Y24490D01*
X48709Y24574D01*
X48681Y24671D01*
X48653Y24777D01*
X48631Y24892D01*
X48609Y25023D01*
X48593Y25161D01*
X48584Y25313D01*
X48581Y25476D01*
Y25479D01*
Y25482D01*
Y25501D01*
Y25532D01*
X48584Y25569D01*
Y25619D01*
X48587Y25672D01*
X48590Y25735D01*
X48597Y25803D01*
X48603Y25875D01*
X48609Y25950D01*
X48631Y26100D01*
X48659Y26252D01*
X48678Y26321D01*
X48696Y26390D01*
Y26393D01*
X48703Y26405D01*
X48709Y26424D01*
X48718Y26446D01*
X48731Y26477D01*
X48746Y26508D01*
X48762Y26546D01*
X48784Y26586D01*
X48831Y26674D01*
X48890Y26761D01*
X48961Y26845D01*
X49002Y26886D01*
X49043Y26923D01*
X49046Y26926D01*
X49052Y26933D01*
X49068Y26942D01*
X49083Y26951D01*
X49108Y26967D01*
X49133Y26983D01*
X49167Y26998D01*
X49202Y27017D01*
X49242Y27036D01*
X49286Y27051D01*
X49333Y27067D01*
X49386Y27082D01*
X49439Y27092D01*
X49498Y27101D01*
X49557Y27107D01*
X49623Y27110D01*
X49667D01*
X49689Y27107D01*
D02*
G37*
G36*
X21093Y49107D02*
X21127D01*
X21165Y49104D01*
X21209Y49098D01*
X21259Y49089D01*
X21315Y49079D01*
X21371Y49064D01*
X21430Y49048D01*
X21493Y49026D01*
X21552Y49001D01*
X21614Y48973D01*
X21670Y48939D01*
X21726Y48898D01*
X21779Y48855D01*
X21783Y48851D01*
X21792Y48842D01*
X21804Y48830D01*
X21820Y48808D01*
X21842Y48783D01*
X21864Y48755D01*
X21889Y48720D01*
X21914Y48680D01*
X21939Y48636D01*
X21964Y48586D01*
X21985Y48536D01*
X22007Y48480D01*
X22023Y48421D01*
X22035Y48355D01*
X22045Y48290D01*
X22048Y48221D01*
Y48218D01*
Y48212D01*
Y48203D01*
Y48190D01*
X22045Y48171D01*
Y48153D01*
X22039Y48103D01*
X22029Y48047D01*
X22014Y47981D01*
X21995Y47912D01*
X21967Y47844D01*
Y47841D01*
X21964Y47834D01*
X21957Y47825D01*
X21951Y47813D01*
X21942Y47794D01*
X21932Y47775D01*
X21904Y47725D01*
X21870Y47669D01*
X21823Y47600D01*
X21770Y47529D01*
X21705Y47454D01*
X21701Y47451D01*
X21695Y47444D01*
X21686Y47432D01*
X21670Y47416D01*
X21648Y47394D01*
X21627Y47370D01*
X21595Y47341D01*
X21561Y47307D01*
X21524Y47270D01*
X21477Y47226D01*
X21430Y47179D01*
X21374Y47129D01*
X21315Y47076D01*
X21249Y47017D01*
X21177Y46958D01*
X21102Y46892D01*
X21099Y46889D01*
X21087Y46880D01*
X21068Y46864D01*
X21046Y46845D01*
X21018Y46820D01*
X20987Y46792D01*
X20912Y46730D01*
X20837Y46664D01*
X20762Y46599D01*
X20728Y46568D01*
X20697Y46536D01*
X20669Y46512D01*
X20647Y46490D01*
X20644Y46487D01*
X20631Y46471D01*
X20613Y46449D01*
X20588Y46424D01*
X20563Y46390D01*
X20535Y46356D01*
X20507Y46318D01*
X20482Y46277D01*
X22051D01*
Y45900D01*
X19939D01*
Y45903D01*
Y45906D01*
Y45925D01*
Y45950D01*
X19942Y45987D01*
X19948Y46028D01*
X19954Y46075D01*
X19967Y46121D01*
X19982Y46171D01*
Y46175D01*
X19985Y46181D01*
X19992Y46193D01*
X19998Y46209D01*
X20007Y46228D01*
X20017Y46249D01*
X20045Y46306D01*
X20082Y46371D01*
X20126Y46443D01*
X20179Y46518D01*
X20241Y46596D01*
X20245Y46599D01*
X20251Y46605D01*
X20260Y46618D01*
X20276Y46633D01*
X20294Y46652D01*
X20316Y46677D01*
X20341Y46705D01*
X20372Y46736D01*
X20407Y46767D01*
X20444Y46805D01*
X20488Y46845D01*
X20531Y46889D01*
X20581Y46933D01*
X20635Y46979D01*
X20694Y47029D01*
X20753Y47079D01*
X20759Y47086D01*
X20775Y47098D01*
X20803Y47120D01*
X20837Y47151D01*
X20881Y47185D01*
X20928Y47229D01*
X20981Y47276D01*
X21037Y47326D01*
X21156Y47435D01*
X21271Y47547D01*
X21324Y47603D01*
X21374Y47660D01*
X21421Y47710D01*
X21458Y47760D01*
X21461Y47763D01*
X21467Y47772D01*
X21477Y47785D01*
X21486Y47803D01*
X21502Y47825D01*
X21517Y47850D01*
X21533Y47881D01*
X21552Y47912D01*
X21586Y47984D01*
X21617Y48062D01*
X21627Y48106D01*
X21636Y48146D01*
X21642Y48190D01*
X21645Y48231D01*
Y48234D01*
Y48240D01*
Y48252D01*
X21642Y48271D01*
X21639Y48290D01*
X21636Y48312D01*
X21623Y48368D01*
X21605Y48430D01*
X21574Y48496D01*
X21555Y48527D01*
X21533Y48561D01*
X21508Y48593D01*
X21477Y48624D01*
X21474Y48627D01*
X21471Y48630D01*
X21458Y48639D01*
X21446Y48649D01*
X21430Y48661D01*
X21408Y48674D01*
X21386Y48689D01*
X21358Y48705D01*
X21330Y48720D01*
X21296Y48736D01*
X21221Y48761D01*
X21137Y48780D01*
X21090Y48783D01*
X21040Y48786D01*
X21012D01*
X20993Y48783D01*
X20968Y48780D01*
X20940Y48777D01*
X20909Y48770D01*
X20878Y48764D01*
X20803Y48745D01*
X20728Y48714D01*
X20691Y48695D01*
X20653Y48671D01*
X20619Y48646D01*
X20585Y48614D01*
X20581Y48611D01*
X20578Y48608D01*
X20569Y48596D01*
X20560Y48583D01*
X20547Y48568D01*
X20531Y48546D01*
X20516Y48521D01*
X20500Y48493D01*
X20485Y48461D01*
X20469Y48427D01*
X20457Y48387D01*
X20441Y48346D01*
X20432Y48302D01*
X20422Y48252D01*
X20419Y48203D01*
X20416Y48146D01*
X20014Y48187D01*
Y48193D01*
X20017Y48206D01*
X20020Y48231D01*
X20023Y48262D01*
X20032Y48299D01*
X20042Y48343D01*
X20054Y48390D01*
X20067Y48443D01*
X20085Y48496D01*
X20107Y48552D01*
X20132Y48608D01*
X20160Y48667D01*
X20195Y48724D01*
X20232Y48777D01*
X20276Y48827D01*
X20323Y48873D01*
X20326Y48877D01*
X20335Y48883D01*
X20351Y48895D01*
X20372Y48911D01*
X20401Y48930D01*
X20432Y48948D01*
X20472Y48970D01*
X20516Y48992D01*
X20566Y49014D01*
X20619Y49036D01*
X20678Y49054D01*
X20744Y49073D01*
X20812Y49089D01*
X20887Y49101D01*
X20965Y49107D01*
X21049Y49110D01*
X21071D01*
X21093Y49107D01*
D02*
G37*
G36*
X47576Y23900D02*
X47183D01*
Y26399D01*
X47180D01*
X47177Y26393D01*
X47168Y26387D01*
X47158Y26377D01*
X47127Y26349D01*
X47083Y26315D01*
X47030Y26274D01*
X46965Y26228D01*
X46890Y26178D01*
X46809Y26128D01*
X46806D01*
X46799Y26121D01*
X46787Y26115D01*
X46771Y26106D01*
X46749Y26093D01*
X46728Y26081D01*
X46671Y26053D01*
X46609Y26022D01*
X46540Y25987D01*
X46469Y25956D01*
X46400Y25928D01*
Y26305D01*
X46403Y26309D01*
X46416Y26312D01*
X46431Y26321D01*
X46456Y26334D01*
X46484Y26349D01*
X46515Y26368D01*
X46553Y26387D01*
X46593Y26412D01*
X46684Y26465D01*
X46781Y26530D01*
X46877Y26602D01*
X46974Y26680D01*
X46977Y26683D01*
X46983Y26689D01*
X46999Y26702D01*
X47015Y26717D01*
X47033Y26739D01*
X47058Y26761D01*
X47083Y26789D01*
X47111Y26817D01*
X47168Y26883D01*
X47224Y26954D01*
X47277Y27033D01*
X47302Y27070D01*
X47320Y27110D01*
X47576D01*
Y23900D01*
D02*
G37*
G36*
X31504Y28500D02*
X31111D01*
Y30999D01*
X31108D01*
X31105Y30993D01*
X31095Y30987D01*
X31086Y30977D01*
X31055Y30949D01*
X31011Y30915D01*
X30958Y30874D01*
X30893Y30828D01*
X30818Y30778D01*
X30737Y30728D01*
X30733D01*
X30727Y30721D01*
X30715Y30715D01*
X30699Y30706D01*
X30677Y30693D01*
X30656Y30681D01*
X30599Y30653D01*
X30537Y30622D01*
X30468Y30587D01*
X30397Y30556D01*
X30328Y30528D01*
Y30906D01*
X30331Y30909D01*
X30343Y30912D01*
X30359Y30921D01*
X30384Y30934D01*
X30412Y30949D01*
X30443Y30968D01*
X30481Y30987D01*
X30521Y31012D01*
X30612Y31065D01*
X30709Y31130D01*
X30805Y31202D01*
X30902Y31280D01*
X30905Y31283D01*
X30911Y31289D01*
X30927Y31302D01*
X30943Y31317D01*
X30961Y31339D01*
X30986Y31361D01*
X31011Y31389D01*
X31039Y31417D01*
X31095Y31483D01*
X31152Y31554D01*
X31205Y31633D01*
X31230Y31670D01*
X31248Y31710D01*
X31504D01*
Y28500D01*
D02*
G37*
G36*
X29451D02*
X29005D01*
Y28946D01*
X29451D01*
Y28500D01*
D02*
G37*
G36*
X34487D02*
X34134D01*
Y28837D01*
X34131Y28834D01*
X34122Y28821D01*
X34106Y28800D01*
X34084Y28778D01*
X34056Y28747D01*
X34025Y28712D01*
X33985Y28678D01*
X33941Y28644D01*
X33891Y28606D01*
X33835Y28572D01*
X33775Y28537D01*
X33710Y28509D01*
X33641Y28484D01*
X33566Y28463D01*
X33485Y28450D01*
X33401Y28447D01*
X33367D01*
X33348Y28450D01*
X33326D01*
X33276Y28456D01*
X33217Y28466D01*
X33152Y28481D01*
X33086Y28500D01*
X33017Y28525D01*
X33014D01*
X33011Y28528D01*
X33002Y28534D01*
X32989Y28541D01*
X32958Y28556D01*
X32917Y28578D01*
X32874Y28606D01*
X32830Y28640D01*
X32790Y28678D01*
X32752Y28721D01*
X32749Y28728D01*
X32740Y28743D01*
X32724Y28768D01*
X32705Y28803D01*
X32687Y28843D01*
X32668Y28893D01*
X32649Y28949D01*
X32634Y29012D01*
Y29018D01*
X32631Y29033D01*
X32627Y29062D01*
X32624Y29102D01*
X32618Y29155D01*
X32615Y29218D01*
X32612Y29293D01*
Y29380D01*
Y30818D01*
X33005D01*
Y29530D01*
Y29526D01*
Y29517D01*
Y29502D01*
Y29480D01*
Y29455D01*
Y29427D01*
X33008Y29361D01*
X33011Y29293D01*
X33014Y29224D01*
X33017Y29193D01*
X33020Y29165D01*
X33024Y29136D01*
X33027Y29115D01*
Y29111D01*
X33030Y29108D01*
X33036Y29090D01*
X33045Y29062D01*
X33061Y29027D01*
X33083Y28987D01*
X33108Y28946D01*
X33142Y28906D01*
X33183Y28871D01*
X33189Y28868D01*
X33205Y28859D01*
X33230Y28843D01*
X33267Y28828D01*
X33307Y28812D01*
X33361Y28796D01*
X33417Y28787D01*
X33479Y28784D01*
X33510D01*
X33542Y28790D01*
X33585Y28796D01*
X33635Y28806D01*
X33691Y28821D01*
X33747Y28843D01*
X33807Y28874D01*
X33810D01*
X33813Y28877D01*
X33832Y28890D01*
X33860Y28912D01*
X33894Y28940D01*
X33928Y28974D01*
X33966Y29018D01*
X34000Y29065D01*
X34028Y29121D01*
Y29124D01*
X34031Y29127D01*
X34034Y29136D01*
X34038Y29149D01*
X34044Y29168D01*
X34050Y29186D01*
X34056Y29208D01*
X34063Y29236D01*
X34066Y29267D01*
X34072Y29299D01*
X34078Y29336D01*
X34084Y29377D01*
X34087Y29420D01*
X34091Y29470D01*
X34094Y29520D01*
Y29573D01*
Y30818D01*
X34487D01*
Y28500D01*
D02*
G37*
G36*
X37332Y31321D02*
X35598D01*
Y30331D01*
X37098D01*
Y29954D01*
X35598D01*
Y28500D01*
X35173D01*
Y31698D01*
X37332D01*
Y31321D01*
D02*
G37*
G36*
X22037Y36707D02*
X22062D01*
X22087Y36704D01*
X22118Y36701D01*
X22152Y36698D01*
X22227Y36682D01*
X22305Y36664D01*
X22389Y36636D01*
X22474Y36598D01*
X22477D01*
X22483Y36592D01*
X22496Y36586D01*
X22511Y36576D01*
X22530Y36567D01*
X22549Y36551D01*
X22599Y36517D01*
X22655Y36473D01*
X22711Y36420D01*
X22764Y36358D01*
X22811Y36289D01*
Y36286D01*
X22817Y36280D01*
X22823Y36271D01*
X22829Y36255D01*
X22839Y36239D01*
X22848Y36217D01*
X22870Y36165D01*
X22892Y36105D01*
X22911Y36033D01*
X22923Y35959D01*
X22929Y35877D01*
Y35874D01*
Y35868D01*
Y35859D01*
X22926Y35843D01*
Y35824D01*
X22923Y35803D01*
X22917Y35753D01*
X22901Y35693D01*
X22883Y35631D01*
X22854Y35565D01*
X22817Y35500D01*
Y35497D01*
X22811Y35494D01*
X22805Y35484D01*
X22795Y35472D01*
X22770Y35441D01*
X22733Y35403D01*
X22686Y35359D01*
X22630Y35316D01*
X22564Y35272D01*
X22486Y35232D01*
X22489D01*
X22499Y35228D01*
X22514Y35225D01*
X22533Y35219D01*
X22558Y35210D01*
X22583Y35200D01*
X22648Y35172D01*
X22717Y35138D01*
X22792Y35088D01*
X22864Y35032D01*
X22895Y34998D01*
X22926Y34960D01*
X22929Y34957D01*
X22932Y34951D01*
X22942Y34938D01*
X22951Y34923D01*
X22964Y34904D01*
X22976Y34879D01*
X22992Y34851D01*
X23007Y34820D01*
X23020Y34782D01*
X23035Y34745D01*
X23048Y34701D01*
X23060Y34657D01*
X23079Y34558D01*
X23082Y34501D01*
X23085Y34445D01*
Y34442D01*
Y34427D01*
X23082Y34405D01*
Y34377D01*
X23076Y34339D01*
X23070Y34299D01*
X23060Y34252D01*
X23048Y34199D01*
X23032Y34146D01*
X23010Y34090D01*
X22985Y34030D01*
X22957Y33971D01*
X22920Y33912D01*
X22879Y33849D01*
X22833Y33793D01*
X22780Y33737D01*
X22776Y33734D01*
X22767Y33725D01*
X22748Y33709D01*
X22723Y33693D01*
X22695Y33669D01*
X22658Y33647D01*
X22617Y33619D01*
X22567Y33594D01*
X22514Y33566D01*
X22455Y33537D01*
X22393Y33516D01*
X22324Y33494D01*
X22252Y33475D01*
X22174Y33459D01*
X22093Y33450D01*
X22006Y33447D01*
X21987D01*
X21965Y33450D01*
X21937D01*
X21900Y33453D01*
X21859Y33459D01*
X21812Y33469D01*
X21759Y33478D01*
X21706Y33491D01*
X21650Y33509D01*
X21591Y33528D01*
X21535Y33553D01*
X21475Y33581D01*
X21416Y33615D01*
X21360Y33653D01*
X21307Y33697D01*
X21304Y33700D01*
X21294Y33709D01*
X21282Y33722D01*
X21263Y33743D01*
X21241Y33768D01*
X21216Y33796D01*
X21191Y33831D01*
X21163Y33871D01*
X21135Y33915D01*
X21107Y33965D01*
X21082Y34018D01*
X21057Y34077D01*
X21035Y34140D01*
X21017Y34205D01*
X21001Y34274D01*
X20992Y34349D01*
X21385Y34402D01*
Y34399D01*
X21388Y34386D01*
X21391Y34370D01*
X21397Y34345D01*
X21404Y34321D01*
X21413Y34286D01*
X21425Y34252D01*
X21438Y34214D01*
X21469Y34137D01*
X21510Y34055D01*
X21556Y33981D01*
X21585Y33949D01*
X21613Y33918D01*
X21616D01*
X21619Y33912D01*
X21628Y33906D01*
X21641Y33896D01*
X21656Y33884D01*
X21675Y33871D01*
X21722Y33846D01*
X21781Y33818D01*
X21850Y33793D01*
X21925Y33778D01*
X21965Y33775D01*
X22009Y33771D01*
X22037D01*
X22056Y33775D01*
X22081Y33778D01*
X22106Y33781D01*
X22137Y33787D01*
X22171Y33796D01*
X22246Y33818D01*
X22283Y33834D01*
X22324Y33853D01*
X22365Y33874D01*
X22402Y33899D01*
X22439Y33927D01*
X22477Y33962D01*
X22480Y33965D01*
X22486Y33971D01*
X22496Y33981D01*
X22508Y33996D01*
X22521Y34015D01*
X22536Y34037D01*
X22555Y34062D01*
X22574Y34093D01*
X22589Y34124D01*
X22608Y34161D01*
X22639Y34243D01*
X22648Y34286D01*
X22658Y34333D01*
X22664Y34383D01*
X22667Y34436D01*
Y34439D01*
Y34449D01*
Y34461D01*
X22664Y34483D01*
X22661Y34505D01*
X22658Y34533D01*
X22652Y34561D01*
X22645Y34595D01*
X22624Y34664D01*
X22611Y34701D01*
X22592Y34739D01*
X22570Y34776D01*
X22549Y34813D01*
X22521Y34848D01*
X22489Y34882D01*
X22486Y34885D01*
X22480Y34888D01*
X22471Y34898D01*
X22458Y34910D01*
X22439Y34923D01*
X22418Y34938D01*
X22396Y34954D01*
X22368Y34969D01*
X22336Y34985D01*
X22302Y35001D01*
X22224Y35029D01*
X22137Y35051D01*
X22090Y35054D01*
X22040Y35057D01*
X22021D01*
X21996Y35054D01*
X21965Y35051D01*
X21925Y35048D01*
X21878Y35041D01*
X21825Y35029D01*
X21766Y35016D01*
X21809Y35359D01*
X21815D01*
X21831Y35356D01*
X21853Y35353D01*
X21897D01*
X21915Y35356D01*
X21937D01*
X21962Y35359D01*
X21990Y35366D01*
X22021Y35369D01*
X22093Y35385D01*
X22168Y35409D01*
X22246Y35441D01*
X22324Y35484D01*
X22327Y35487D01*
X22333Y35491D01*
X22343Y35497D01*
X22355Y35509D01*
X22371Y35522D01*
X22389Y35541D01*
X22405Y35559D01*
X22427Y35584D01*
X22446Y35609D01*
X22461Y35640D01*
X22480Y35675D01*
X22496Y35709D01*
X22508Y35750D01*
X22517Y35793D01*
X22524Y35837D01*
X22527Y35887D01*
Y35890D01*
Y35896D01*
Y35909D01*
X22524Y35924D01*
Y35943D01*
X22521Y35965D01*
X22508Y36015D01*
X22492Y36071D01*
X22464Y36130D01*
X22430Y36189D01*
X22405Y36217D01*
X22380Y36246D01*
X22377Y36249D01*
X22374Y36252D01*
X22365Y36258D01*
X22355Y36267D01*
X22321Y36292D01*
X22277Y36317D01*
X22224Y36342D01*
X22159Y36367D01*
X22084Y36383D01*
X22046Y36389D01*
X21981D01*
X21965Y36386D01*
X21943D01*
X21922Y36383D01*
X21869Y36370D01*
X21806Y36355D01*
X21744Y36327D01*
X21678Y36292D01*
X21647Y36267D01*
X21619Y36242D01*
X21616Y36239D01*
X21613Y36236D01*
X21603Y36227D01*
X21594Y36214D01*
X21581Y36202D01*
X21569Y36183D01*
X21553Y36161D01*
X21538Y36136D01*
X21522Y36105D01*
X21503Y36074D01*
X21488Y36040D01*
X21472Y35999D01*
X21460Y35959D01*
X21444Y35912D01*
X21435Y35865D01*
X21425Y35812D01*
X21032Y35881D01*
Y35884D01*
X21035Y35899D01*
X21042Y35918D01*
X21048Y35946D01*
X21057Y35977D01*
X21070Y36018D01*
X21082Y36058D01*
X21101Y36105D01*
X21120Y36152D01*
X21145Y36202D01*
X21170Y36255D01*
X21201Y36305D01*
X21232Y36355D01*
X21269Y36405D01*
X21313Y36448D01*
X21357Y36492D01*
X21360Y36495D01*
X21369Y36501D01*
X21382Y36511D01*
X21404Y36526D01*
X21429Y36542D01*
X21457Y36561D01*
X21494Y36583D01*
X21531Y36601D01*
X21575Y36623D01*
X21625Y36642D01*
X21678Y36661D01*
X21734Y36676D01*
X21794Y36692D01*
X21856Y36701D01*
X21925Y36707D01*
X21993Y36711D01*
X22018D01*
X22037Y36707D01*
D02*
G37*
G36*
X20443Y40900D02*
X20090D01*
Y41237D01*
X20087Y41234D01*
X20077Y41221D01*
X20062Y41199D01*
X20040Y41178D01*
X20012Y41146D01*
X19981Y41112D01*
X19940Y41078D01*
X19896Y41043D01*
X19847Y41006D01*
X19790Y40972D01*
X19731Y40937D01*
X19666Y40909D01*
X19597Y40884D01*
X19522Y40863D01*
X19441Y40850D01*
X19357Y40847D01*
X19322D01*
X19304Y40850D01*
X19282D01*
X19232Y40856D01*
X19173Y40866D01*
X19107Y40881D01*
X19042Y40900D01*
X18973Y40925D01*
X18970D01*
X18967Y40928D01*
X18957Y40934D01*
X18945Y40941D01*
X18914Y40956D01*
X18873Y40978D01*
X18829Y41006D01*
X18786Y41040D01*
X18745Y41078D01*
X18708Y41122D01*
X18705Y41128D01*
X18695Y41143D01*
X18680Y41168D01*
X18661Y41203D01*
X18642Y41243D01*
X18623Y41293D01*
X18605Y41349D01*
X18589Y41412D01*
Y41418D01*
X18586Y41434D01*
X18583Y41462D01*
X18580Y41502D01*
X18574Y41555D01*
X18571Y41618D01*
X18567Y41693D01*
Y41780D01*
Y43218D01*
X18960D01*
Y41930D01*
Y41927D01*
Y41917D01*
Y41901D01*
Y41880D01*
Y41855D01*
Y41827D01*
X18964Y41761D01*
X18967Y41693D01*
X18970Y41624D01*
X18973Y41593D01*
X18976Y41565D01*
X18979Y41537D01*
X18982Y41515D01*
Y41511D01*
X18985Y41508D01*
X18992Y41490D01*
X19001Y41462D01*
X19017Y41427D01*
X19038Y41387D01*
X19063Y41346D01*
X19098Y41306D01*
X19138Y41271D01*
X19145Y41268D01*
X19160Y41259D01*
X19185Y41243D01*
X19223Y41228D01*
X19263Y41212D01*
X19316Y41196D01*
X19372Y41187D01*
X19435Y41184D01*
X19466D01*
X19497Y41190D01*
X19541Y41196D01*
X19591Y41206D01*
X19647Y41221D01*
X19703Y41243D01*
X19762Y41274D01*
X19765D01*
X19769Y41278D01*
X19787Y41290D01*
X19815Y41312D01*
X19850Y41340D01*
X19884Y41374D01*
X19921Y41418D01*
X19956Y41465D01*
X19984Y41521D01*
Y41524D01*
X19987Y41527D01*
X19990Y41537D01*
X19993Y41549D01*
X19999Y41568D01*
X20006Y41586D01*
X20012Y41608D01*
X20018Y41636D01*
X20021Y41668D01*
X20028Y41699D01*
X20034Y41736D01*
X20040Y41777D01*
X20043Y41820D01*
X20046Y41870D01*
X20049Y41920D01*
Y41973D01*
Y43218D01*
X20443D01*
Y40900D01*
D02*
G37*
G36*
X27408Y31707D02*
X27433Y31704D01*
X27464Y31701D01*
X27495Y31698D01*
X27564Y31686D01*
X27639Y31667D01*
X27716Y31639D01*
X27791Y31604D01*
X27795D01*
X27801Y31598D01*
X27810Y31595D01*
X27826Y31586D01*
X27860Y31561D01*
X27907Y31530D01*
X27957Y31486D01*
X28010Y31436D01*
X28063Y31374D01*
X28113Y31305D01*
Y31302D01*
X28119Y31295D01*
X28125Y31286D01*
X28135Y31271D01*
X28144Y31252D01*
X28156Y31230D01*
X28169Y31202D01*
X28185Y31174D01*
X28200Y31139D01*
X28216Y31105D01*
X28247Y31024D01*
X28281Y30931D01*
X28309Y30831D01*
Y30828D01*
X28312Y30818D01*
X28315Y30803D01*
X28322Y30781D01*
X28328Y30753D01*
X28334Y30718D01*
X28341Y30678D01*
X28347Y30631D01*
X28353Y30581D01*
X28359Y30522D01*
X28365Y30463D01*
X28372Y30394D01*
X28378Y30322D01*
X28381Y30244D01*
X28384Y30163D01*
Y30076D01*
Y30069D01*
Y30051D01*
Y30023D01*
X28381Y29982D01*
Y29935D01*
X28378Y29879D01*
X28375Y29820D01*
X28369Y29751D01*
X28362Y29679D01*
X28356Y29608D01*
X28334Y29455D01*
X28306Y29305D01*
X28287Y29236D01*
X28266Y29168D01*
Y29165D01*
X28259Y29152D01*
X28253Y29133D01*
X28244Y29111D01*
X28231Y29080D01*
X28216Y29049D01*
X28200Y29012D01*
X28178Y28971D01*
X28131Y28887D01*
X28072Y28796D01*
X28000Y28712D01*
X27960Y28672D01*
X27919Y28634D01*
X27916Y28631D01*
X27910Y28625D01*
X27897Y28615D01*
X27879Y28606D01*
X27857Y28591D01*
X27829Y28575D01*
X27798Y28559D01*
X27763Y28541D01*
X27723Y28522D01*
X27679Y28506D01*
X27632Y28491D01*
X27579Y28475D01*
X27526Y28466D01*
X27467Y28456D01*
X27408Y28450D01*
X27342Y28447D01*
X27320D01*
X27298Y28450D01*
X27264Y28453D01*
X27227Y28456D01*
X27180Y28466D01*
X27130Y28475D01*
X27077Y28488D01*
X27021Y28506D01*
X26961Y28528D01*
X26899Y28553D01*
X26840Y28584D01*
X26781Y28622D01*
X26721Y28665D01*
X26665Y28718D01*
X26615Y28775D01*
X26612Y28781D01*
X26603Y28793D01*
X26587Y28818D01*
X26565Y28853D01*
X26543Y28896D01*
X26515Y28949D01*
X26487Y29015D01*
X26459Y29090D01*
X26428Y29174D01*
X26400Y29271D01*
X26372Y29377D01*
X26350Y29492D01*
X26328Y29623D01*
X26313Y29761D01*
X26303Y29913D01*
X26300Y30076D01*
Y30079D01*
Y30082D01*
Y30101D01*
Y30132D01*
X26303Y30169D01*
Y30219D01*
X26306Y30272D01*
X26309Y30335D01*
X26316Y30403D01*
X26322Y30475D01*
X26328Y30550D01*
X26350Y30700D01*
X26378Y30852D01*
X26397Y30921D01*
X26415Y30990D01*
Y30993D01*
X26422Y31005D01*
X26428Y31024D01*
X26437Y31046D01*
X26450Y31077D01*
X26465Y31108D01*
X26481Y31146D01*
X26503Y31186D01*
X26550Y31274D01*
X26609Y31361D01*
X26681Y31445D01*
X26721Y31486D01*
X26762Y31523D01*
X26765Y31526D01*
X26771Y31533D01*
X26787Y31542D01*
X26802Y31551D01*
X26827Y31567D01*
X26852Y31583D01*
X26887Y31598D01*
X26921Y31617D01*
X26961Y31636D01*
X27005Y31651D01*
X27052Y31667D01*
X27105Y31682D01*
X27158Y31692D01*
X27217Y31701D01*
X27277Y31707D01*
X27342Y31710D01*
X27386D01*
X27408Y31707D01*
D02*
G37*
G36*
X19391Y36751D02*
X19432Y36748D01*
X19479Y36742D01*
X19532Y36732D01*
X19591Y36723D01*
X19650Y36711D01*
X19716Y36695D01*
X19784Y36673D01*
X19850Y36651D01*
X19918Y36623D01*
X19987Y36589D01*
X20053Y36551D01*
X20115Y36508D01*
X20118Y36505D01*
X20131Y36495D01*
X20146Y36483D01*
X20168Y36464D01*
X20196Y36439D01*
X20224Y36408D01*
X20259Y36370D01*
X20296Y36330D01*
X20333Y36283D01*
X20371Y36233D01*
X20408Y36177D01*
X20446Y36115D01*
X20483Y36049D01*
X20517Y35977D01*
X20546Y35902D01*
X20574Y35821D01*
X20156Y35725D01*
Y35728D01*
X20149Y35740D01*
X20143Y35759D01*
X20134Y35781D01*
X20124Y35809D01*
X20109Y35843D01*
X20093Y35877D01*
X20075Y35918D01*
X20028Y35999D01*
X19972Y36083D01*
X19906Y36161D01*
X19869Y36199D01*
X19831Y36230D01*
X19828Y36233D01*
X19822Y36236D01*
X19809Y36246D01*
X19794Y36255D01*
X19772Y36267D01*
X19747Y36280D01*
X19719Y36296D01*
X19684Y36311D01*
X19650Y36327D01*
X19610Y36342D01*
X19566Y36355D01*
X19519Y36367D01*
X19416Y36386D01*
X19360Y36389D01*
X19301Y36392D01*
X19266D01*
X19238Y36389D01*
X19207Y36386D01*
X19170Y36383D01*
X19129Y36377D01*
X19085Y36370D01*
X18986Y36349D01*
X18936Y36336D01*
X18883Y36317D01*
X18833Y36296D01*
X18780Y36274D01*
X18730Y36246D01*
X18683Y36214D01*
X18680Y36211D01*
X18674Y36205D01*
X18661Y36196D01*
X18642Y36183D01*
X18624Y36165D01*
X18599Y36143D01*
X18574Y36118D01*
X18549Y36090D01*
X18518Y36055D01*
X18489Y36021D01*
X18461Y35980D01*
X18433Y35937D01*
X18405Y35893D01*
X18380Y35843D01*
X18359Y35793D01*
X18337Y35737D01*
Y35734D01*
X18334Y35725D01*
X18327Y35709D01*
X18321Y35687D01*
X18315Y35659D01*
X18305Y35628D01*
X18296Y35590D01*
X18287Y35550D01*
X18277Y35506D01*
X18268Y35456D01*
X18252Y35353D01*
X18240Y35241D01*
X18237Y35125D01*
Y35122D01*
Y35107D01*
Y35085D01*
X18240Y35057D01*
Y35023D01*
X18243Y34979D01*
X18246Y34935D01*
X18252Y34882D01*
X18259Y34829D01*
X18265Y34773D01*
X18287Y34651D01*
X18315Y34530D01*
X18355Y34411D01*
Y34408D01*
X18362Y34399D01*
X18368Y34383D01*
X18377Y34361D01*
X18390Y34336D01*
X18405Y34308D01*
X18446Y34243D01*
X18499Y34168D01*
X18561Y34093D01*
X18636Y34021D01*
X18680Y33990D01*
X18723Y33959D01*
X18727Y33955D01*
X18736Y33952D01*
X18748Y33946D01*
X18767Y33937D01*
X18789Y33924D01*
X18817Y33912D01*
X18848Y33899D01*
X18886Y33884D01*
X18923Y33871D01*
X18967Y33856D01*
X19057Y33834D01*
X19160Y33815D01*
X19213Y33812D01*
X19266Y33809D01*
X19301D01*
X19326Y33812D01*
X19357Y33815D01*
X19391Y33818D01*
X19432Y33825D01*
X19475Y33834D01*
X19569Y33859D01*
X19619Y33874D01*
X19672Y33893D01*
X19722Y33918D01*
X19772Y33946D01*
X19822Y33977D01*
X19869Y34012D01*
X19872Y34015D01*
X19878Y34021D01*
X19894Y34034D01*
X19909Y34049D01*
X19928Y34071D01*
X19953Y34099D01*
X19978Y34130D01*
X20003Y34165D01*
X20031Y34205D01*
X20059Y34252D01*
X20087Y34302D01*
X20115Y34355D01*
X20140Y34414D01*
X20162Y34480D01*
X20184Y34548D01*
X20202Y34620D01*
X20627Y34514D01*
Y34508D01*
X20620Y34492D01*
X20611Y34464D01*
X20602Y34430D01*
X20586Y34386D01*
X20567Y34336D01*
X20542Y34280D01*
X20517Y34221D01*
X20486Y34155D01*
X20452Y34090D01*
X20411Y34024D01*
X20368Y33959D01*
X20318Y33893D01*
X20268Y33831D01*
X20209Y33771D01*
X20146Y33718D01*
X20143Y33715D01*
X20131Y33706D01*
X20112Y33693D01*
X20084Y33675D01*
X20050Y33656D01*
X20009Y33634D01*
X19962Y33609D01*
X19912Y33584D01*
X19853Y33556D01*
X19787Y33534D01*
X19719Y33509D01*
X19644Y33491D01*
X19563Y33472D01*
X19482Y33459D01*
X19391Y33450D01*
X19301Y33447D01*
X19251D01*
X19213Y33450D01*
X19170Y33453D01*
X19120Y33459D01*
X19064Y33466D01*
X19001Y33472D01*
X18936Y33484D01*
X18867Y33497D01*
X18798Y33516D01*
X18727Y33534D01*
X18658Y33559D01*
X18586Y33587D01*
X18521Y33619D01*
X18458Y33656D01*
X18455Y33659D01*
X18446Y33665D01*
X18427Y33678D01*
X18405Y33697D01*
X18377Y33715D01*
X18349Y33743D01*
X18315Y33775D01*
X18277Y33812D01*
X18237Y33853D01*
X18196Y33896D01*
X18156Y33946D01*
X18115Y34002D01*
X18078Y34062D01*
X18037Y34124D01*
X18003Y34193D01*
X17968Y34264D01*
X17965Y34271D01*
X17962Y34283D01*
X17953Y34305D01*
X17943Y34333D01*
X17931Y34370D01*
X17915Y34414D01*
X17900Y34464D01*
X17884Y34520D01*
X17869Y34583D01*
X17853Y34648D01*
X17841Y34720D01*
X17825Y34795D01*
X17816Y34873D01*
X17806Y34954D01*
X17803Y35038D01*
X17800Y35122D01*
Y35129D01*
Y35144D01*
Y35172D01*
X17803Y35207D01*
X17806Y35250D01*
X17809Y35300D01*
X17816Y35356D01*
X17825Y35419D01*
X17834Y35484D01*
X17847Y35553D01*
X17862Y35628D01*
X17881Y35700D01*
X17903Y35774D01*
X17928Y35849D01*
X17956Y35921D01*
X17990Y35993D01*
X17993Y35996D01*
X18000Y36009D01*
X18009Y36030D01*
X18025Y36055D01*
X18046Y36086D01*
X18068Y36121D01*
X18096Y36161D01*
X18131Y36205D01*
X18165Y36249D01*
X18206Y36296D01*
X18252Y36342D01*
X18299Y36389D01*
X18352Y36436D01*
X18408Y36480D01*
X18468Y36523D01*
X18533Y36561D01*
X18536Y36564D01*
X18549Y36570D01*
X18567Y36579D01*
X18596Y36592D01*
X18627Y36604D01*
X18667Y36623D01*
X18711Y36639D01*
X18764Y36657D01*
X18817Y36676D01*
X18876Y36692D01*
X18942Y36711D01*
X19011Y36723D01*
X19082Y36735D01*
X19154Y36745D01*
X19232Y36751D01*
X19310Y36754D01*
X19357D01*
X19391Y36751D01*
D02*
G37*
G36*
X44149Y27107D02*
X44184Y27104D01*
X44221Y27098D01*
X44262Y27092D01*
X44309Y27086D01*
X44405Y27057D01*
X44458Y27042D01*
X44508Y27020D01*
X44561Y26998D01*
X44611Y26967D01*
X44661Y26936D01*
X44708Y26898D01*
X44711Y26895D01*
X44717Y26889D01*
X44730Y26877D01*
X44745Y26861D01*
X44764Y26839D01*
X44786Y26811D01*
X44811Y26780D01*
X44836Y26745D01*
X44861Y26708D01*
X44886Y26661D01*
X44908Y26614D01*
X44933Y26561D01*
X44954Y26505D01*
X44970Y26446D01*
X44986Y26384D01*
X44998Y26315D01*
X44608Y26284D01*
Y26287D01*
X44605Y26293D01*
X44602Y26305D01*
X44599Y26321D01*
X44592Y26340D01*
X44586Y26362D01*
X44571Y26412D01*
X44549Y26468D01*
X44524Y26524D01*
X44493Y26577D01*
X44458Y26621D01*
X44455Y26624D01*
X44452Y26627D01*
X44443Y26636D01*
X44430Y26646D01*
X44415Y26661D01*
X44396Y26674D01*
X44349Y26705D01*
X44293Y26736D01*
X44224Y26764D01*
X44149Y26783D01*
X44109Y26786D01*
X44065Y26789D01*
X44034D01*
X44000Y26783D01*
X43953Y26777D01*
X43903Y26764D01*
X43847Y26745D01*
X43791Y26717D01*
X43734Y26683D01*
X43731D01*
X43725Y26677D01*
X43716Y26671D01*
X43703Y26658D01*
X43672Y26627D01*
X43628Y26583D01*
X43582Y26527D01*
X43532Y26458D01*
X43485Y26380D01*
X43441Y26287D01*
Y26284D01*
X43438Y26274D01*
X43432Y26259D01*
X43426Y26240D01*
X43416Y26212D01*
X43407Y26181D01*
X43398Y26140D01*
X43388Y26096D01*
X43379Y26047D01*
X43369Y25993D01*
X43360Y25931D01*
X43351Y25866D01*
X43345Y25794D01*
X43338Y25716D01*
X43335Y25635D01*
X43332Y25547D01*
X43335Y25550D01*
X43338Y25557D01*
X43348Y25569D01*
X43357Y25582D01*
X43369Y25600D01*
X43388Y25622D01*
X43429Y25669D01*
X43479Y25722D01*
X43538Y25775D01*
X43603Y25825D01*
X43678Y25869D01*
X43681D01*
X43688Y25872D01*
X43700Y25878D01*
X43713Y25884D01*
X43734Y25894D01*
X43756Y25903D01*
X43781Y25912D01*
X43809Y25922D01*
X43875Y25940D01*
X43947Y25959D01*
X44025Y25972D01*
X44109Y25975D01*
X44128D01*
X44146Y25972D01*
X44174D01*
X44209Y25965D01*
X44249Y25959D01*
X44293Y25950D01*
X44340Y25937D01*
X44390Y25922D01*
X44446Y25903D01*
X44499Y25881D01*
X44555Y25853D01*
X44614Y25819D01*
X44671Y25781D01*
X44723Y25735D01*
X44777Y25685D01*
X44780Y25681D01*
X44789Y25672D01*
X44802Y25653D01*
X44820Y25632D01*
X44842Y25604D01*
X44864Y25569D01*
X44889Y25529D01*
X44917Y25482D01*
X44942Y25432D01*
X44967Y25376D01*
X44989Y25313D01*
X45011Y25248D01*
X45029Y25176D01*
X45042Y25101D01*
X45051Y25023D01*
X45054Y24939D01*
Y24936D01*
Y24927D01*
Y24911D01*
X45051Y24889D01*
Y24861D01*
X45048Y24830D01*
X45045Y24795D01*
X45039Y24755D01*
X45023Y24667D01*
X44998Y24574D01*
X44967Y24477D01*
X44923Y24377D01*
Y24374D01*
X44917Y24365D01*
X44911Y24352D01*
X44898Y24337D01*
X44886Y24315D01*
X44870Y24290D01*
X44830Y24234D01*
X44777Y24168D01*
X44717Y24103D01*
X44646Y24040D01*
X44564Y23984D01*
X44561D01*
X44555Y23978D01*
X44543Y23972D01*
X44524Y23962D01*
X44502Y23953D01*
X44477Y23941D01*
X44449Y23928D01*
X44415Y23916D01*
X44380Y23903D01*
X44340Y23891D01*
X44252Y23869D01*
X44156Y23853D01*
X44103Y23850D01*
X44050Y23847D01*
X44028D01*
X44003Y23850D01*
X43968Y23853D01*
X43928Y23859D01*
X43878Y23866D01*
X43825Y23878D01*
X43766Y23891D01*
X43703Y23909D01*
X43641Y23934D01*
X43572Y23962D01*
X43507Y24000D01*
X43438Y24040D01*
X43373Y24087D01*
X43310Y24143D01*
X43251Y24206D01*
X43248Y24209D01*
X43238Y24225D01*
X43223Y24243D01*
X43204Y24274D01*
X43179Y24315D01*
X43154Y24365D01*
X43126Y24421D01*
X43098Y24490D01*
X43067Y24568D01*
X43039Y24655D01*
X43014Y24752D01*
X42992Y24861D01*
X42970Y24976D01*
X42954Y25107D01*
X42945Y25245D01*
X42942Y25394D01*
Y25398D01*
Y25404D01*
Y25416D01*
Y25435D01*
Y25457D01*
X42945Y25482D01*
Y25513D01*
X42948Y25547D01*
Y25582D01*
X42951Y25622D01*
X42961Y25710D01*
X42970Y25806D01*
X42986Y25909D01*
X43001Y26019D01*
X43026Y26131D01*
X43051Y26243D01*
X43086Y26355D01*
X43123Y26461D01*
X43170Y26564D01*
X43223Y26658D01*
X43282Y26742D01*
X43285Y26745D01*
X43295Y26758D01*
X43313Y26777D01*
X43338Y26798D01*
X43366Y26827D01*
X43404Y26858D01*
X43447Y26892D01*
X43494Y26926D01*
X43550Y26961D01*
X43610Y26995D01*
X43675Y27026D01*
X43747Y27054D01*
X43825Y27076D01*
X43906Y27095D01*
X43993Y27107D01*
X44087Y27110D01*
X44124D01*
X44149Y27107D01*
D02*
G37*
G36*
X90172Y41607D02*
X90197Y41604D01*
X90228Y41601D01*
X90259Y41598D01*
X90328Y41585D01*
X90403Y41567D01*
X90481Y41539D01*
X90556Y41504D01*
X90559D01*
X90565Y41498D01*
X90575Y41495D01*
X90590Y41486D01*
X90624Y41461D01*
X90671Y41429D01*
X90721Y41386D01*
X90774Y41336D01*
X90827Y41273D01*
X90877Y41205D01*
Y41202D01*
X90883Y41195D01*
X90890Y41186D01*
X90899Y41171D01*
X90908Y41152D01*
X90921Y41130D01*
X90933Y41102D01*
X90949Y41074D01*
X90965Y41039D01*
X90980Y41005D01*
X91011Y40924D01*
X91046Y40830D01*
X91074Y40731D01*
Y40727D01*
X91077Y40718D01*
X91080Y40703D01*
X91086Y40681D01*
X91092Y40653D01*
X91099Y40618D01*
X91105Y40578D01*
X91111Y40531D01*
X91117Y40481D01*
X91124Y40422D01*
X91130Y40363D01*
X91136Y40294D01*
X91142Y40222D01*
X91145Y40144D01*
X91149Y40063D01*
Y39976D01*
Y39969D01*
Y39951D01*
Y39923D01*
X91145Y39882D01*
Y39835D01*
X91142Y39779D01*
X91139Y39720D01*
X91133Y39651D01*
X91127Y39579D01*
X91120Y39508D01*
X91099Y39355D01*
X91071Y39205D01*
X91052Y39136D01*
X91030Y39068D01*
Y39065D01*
X91024Y39052D01*
X91018Y39033D01*
X91008Y39011D01*
X90996Y38980D01*
X90980Y38949D01*
X90965Y38912D01*
X90943Y38871D01*
X90896Y38787D01*
X90837Y38696D01*
X90765Y38612D01*
X90724Y38572D01*
X90684Y38534D01*
X90681Y38531D01*
X90674Y38525D01*
X90662Y38515D01*
X90643Y38506D01*
X90621Y38491D01*
X90593Y38475D01*
X90562Y38459D01*
X90528Y38441D01*
X90487Y38422D01*
X90443Y38406D01*
X90397Y38391D01*
X90344Y38375D01*
X90291Y38366D01*
X90231Y38356D01*
X90172Y38350D01*
X90106Y38347D01*
X90085D01*
X90063Y38350D01*
X90029Y38353D01*
X89991Y38356D01*
X89944Y38366D01*
X89894Y38375D01*
X89841Y38388D01*
X89785Y38406D01*
X89726Y38428D01*
X89663Y38453D01*
X89604Y38484D01*
X89545Y38522D01*
X89486Y38565D01*
X89429Y38618D01*
X89380Y38675D01*
X89376Y38681D01*
X89367Y38693D01*
X89351Y38718D01*
X89330Y38753D01*
X89308Y38796D01*
X89280Y38849D01*
X89252Y38915D01*
X89223Y38990D01*
X89192Y39074D01*
X89164Y39171D01*
X89136Y39277D01*
X89114Y39392D01*
X89092Y39523D01*
X89077Y39661D01*
X89068Y39813D01*
X89064Y39976D01*
Y39979D01*
Y39982D01*
Y40001D01*
Y40032D01*
X89068Y40069D01*
Y40119D01*
X89071Y40172D01*
X89074Y40235D01*
X89080Y40303D01*
X89086Y40375D01*
X89092Y40450D01*
X89114Y40600D01*
X89142Y40753D01*
X89161Y40821D01*
X89180Y40890D01*
Y40893D01*
X89186Y40905D01*
X89192Y40924D01*
X89202Y40946D01*
X89214Y40977D01*
X89230Y41008D01*
X89245Y41046D01*
X89267Y41086D01*
X89314Y41174D01*
X89373Y41261D01*
X89445Y41345D01*
X89486Y41386D01*
X89526Y41423D01*
X89529Y41426D01*
X89535Y41433D01*
X89551Y41442D01*
X89567Y41451D01*
X89592Y41467D01*
X89617Y41483D01*
X89651Y41498D01*
X89685Y41517D01*
X89726Y41536D01*
X89770Y41551D01*
X89816Y41567D01*
X89869Y41582D01*
X89922Y41592D01*
X89982Y41601D01*
X90041Y41607D01*
X90106Y41611D01*
X90150D01*
X90172Y41607D01*
D02*
G37*
G36*
X41423Y27095D02*
X41463D01*
X41510Y27092D01*
X41557Y27089D01*
X41663Y27076D01*
X41772Y27061D01*
X41875Y27039D01*
X41922Y27026D01*
X41965Y27011D01*
X41969D01*
X41975Y27007D01*
X41987Y27001D01*
X42003Y26995D01*
X42022Y26983D01*
X42043Y26970D01*
X42093Y26939D01*
X42149Y26898D01*
X42209Y26845D01*
X42268Y26780D01*
X42321Y26705D01*
X42324Y26702D01*
X42327Y26695D01*
X42334Y26683D01*
X42343Y26667D01*
X42352Y26646D01*
X42365Y26621D01*
X42377Y26596D01*
X42390Y26564D01*
X42412Y26493D01*
X42433Y26412D01*
X42449Y26321D01*
X42455Y26274D01*
Y26224D01*
Y26221D01*
Y26209D01*
Y26190D01*
X42452Y26168D01*
X42449Y26137D01*
X42443Y26106D01*
X42437Y26065D01*
X42427Y26025D01*
X42415Y25981D01*
X42402Y25934D01*
X42384Y25887D01*
X42362Y25837D01*
X42337Y25791D01*
X42305Y25741D01*
X42274Y25694D01*
X42234Y25650D01*
X42231Y25647D01*
X42224Y25641D01*
X42212Y25629D01*
X42193Y25613D01*
X42168Y25594D01*
X42140Y25572D01*
X42106Y25550D01*
X42065Y25526D01*
X42022Y25501D01*
X41972Y25476D01*
X41916Y25451D01*
X41853Y25426D01*
X41788Y25404D01*
X41716Y25385D01*
X41638Y25366D01*
X41554Y25354D01*
X41557D01*
X41560Y25351D01*
X41569Y25345D01*
X41582Y25341D01*
X41613Y25323D01*
X41650Y25304D01*
X41691Y25279D01*
X41731Y25254D01*
X41772Y25223D01*
X41809Y25195D01*
X41813Y25192D01*
X41819Y25189D01*
X41828Y25176D01*
X41841Y25164D01*
X41856Y25148D01*
X41875Y25126D01*
X41897Y25104D01*
X41922Y25076D01*
X41975Y25014D01*
X42034Y24942D01*
X42096Y24858D01*
X42159Y24767D01*
X42711Y23900D01*
X42184D01*
X41759Y24565D01*
X41756Y24568D01*
X41750Y24577D01*
X41741Y24593D01*
X41728Y24611D01*
X41713Y24636D01*
X41694Y24664D01*
X41653Y24727D01*
X41603Y24799D01*
X41554Y24870D01*
X41501Y24942D01*
X41479Y24973D01*
X41454Y25005D01*
Y25008D01*
X41447Y25011D01*
X41435Y25029D01*
X41410Y25058D01*
X41382Y25089D01*
X41348Y25123D01*
X41313Y25157D01*
X41276Y25192D01*
X41238Y25217D01*
X41235Y25220D01*
X41223Y25226D01*
X41204Y25238D01*
X41179Y25251D01*
X41151Y25267D01*
X41120Y25279D01*
X41086Y25295D01*
X41048Y25304D01*
X41045D01*
X41036Y25307D01*
X41017Y25310D01*
X40992Y25313D01*
X40961D01*
X40920Y25317D01*
X40870Y25320D01*
X40324D01*
Y23900D01*
X39900D01*
Y27098D01*
X41388D01*
X41423Y27095D01*
D02*
G37*
G36*
X87688Y41607D02*
X87713Y41604D01*
X87745Y41601D01*
X87776Y41598D01*
X87845Y41585D01*
X87919Y41567D01*
X87997Y41539D01*
X88072Y41504D01*
X88075D01*
X88082Y41498D01*
X88091Y41495D01*
X88107Y41486D01*
X88141Y41461D01*
X88188Y41429D01*
X88238Y41386D01*
X88291Y41336D01*
X88344Y41273D01*
X88394Y41205D01*
Y41202D01*
X88400Y41195D01*
X88406Y41186D01*
X88415Y41171D01*
X88425Y41152D01*
X88437Y41130D01*
X88450Y41102D01*
X88465Y41074D01*
X88481Y41039D01*
X88497Y41005D01*
X88528Y40924D01*
X88562Y40830D01*
X88590Y40731D01*
Y40727D01*
X88593Y40718D01*
X88596Y40703D01*
X88603Y40681D01*
X88609Y40653D01*
X88615Y40618D01*
X88621Y40578D01*
X88628Y40531D01*
X88634Y40481D01*
X88640Y40422D01*
X88646Y40363D01*
X88653Y40294D01*
X88659Y40222D01*
X88662Y40144D01*
X88665Y40063D01*
Y39976D01*
Y39969D01*
Y39951D01*
Y39923D01*
X88662Y39882D01*
Y39835D01*
X88659Y39779D01*
X88656Y39720D01*
X88649Y39651D01*
X88643Y39579D01*
X88637Y39508D01*
X88615Y39355D01*
X88587Y39205D01*
X88568Y39136D01*
X88547Y39068D01*
Y39065D01*
X88540Y39052D01*
X88534Y39033D01*
X88525Y39011D01*
X88512Y38980D01*
X88497Y38949D01*
X88481Y38912D01*
X88459Y38871D01*
X88412Y38787D01*
X88353Y38696D01*
X88281Y38612D01*
X88241Y38572D01*
X88200Y38534D01*
X88197Y38531D01*
X88191Y38525D01*
X88178Y38515D01*
X88160Y38506D01*
X88138Y38491D01*
X88110Y38475D01*
X88078Y38459D01*
X88044Y38441D01*
X88004Y38422D01*
X87960Y38406D01*
X87913Y38391D01*
X87860Y38375D01*
X87807Y38366D01*
X87748Y38356D01*
X87688Y38350D01*
X87623Y38347D01*
X87601D01*
X87579Y38350D01*
X87545Y38353D01*
X87507Y38356D01*
X87461Y38366D01*
X87411Y38375D01*
X87358Y38388D01*
X87302Y38406D01*
X87242Y38428D01*
X87180Y38453D01*
X87121Y38484D01*
X87061Y38522D01*
X87002Y38565D01*
X86946Y38618D01*
X86896Y38675D01*
X86893Y38681D01*
X86883Y38693D01*
X86868Y38718D01*
X86846Y38753D01*
X86824Y38796D01*
X86796Y38849D01*
X86768Y38915D01*
X86740Y38990D01*
X86709Y39074D01*
X86681Y39171D01*
X86653Y39277D01*
X86631Y39392D01*
X86609Y39523D01*
X86593Y39661D01*
X86584Y39813D01*
X86581Y39976D01*
Y39979D01*
Y39982D01*
Y40001D01*
Y40032D01*
X86584Y40069D01*
Y40119D01*
X86587Y40172D01*
X86590Y40235D01*
X86597Y40303D01*
X86603Y40375D01*
X86609Y40450D01*
X86631Y40600D01*
X86659Y40753D01*
X86678Y40821D01*
X86696Y40890D01*
Y40893D01*
X86703Y40905D01*
X86709Y40924D01*
X86718Y40946D01*
X86731Y40977D01*
X86746Y41008D01*
X86762Y41046D01*
X86784Y41086D01*
X86831Y41174D01*
X86890Y41261D01*
X86962Y41345D01*
X87002Y41386D01*
X87043Y41423D01*
X87046Y41426D01*
X87052Y41433D01*
X87068Y41442D01*
X87083Y41451D01*
X87108Y41467D01*
X87133Y41483D01*
X87167Y41498D01*
X87202Y41517D01*
X87242Y41536D01*
X87286Y41551D01*
X87333Y41567D01*
X87386Y41582D01*
X87439Y41592D01*
X87498Y41601D01*
X87557Y41607D01*
X87623Y41611D01*
X87667D01*
X87688Y41607D01*
D02*
G37*
G36*
X89429Y45183D02*
X88147D01*
X87976Y44319D01*
X87979Y44322D01*
X87988Y44328D01*
X88004Y44337D01*
X88025Y44350D01*
X88050Y44366D01*
X88085Y44384D01*
X88119Y44400D01*
X88160Y44422D01*
X88203Y44440D01*
X88250Y44456D01*
X88353Y44490D01*
X88406Y44503D01*
X88462Y44512D01*
X88521Y44519D01*
X88581Y44522D01*
X88599D01*
X88621Y44519D01*
X88653D01*
X88687Y44512D01*
X88731Y44506D01*
X88777Y44497D01*
X88827Y44484D01*
X88880Y44469D01*
X88940Y44450D01*
X88999Y44428D01*
X89058Y44400D01*
X89117Y44366D01*
X89177Y44328D01*
X89233Y44281D01*
X89289Y44231D01*
X89292Y44228D01*
X89302Y44219D01*
X89317Y44200D01*
X89336Y44178D01*
X89358Y44150D01*
X89380Y44116D01*
X89408Y44075D01*
X89436Y44029D01*
X89461Y43979D01*
X89489Y43923D01*
X89511Y43860D01*
X89535Y43795D01*
X89551Y43723D01*
X89567Y43648D01*
X89576Y43567D01*
X89579Y43483D01*
Y43476D01*
Y43464D01*
X89576Y43442D01*
Y43411D01*
X89573Y43373D01*
X89567Y43330D01*
X89557Y43280D01*
X89548Y43227D01*
X89532Y43171D01*
X89517Y43108D01*
X89495Y43046D01*
X89470Y42983D01*
X89442Y42921D01*
X89408Y42856D01*
X89367Y42793D01*
X89323Y42734D01*
X89320Y42731D01*
X89308Y42718D01*
X89292Y42700D01*
X89267Y42675D01*
X89236Y42643D01*
X89199Y42612D01*
X89155Y42578D01*
X89105Y42540D01*
X89046Y42503D01*
X88983Y42469D01*
X88915Y42437D01*
X88840Y42406D01*
X88759Y42381D01*
X88674Y42363D01*
X88581Y42350D01*
X88484Y42347D01*
X88465D01*
X88443Y42350D01*
X88412D01*
X88375Y42353D01*
X88331Y42359D01*
X88284Y42369D01*
X88231Y42378D01*
X88175Y42391D01*
X88119Y42406D01*
X88060Y42425D01*
X87997Y42450D01*
X87938Y42478D01*
X87879Y42509D01*
X87823Y42547D01*
X87770Y42590D01*
X87766Y42593D01*
X87757Y42603D01*
X87745Y42615D01*
X87726Y42634D01*
X87704Y42659D01*
X87682Y42690D01*
X87654Y42724D01*
X87629Y42762D01*
X87601Y42806D01*
X87573Y42856D01*
X87548Y42909D01*
X87523Y42968D01*
X87501Y43030D01*
X87483Y43096D01*
X87467Y43164D01*
X87458Y43239D01*
X87869Y43274D01*
Y43270D01*
X87873Y43261D01*
X87876Y43246D01*
X87879Y43224D01*
X87885Y43199D01*
X87891Y43171D01*
X87913Y43102D01*
X87941Y43030D01*
X87976Y42955D01*
X88022Y42880D01*
X88050Y42849D01*
X88078Y42818D01*
X88082Y42815D01*
X88088Y42812D01*
X88097Y42806D01*
X88110Y42796D01*
X88125Y42784D01*
X88144Y42771D01*
X88194Y42743D01*
X88253Y42715D01*
X88322Y42693D01*
X88400Y42675D01*
X88440Y42671D01*
X88484Y42668D01*
X88512D01*
X88531Y42671D01*
X88556Y42675D01*
X88584Y42681D01*
X88615Y42687D01*
X88649Y42696D01*
X88727Y42721D01*
X88765Y42737D01*
X88805Y42759D01*
X88846Y42784D01*
X88887Y42812D01*
X88927Y42843D01*
X88965Y42880D01*
X88968Y42884D01*
X88974Y42890D01*
X88983Y42902D01*
X88996Y42921D01*
X89011Y42940D01*
X89027Y42968D01*
X89046Y42999D01*
X89064Y43033D01*
X89080Y43071D01*
X89099Y43115D01*
X89114Y43161D01*
X89130Y43211D01*
X89142Y43264D01*
X89152Y43323D01*
X89158Y43383D01*
X89161Y43448D01*
Y43451D01*
Y43464D01*
Y43479D01*
X89158Y43505D01*
X89155Y43533D01*
X89152Y43564D01*
X89145Y43601D01*
X89136Y43642D01*
X89114Y43726D01*
X89099Y43770D01*
X89080Y43813D01*
X89058Y43857D01*
X89033Y43901D01*
X89005Y43941D01*
X88971Y43979D01*
X88968Y43982D01*
X88961Y43988D01*
X88952Y43997D01*
X88937Y44010D01*
X88918Y44025D01*
X88896Y44041D01*
X88868Y44060D01*
X88840Y44079D01*
X88805Y44094D01*
X88768Y44113D01*
X88727Y44129D01*
X88684Y44144D01*
X88634Y44157D01*
X88584Y44166D01*
X88531Y44172D01*
X88475Y44175D01*
X88443D01*
X88425Y44172D01*
X88406D01*
X88359Y44166D01*
X88306Y44153D01*
X88250Y44138D01*
X88191Y44116D01*
X88131Y44088D01*
X88128D01*
X88125Y44085D01*
X88107Y44072D01*
X88078Y44054D01*
X88047Y44029D01*
X88007Y43994D01*
X87969Y43957D01*
X87929Y43913D01*
X87894Y43866D01*
X87526Y43913D01*
X87835Y45557D01*
X89429D01*
Y45183D01*
D02*
G37*
G36*
X85576Y38400D02*
X85183D01*
Y40899D01*
X85180D01*
X85177Y40893D01*
X85167Y40887D01*
X85158Y40877D01*
X85127Y40849D01*
X85083Y40815D01*
X85030Y40774D01*
X84965Y40727D01*
X84890Y40678D01*
X84809Y40628D01*
X84806D01*
X84799Y40621D01*
X84787Y40615D01*
X84771Y40606D01*
X84749Y40593D01*
X84728Y40581D01*
X84671Y40553D01*
X84609Y40522D01*
X84540Y40487D01*
X84469Y40456D01*
X84400Y40428D01*
Y40806D01*
X84403Y40809D01*
X84416Y40812D01*
X84431Y40821D01*
X84456Y40834D01*
X84484Y40849D01*
X84515Y40868D01*
X84553Y40887D01*
X84593Y40912D01*
X84684Y40965D01*
X84781Y41030D01*
X84877Y41102D01*
X84974Y41180D01*
X84977Y41183D01*
X84983Y41189D01*
X84999Y41202D01*
X85015Y41217D01*
X85033Y41239D01*
X85058Y41261D01*
X85083Y41289D01*
X85111Y41317D01*
X85167Y41383D01*
X85224Y41454D01*
X85277Y41532D01*
X85302Y41570D01*
X85320Y41611D01*
X85576D01*
Y38400D01*
D02*
G37*
G36*
X64815Y50251D02*
Y50245D01*
Y50229D01*
Y50204D01*
X64812Y50170D01*
Y50129D01*
X64808Y50082D01*
X64805Y50029D01*
X64802Y49973D01*
X64796Y49914D01*
X64787Y49852D01*
X64768Y49724D01*
X64743Y49599D01*
X64724Y49540D01*
X64705Y49483D01*
Y49480D01*
X64699Y49471D01*
X64693Y49455D01*
X64684Y49437D01*
X64671Y49412D01*
X64656Y49384D01*
X64637Y49352D01*
X64615Y49318D01*
X64590Y49284D01*
X64562Y49246D01*
X64528Y49209D01*
X64493Y49168D01*
X64453Y49131D01*
X64409Y49093D01*
X64362Y49056D01*
X64309Y49022D01*
X64306Y49019D01*
X64297Y49015D01*
X64281Y49006D01*
X64259Y48994D01*
X64228Y48981D01*
X64194Y48965D01*
X64156Y48950D01*
X64110Y48934D01*
X64060Y48919D01*
X64003Y48903D01*
X63941Y48888D01*
X63876Y48875D01*
X63804Y48863D01*
X63729Y48853D01*
X63648Y48850D01*
X63564Y48847D01*
X63520D01*
X63489Y48850D01*
X63451Y48853D01*
X63408Y48856D01*
X63358Y48859D01*
X63305Y48866D01*
X63245Y48875D01*
X63186Y48884D01*
X63064Y48913D01*
X63002Y48928D01*
X62943Y48950D01*
X62883Y48972D01*
X62827Y49000D01*
X62824Y49003D01*
X62815Y49006D01*
X62799Y49015D01*
X62780Y49028D01*
X62759Y49044D01*
X62731Y49065D01*
X62703Y49087D01*
X62671Y49115D01*
X62637Y49143D01*
X62603Y49178D01*
X62568Y49215D01*
X62537Y49256D01*
X62506Y49299D01*
X62475Y49346D01*
X62447Y49396D01*
X62422Y49449D01*
Y49452D01*
X62415Y49462D01*
X62409Y49480D01*
X62403Y49502D01*
X62394Y49533D01*
X62384Y49568D01*
X62372Y49611D01*
X62362Y49658D01*
X62350Y49714D01*
X62337Y49774D01*
X62328Y49839D01*
X62319Y49911D01*
X62313Y49989D01*
X62306Y50070D01*
X62300Y50157D01*
Y50251D01*
Y52098D01*
X62724D01*
Y50251D01*
Y50248D01*
Y50232D01*
Y50210D01*
Y50182D01*
X62727Y50148D01*
Y50111D01*
X62731Y50067D01*
X62734Y50020D01*
X62743Y49917D01*
X62756Y49817D01*
X62765Y49767D01*
X62774Y49721D01*
X62787Y49677D01*
X62799Y49636D01*
Y49633D01*
X62802Y49627D01*
X62809Y49618D01*
X62815Y49605D01*
X62833Y49568D01*
X62862Y49524D01*
X62899Y49477D01*
X62943Y49427D01*
X62999Y49377D01*
X63064Y49334D01*
X63068D01*
X63074Y49331D01*
X63083Y49324D01*
X63099Y49318D01*
X63117Y49309D01*
X63139Y49299D01*
X63164Y49290D01*
X63192Y49281D01*
X63227Y49271D01*
X63261Y49262D01*
X63339Y49243D01*
X63429Y49231D01*
X63526Y49228D01*
X63570D01*
X63601Y49231D01*
X63642Y49234D01*
X63685Y49240D01*
X63732Y49246D01*
X63785Y49253D01*
X63894Y49277D01*
X63947Y49296D01*
X64003Y49315D01*
X64057Y49340D01*
X64107Y49368D01*
X64150Y49399D01*
X64191Y49437D01*
X64194Y49440D01*
X64200Y49446D01*
X64209Y49462D01*
X64222Y49480D01*
X64237Y49505D01*
X64253Y49536D01*
X64272Y49574D01*
X64291Y49618D01*
X64309Y49671D01*
X64328Y49730D01*
X64344Y49795D01*
X64359Y49870D01*
X64372Y49951D01*
X64381Y50042D01*
X64387Y50142D01*
X64390Y50251D01*
Y52098D01*
X64815D01*
Y50251D01*
D02*
G37*
G36*
X85923Y45595D02*
X85963D01*
X86010Y45592D01*
X86057Y45589D01*
X86163Y45576D01*
X86272Y45561D01*
X86375Y45539D01*
X86422Y45526D01*
X86465Y45511D01*
X86469D01*
X86475Y45507D01*
X86487Y45501D01*
X86503Y45495D01*
X86522Y45483D01*
X86543Y45470D01*
X86593Y45439D01*
X86650Y45398D01*
X86709Y45345D01*
X86768Y45280D01*
X86821Y45205D01*
X86824Y45202D01*
X86827Y45195D01*
X86834Y45183D01*
X86843Y45167D01*
X86852Y45146D01*
X86865Y45121D01*
X86877Y45096D01*
X86890Y45064D01*
X86912Y44993D01*
X86933Y44912D01*
X86949Y44821D01*
X86955Y44774D01*
Y44724D01*
Y44721D01*
Y44709D01*
Y44690D01*
X86952Y44668D01*
X86949Y44637D01*
X86943Y44606D01*
X86937Y44565D01*
X86927Y44525D01*
X86915Y44481D01*
X86902Y44434D01*
X86883Y44387D01*
X86862Y44337D01*
X86837Y44291D01*
X86805Y44241D01*
X86774Y44194D01*
X86734Y44150D01*
X86731Y44147D01*
X86724Y44141D01*
X86712Y44129D01*
X86693Y44113D01*
X86668Y44094D01*
X86640Y44072D01*
X86606Y44050D01*
X86565Y44025D01*
X86522Y44001D01*
X86472Y43976D01*
X86415Y43951D01*
X86353Y43926D01*
X86288Y43904D01*
X86216Y43885D01*
X86138Y43866D01*
X86054Y43854D01*
X86057D01*
X86060Y43851D01*
X86069Y43845D01*
X86082Y43841D01*
X86113Y43823D01*
X86150Y43804D01*
X86191Y43779D01*
X86231Y43754D01*
X86272Y43723D01*
X86309Y43695D01*
X86313Y43692D01*
X86319Y43689D01*
X86328Y43676D01*
X86341Y43664D01*
X86356Y43648D01*
X86375Y43626D01*
X86397Y43604D01*
X86422Y43576D01*
X86475Y43514D01*
X86534Y43442D01*
X86597Y43358D01*
X86659Y43267D01*
X87211Y42400D01*
X86684D01*
X86260Y43065D01*
X86256Y43068D01*
X86250Y43077D01*
X86241Y43093D01*
X86228Y43111D01*
X86213Y43136D01*
X86194Y43164D01*
X86153Y43227D01*
X86103Y43299D01*
X86054Y43370D01*
X86001Y43442D01*
X85979Y43473D01*
X85954Y43505D01*
Y43508D01*
X85948Y43511D01*
X85935Y43529D01*
X85910Y43558D01*
X85882Y43589D01*
X85848Y43623D01*
X85813Y43657D01*
X85776Y43692D01*
X85738Y43717D01*
X85735Y43720D01*
X85723Y43726D01*
X85704Y43738D01*
X85679Y43751D01*
X85651Y43767D01*
X85620Y43779D01*
X85586Y43795D01*
X85548Y43804D01*
X85545D01*
X85536Y43807D01*
X85517Y43810D01*
X85492Y43813D01*
X85461D01*
X85420Y43817D01*
X85370Y43820D01*
X84824D01*
Y42400D01*
X84400D01*
Y45598D01*
X85888D01*
X85923Y45595D01*
D02*
G37*
%LPC*%
G36*
X117560Y103520D02*
X116266D01*
Y102245D01*
X117414D01*
X117444Y102249D01*
X117478D01*
X117515Y102252D01*
X117556D01*
X117642Y102264D01*
X117733Y102275D01*
X117823Y102294D01*
X117901Y102316D01*
X117905D01*
X117909Y102320D01*
X117935Y102331D01*
X117969Y102346D01*
X118010Y102373D01*
X118059Y102402D01*
X118107Y102444D01*
X118156Y102489D01*
X118198Y102545D01*
Y102549D01*
X118201Y102552D01*
X118212Y102575D01*
X118231Y102605D01*
X118250Y102650D01*
X118269Y102702D01*
X118288Y102759D01*
X118299Y102826D01*
X118303Y102894D01*
Y102898D01*
Y102905D01*
Y102920D01*
X118299Y102939D01*
X118295Y102961D01*
X118291Y102991D01*
X118276Y103051D01*
X118254Y103122D01*
X118220Y103198D01*
X118198Y103239D01*
X118171Y103272D01*
X118138Y103310D01*
X118104Y103344D01*
X118100Y103348D01*
X118096Y103351D01*
X118081Y103359D01*
X118066Y103370D01*
X118044Y103385D01*
X118017Y103400D01*
X117988Y103415D01*
X117950Y103434D01*
X117909Y103449D01*
X117864Y103464D01*
X117815Y103479D01*
X117759Y103494D01*
X117695Y103505D01*
X117631Y103513D01*
X117560Y103520D01*
D02*
G37*
G36*
X105736Y103490D02*
X104896D01*
Y102328D01*
X105807D01*
X105841Y102331D01*
X105912D01*
X105991Y102339D01*
X106070Y102346D01*
X106145Y102354D01*
X106179Y102361D01*
X106209Y102369D01*
X106212D01*
X106216Y102373D01*
X106239Y102380D01*
X106276Y102395D01*
X106317Y102414D01*
X106362Y102444D01*
X106411Y102474D01*
X106456Y102515D01*
X106498Y102560D01*
X106501Y102568D01*
X106512Y102586D01*
X106531Y102612D01*
X106550Y102654D01*
X106565Y102702D01*
X106584Y102759D01*
X106595Y102826D01*
X106599Y102898D01*
Y102901D01*
Y102905D01*
Y102916D01*
Y102931D01*
X106595Y102965D01*
X106588Y103010D01*
X106576Y103062D01*
X106558Y103122D01*
X106535Y103179D01*
X106505Y103235D01*
X106501Y103243D01*
X106490Y103258D01*
X106467Y103284D01*
X106438Y103314D01*
X106400Y103348D01*
X106355Y103381D01*
X106302Y103411D01*
X106243Y103434D01*
X106239D01*
X106235Y103437D01*
X106224D01*
X106209Y103441D01*
X106190Y103449D01*
X106167Y103453D01*
X106141Y103456D01*
X106107Y103464D01*
X106070Y103468D01*
X106025Y103471D01*
X105980Y103479D01*
X105928Y103482D01*
X105868Y103486D01*
X105804D01*
X105736Y103490D01*
D02*
G37*
G36*
X32901Y97845D02*
X31824D01*
Y96785D01*
X32779D01*
X32804Y96788D01*
X32832D01*
X32863Y96791D01*
X32898D01*
X32969Y96800D01*
X33044Y96810D01*
X33119Y96825D01*
X33185Y96844D01*
X33188D01*
X33191Y96847D01*
X33213Y96856D01*
X33241Y96869D01*
X33275Y96891D01*
X33316Y96916D01*
X33356Y96950D01*
X33397Y96987D01*
X33431Y97034D01*
Y97037D01*
X33434Y97040D01*
X33444Y97059D01*
X33459Y97084D01*
X33475Y97122D01*
X33490Y97165D01*
X33506Y97212D01*
X33515Y97268D01*
X33518Y97324D01*
Y97328D01*
Y97334D01*
Y97346D01*
X33515Y97362D01*
X33512Y97381D01*
X33509Y97405D01*
X33497Y97455D01*
X33478Y97515D01*
X33450Y97577D01*
X33431Y97611D01*
X33409Y97640D01*
X33381Y97671D01*
X33353Y97699D01*
X33350Y97702D01*
X33347Y97705D01*
X33334Y97711D01*
X33322Y97721D01*
X33303Y97733D01*
X33281Y97746D01*
X33256Y97758D01*
X33225Y97774D01*
X33191Y97786D01*
X33153Y97799D01*
X33113Y97811D01*
X33066Y97824D01*
X33013Y97833D01*
X32960Y97839D01*
X32901Y97845D01*
D02*
G37*
G36*
X109674Y103572D02*
X109651D01*
X109621Y103569D01*
X109584Y103565D01*
X109535Y103561D01*
X109483Y103554D01*
X109423Y103542D01*
X109355Y103527D01*
X109284Y103505D01*
X109209Y103482D01*
X109134Y103453D01*
X109055Y103415D01*
X108976Y103374D01*
X108897Y103325D01*
X108819Y103265D01*
X108744Y103201D01*
X108740Y103198D01*
X108729Y103182D01*
X108710Y103160D01*
X108684Y103130D01*
X108654Y103089D01*
X108620Y103040D01*
X108586Y102976D01*
X108553Y102909D01*
X108515Y102826D01*
X108481Y102736D01*
X108448Y102635D01*
X108417Y102523D01*
X108395Y102399D01*
X108372Y102268D01*
X108361Y102121D01*
X108358Y101964D01*
Y101960D01*
Y101956D01*
Y101934D01*
X108361Y101896D01*
X108365Y101848D01*
X108369Y101791D01*
X108376Y101724D01*
X108387Y101649D01*
X108403Y101566D01*
X108425Y101480D01*
X108448Y101390D01*
X108477Y101300D01*
X108515Y101210D01*
X108556Y101120D01*
X108605Y101030D01*
X108665Y100947D01*
X108729Y100869D01*
X108732Y100865D01*
X108747Y100850D01*
X108766Y100831D01*
X108796Y100805D01*
X108834Y100775D01*
X108879Y100741D01*
X108928Y100707D01*
X108987Y100670D01*
X109051Y100633D01*
X109123Y100599D01*
X109201Y100565D01*
X109284Y100535D01*
X109370Y100509D01*
X109464Y100490D01*
X109565Y100475D01*
X109666Y100471D01*
X109693D01*
X109722Y100475D01*
X109764Y100479D01*
X109812Y100482D01*
X109869Y100494D01*
X109932Y100505D01*
X110000Y100520D01*
X110075Y100542D01*
X110150Y100569D01*
X110229Y100602D01*
X110311Y100640D01*
X110390Y100685D01*
X110469Y100741D01*
X110544Y100801D01*
X110615Y100873D01*
X110619Y100876D01*
X110630Y100891D01*
X110649Y100914D01*
X110675Y100947D01*
X110701Y100989D01*
X110731Y101041D01*
X110765Y101098D01*
X110802Y101169D01*
X110836Y101244D01*
X110870Y101330D01*
X110900Y101424D01*
X110930Y101525D01*
X110952Y101637D01*
X110971Y101754D01*
X110983Y101881D01*
X110986Y102016D01*
Y102020D01*
Y102039D01*
Y102061D01*
X110983Y102095D01*
Y102136D01*
X110979Y102181D01*
X110971Y102237D01*
X110968Y102294D01*
X110956Y102357D01*
X110949Y102421D01*
X110919Y102560D01*
X110878Y102699D01*
X110855Y102766D01*
X110825Y102834D01*
Y102838D01*
X110818Y102849D01*
X110810Y102867D01*
X110795Y102894D01*
X110780Y102920D01*
X110758Y102954D01*
X110709Y103033D01*
X110641Y103122D01*
X110563Y103212D01*
X110469Y103299D01*
X110416Y103340D01*
X110360Y103377D01*
X110356Y103381D01*
X110345Y103385D01*
X110330Y103396D01*
X110308Y103408D01*
X110277Y103422D01*
X110244Y103437D01*
X110206Y103456D01*
X110161Y103475D01*
X110113Y103494D01*
X110060Y103513D01*
X110004Y103527D01*
X109944Y103542D01*
X109812Y103565D01*
X109745Y103569D01*
X109674Y103572D01*
D02*
G37*
G36*
X85901Y45245D02*
X84824D01*
Y44185D01*
X85779D01*
X85804Y44188D01*
X85832D01*
X85863Y44191D01*
X85898D01*
X85969Y44200D01*
X86044Y44210D01*
X86119Y44225D01*
X86185Y44244D01*
X86188D01*
X86191Y44247D01*
X86213Y44256D01*
X86241Y44269D01*
X86275Y44291D01*
X86316Y44316D01*
X86356Y44350D01*
X86397Y44387D01*
X86431Y44434D01*
Y44437D01*
X86434Y44440D01*
X86444Y44459D01*
X86459Y44484D01*
X86475Y44522D01*
X86490Y44565D01*
X86506Y44612D01*
X86515Y44668D01*
X86519Y44724D01*
Y44728D01*
Y44734D01*
Y44746D01*
X86515Y44762D01*
X86512Y44781D01*
X86509Y44805D01*
X86497Y44855D01*
X86478Y44915D01*
X86450Y44977D01*
X86431Y45011D01*
X86409Y45039D01*
X86381Y45071D01*
X86353Y45099D01*
X86350Y45102D01*
X86347Y45105D01*
X86334Y45111D01*
X86322Y45121D01*
X86303Y45133D01*
X86281Y45146D01*
X86256Y45158D01*
X86225Y45174D01*
X86191Y45186D01*
X86153Y45199D01*
X86113Y45211D01*
X86066Y45224D01*
X86013Y45233D01*
X85960Y45239D01*
X85901Y45245D01*
D02*
G37*
G36*
X27336Y31386D02*
X27311D01*
X27292Y31383D01*
X27267Y31380D01*
X27242Y31374D01*
X27180Y31358D01*
X27145Y31345D01*
X27111Y31330D01*
X27074Y31311D01*
X27039Y31289D01*
X27002Y31261D01*
X26968Y31230D01*
X26933Y31196D01*
X26902Y31155D01*
X26899Y31152D01*
X26893Y31143D01*
X26883Y31124D01*
X26871Y31096D01*
X26855Y31065D01*
X26840Y31021D01*
X26821Y30971D01*
X26802Y30912D01*
X26784Y30840D01*
X26765Y30762D01*
X26749Y30675D01*
X26734Y30575D01*
X26721Y30469D01*
X26712Y30347D01*
X26706Y30216D01*
X26702Y30076D01*
Y30073D01*
Y30066D01*
Y30057D01*
Y30041D01*
Y30023D01*
Y30001D01*
X26706Y29976D01*
Y29948D01*
X26709Y29885D01*
X26712Y29814D01*
X26718Y29732D01*
X26724Y29648D01*
X26746Y29473D01*
X26762Y29386D01*
X26781Y29302D01*
X26802Y29221D01*
X26827Y29146D01*
X26855Y29080D01*
X26887Y29027D01*
X26890Y29024D01*
X26896Y29015D01*
X26905Y29002D01*
X26921Y28987D01*
X26937Y28968D01*
X26958Y28946D01*
X26983Y28921D01*
X27011Y28899D01*
X27046Y28874D01*
X27080Y28849D01*
X27158Y28809D01*
X27199Y28793D01*
X27245Y28781D01*
X27292Y28771D01*
X27342Y28768D01*
X27355D01*
X27367Y28771D01*
X27386D01*
X27411Y28778D01*
X27436Y28781D01*
X27467Y28790D01*
X27498Y28800D01*
X27536Y28815D01*
X27570Y28831D01*
X27607Y28853D01*
X27645Y28877D01*
X27685Y28909D01*
X27723Y28943D01*
X27760Y28980D01*
X27795Y29027D01*
X27798Y29030D01*
X27804Y29040D01*
X27813Y29055D01*
X27823Y29080D01*
X27838Y29111D01*
X27854Y29152D01*
X27869Y29199D01*
X27888Y29258D01*
X27907Y29324D01*
X27922Y29399D01*
X27938Y29483D01*
X27954Y29579D01*
X27963Y29686D01*
X27972Y29804D01*
X27979Y29935D01*
X27982Y30076D01*
Y30079D01*
Y30085D01*
Y30094D01*
Y30110D01*
Y30129D01*
Y30150D01*
X27979Y30175D01*
Y30204D01*
X27975Y30266D01*
X27972Y30338D01*
X27966Y30419D01*
X27960Y30503D01*
X27938Y30678D01*
X27922Y30765D01*
X27904Y30852D01*
X27882Y30931D01*
X27860Y31005D01*
X27829Y31071D01*
X27798Y31124D01*
X27795Y31127D01*
X27788Y31136D01*
X27779Y31149D01*
X27763Y31165D01*
X27748Y31186D01*
X27726Y31208D01*
X27701Y31230D01*
X27670Y31255D01*
X27639Y31280D01*
X27604Y31302D01*
X27526Y31345D01*
X27483Y31361D01*
X27436Y31374D01*
X27386Y31383D01*
X27336Y31386D01*
D02*
G37*
G36*
X113480Y103539D02*
Y103535D01*
X113476Y103524D01*
X113472Y103501D01*
X113465Y103475D01*
X113458Y103441D01*
X113450Y103404D01*
X113439Y103359D01*
X113427Y103310D01*
X113412Y103254D01*
X113398Y103198D01*
X113360Y103074D01*
X113319Y102943D01*
X113274Y102804D01*
X112846Y101675D01*
X114159D01*
X113754Y102740D01*
X113750Y102747D01*
X113746Y102762D01*
X113735Y102789D01*
X113724Y102822D01*
X113709Y102864D01*
X113690Y102912D01*
X113671Y102965D01*
X113653Y103021D01*
X113608Y103149D01*
X113563Y103284D01*
X113517Y103415D01*
X113499Y103479D01*
X113480Y103539D01*
D02*
G37*
G36*
X121021Y103490D02*
X120133D01*
Y100554D01*
X121014D01*
X121044Y100557D01*
X121081D01*
X121123Y100561D01*
X121168D01*
X121265Y100569D01*
X121362Y100584D01*
X121460Y100599D01*
X121505Y100610D01*
X121546Y100621D01*
X121550D01*
X121557Y100625D01*
X121569Y100629D01*
X121584Y100636D01*
X121621Y100651D01*
X121670Y100674D01*
X121726Y100704D01*
X121783Y100738D01*
X121839Y100779D01*
X121891Y100824D01*
X121895Y100828D01*
X121899Y100831D01*
X121910Y100842D01*
X121921Y100857D01*
X121936Y100876D01*
X121955Y100895D01*
X121996Y100951D01*
X122041Y101023D01*
X122090Y101105D01*
X122135Y101199D01*
X122176Y101307D01*
Y101311D01*
X122180Y101322D01*
X122187Y101338D01*
X122191Y101364D01*
X122199Y101394D01*
X122210Y101427D01*
X122218Y101469D01*
X122229Y101517D01*
X122236Y101566D01*
X122244Y101622D01*
X122255Y101686D01*
X122263Y101750D01*
X122270Y101821D01*
X122274Y101892D01*
X122277Y102050D01*
Y102058D01*
Y102076D01*
Y102106D01*
X122274Y102147D01*
X122270Y102200D01*
X122266Y102256D01*
X122263Y102320D01*
X122251Y102391D01*
X122244Y102462D01*
X122229Y102538D01*
X122195Y102691D01*
X122172Y102766D01*
X122146Y102841D01*
X122113Y102909D01*
X122079Y102972D01*
X122075Y102976D01*
X122071Y102988D01*
X122060Y103003D01*
X122045Y103025D01*
X122022Y103051D01*
X122000Y103081D01*
X121944Y103149D01*
X121872Y103224D01*
X121790Y103295D01*
X121696Y103359D01*
X121648Y103389D01*
X121595Y103411D01*
X121591D01*
X121584Y103415D01*
X121572Y103419D01*
X121557Y103422D01*
X121535Y103430D01*
X121509Y103437D01*
X121475Y103445D01*
X121438Y103453D01*
X121393Y103456D01*
X121347Y103464D01*
X121291Y103471D01*
X121231Y103479D01*
X121168Y103482D01*
X121096Y103486D01*
X121021Y103490D01*
D02*
G37*
G36*
X105849Y101874D02*
X104896D01*
Y100554D01*
X105935D01*
X105988Y100557D01*
X106044D01*
X106104Y100561D01*
X106156Y100565D01*
X106198Y100569D01*
X106205D01*
X106228Y100576D01*
X106261Y100584D01*
X106299Y100595D01*
X106348Y100610D01*
X106396Y100629D01*
X106445Y100647D01*
X106490Y100674D01*
X106494Y100678D01*
X106509Y100689D01*
X106531Y100704D01*
X106561Y100730D01*
X106591Y100760D01*
X106621Y100797D01*
X106655Y100839D01*
X106685Y100888D01*
X106689Y100895D01*
X106696Y100914D01*
X106711Y100944D01*
X106726Y100981D01*
X106737Y101030D01*
X106753Y101086D01*
X106760Y101146D01*
X106764Y101214D01*
Y101217D01*
Y101225D01*
Y101236D01*
Y101251D01*
X106756Y101289D01*
X106749Y101341D01*
X106734Y101398D01*
X106715Y101461D01*
X106685Y101525D01*
X106648Y101585D01*
X106644Y101593D01*
X106629Y101611D01*
X106603Y101637D01*
X106569Y101671D01*
X106524Y101709D01*
X106471Y101746D01*
X106407Y101780D01*
X106340Y101806D01*
X106336D01*
X106333Y101810D01*
X106321Y101814D01*
X106306Y101818D01*
X106284Y101821D01*
X106261Y101829D01*
X106231Y101832D01*
X106198Y101840D01*
X106160Y101848D01*
X106119Y101851D01*
X106074Y101859D01*
X106025Y101863D01*
X105969Y101866D01*
X105912Y101870D01*
X105849Y101874D01*
D02*
G37*
G36*
X49617Y26786D02*
X49592D01*
X49573Y26783D01*
X49548Y26780D01*
X49523Y26774D01*
X49461Y26758D01*
X49426Y26745D01*
X49392Y26730D01*
X49355Y26711D01*
X49320Y26689D01*
X49283Y26661D01*
X49249Y26630D01*
X49214Y26596D01*
X49183Y26555D01*
X49180Y26552D01*
X49174Y26543D01*
X49164Y26524D01*
X49152Y26496D01*
X49136Y26465D01*
X49121Y26421D01*
X49102Y26371D01*
X49083Y26312D01*
X49064Y26240D01*
X49046Y26162D01*
X49030Y26075D01*
X49015Y25975D01*
X49002Y25869D01*
X48993Y25747D01*
X48987Y25616D01*
X48983Y25476D01*
Y25473D01*
Y25466D01*
Y25457D01*
Y25441D01*
Y25423D01*
Y25401D01*
X48987Y25376D01*
Y25348D01*
X48990Y25285D01*
X48993Y25214D01*
X48999Y25132D01*
X49005Y25048D01*
X49027Y24873D01*
X49043Y24786D01*
X49061Y24702D01*
X49083Y24621D01*
X49108Y24546D01*
X49136Y24480D01*
X49167Y24427D01*
X49171Y24424D01*
X49177Y24415D01*
X49186Y24402D01*
X49202Y24387D01*
X49217Y24368D01*
X49239Y24346D01*
X49264Y24321D01*
X49292Y24299D01*
X49327Y24274D01*
X49361Y24249D01*
X49439Y24209D01*
X49479Y24193D01*
X49526Y24181D01*
X49573Y24171D01*
X49623Y24168D01*
X49635D01*
X49648Y24171D01*
X49667D01*
X49692Y24178D01*
X49717Y24181D01*
X49748Y24190D01*
X49779Y24200D01*
X49816Y24215D01*
X49851Y24231D01*
X49888Y24253D01*
X49926Y24277D01*
X49966Y24309D01*
X50004Y24343D01*
X50041Y24381D01*
X50075Y24427D01*
X50078Y24430D01*
X50085Y24440D01*
X50094Y24455D01*
X50103Y24480D01*
X50119Y24511D01*
X50135Y24552D01*
X50150Y24599D01*
X50169Y24658D01*
X50188Y24724D01*
X50203Y24799D01*
X50219Y24883D01*
X50235Y24980D01*
X50244Y25086D01*
X50253Y25204D01*
X50259Y25335D01*
X50263Y25476D01*
Y25479D01*
Y25485D01*
Y25494D01*
Y25510D01*
Y25529D01*
Y25550D01*
X50259Y25575D01*
Y25604D01*
X50256Y25666D01*
X50253Y25738D01*
X50247Y25819D01*
X50241Y25903D01*
X50219Y26078D01*
X50203Y26165D01*
X50185Y26252D01*
X50163Y26331D01*
X50141Y26405D01*
X50110Y26471D01*
X50078Y26524D01*
X50075Y26527D01*
X50069Y26536D01*
X50060Y26549D01*
X50044Y26564D01*
X50029Y26586D01*
X50007Y26608D01*
X49982Y26630D01*
X49951Y26655D01*
X49919Y26680D01*
X49885Y26702D01*
X49807Y26745D01*
X49763Y26761D01*
X49717Y26774D01*
X49667Y26783D01*
X49617Y26786D01*
D02*
G37*
G36*
X52100D02*
X52075D01*
X52057Y26783D01*
X52032Y26780D01*
X52007Y26774D01*
X51944Y26758D01*
X51910Y26745D01*
X51876Y26730D01*
X51838Y26711D01*
X51804Y26689D01*
X51766Y26661D01*
X51732Y26630D01*
X51698Y26596D01*
X51667Y26555D01*
X51663Y26552D01*
X51657Y26543D01*
X51648Y26524D01*
X51635Y26496D01*
X51620Y26465D01*
X51604Y26421D01*
X51585Y26371D01*
X51567Y26312D01*
X51548Y26240D01*
X51529Y26162D01*
X51514Y26075D01*
X51498Y25975D01*
X51486Y25869D01*
X51476Y25747D01*
X51470Y25616D01*
X51467Y25476D01*
Y25473D01*
Y25466D01*
Y25457D01*
Y25441D01*
Y25423D01*
Y25401D01*
X51470Y25376D01*
Y25348D01*
X51473Y25285D01*
X51476Y25214D01*
X51482Y25132D01*
X51489Y25048D01*
X51511Y24873D01*
X51526Y24786D01*
X51545Y24702D01*
X51567Y24621D01*
X51592Y24546D01*
X51620Y24480D01*
X51651Y24427D01*
X51654Y24424D01*
X51660Y24415D01*
X51670Y24402D01*
X51685Y24387D01*
X51701Y24368D01*
X51723Y24346D01*
X51748Y24321D01*
X51776Y24299D01*
X51810Y24274D01*
X51844Y24249D01*
X51922Y24209D01*
X51963Y24193D01*
X52010Y24181D01*
X52057Y24171D01*
X52106Y24168D01*
X52119D01*
X52131Y24171D01*
X52150D01*
X52175Y24178D01*
X52200Y24181D01*
X52231Y24190D01*
X52263Y24200D01*
X52300Y24215D01*
X52334Y24231D01*
X52372Y24253D01*
X52409Y24277D01*
X52450Y24309D01*
X52487Y24343D01*
X52525Y24381D01*
X52559Y24427D01*
X52562Y24430D01*
X52568Y24440D01*
X52578Y24455D01*
X52587Y24480D01*
X52603Y24511D01*
X52618Y24552D01*
X52634Y24599D01*
X52653Y24658D01*
X52671Y24724D01*
X52687Y24799D01*
X52702Y24883D01*
X52718Y24980D01*
X52727Y25086D01*
X52737Y25204D01*
X52743Y25335D01*
X52746Y25476D01*
Y25479D01*
Y25485D01*
Y25494D01*
Y25510D01*
Y25529D01*
Y25550D01*
X52743Y25575D01*
Y25604D01*
X52740Y25666D01*
X52737Y25738D01*
X52731Y25819D01*
X52724Y25903D01*
X52702Y26078D01*
X52687Y26165D01*
X52668Y26252D01*
X52646Y26331D01*
X52624Y26405D01*
X52593Y26471D01*
X52562Y26524D01*
X52559Y26527D01*
X52553Y26536D01*
X52543Y26549D01*
X52528Y26564D01*
X52512Y26586D01*
X52490Y26608D01*
X52465Y26630D01*
X52434Y26655D01*
X52403Y26680D01*
X52369Y26702D01*
X52291Y26745D01*
X52247Y26761D01*
X52200Y26774D01*
X52150Y26783D01*
X52100Y26786D01*
D02*
G37*
G36*
X90100Y41286D02*
X90075D01*
X90057Y41283D01*
X90032Y41280D01*
X90007Y41273D01*
X89944Y41258D01*
X89910Y41245D01*
X89876Y41230D01*
X89838Y41211D01*
X89804Y41189D01*
X89766Y41161D01*
X89732Y41130D01*
X89698Y41096D01*
X89667Y41055D01*
X89663Y41052D01*
X89657Y41043D01*
X89648Y41024D01*
X89635Y40996D01*
X89620Y40965D01*
X89604Y40921D01*
X89585Y40871D01*
X89567Y40812D01*
X89548Y40740D01*
X89529Y40662D01*
X89514Y40575D01*
X89498Y40475D01*
X89486Y40369D01*
X89476Y40247D01*
X89470Y40116D01*
X89467Y39976D01*
Y39972D01*
Y39966D01*
Y39957D01*
Y39941D01*
Y39923D01*
Y39901D01*
X89470Y39876D01*
Y39848D01*
X89473Y39785D01*
X89476Y39713D01*
X89482Y39632D01*
X89489Y39548D01*
X89511Y39373D01*
X89526Y39286D01*
X89545Y39202D01*
X89567Y39121D01*
X89592Y39046D01*
X89620Y38980D01*
X89651Y38927D01*
X89654Y38924D01*
X89660Y38915D01*
X89670Y38902D01*
X89685Y38887D01*
X89701Y38868D01*
X89723Y38846D01*
X89748Y38821D01*
X89776Y38799D01*
X89810Y38774D01*
X89844Y38749D01*
X89922Y38709D01*
X89963Y38693D01*
X90010Y38681D01*
X90057Y38671D01*
X90106Y38668D01*
X90119D01*
X90131Y38671D01*
X90150D01*
X90175Y38678D01*
X90200Y38681D01*
X90231Y38690D01*
X90263Y38699D01*
X90300Y38715D01*
X90334Y38731D01*
X90372Y38753D01*
X90409Y38778D01*
X90450Y38809D01*
X90487Y38843D01*
X90525Y38881D01*
X90559Y38927D01*
X90562Y38930D01*
X90568Y38940D01*
X90578Y38955D01*
X90587Y38980D01*
X90603Y39011D01*
X90618Y39052D01*
X90634Y39099D01*
X90653Y39158D01*
X90671Y39224D01*
X90687Y39299D01*
X90702Y39383D01*
X90718Y39480D01*
X90727Y39586D01*
X90737Y39704D01*
X90743Y39835D01*
X90746Y39976D01*
Y39979D01*
Y39985D01*
Y39994D01*
Y40010D01*
Y40029D01*
Y40051D01*
X90743Y40075D01*
Y40104D01*
X90740Y40166D01*
X90737Y40238D01*
X90731Y40319D01*
X90724Y40403D01*
X90702Y40578D01*
X90687Y40665D01*
X90668Y40753D01*
X90646Y40830D01*
X90624Y40905D01*
X90593Y40971D01*
X90562Y41024D01*
X90559Y41027D01*
X90553Y41036D01*
X90543Y41049D01*
X90528Y41065D01*
X90512Y41086D01*
X90490Y41108D01*
X90465Y41130D01*
X90434Y41155D01*
X90403Y41180D01*
X90369Y41202D01*
X90291Y41245D01*
X90247Y41261D01*
X90200Y41273D01*
X90150Y41283D01*
X90100Y41286D01*
D02*
G37*
G36*
X66201Y114845D02*
X65124D01*
Y113785D01*
X66079D01*
X66104Y113788D01*
X66132D01*
X66163Y113791D01*
X66198D01*
X66269Y113800D01*
X66344Y113810D01*
X66419Y113825D01*
X66485Y113844D01*
X66488D01*
X66491Y113847D01*
X66513Y113856D01*
X66541Y113869D01*
X66575Y113891D01*
X66616Y113916D01*
X66656Y113950D01*
X66697Y113987D01*
X66731Y114034D01*
Y114037D01*
X66734Y114041D01*
X66744Y114059D01*
X66759Y114084D01*
X66775Y114122D01*
X66790Y114165D01*
X66806Y114212D01*
X66815Y114268D01*
X66818Y114324D01*
Y114328D01*
Y114334D01*
Y114346D01*
X66815Y114362D01*
X66812Y114381D01*
X66809Y114406D01*
X66797Y114455D01*
X66778Y114515D01*
X66750Y114577D01*
X66731Y114611D01*
X66709Y114639D01*
X66681Y114671D01*
X66653Y114699D01*
X66650Y114702D01*
X66647Y114705D01*
X66634Y114711D01*
X66622Y114721D01*
X66603Y114733D01*
X66581Y114746D01*
X66556Y114758D01*
X66525Y114774D01*
X66491Y114786D01*
X66453Y114799D01*
X66413Y114811D01*
X66366Y114824D01*
X66313Y114833D01*
X66260Y114839D01*
X66201Y114845D01*
D02*
G37*
G36*
X41401Y26745D02*
X40324D01*
Y25685D01*
X41279D01*
X41304Y25688D01*
X41332D01*
X41363Y25691D01*
X41398D01*
X41469Y25700D01*
X41544Y25710D01*
X41619Y25725D01*
X41685Y25744D01*
X41688D01*
X41691Y25747D01*
X41713Y25756D01*
X41741Y25769D01*
X41775Y25791D01*
X41816Y25816D01*
X41856Y25850D01*
X41897Y25887D01*
X41931Y25934D01*
Y25937D01*
X41934Y25940D01*
X41944Y25959D01*
X41959Y25984D01*
X41975Y26022D01*
X41990Y26065D01*
X42006Y26112D01*
X42015Y26168D01*
X42018Y26224D01*
Y26228D01*
Y26234D01*
Y26246D01*
X42015Y26262D01*
X42012Y26281D01*
X42009Y26305D01*
X41997Y26355D01*
X41978Y26415D01*
X41950Y26477D01*
X41931Y26511D01*
X41909Y26539D01*
X41881Y26571D01*
X41853Y26599D01*
X41850Y26602D01*
X41847Y26605D01*
X41834Y26611D01*
X41822Y26621D01*
X41803Y26633D01*
X41781Y26646D01*
X41756Y26658D01*
X41725Y26674D01*
X41691Y26686D01*
X41653Y26699D01*
X41613Y26711D01*
X41566Y26724D01*
X41513Y26733D01*
X41460Y26739D01*
X41401Y26745D01*
D02*
G37*
G36*
X86401Y98145D02*
X85324D01*
Y97085D01*
X86279D01*
X86304Y97088D01*
X86332D01*
X86363Y97091D01*
X86398D01*
X86469Y97100D01*
X86544Y97110D01*
X86619Y97125D01*
X86685Y97144D01*
X86688D01*
X86691Y97147D01*
X86713Y97156D01*
X86741Y97169D01*
X86775Y97191D01*
X86816Y97216D01*
X86856Y97250D01*
X86897Y97287D01*
X86931Y97334D01*
Y97337D01*
X86934Y97341D01*
X86944Y97359D01*
X86959Y97384D01*
X86975Y97422D01*
X86990Y97465D01*
X87006Y97512D01*
X87015Y97568D01*
X87019Y97624D01*
Y97628D01*
Y97634D01*
Y97646D01*
X87015Y97662D01*
X87012Y97681D01*
X87009Y97706D01*
X86997Y97755D01*
X86978Y97815D01*
X86950Y97877D01*
X86931Y97911D01*
X86909Y97939D01*
X86881Y97971D01*
X86853Y97999D01*
X86850Y98002D01*
X86847Y98005D01*
X86834Y98011D01*
X86822Y98021D01*
X86803Y98033D01*
X86781Y98046D01*
X86756Y98058D01*
X86725Y98074D01*
X86691Y98086D01*
X86653Y98099D01*
X86613Y98111D01*
X86566Y98124D01*
X86513Y98133D01*
X86460Y98139D01*
X86401Y98145D01*
D02*
G37*
G36*
X44028Y25629D02*
X44003D01*
X43984Y25625D01*
X43962Y25622D01*
X43934Y25619D01*
X43906Y25613D01*
X43872Y25604D01*
X43803Y25582D01*
X43766Y25566D01*
X43725Y25547D01*
X43688Y25526D01*
X43650Y25497D01*
X43613Y25469D01*
X43578Y25435D01*
X43575Y25432D01*
X43569Y25426D01*
X43563Y25416D01*
X43550Y25401D01*
X43535Y25382D01*
X43519Y25360D01*
X43504Y25332D01*
X43488Y25301D01*
X43469Y25267D01*
X43454Y25229D01*
X43438Y25189D01*
X43422Y25145D01*
X43410Y25098D01*
X43404Y25045D01*
X43398Y24992D01*
X43394Y24936D01*
Y24933D01*
Y24927D01*
Y24917D01*
Y24902D01*
X43398Y24883D01*
Y24861D01*
X43404Y24811D01*
X43416Y24752D01*
X43429Y24686D01*
X43451Y24618D01*
X43479Y24546D01*
Y24543D01*
X43482Y24536D01*
X43488Y24527D01*
X43494Y24515D01*
X43513Y24483D01*
X43541Y24443D01*
X43575Y24396D01*
X43616Y24349D01*
X43666Y24306D01*
X43719Y24265D01*
X43722D01*
X43725Y24262D01*
X43734Y24256D01*
X43747Y24249D01*
X43775Y24234D01*
X43816Y24218D01*
X43865Y24200D01*
X43922Y24184D01*
X43981Y24171D01*
X44043Y24168D01*
X44068D01*
X44084Y24171D01*
X44106Y24175D01*
X44131Y24178D01*
X44190Y24193D01*
X44259Y24218D01*
X44293Y24234D01*
X44330Y24253D01*
X44365Y24274D01*
X44402Y24303D01*
X44436Y24334D01*
X44471Y24368D01*
X44474Y24371D01*
X44480Y24377D01*
X44486Y24390D01*
X44499Y24405D01*
X44511Y24424D01*
X44527Y24449D01*
X44546Y24477D01*
X44561Y24511D01*
X44577Y24549D01*
X44596Y24589D01*
X44611Y24633D01*
X44624Y24683D01*
X44636Y24736D01*
X44646Y24792D01*
X44649Y24852D01*
X44652Y24914D01*
Y24917D01*
Y24930D01*
Y24945D01*
X44649Y24970D01*
X44646Y24995D01*
X44642Y25029D01*
X44636Y25064D01*
X44630Y25104D01*
X44608Y25185D01*
X44596Y25229D01*
X44577Y25273D01*
X44555Y25317D01*
X44533Y25357D01*
X44505Y25398D01*
X44474Y25435D01*
X44471Y25438D01*
X44465Y25444D01*
X44455Y25454D01*
X44443Y25466D01*
X44424Y25479D01*
X44405Y25497D01*
X44380Y25513D01*
X44352Y25532D01*
X44321Y25550D01*
X44290Y25566D01*
X44212Y25597D01*
X44171Y25610D01*
X44124Y25619D01*
X44078Y25625D01*
X44028Y25629D01*
D02*
G37*
G36*
X87863Y93186D02*
X87838D01*
X87819Y93183D01*
X87797Y93180D01*
X87769Y93173D01*
X87741Y93167D01*
X87707Y93158D01*
X87673Y93149D01*
X87635Y93133D01*
X87598Y93117D01*
X87560Y93095D01*
X87523Y93071D01*
X87482Y93042D01*
X87445Y93008D01*
X87407Y92971D01*
X87404Y92968D01*
X87398Y92961D01*
X87389Y92949D01*
X87376Y92933D01*
X87364Y92911D01*
X87345Y92887D01*
X87329Y92855D01*
X87311Y92821D01*
X87292Y92783D01*
X87276Y92743D01*
X87258Y92696D01*
X87245Y92649D01*
X87233Y92596D01*
X87223Y92540D01*
X87217Y92481D01*
X87214Y92418D01*
Y92415D01*
Y92406D01*
Y92390D01*
X87217Y92369D01*
X87220Y92340D01*
X87223Y92312D01*
X87230Y92278D01*
X87236Y92241D01*
X87258Y92163D01*
X87273Y92122D01*
X87292Y92081D01*
X87311Y92038D01*
X87336Y91997D01*
X87364Y91960D01*
X87395Y91922D01*
X87398Y91919D01*
X87404Y91913D01*
X87414Y91904D01*
X87429Y91894D01*
X87445Y91879D01*
X87467Y91863D01*
X87492Y91844D01*
X87520Y91829D01*
X87554Y91810D01*
X87588Y91791D01*
X87666Y91763D01*
X87707Y91751D01*
X87754Y91741D01*
X87801Y91735D01*
X87850Y91732D01*
X87879D01*
X87897Y91735D01*
X87919Y91738D01*
X87947Y91741D01*
X87978Y91748D01*
X88010Y91757D01*
X88081Y91779D01*
X88119Y91795D01*
X88156Y91813D01*
X88194Y91835D01*
X88231Y91860D01*
X88265Y91888D01*
X88300Y91922D01*
X88303Y91926D01*
X88306Y91932D01*
X88315Y91941D01*
X88328Y91957D01*
X88340Y91975D01*
X88356Y92000D01*
X88371Y92028D01*
X88390Y92060D01*
X88406Y92094D01*
X88421Y92135D01*
X88437Y92178D01*
X88449Y92225D01*
X88462Y92275D01*
X88471Y92331D01*
X88474Y92387D01*
X88477Y92450D01*
Y92453D01*
Y92465D01*
Y92481D01*
X88474Y92506D01*
X88471Y92534D01*
X88468Y92568D01*
X88462Y92603D01*
X88456Y92643D01*
X88434Y92727D01*
X88418Y92774D01*
X88403Y92818D01*
X88381Y92861D01*
X88356Y92905D01*
X88328Y92949D01*
X88297Y92986D01*
X88293Y92989D01*
X88287Y92996D01*
X88278Y93005D01*
X88265Y93018D01*
X88247Y93033D01*
X88228Y93049D01*
X88203Y93067D01*
X88175Y93086D01*
X88112Y93124D01*
X88038Y93155D01*
X87997Y93167D01*
X87957Y93177D01*
X87910Y93183D01*
X87863Y93186D01*
D02*
G37*
G36*
X17017Y43786D02*
X16992D01*
X16973Y43783D01*
X16948Y43780D01*
X16923Y43773D01*
X16861Y43758D01*
X16826Y43745D01*
X16792Y43730D01*
X16755Y43711D01*
X16720Y43689D01*
X16683Y43661D01*
X16649Y43630D01*
X16614Y43596D01*
X16583Y43555D01*
X16580Y43552D01*
X16574Y43543D01*
X16564Y43524D01*
X16552Y43496D01*
X16536Y43465D01*
X16521Y43421D01*
X16502Y43371D01*
X16483Y43312D01*
X16465Y43240D01*
X16446Y43162D01*
X16430Y43075D01*
X16415Y42975D01*
X16402Y42869D01*
X16393Y42747D01*
X16387Y42616D01*
X16383Y42476D01*
Y42472D01*
Y42466D01*
Y42457D01*
Y42441D01*
Y42423D01*
Y42401D01*
X16387Y42376D01*
Y42348D01*
X16390Y42285D01*
X16393Y42213D01*
X16399Y42132D01*
X16405Y42048D01*
X16427Y41873D01*
X16443Y41786D01*
X16461Y41702D01*
X16483Y41621D01*
X16508Y41546D01*
X16536Y41480D01*
X16567Y41427D01*
X16571Y41424D01*
X16577Y41415D01*
X16586Y41402D01*
X16602Y41387D01*
X16617Y41368D01*
X16639Y41346D01*
X16664Y41321D01*
X16692Y41299D01*
X16727Y41274D01*
X16761Y41249D01*
X16839Y41209D01*
X16879Y41193D01*
X16926Y41181D01*
X16973Y41171D01*
X17023Y41168D01*
X17035D01*
X17048Y41171D01*
X17067D01*
X17092Y41178D01*
X17117Y41181D01*
X17148Y41190D01*
X17179Y41199D01*
X17216Y41215D01*
X17251Y41231D01*
X17288Y41253D01*
X17326Y41278D01*
X17366Y41309D01*
X17404Y41343D01*
X17441Y41381D01*
X17475Y41427D01*
X17479Y41430D01*
X17485Y41440D01*
X17494Y41455D01*
X17503Y41480D01*
X17519Y41511D01*
X17535Y41552D01*
X17550Y41599D01*
X17569Y41658D01*
X17588Y41724D01*
X17603Y41799D01*
X17619Y41883D01*
X17635Y41980D01*
X17644Y42086D01*
X17653Y42204D01*
X17659Y42335D01*
X17663Y42476D01*
Y42479D01*
Y42485D01*
Y42494D01*
Y42510D01*
Y42529D01*
Y42551D01*
X17659Y42575D01*
Y42603D01*
X17656Y42666D01*
X17653Y42738D01*
X17647Y42819D01*
X17641Y42903D01*
X17619Y43078D01*
X17603Y43165D01*
X17585Y43253D01*
X17563Y43330D01*
X17541Y43405D01*
X17510Y43471D01*
X17479Y43524D01*
X17475Y43527D01*
X17469Y43536D01*
X17460Y43549D01*
X17444Y43565D01*
X17429Y43586D01*
X17407Y43608D01*
X17382Y43630D01*
X17351Y43655D01*
X17319Y43680D01*
X17285Y43702D01*
X17207Y43745D01*
X17163Y43761D01*
X17117Y43773D01*
X17067Y43783D01*
X17017Y43786D01*
D02*
G37*
G36*
X91588Y93186D02*
X91563D01*
X91545Y93183D01*
X91523Y93180D01*
X91495Y93173D01*
X91466Y93167D01*
X91432Y93158D01*
X91398Y93149D01*
X91360Y93133D01*
X91323Y93117D01*
X91286Y93095D01*
X91248Y93071D01*
X91207Y93042D01*
X91170Y93008D01*
X91133Y92971D01*
X91129Y92968D01*
X91123Y92961D01*
X91114Y92949D01*
X91101Y92933D01*
X91089Y92911D01*
X91070Y92887D01*
X91055Y92855D01*
X91036Y92821D01*
X91017Y92783D01*
X91002Y92743D01*
X90983Y92696D01*
X90970Y92649D01*
X90958Y92596D01*
X90949Y92540D01*
X90942Y92481D01*
X90939Y92418D01*
Y92415D01*
Y92406D01*
Y92390D01*
X90942Y92369D01*
X90945Y92340D01*
X90949Y92312D01*
X90955Y92278D01*
X90961Y92241D01*
X90983Y92163D01*
X90999Y92122D01*
X91017Y92081D01*
X91036Y92038D01*
X91061Y91997D01*
X91089Y91960D01*
X91120Y91922D01*
X91123Y91919D01*
X91129Y91913D01*
X91139Y91904D01*
X91154Y91894D01*
X91170Y91879D01*
X91192Y91863D01*
X91217Y91844D01*
X91245Y91829D01*
X91279Y91810D01*
X91314Y91791D01*
X91392Y91763D01*
X91432Y91751D01*
X91479Y91741D01*
X91526Y91735D01*
X91576Y91732D01*
X91604D01*
X91623Y91735D01*
X91644Y91738D01*
X91672Y91741D01*
X91704Y91748D01*
X91735Y91757D01*
X91807Y91779D01*
X91844Y91795D01*
X91881Y91813D01*
X91919Y91835D01*
X91956Y91860D01*
X91991Y91888D01*
X92025Y91922D01*
X92028Y91926D01*
X92031Y91932D01*
X92041Y91941D01*
X92053Y91957D01*
X92066Y91975D01*
X92081Y92000D01*
X92097Y92028D01*
X92115Y92060D01*
X92131Y92094D01*
X92147Y92135D01*
X92162Y92178D01*
X92175Y92225D01*
X92187Y92275D01*
X92197Y92331D01*
X92200Y92387D01*
X92203Y92450D01*
Y92453D01*
Y92465D01*
Y92481D01*
X92200Y92506D01*
X92197Y92534D01*
X92193Y92568D01*
X92187Y92603D01*
X92181Y92643D01*
X92159Y92727D01*
X92143Y92774D01*
X92128Y92818D01*
X92106Y92861D01*
X92081Y92905D01*
X92053Y92949D01*
X92022Y92986D01*
X92019Y92989D01*
X92013Y92996D01*
X92003Y93005D01*
X91991Y93018D01*
X91972Y93033D01*
X91953Y93049D01*
X91928Y93067D01*
X91900Y93086D01*
X91838Y93124D01*
X91763Y93155D01*
X91722Y93167D01*
X91682Y93177D01*
X91635Y93183D01*
X91588Y93186D01*
D02*
G37*
G36*
X85588Y92868D02*
X84584Y91423D01*
X85588D01*
Y92868D01*
D02*
G37*
G36*
X87617Y41286D02*
X87592D01*
X87573Y41283D01*
X87548Y41280D01*
X87523Y41273D01*
X87461Y41258D01*
X87426Y41245D01*
X87392Y41230D01*
X87355Y41211D01*
X87320Y41189D01*
X87283Y41161D01*
X87249Y41130D01*
X87214Y41096D01*
X87183Y41055D01*
X87180Y41052D01*
X87174Y41043D01*
X87164Y41024D01*
X87152Y40996D01*
X87136Y40965D01*
X87121Y40921D01*
X87102Y40871D01*
X87083Y40812D01*
X87064Y40740D01*
X87046Y40662D01*
X87030Y40575D01*
X87015Y40475D01*
X87002Y40369D01*
X86993Y40247D01*
X86987Y40116D01*
X86983Y39976D01*
Y39972D01*
Y39966D01*
Y39957D01*
Y39941D01*
Y39923D01*
Y39901D01*
X86987Y39876D01*
Y39848D01*
X86990Y39785D01*
X86993Y39713D01*
X86999Y39632D01*
X87005Y39548D01*
X87027Y39373D01*
X87043Y39286D01*
X87061Y39202D01*
X87083Y39121D01*
X87108Y39046D01*
X87136Y38980D01*
X87167Y38927D01*
X87171Y38924D01*
X87177Y38915D01*
X87186Y38902D01*
X87202Y38887D01*
X87217Y38868D01*
X87239Y38846D01*
X87264Y38821D01*
X87292Y38799D01*
X87327Y38774D01*
X87361Y38749D01*
X87439Y38709D01*
X87479Y38693D01*
X87526Y38681D01*
X87573Y38671D01*
X87623Y38668D01*
X87635D01*
X87648Y38671D01*
X87667D01*
X87692Y38678D01*
X87717Y38681D01*
X87748Y38690D01*
X87779Y38699D01*
X87816Y38715D01*
X87851Y38731D01*
X87888Y38753D01*
X87926Y38778D01*
X87966Y38809D01*
X88004Y38843D01*
X88041Y38881D01*
X88075Y38927D01*
X88078Y38930D01*
X88085Y38940D01*
X88094Y38955D01*
X88103Y38980D01*
X88119Y39011D01*
X88135Y39052D01*
X88150Y39099D01*
X88169Y39158D01*
X88188Y39224D01*
X88203Y39299D01*
X88219Y39383D01*
X88235Y39480D01*
X88244Y39586D01*
X88253Y39704D01*
X88259Y39835D01*
X88263Y39976D01*
Y39979D01*
Y39985D01*
Y39994D01*
Y40010D01*
Y40029D01*
Y40051D01*
X88259Y40075D01*
Y40104D01*
X88256Y40166D01*
X88253Y40238D01*
X88247Y40319D01*
X88241Y40403D01*
X88219Y40578D01*
X88203Y40665D01*
X88185Y40753D01*
X88163Y40830D01*
X88141Y40905D01*
X88110Y40971D01*
X88078Y41024D01*
X88075Y41027D01*
X88069Y41036D01*
X88060Y41049D01*
X88044Y41065D01*
X88029Y41086D01*
X88007Y41108D01*
X87982Y41130D01*
X87951Y41155D01*
X87919Y41180D01*
X87885Y41202D01*
X87807Y41245D01*
X87763Y41261D01*
X87717Y41273D01*
X87667Y41283D01*
X87617Y41286D01*
D02*
G37*
G36*
X51901Y97845D02*
X50824D01*
Y96785D01*
X51779D01*
X51804Y96788D01*
X51832D01*
X51863Y96791D01*
X51898D01*
X51969Y96800D01*
X52044Y96810D01*
X52119Y96825D01*
X52185Y96844D01*
X52188D01*
X52191Y96847D01*
X52213Y96856D01*
X52241Y96869D01*
X52275Y96891D01*
X52316Y96916D01*
X52356Y96950D01*
X52397Y96987D01*
X52431Y97034D01*
Y97037D01*
X52434Y97040D01*
X52444Y97059D01*
X52459Y97084D01*
X52475Y97122D01*
X52490Y97165D01*
X52506Y97212D01*
X52515Y97268D01*
X52518Y97324D01*
Y97328D01*
Y97334D01*
Y97346D01*
X52515Y97362D01*
X52512Y97381D01*
X52509Y97405D01*
X52497Y97455D01*
X52478Y97515D01*
X52450Y97577D01*
X52431Y97611D01*
X52409Y97640D01*
X52381Y97671D01*
X52353Y97699D01*
X52350Y97702D01*
X52347Y97705D01*
X52334Y97711D01*
X52322Y97721D01*
X52303Y97733D01*
X52281Y97746D01*
X52256Y97758D01*
X52225Y97774D01*
X52191Y97786D01*
X52153Y97799D01*
X52113Y97811D01*
X52066Y97824D01*
X52013Y97833D01*
X51960Y97839D01*
X51901Y97845D01*
D02*
G37*
G36*
X54718Y97568D02*
X53713Y96123D01*
X54718D01*
Y97568D01*
D02*
G37*
%LPD*%
D41*
X81600Y41400D02*
Y42400D01*
X83200Y41400D02*
Y42400D01*
X47100Y31400D02*
Y32400D01*
X45500Y31400D02*
Y32400D01*
X98900Y111000D02*
Y114599D01*
X100100Y113399D01*
X101299Y114599D01*
Y111000D01*
X104898D02*
X102499D01*
X104898Y113399D01*
Y113999D01*
X104298Y114599D01*
X103099D01*
X102499Y113999D01*
X108497Y114599D02*
X106098D01*
Y112799D01*
X107297D01*
X106098D01*
Y111000D01*
X112096Y113999D02*
X111496Y114599D01*
X110296D01*
X109696Y113999D01*
Y113399D01*
X110296Y112799D01*
X111496D01*
X112096Y112200D01*
Y111600D01*
X111496Y111000D01*
X110296D01*
X109696Y111600D01*
X119293Y114599D02*
X116894D01*
Y112799D01*
X118094D01*
X116894D01*
Y111000D01*
X120493Y114599D02*
Y111000D01*
X122892D01*
X126491Y113999D02*
X125891Y114599D01*
X124692D01*
X124092Y113999D01*
Y113399D01*
X124692Y112799D01*
X125891D01*
X126491Y112200D01*
Y111600D01*
X125891Y111000D01*
X124692D01*
X124092Y111600D01*
X97200Y108899D02*
Y105300D01*
Y107099D01*
X99599D01*
Y108899D01*
Y105300D01*
X100799D02*
Y107699D01*
X101998Y108899D01*
X103198Y107699D01*
Y105300D01*
Y107099D01*
X100799D01*
X104398Y105300D02*
Y108899D01*
X105597Y107699D01*
X106797Y108899D01*
Y105300D01*
X107996D02*
Y107699D01*
X109196Y108899D01*
X110396Y107699D01*
Y105300D01*
Y107099D01*
X107996D01*
X111595Y105300D02*
Y108899D01*
X112795Y107699D01*
X113995Y108899D01*
Y105300D01*
X115194D02*
Y107699D01*
X116394Y108899D01*
X117593Y107699D01*
Y105300D01*
Y107099D01*
X115194D01*
X118793Y108899D02*
X121192D01*
X119993D01*
Y105300D01*
X124791Y108299D02*
X124191Y108899D01*
X122992D01*
X122392Y108299D01*
Y107699D01*
X122992Y107099D01*
X124191D01*
X124791Y106500D01*
Y105900D01*
X124191Y105300D01*
X122992D01*
X122392Y105900D01*
X125991Y108899D02*
Y105900D01*
X126591Y105300D01*
X127790D01*
X128390Y105900D01*
Y108899D01*
X32300Y8899D02*
Y5300D01*
X34099D01*
X34699Y5900D01*
Y8299D01*
X34099Y8899D01*
X32300D01*
X38298Y8299D02*
X37698Y8899D01*
X36499D01*
X35899Y8299D01*
Y5900D01*
X36499Y5300D01*
X37698D01*
X38298Y5900D01*
Y7099D01*
X37099D01*
X39498Y5300D02*
Y8899D01*
X41897Y5300D01*
Y8899D01*
X43097D02*
Y5300D01*
X44896D01*
X45496Y5900D01*
Y8299D01*
X44896Y8899D01*
X43097D01*
X78100Y8250D02*
X79766D01*
X81016Y8666D02*
X81849D01*
X82265Y8250D01*
Y7000D01*
X81016D01*
X80599Y7417D01*
X81016Y7833D01*
X82265D01*
X83098Y7000D02*
X83931D01*
X83515D01*
Y9499D01*
X83098D01*
X85598Y8666D02*
X86431D01*
X86847Y8250D01*
Y7000D01*
X85598D01*
X85181Y7417D01*
X85598Y7833D01*
X86847D01*
X87680Y7000D02*
Y8666D01*
X88930D01*
X89346Y8250D01*
Y7000D01*
X90179Y9499D02*
Y7000D01*
X91429D01*
X91846Y7417D01*
Y7833D01*
Y8250D01*
X91429Y8666D01*
X90179D01*
X95178Y7000D02*
Y9499D01*
X96427D01*
X96844Y9083D01*
Y8250D01*
X96427Y7833D01*
X95178D01*
X96011D02*
X96844Y7000D01*
X98927D02*
X98093D01*
X97677Y7417D01*
Y8250D01*
X98093Y8666D01*
X98927D01*
X99343Y8250D01*
Y7833D01*
X97677D01*
X100176Y8666D02*
X101009Y7000D01*
X101842Y8666D01*
X105175Y7000D02*
X106008D01*
X105591D01*
Y9499D01*
X105175Y9083D01*
X107257Y7000D02*
Y7417D01*
X107674D01*
Y7000D01*
X107257D01*
X109340Y9083D02*
X109756Y9499D01*
X110590D01*
X111006Y9083D01*
Y7417D01*
X110590Y7000D01*
X109756D01*
X109340Y7417D01*
Y9083D01*
X30900Y113000D02*
Y115399D01*
X32100Y116599D01*
X33299Y115399D01*
Y113000D01*
Y114799D01*
X30900D01*
X36898Y115999D02*
X36298Y116599D01*
X35099D01*
X34499Y115999D01*
Y113600D01*
X35099Y113000D01*
X36298D01*
X36898Y113600D01*
Y114799D01*
X35699D01*
X38098Y113000D02*
Y116599D01*
X40497Y113000D01*
Y116599D01*
X41697D02*
Y113000D01*
X43496D01*
X44096Y113600D01*
Y115999D01*
X43496Y116599D01*
X41697D01*
D44*
X40550Y38850D02*
X48050D01*
X40550Y48850D02*
X48050D01*
X24550D02*
X32050D01*
X24550Y38850D02*
X32050D01*
X48050D02*
Y48850D01*
X24550Y38850D02*
Y48850D01*
X31500Y36900D02*
X32000D01*
X31500Y33100D02*
X32000D01*
X80600Y143500D02*
X81100D01*
X80600Y139700D02*
X81100D01*
X82500Y93200D02*
Y93700D01*
X78700Y93200D02*
Y93700D01*
X37900Y93100D02*
Y93600D01*
X41700Y93100D02*
Y93600D01*
X48900Y93200D02*
Y93700D01*
X45100Y93200D02*
Y93700D01*
X75300Y110500D02*
Y111000D01*
X71500Y110500D02*
Y111000D01*
D45*
X55843Y47747D02*
G03*
X55843Y47747I-492J0D01*
G01*
D46*
X48068Y50457D02*
G03*
X48000Y50400I-348J348D01*
G01*
D47*
X61257Y27057D02*
Y46743D01*
X68343Y27057D02*
Y46743D01*
X61257D02*
X68343D01*
X61257Y27057D02*
X68343D01*
M02*
