%FSLAX25Y25*%
%MOIN*%
G70*
G01*
G75*
G04 Layer_Physical_Order=6*
G04 Layer_Color=16711680*
%ADD10O,0.08661X0.02362*%
%ADD11R,0.05000X0.06000*%
%ADD12C,0.01500*%
%ADD13C,0.01000*%
%ADD14C,0.02500*%
%ADD15O,0.06300X0.07874*%
%ADD16R,0.06300X0.07874*%
%ADD17C,0.03937*%
G04:AMPARAMS|DCode=18|XSize=78.74mil|YSize=78.74mil|CornerRadius=19.69mil|HoleSize=0mil|Usage=FLASHONLY|Rotation=180.000|XOffset=0mil|YOffset=0mil|HoleType=Round|Shape=RoundedRectangle|*
%AMROUNDEDRECTD18*
21,1,0.07874,0.03937,0,0,180.0*
21,1,0.03937,0.07874,0,0,180.0*
1,1,0.03937,-0.01969,0.01969*
1,1,0.03937,0.01969,0.01969*
1,1,0.03937,0.01969,-0.01969*
1,1,0.03937,-0.01969,-0.01969*
%
%ADD18ROUNDEDRECTD18*%
%ADD19R,0.03937X0.03937*%
%ADD20C,0.05200*%
%ADD21R,0.05200X0.05200*%
%ADD22R,0.02000X0.02500*%
%ADD23R,0.06000X0.06000*%
%ADD24R,0.06000X0.05000*%
%ADD25R,0.15000X0.08500*%
%ADD26C,0.09700*%
%ADD27C,0.05000*%
%ADD28C,0.02000*%
%ADD29C,0.04000*%
%ADD30C,0.09100*%
G04:AMPARAMS|DCode=31|XSize=111mil|YSize=111mil|CornerRadius=0mil|HoleSize=0mil|Usage=FLASHONLY|Rotation=0.000|XOffset=0mil|YOffset=0mil|HoleType=Round|Shape=Relief|Width=10mil|Gap=10mil|Entries=4|*
%AMTHD31*
7,0,0,0.11100,0.09100,0.01000,45*
%
%ADD31THD31*%
%ADD32C,0.06913*%
%ADD33C,0.09315*%
%ADD34C,0.07800*%
%ADD35C,0.04800*%
G04:AMPARAMS|DCode=36|XSize=68mil|YSize=68mil|CornerRadius=0mil|HoleSize=0mil|Usage=FLASHONLY|Rotation=0.000|XOffset=0mil|YOffset=0mil|HoleType=Round|Shape=Relief|Width=10mil|Gap=10mil|Entries=4|*
%AMTHD36*
7,0,0,0.06800,0.04800,0.01000,45*
%
%ADD36THD36*%
%ADD37C,0.12500*%
G04:AMPARAMS|DCode=38|XSize=88mil|YSize=88mil|CornerRadius=0mil|HoleSize=0mil|Usage=FLASHONLY|Rotation=0.000|XOffset=0mil|YOffset=0mil|HoleType=Round|Shape=Relief|Width=10mil|Gap=10mil|Entries=4|*
%AMTHD38*
7,0,0,0.08800,0.06800,0.01000,45*
%
%ADD38THD38*%
%ADD39C,0.06800*%
%ADD40C,0.03000*%
%ADD41C,0.00600*%
G04:AMPARAMS|DCode=42|XSize=98mil|YSize=98mil|CornerRadius=0mil|HoleSize=0mil|Usage=FLASHONLY|Rotation=0.000|XOffset=0mil|YOffset=0mil|HoleType=Round|Shape=Relief|Width=10mil|Gap=10mil|Entries=4|*
%AMTHD42*
7,0,0,0.09800,0.07800,0.01000,45*
%
%ADD42THD42*%
%ADD43R,0.06102X0.01575*%
%ADD44C,0.01200*%
G36*
X21501Y84000D02*
X21577Y83618D01*
X21793Y83293D01*
X22118Y83077D01*
X22500Y83001D01*
X54242D01*
X54294Y82924D01*
X54618Y82707D01*
X54870Y82657D01*
Y76643D01*
X54618Y76593D01*
X54294Y76376D01*
X54077Y76052D01*
X54001Y75670D01*
Y65999D01*
X40047D01*
X39997Y66120D01*
X40078Y66242D01*
X41559Y66536D01*
X42200D01*
X42875Y66670D01*
X43447Y67053D01*
X44447Y68053D01*
X44830Y68625D01*
X44964Y69300D01*
Y69770D01*
X51680D01*
Y80230D01*
X34720D01*
Y69770D01*
X37522D01*
X37714Y69308D01*
X33653Y65247D01*
X33270Y64675D01*
X33136Y64000D01*
Y62027D01*
X32817Y61895D01*
X31955Y61233D01*
X31293Y60370D01*
X30876Y59365D01*
X30734Y58287D01*
Y56713D01*
X30876Y55635D01*
X31293Y54630D01*
X31955Y53767D01*
X32817Y53105D01*
X33822Y52689D01*
X34900Y52547D01*
X35978Y52689D01*
X36983Y53105D01*
X37846Y53767D01*
X38508Y54630D01*
X38510Y54637D01*
X39001Y54540D01*
Y51500D01*
X39077Y51118D01*
X39294Y50793D01*
X39618Y50577D01*
X40000Y50501D01*
X60000D01*
X60382Y50577D01*
X60707Y50793D01*
X60923Y51118D01*
X60999Y51500D01*
Y54235D01*
X61473Y54395D01*
X61954Y53767D01*
X62817Y53105D01*
X63822Y52689D01*
X64900Y52547D01*
X65978Y52689D01*
X66983Y53105D01*
X67846Y53767D01*
X68508Y54630D01*
X68924Y55635D01*
X69066Y56713D01*
Y58287D01*
X68924Y59365D01*
X68508Y60370D01*
X67846Y61233D01*
X66983Y61895D01*
X66703Y62010D01*
X66801Y62501D01*
X72999D01*
X73097Y62010D01*
X72817Y61895D01*
X71954Y61233D01*
X71292Y60370D01*
X70876Y59365D01*
X70734Y58287D01*
Y56713D01*
X70876Y55635D01*
X71292Y54630D01*
X71954Y53767D01*
X72817Y53105D01*
X73822Y52689D01*
X74900Y52547D01*
X75978Y52689D01*
X76983Y53105D01*
X77846Y53767D01*
X78508Y54630D01*
X78510Y54637D01*
X79001Y54540D01*
Y50500D01*
X79077Y50118D01*
X79294Y49793D01*
X79618Y49577D01*
X80000Y49501D01*
X100000D01*
X100382Y49577D01*
X100707Y49793D01*
X100923Y50118D01*
X100999Y50500D01*
Y54235D01*
X101473Y54395D01*
X101954Y53767D01*
X102817Y53105D01*
X103391Y52868D01*
Y50125D01*
X79775Y26509D01*
X27325D01*
X21039Y32795D01*
Y54183D01*
X21512Y54343D01*
X21954Y53767D01*
X22817Y53105D01*
X22840Y53096D01*
X23136Y52800D01*
X23136Y52800D01*
D01*
X23270Y52125D01*
X23653Y51553D01*
X26586Y48619D01*
X27051Y48309D01*
X26906Y47830D01*
X25570D01*
Y39870D01*
X33530D01*
Y47749D01*
X33530Y47749D01*
D01*
D01*
X33530Y47830D01*
D01*
X33803Y48103D01*
X34303D01*
X35753Y46653D01*
X36325Y46270D01*
X37000Y46136D01*
X42046D01*
X42191Y45658D01*
X41622Y45278D01*
X41185Y44623D01*
X41031Y43850D01*
X41185Y43077D01*
X41622Y42423D01*
X42277Y41985D01*
X43050Y41831D01*
X43823Y41985D01*
X44477Y42423D01*
X44915Y43077D01*
X45069Y43850D01*
X44915Y44623D01*
X44477Y45278D01*
X43909Y45658D01*
X44054Y46136D01*
X50208D01*
X50444Y45695D01*
X50147Y45251D01*
X50077Y44900D01*
X60625D01*
X60555Y45251D01*
X60259Y45695D01*
X60494Y46136D01*
X65169D01*
X72485Y38821D01*
Y36603D01*
X71099D01*
X70256Y36436D01*
X69541Y35958D01*
X69064Y35243D01*
X68896Y34400D01*
X69064Y33557D01*
X69541Y32842D01*
X70256Y32364D01*
X71099Y32197D01*
X77398D01*
X78242Y32364D01*
X78957Y32842D01*
X79434Y33557D01*
X79602Y34400D01*
X79434Y35243D01*
X78957Y35958D01*
X78242Y36436D01*
X77398Y36603D01*
X76013D01*
Y39551D01*
X75878Y40226D01*
X75496Y40799D01*
X67147Y49147D01*
X66575Y49530D01*
X65900Y49664D01*
X37731D01*
X36281Y51114D01*
X35708Y51496D01*
X35034Y51630D01*
X28564D01*
X27311Y52883D01*
X27344Y53382D01*
X27845Y53767D01*
X28508Y54630D01*
X28924Y55635D01*
X29066Y56713D01*
Y58287D01*
X28924Y59365D01*
X28508Y60370D01*
X27845Y61233D01*
X26983Y61895D01*
X26664Y62027D01*
Y69770D01*
X33280D01*
Y80230D01*
X17219D01*
Y83500D01*
X17104Y84078D01*
X16777Y84567D01*
X15209Y86135D01*
Y99550D01*
X15505Y99673D01*
X16253Y100247D01*
X16827Y100995D01*
X17188Y101865D01*
X17311Y102800D01*
X17188Y103735D01*
X16827Y104605D01*
X16253Y105353D01*
X15505Y105927D01*
X15304Y106010D01*
X15402Y106501D01*
X21501D01*
Y84000D01*
D02*
G37*
G36*
X86500Y97500D02*
X115000D01*
Y84000D01*
X92500D01*
Y67000D01*
X100000D01*
Y50500D01*
X80000D01*
Y63500D01*
X60000D01*
Y51500D01*
X40000D01*
Y65000D01*
X55000D01*
Y75670D01*
X62830D01*
Y83630D01*
X61661D01*
X61470Y84092D01*
X63236Y85857D01*
X63585Y86380D01*
X63708Y86997D01*
Y90397D01*
X63651Y90680D01*
X63585Y91013D01*
X63585Y91013D01*
X63585Y91013D01*
X63448Y91217D01*
X63236Y91536D01*
X61884Y92888D01*
X61884Y92888D01*
X61884Y92888D01*
D01*
X61884Y92888D01*
X61852Y92936D01*
X61946Y93412D01*
X61946Y93412D01*
X61946Y93412D01*
X62649Y94115D01*
X62649Y94115D01*
X62867Y94442D01*
X62976Y94604D01*
X63091Y95182D01*
X63091Y95182D01*
Y95501D01*
X63553Y95693D01*
X65833Y93412D01*
X66322Y93085D01*
X66900Y92970D01*
X69318D01*
Y90133D01*
X69338D01*
Y87594D01*
X77120D01*
Y84920D01*
X84080D01*
Y92880D01*
X77420D01*
Y93708D01*
D01*
Y93708D01*
X77633Y93920D01*
X84080D01*
Y101880D01*
X84080D01*
Y101966D01*
X84434Y102320D01*
X85880D01*
Y110280D01*
X79209D01*
Y111300D01*
X81900D01*
Y115300D01*
Y119300D01*
X79209D01*
Y120000D01*
X86500D01*
Y97500D01*
D02*
G37*
G36*
X73869Y91129D02*
X72869D01*
Y91920D01*
X73869D01*
Y91129D01*
D02*
G37*
G36*
X130983Y7622D02*
X95140Y1617D01*
X70675D01*
X70507Y2088D01*
X70592Y2158D01*
X71321Y3045D01*
X71862Y4058D01*
X72196Y5157D01*
X72308Y6300D01*
X72196Y7443D01*
X71862Y8542D01*
X71321Y9555D01*
X70592Y10442D01*
X69705Y11171D01*
X68692Y11712D01*
X67593Y12046D01*
X66450Y12158D01*
X65307Y12046D01*
X64208Y11712D01*
X63195Y11171D01*
X62308Y10442D01*
X61579Y9555D01*
X61038Y8542D01*
X60704Y7443D01*
X60592Y6300D01*
X60704Y5157D01*
X61038Y4058D01*
X61579Y3045D01*
X62308Y2158D01*
X62393Y2088D01*
X62225Y1617D01*
X37760D01*
X1917Y7622D01*
Y121023D01*
X2407Y121121D01*
X2443Y121035D01*
X3004Y120304D01*
X3735Y119743D01*
X4586Y119390D01*
X5500Y119270D01*
X6414Y119390D01*
X7265Y119743D01*
X7552Y119963D01*
X8001Y119742D01*
Y107500D01*
X8077Y107118D01*
X8293Y106793D01*
X8618Y106577D01*
X9000Y106501D01*
X11998D01*
X12096Y106010D01*
X11895Y105927D01*
X11147Y105353D01*
X10573Y104605D01*
X10212Y103735D01*
X10089Y102800D01*
X10212Y101865D01*
X10573Y100995D01*
X11147Y100247D01*
X11895Y99673D01*
X12191Y99550D01*
Y85510D01*
X12306Y84933D01*
X12633Y84443D01*
X12633Y84443D01*
X12633Y84443D01*
X14201Y82875D01*
Y73258D01*
X13730Y73089D01*
X13522Y73342D01*
X12635Y74071D01*
X11622Y74612D01*
X10523Y74946D01*
X9380Y75058D01*
X8237Y74946D01*
X7138Y74612D01*
X6125Y74071D01*
X5238Y73342D01*
X4509Y72455D01*
X3968Y71442D01*
X3634Y70343D01*
X3522Y69200D01*
X3634Y68057D01*
X3968Y66958D01*
X4509Y65945D01*
X5238Y65058D01*
X6125Y64329D01*
X7138Y63788D01*
X8237Y63454D01*
X9380Y63342D01*
X10523Y63454D01*
X11622Y63788D01*
X12635Y64329D01*
X13522Y65058D01*
X13828Y65430D01*
X14313Y65308D01*
X14316Y65293D01*
X14643Y64803D01*
X16567Y62879D01*
X16376Y62417D01*
X10770D01*
Y52583D01*
X18021D01*
Y32170D01*
X18136Y31593D01*
X18463Y31103D01*
X18463Y31103D01*
X18463Y31103D01*
X25633Y23933D01*
X25633D01*
X25633Y23933D01*
X25633Y23933D01*
Y23933D01*
X26122Y23606D01*
X26700Y23491D01*
X80400D01*
X80977Y23606D01*
X81467Y23933D01*
X81467Y23933D01*
X81467Y23933D01*
X105967Y48433D01*
X105967Y48433D01*
X105967Y48433D01*
X106294Y48923D01*
X106409Y49500D01*
Y52868D01*
X106983Y53105D01*
X107846Y53767D01*
X108508Y54630D01*
X108924Y55635D01*
X109066Y56713D01*
Y58287D01*
X108924Y59365D01*
X108508Y60370D01*
X107846Y61233D01*
X106983Y61895D01*
X106409Y62132D01*
Y71170D01*
X113380D01*
Y81630D01*
X96420D01*
Y71170D01*
X103391D01*
Y62132D01*
X102817Y61895D01*
X101954Y61233D01*
X101473Y60605D01*
X100999Y60765D01*
Y67000D01*
X100923Y67382D01*
X100707Y67707D01*
X100382Y67923D01*
X100000Y67999D01*
X93499D01*
Y83001D01*
X115000D01*
X115382Y83077D01*
X115707Y83293D01*
X115923Y83618D01*
X115999Y84000D01*
Y97500D01*
X115923Y97882D01*
X115707Y98207D01*
X115382Y98423D01*
X115000Y98499D01*
X87499D01*
Y120000D01*
X87423Y120382D01*
X87207Y120706D01*
X86882Y120923D01*
X86500Y120999D01*
X79209D01*
Y125483D01*
X81878Y128152D01*
X85641D01*
Y134048D01*
X80915D01*
X80585Y134424D01*
X80666Y135037D01*
X80565Y135807D01*
X80268Y136524D01*
X79795Y137140D01*
X79179Y137612D01*
X79138Y137630D01*
X79235Y138120D01*
X80280D01*
Y145080D01*
X72320D01*
Y140838D01*
X72320D01*
X72320Y140838D01*
X72320Y138120D01*
Y138120D01*
Y137962D01*
X71922Y137910D01*
X71205Y137612D01*
X70589Y137140D01*
X70117Y136524D01*
X69820Y135807D01*
X69718Y135037D01*
X69820Y134267D01*
X70108Y133572D01*
X69711Y133267D01*
X69179Y133676D01*
X68462Y133973D01*
X67692Y134074D01*
X66922Y133973D01*
X66205Y133676D01*
X65673Y133267D01*
X65277Y133572D01*
X65565Y134267D01*
X65666Y135037D01*
X65565Y135807D01*
X65268Y136524D01*
X64795Y137140D01*
X64179Y137612D01*
X63462Y137910D01*
X62692Y138011D01*
X61923Y137910D01*
X61205Y137612D01*
X60589Y137140D01*
X60442Y136948D01*
X59942D01*
X59795Y137140D01*
X59179Y137612D01*
X58462Y137910D01*
X57692Y138011D01*
X56923Y137910D01*
X56205Y137612D01*
X55589Y137140D01*
X55117Y136524D01*
X54820Y135807D01*
X54718Y135037D01*
X54820Y134267D01*
X55108Y133572D01*
X54711Y133267D01*
X54179Y133676D01*
X53462Y133973D01*
X52692Y134074D01*
X51923Y133973D01*
X51205Y133676D01*
X50589Y133203D01*
X50117Y132587D01*
X49990Y132280D01*
X49499Y132378D01*
Y145783D01*
X130983D01*
Y7622D01*
D02*
G37*
G36*
X48500Y120000D02*
X76191D01*
Y119280D01*
X69920D01*
Y111320D01*
X76191D01*
Y110280D01*
X69920D01*
Y102320D01*
X71638D01*
X71873Y101879D01*
X71535Y101373D01*
X71381Y100600D01*
X71535Y99827D01*
X71891Y99295D01*
Y98806D01*
X69338D01*
Y95988D01*
X67525D01*
X65509Y98004D01*
Y99794D01*
X65665Y100027D01*
X65819Y100800D01*
X65665Y101573D01*
X65228Y102227D01*
X64573Y102665D01*
X63800Y102819D01*
X63027Y102665D01*
X62372Y102227D01*
X61935Y101573D01*
X61796Y100876D01*
X61459Y100736D01*
X61303Y100705D01*
X61281Y100720D01*
X60703Y100835D01*
X54081D01*
X53058Y101858D01*
X53249Y102320D01*
X59580D01*
Y110280D01*
X52620D01*
Y102949D01*
X52158Y102758D01*
X52109Y102808D01*
X51682Y103092D01*
X51009Y103766D01*
Y111000D01*
X50894Y111577D01*
X50567Y112067D01*
X50567Y112067D01*
X48980Y113654D01*
Y118980D01*
X42020D01*
Y111020D01*
X47346D01*
X47924Y110442D01*
X47733Y109980D01*
X42020D01*
Y102020D01*
D01*
Y102020D01*
X41880Y101880D01*
X36320D01*
Y93920D01*
X43280D01*
Y93920D01*
X43280D01*
X43280Y93920D01*
X43520D01*
Y93920D01*
X50480D01*
Y96136D01*
X50969D01*
X51314Y95791D01*
X51886Y95409D01*
X52561Y95275D01*
X52999D01*
Y95271D01*
Y92712D01*
Y91125D01*
X50480D01*
Y92880D01*
X43634D01*
X43634Y92880D01*
Y92880D01*
X43520Y92880D01*
X43400D01*
X43280D01*
X43166Y92880D01*
X43166Y92880D01*
Y92880D01*
X36320D01*
Y84920D01*
X43166D01*
X43166Y84920D01*
Y84920D01*
X43280Y84920D01*
X43400D01*
X43520D01*
X43634Y84920D01*
X43634Y84920D01*
Y84920D01*
X50480D01*
Y87598D01*
X52999D01*
Y87594D01*
X59763D01*
X59954Y87132D01*
X57711Y84889D01*
X57362Y84367D01*
X57239Y83750D01*
Y83630D01*
X55000D01*
Y84000D01*
X22500D01*
Y107500D01*
X9000D01*
Y122724D01*
X9010Y122800D01*
X9000Y122876D01*
Y145783D01*
X48500D01*
Y120000D01*
D02*
G37*
%LPC*%
G36*
X54851Y43900D02*
X50077D01*
X50147Y43549D01*
X50629Y42827D01*
X51351Y42345D01*
X52202Y42176D01*
X54851D01*
Y43900D01*
D02*
G37*
G36*
X60625D02*
X55851D01*
Y42176D01*
X58501D01*
X59352Y42345D01*
X60073Y42827D01*
X60555Y43549D01*
X60625Y43900D01*
D02*
G37*
G36*
X48280Y36630D02*
X44320D01*
Y32170D01*
X48280D01*
Y36630D01*
D02*
G37*
G36*
X84380Y46630D02*
X80420D01*
Y42170D01*
X84380D01*
Y46630D01*
D02*
G37*
G36*
Y41630D02*
X80420D01*
Y37170D01*
X84380D01*
Y41630D01*
D02*
G37*
G36*
X59086Y57000D02*
X55400D01*
Y52593D01*
X55983Y52670D01*
X56993Y53088D01*
X57860Y53753D01*
X58525Y54620D01*
X58943Y55630D01*
X59086Y56713D01*
Y57000D01*
D02*
G37*
G36*
X54400D02*
X50714D01*
Y56713D01*
X50857Y55630D01*
X51275Y54620D01*
X51940Y53753D01*
X52807Y53088D01*
X53817Y52670D01*
X54400Y52593D01*
Y57000D01*
D02*
G37*
G36*
X89086D02*
X85400D01*
Y52593D01*
X85983Y52670D01*
X86993Y53088D01*
X87860Y53753D01*
X88525Y54620D01*
X88943Y55630D01*
X89086Y56713D01*
Y57000D01*
D02*
G37*
G36*
X84400D02*
X80714D01*
Y56713D01*
X80857Y55630D01*
X81275Y54620D01*
X81940Y53753D01*
X82807Y53088D01*
X83817Y52670D01*
X84400Y52593D01*
Y57000D01*
D02*
G37*
G36*
X44900Y62453D02*
X43822Y62311D01*
X42817Y61895D01*
X41954Y61233D01*
X41293Y60370D01*
X40876Y59365D01*
X40734Y58287D01*
Y56713D01*
X40876Y55635D01*
X41293Y54630D01*
X41954Y53767D01*
X42817Y53105D01*
X43822Y52689D01*
X44900Y52547D01*
X45978Y52689D01*
X46983Y53105D01*
X47846Y53767D01*
X48507Y54630D01*
X48924Y55635D01*
X49066Y56713D01*
Y58287D01*
X48924Y59365D01*
X48507Y60370D01*
X47846Y61233D01*
X46983Y61895D01*
X45978Y62311D01*
X44900Y62453D01*
D02*
G37*
G36*
X104900Y44509D02*
X104323Y44394D01*
X103833Y44067D01*
X103506Y43578D01*
X103475Y43424D01*
X103323Y43394D01*
X102833Y43067D01*
X102506Y42577D01*
X102288Y42432D01*
X101900Y42509D01*
X101322Y42394D01*
X100833Y42067D01*
X100506Y41578D01*
X100391Y41000D01*
X100504Y40430D01*
X100322Y40394D01*
X99833Y40067D01*
X99506Y39577D01*
X99476Y39424D01*
X99322Y39394D01*
X98833Y39067D01*
X98506Y38577D01*
X98391Y38000D01*
X98506Y37422D01*
X98833Y36933D01*
X99322Y36606D01*
X99476Y36575D01*
X99506Y36423D01*
X99833Y35933D01*
X100322Y35606D01*
X100468Y35388D01*
X100439Y35243D01*
X100391Y35000D01*
X100506Y34422D01*
X100833Y33933D01*
X101322Y33606D01*
X101900Y33491D01*
X102288Y33568D01*
X102506Y33422D01*
X102833Y32933D01*
X103323Y32606D01*
X103475Y32576D01*
X103506Y32423D01*
X103833Y31933D01*
X104323Y31606D01*
X104900Y31491D01*
X105477Y31606D01*
X105967Y31933D01*
X106294Y32423D01*
X106325Y32576D01*
X106477Y32606D01*
X106967Y32933D01*
X107294Y33422D01*
X107294Y33422D01*
Y33422D01*
X107512Y33568D01*
X107900Y33491D01*
X108477Y33606D01*
X108967Y33933D01*
X109294Y34422D01*
X109409Y35000D01*
X109332Y35388D01*
X109477Y35606D01*
X109477D01*
X109477Y35606D01*
X109967Y35933D01*
X110294Y36423D01*
X110325Y36575D01*
X110477Y36606D01*
X110967Y36933D01*
X111294Y37422D01*
X111409Y38000D01*
X111294Y38577D01*
X110967Y39067D01*
X110477Y39394D01*
X110325Y39424D01*
X110294Y39577D01*
X109967Y40067D01*
X109477Y40394D01*
X109477Y40394D01*
X109477D01*
X109332Y40612D01*
X109409Y41000D01*
X109294Y41578D01*
X108967Y42067D01*
X108477Y42394D01*
X107900Y42509D01*
X107512Y42432D01*
X107294Y42577D01*
Y42577D01*
X107294Y42577D01*
X106967Y43067D01*
X106477Y43394D01*
X106325Y43424D01*
X106294Y43578D01*
X105967Y44067D01*
X105477Y44394D01*
X104900Y44509D01*
D02*
G37*
G36*
X114900Y62453D02*
X113822Y62311D01*
X112817Y61895D01*
X111954Y61233D01*
X111293Y60370D01*
X110876Y59365D01*
X110734Y58287D01*
Y56713D01*
X110876Y55635D01*
X111293Y54630D01*
X111954Y53767D01*
X112817Y53105D01*
X113822Y52689D01*
X114900Y52547D01*
X115978Y52689D01*
X116983Y53105D01*
X117846Y53767D01*
X118508Y54630D01*
X118924Y55635D01*
X119066Y56713D01*
Y58287D01*
X118924Y59365D01*
X118508Y60370D01*
X117846Y61233D01*
X116983Y61895D01*
X115978Y62311D01*
X114900Y62453D01*
D02*
G37*
G36*
X94900D02*
X93822Y62311D01*
X92817Y61895D01*
X91954Y61233D01*
X91292Y60370D01*
X90876Y59365D01*
X90734Y58287D01*
Y56713D01*
X90876Y55635D01*
X91292Y54630D01*
X91954Y53767D01*
X92817Y53105D01*
X93822Y52689D01*
X94900Y52547D01*
X95978Y52689D01*
X96983Y53105D01*
X97846Y53767D01*
X98508Y54630D01*
X98924Y55635D01*
X99066Y56713D01*
Y58287D01*
X98924Y59365D01*
X98508Y60370D01*
X97846Y61233D01*
X96983Y61895D01*
X95978Y62311D01*
X94900Y62453D01*
D02*
G37*
G36*
X84900Y22453D02*
X83822Y22311D01*
X82817Y21895D01*
X81954Y21233D01*
X81292Y20370D01*
X80876Y19365D01*
X80734Y18287D01*
Y16713D01*
X80876Y15635D01*
X81292Y14630D01*
X81954Y13767D01*
X82817Y13105D01*
X83822Y12689D01*
X84900Y12547D01*
X85978Y12689D01*
X86983Y13105D01*
X87846Y13767D01*
X88508Y14630D01*
X88924Y15635D01*
X89066Y16713D01*
Y18287D01*
X88924Y19365D01*
X88508Y20370D01*
X87846Y21233D01*
X86983Y21895D01*
X85978Y22311D01*
X84900Y22453D01*
D02*
G37*
G36*
X74900D02*
X73822Y22311D01*
X72817Y21895D01*
X71954Y21233D01*
X71292Y20370D01*
X70876Y19365D01*
X70734Y18287D01*
Y16713D01*
X70876Y15635D01*
X71292Y14630D01*
X71954Y13767D01*
X72817Y13105D01*
X73822Y12689D01*
X74900Y12547D01*
X75978Y12689D01*
X76983Y13105D01*
X77846Y13767D01*
X78508Y14630D01*
X78924Y15635D01*
X79066Y16713D01*
Y18287D01*
X78924Y19365D01*
X78508Y20370D01*
X77846Y21233D01*
X76983Y21895D01*
X75978Y22311D01*
X74900Y22453D01*
D02*
G37*
G36*
X104900D02*
X103822Y22311D01*
X102817Y21895D01*
X101954Y21233D01*
X101292Y20370D01*
X100876Y19365D01*
X100734Y18287D01*
Y16713D01*
X100876Y15635D01*
X101292Y14630D01*
X101954Y13767D01*
X102817Y13105D01*
X103822Y12689D01*
X104900Y12547D01*
X105978Y12689D01*
X106983Y13105D01*
X107846Y13767D01*
X108508Y14630D01*
X108924Y15635D01*
X109066Y16713D01*
Y18287D01*
X108924Y19365D01*
X108508Y20370D01*
X107846Y21233D01*
X106983Y21895D01*
X105978Y22311D01*
X104900Y22453D01*
D02*
G37*
G36*
X94900D02*
X93822Y22311D01*
X92817Y21895D01*
X91954Y21233D01*
X91292Y20370D01*
X90876Y19365D01*
X90734Y18287D01*
Y16713D01*
X90876Y15635D01*
X91292Y14630D01*
X91954Y13767D01*
X92817Y13105D01*
X93822Y12689D01*
X94900Y12547D01*
X95978Y12689D01*
X96983Y13105D01*
X97846Y13767D01*
X98508Y14630D01*
X98924Y15635D01*
X99066Y16713D01*
Y18287D01*
X98924Y19365D01*
X98508Y20370D01*
X97846Y21233D01*
X96983Y21895D01*
X95978Y22311D01*
X94900Y22453D01*
D02*
G37*
G36*
X64900D02*
X63822Y22311D01*
X62817Y21895D01*
X61954Y21233D01*
X61292Y20370D01*
X60876Y19365D01*
X60734Y18287D01*
Y16713D01*
X60876Y15635D01*
X61292Y14630D01*
X61954Y13767D01*
X62817Y13105D01*
X63822Y12689D01*
X64900Y12547D01*
X65978Y12689D01*
X66983Y13105D01*
X67846Y13767D01*
X68508Y14630D01*
X68924Y15635D01*
X69066Y16713D01*
Y18287D01*
X68924Y19365D01*
X68508Y20370D01*
X67846Y21233D01*
X66983Y21895D01*
X65978Y22311D01*
X64900Y22453D01*
D02*
G37*
G36*
X34900D02*
X33822Y22311D01*
X32817Y21895D01*
X31955Y21233D01*
X31293Y20370D01*
X30876Y19365D01*
X30734Y18287D01*
Y16713D01*
X30876Y15635D01*
X31293Y14630D01*
X31955Y13767D01*
X32817Y13105D01*
X33822Y12689D01*
X34900Y12547D01*
X35978Y12689D01*
X36983Y13105D01*
X37846Y13767D01*
X38508Y14630D01*
X38924Y15635D01*
X39066Y16713D01*
Y18287D01*
X38924Y19365D01*
X38508Y20370D01*
X37846Y21233D01*
X36983Y21895D01*
X35978Y22311D01*
X34900Y22453D01*
D02*
G37*
G36*
X14900D02*
X13822Y22311D01*
X12817Y21895D01*
X11954Y21233D01*
X11292Y20370D01*
X10876Y19365D01*
X10734Y18287D01*
Y16713D01*
X10876Y15635D01*
X11292Y14630D01*
X11954Y13767D01*
X12817Y13105D01*
X13822Y12689D01*
X14900Y12547D01*
X15978Y12689D01*
X16983Y13105D01*
X17846Y13767D01*
X18508Y14630D01*
X18924Y15635D01*
X19066Y16713D01*
Y18287D01*
X18924Y19365D01*
X18508Y20370D01*
X17846Y21233D01*
X16983Y21895D01*
X15978Y22311D01*
X14900Y22453D01*
D02*
G37*
G36*
X54900D02*
X53822Y22311D01*
X52817Y21895D01*
X51954Y21233D01*
X51292Y20370D01*
X50876Y19365D01*
X50734Y18287D01*
Y16713D01*
X50876Y15635D01*
X51292Y14630D01*
X51954Y13767D01*
X52817Y13105D01*
X53822Y12689D01*
X54900Y12547D01*
X55978Y12689D01*
X56983Y13105D01*
X57846Y13767D01*
X58508Y14630D01*
X58924Y15635D01*
X59066Y16713D01*
Y18287D01*
X58924Y19365D01*
X58508Y20370D01*
X57846Y21233D01*
X56983Y21895D01*
X55978Y22311D01*
X54900Y22453D01*
D02*
G37*
G36*
X44900D02*
X43822Y22311D01*
X42817Y21895D01*
X41954Y21233D01*
X41293Y20370D01*
X40876Y19365D01*
X40734Y18287D01*
Y16713D01*
X40876Y15635D01*
X41293Y14630D01*
X41954Y13767D01*
X42817Y13105D01*
X43822Y12689D01*
X44900Y12547D01*
X45978Y12689D01*
X46983Y13105D01*
X47846Y13767D01*
X48507Y14630D01*
X48924Y15635D01*
X49066Y16713D01*
Y18287D01*
X48924Y19365D01*
X48507Y20370D01*
X47846Y21233D01*
X46983Y21895D01*
X45978Y22311D01*
X44900Y22453D01*
D02*
G37*
G36*
X77398Y31603D02*
X71099D01*
X70256Y31436D01*
X69541Y30958D01*
X69064Y30243D01*
X68896Y29400D01*
X69064Y28557D01*
X69541Y27842D01*
X70256Y27364D01*
X71099Y27197D01*
X77398D01*
X78242Y27364D01*
X78957Y27842D01*
X79434Y28557D01*
X79602Y29400D01*
X79434Y30243D01*
X78957Y30958D01*
X78242Y31436D01*
X77398Y31603D01*
D02*
G37*
G36*
X48280Y31630D02*
X44320D01*
Y27170D01*
X48280D01*
Y31630D01*
D02*
G37*
G36*
X40280Y38480D02*
X32320D01*
Y31520D01*
X40280D01*
Y38480D01*
D02*
G37*
G36*
X31280D02*
X23320D01*
Y31520D01*
X31280D01*
Y38480D01*
D02*
G37*
G36*
X25400Y22407D02*
Y18000D01*
X29086D01*
Y18287D01*
X28943Y19370D01*
X28525Y20380D01*
X27860Y21247D01*
X26993Y21912D01*
X25983Y22330D01*
X25400Y22407D01*
D02*
G37*
G36*
X24400Y17000D02*
X20714D01*
Y16713D01*
X20857Y15630D01*
X21275Y14620D01*
X21940Y13753D01*
X22807Y13088D01*
X23817Y12670D01*
X24400Y12593D01*
Y17000D01*
D02*
G37*
G36*
X114900Y22453D02*
X113822Y22311D01*
X112817Y21895D01*
X111954Y21233D01*
X111293Y20370D01*
X110876Y19365D01*
X110734Y18287D01*
Y16713D01*
X110876Y15635D01*
X111293Y14630D01*
X111954Y13767D01*
X112817Y13105D01*
X113822Y12689D01*
X114900Y12547D01*
X115978Y12689D01*
X116983Y13105D01*
X117846Y13767D01*
X118508Y14630D01*
X118924Y15635D01*
X119066Y16713D01*
Y18287D01*
X118924Y19365D01*
X118508Y20370D01*
X117846Y21233D01*
X116983Y21895D01*
X115978Y22311D01*
X114900Y22453D01*
D02*
G37*
G36*
X24400Y22407D02*
X23817Y22330D01*
X22807Y21912D01*
X21940Y21247D01*
X21275Y20380D01*
X20857Y19370D01*
X20714Y18287D01*
Y18000D01*
X24400D01*
Y22407D01*
D02*
G37*
G36*
X29086Y17000D02*
X25400D01*
Y12593D01*
X25983Y12670D01*
X26993Y13088D01*
X27860Y13753D01*
X28525Y14620D01*
X28943Y15630D01*
X29086Y16713D01*
Y17000D01*
D02*
G37*
G36*
X13200Y122300D02*
X10135D01*
X10193Y121860D01*
X10555Y120984D01*
X11133Y120232D01*
X11885Y119655D01*
X12760Y119293D01*
X13200Y119235D01*
Y122300D01*
D02*
G37*
G36*
X17265D02*
X14200D01*
Y119235D01*
X14640Y119293D01*
X15516Y119655D01*
X16267Y120232D01*
X16845Y120984D01*
X17207Y121860D01*
X17265Y122300D01*
D02*
G37*
G36*
X120500Y127750D02*
X112500D01*
Y123000D01*
X120500D01*
Y127750D01*
D02*
G37*
G36*
X129500Y122000D02*
X121500D01*
Y117250D01*
X129500D01*
Y122000D01*
D02*
G37*
G36*
X59580Y119280D02*
X52620D01*
Y111320D01*
X59580D01*
Y119280D01*
D02*
G37*
G36*
X85900Y119300D02*
X82900D01*
Y115800D01*
X85900D01*
Y119300D01*
D02*
G37*
G36*
X120500Y122000D02*
X112500D01*
Y117250D01*
X120500D01*
Y122000D01*
D02*
G37*
G36*
X129500Y127750D02*
X121500D01*
Y123000D01*
X129500D01*
Y127750D01*
D02*
G37*
G36*
X17280Y136380D02*
X10120D01*
Y129220D01*
X17280D01*
Y130526D01*
X19858D01*
X20018Y130318D01*
X20745Y129760D01*
X21591Y129410D01*
X22500Y129290D01*
X23408Y129410D01*
X24255Y129760D01*
X24982Y130318D01*
X25540Y131045D01*
X25890Y131892D01*
X26010Y132800D01*
X25890Y133709D01*
X25540Y134555D01*
X24982Y135282D01*
X24255Y135840D01*
X23408Y136190D01*
X22500Y136310D01*
X21591Y136190D01*
X20745Y135840D01*
X20018Y135282D01*
X19858Y135074D01*
X17280D01*
Y136380D01*
D02*
G37*
G36*
X129480Y144530D02*
X112520D01*
Y134070D01*
X129480D01*
Y144530D01*
D02*
G37*
G36*
X89280Y145080D02*
X81320D01*
Y138120D01*
X89280D01*
Y145080D01*
D02*
G37*
G36*
X95173Y138011D02*
X91236D01*
X90466Y137910D01*
X89749Y137613D01*
X89133Y137140D01*
X88660Y136524D01*
X88363Y135807D01*
X88261Y135037D01*
Y131100D01*
X88363Y130330D01*
X88660Y129613D01*
X89133Y128997D01*
X89749Y128525D01*
X90466Y128227D01*
X91236Y128126D01*
X95173D01*
X95942Y128227D01*
X96659Y128525D01*
X97275Y128997D01*
X97748Y129613D01*
X98045Y130330D01*
X98146Y131100D01*
Y135037D01*
X98045Y135807D01*
X97748Y136524D01*
X97275Y137140D01*
X96659Y137613D01*
X95942Y137910D01*
X95173Y138011D01*
D02*
G37*
G36*
X13200Y126365D02*
X12760Y126307D01*
X11885Y125945D01*
X11133Y125368D01*
X10555Y124616D01*
X10193Y123740D01*
X10135Y123300D01*
X13200D01*
Y126365D01*
D02*
G37*
G36*
X14200D02*
Y123300D01*
X17265D01*
X17207Y123740D01*
X16845Y124616D01*
X16267Y125368D01*
X15516Y125945D01*
X14640Y126307D01*
X14200Y126365D01*
D02*
G37*
G36*
X44149Y138011D02*
X40212D01*
X39442Y137910D01*
X38725Y137613D01*
X38109Y137140D01*
X37636Y136524D01*
X37339Y135807D01*
X37238Y135037D01*
Y131100D01*
X37339Y130330D01*
X37636Y129613D01*
X38109Y128997D01*
X38725Y128525D01*
X39442Y128227D01*
X40212Y128126D01*
X44149D01*
X44918Y128227D01*
X45636Y128525D01*
X46252Y128997D01*
X46724Y129613D01*
X47021Y130330D01*
X47123Y131100D01*
Y135037D01*
X47021Y135807D01*
X46724Y136524D01*
X46252Y137140D01*
X45636Y137613D01*
X44918Y137910D01*
X44149Y138011D01*
D02*
G37*
G36*
X85900Y114800D02*
X82900D01*
Y111300D01*
X85900D01*
Y114800D01*
D02*
G37*
G36*
X123480Y75058D02*
X122337Y74946D01*
X121238Y74612D01*
X120225Y74071D01*
X119338Y73342D01*
X118609Y72455D01*
X118068Y71442D01*
X117734Y70343D01*
X117622Y69200D01*
X117734Y68057D01*
X118068Y66958D01*
X118609Y65945D01*
X119338Y65058D01*
X120225Y64329D01*
X121238Y63788D01*
X122337Y63454D01*
X123480Y63342D01*
X124623Y63454D01*
X125722Y63788D01*
X126735Y64329D01*
X127622Y65058D01*
X128351Y65945D01*
X128892Y66958D01*
X129226Y68057D01*
X129338Y69200D01*
X129226Y70343D01*
X128892Y71442D01*
X128351Y72455D01*
X127622Y73342D01*
X126735Y74071D01*
X125722Y74612D01*
X124623Y74946D01*
X123480Y75058D01*
D02*
G37*
G36*
X71850Y79150D02*
X68350D01*
Y75650D01*
X71850D01*
Y79150D01*
D02*
G37*
G36*
X76350D02*
X72850D01*
Y75650D01*
X76350D01*
Y79150D01*
D02*
G37*
G36*
X85400Y62407D02*
Y58000D01*
X89086D01*
Y58287D01*
X88943Y59370D01*
X88525Y60380D01*
X87860Y61247D01*
X86993Y61912D01*
X85983Y62330D01*
X85400Y62407D01*
D02*
G37*
G36*
X54400D02*
X53817Y62330D01*
X52807Y61912D01*
X51940Y61247D01*
X51275Y60380D01*
X50857Y59370D01*
X50714Y58287D01*
Y58000D01*
X54400D01*
Y62407D01*
D02*
G37*
G36*
X55400D02*
Y58000D01*
X59086D01*
Y58287D01*
X58943Y59370D01*
X58525Y60380D01*
X57860Y61247D01*
X56993Y61912D01*
X55983Y62330D01*
X55400Y62407D01*
D02*
G37*
G36*
X84400D02*
X83817Y62330D01*
X82807Y61912D01*
X81940Y61247D01*
X81275Y60380D01*
X80857Y59370D01*
X80714Y58287D01*
Y58000D01*
X84400D01*
Y62407D01*
D02*
G37*
G36*
X71850Y83650D02*
X68350D01*
Y80150D01*
X71850D01*
Y83650D01*
D02*
G37*
G36*
X97200Y104140D02*
X96920Y104084D01*
X96258Y103642D01*
X95816Y102980D01*
X95760Y102700D01*
X97200D01*
Y104140D01*
D02*
G37*
G36*
X98200D02*
Y102700D01*
X99640D01*
X99584Y102980D01*
X99142Y103642D01*
X98480Y104084D01*
X98200Y104140D01*
D02*
G37*
G36*
X13700Y116411D02*
X12765Y116288D01*
X11895Y115927D01*
X11147Y115353D01*
X10573Y114605D01*
X10212Y113735D01*
X10089Y112800D01*
X10212Y111865D01*
X10573Y110995D01*
X11147Y110247D01*
X11895Y109673D01*
X12765Y109312D01*
X13700Y109189D01*
X14635Y109312D01*
X15505Y109673D01*
X16253Y110247D01*
X16827Y110995D01*
X17188Y111865D01*
X17311Y112800D01*
X17188Y113735D01*
X16827Y114605D01*
X16253Y115353D01*
X15505Y115927D01*
X14635Y116288D01*
X13700Y116411D01*
D02*
G37*
G36*
X99640Y101700D02*
X98200D01*
Y100260D01*
X98480Y100316D01*
X99142Y100758D01*
X99584Y101420D01*
X99640Y101700D01*
D02*
G37*
G36*
X76350Y83650D02*
X72850D01*
Y80150D01*
X76350D01*
Y83650D01*
D02*
G37*
G36*
X112880Y96130D02*
X95920D01*
Y85670D01*
X112880D01*
Y96130D01*
D02*
G37*
G36*
X97200Y101700D02*
X95760D01*
X95816Y101420D01*
X96258Y100758D01*
X96920Y100316D01*
X97200Y100260D01*
Y101700D01*
D02*
G37*
%LPD*%
D10*
X74249Y29400D02*
D03*
X55351Y44400D02*
D03*
X74249Y34400D02*
D03*
D11*
X39800Y97900D02*
D03*
X73400Y106300D02*
D03*
Y115300D02*
D03*
X47000Y88900D02*
D03*
Y97900D02*
D03*
X45500Y115000D02*
D03*
X80600Y97900D02*
D03*
Y88900D02*
D03*
X39800D02*
D03*
X56100Y115300D02*
D03*
X80600Y88900D02*
D03*
X82400Y106300D02*
D03*
Y115300D02*
D03*
X45500Y106000D02*
D03*
X56100Y106300D02*
D03*
X47000Y88900D02*
D03*
X73400Y115300D02*
D03*
D12*
X24800Y76400D02*
X25000Y76200D01*
X39800Y97900D02*
X47000D01*
Y88900D02*
X47461Y89361D01*
X57031D01*
X47000Y97900D02*
X51700D01*
X52561Y97039D01*
X57031D01*
X68050Y79650D02*
X72350D01*
X66700Y81000D02*
X68050Y79650D01*
X66700Y81000D02*
Y89900D01*
X68720Y91920D01*
X73369D01*
X24900Y57500D02*
Y74900D01*
X24800Y75000D02*
X24900Y74900D01*
X34900Y64000D02*
X39200Y68300D01*
X42200D01*
X43200Y69300D01*
Y75000D01*
X34900Y57500D02*
Y64000D01*
X24900Y52800D02*
Y57500D01*
Y52800D02*
X27834Y49867D01*
X65900Y47900D02*
X74249Y39551D01*
Y34400D02*
Y39551D01*
X35034Y49867D02*
X37000Y47900D01*
X27834Y49867D02*
X35034D01*
X37000Y47900D02*
X65900D01*
D13*
X61582Y95182D02*
Y98447D01*
X57031Y94479D02*
X60879D01*
X61582Y95182D01*
X60703Y99326D02*
X61582Y98447D01*
X53456Y99326D02*
X60703D01*
X51041Y101741D02*
X53456Y99326D01*
X50900Y101741D02*
X51041D01*
X77700Y126108D02*
X82692Y131100D01*
X73400Y100600D02*
Y106300D01*
Y97069D02*
Y100600D01*
X73369Y97039D02*
X73400Y97069D01*
X49500Y103141D02*
X50900Y101741D01*
X49500Y103141D02*
Y111000D01*
X45500Y115000D02*
X49500Y111000D01*
X63800Y100800D02*
X64000Y100600D01*
Y97379D02*
Y100600D01*
Y97379D02*
X66900Y94479D01*
X73369D01*
Y89361D02*
X80139D01*
X80600Y88900D01*
X77700Y101400D02*
X80600Y98500D01*
Y97900D02*
Y98500D01*
X77700Y101400D02*
Y126108D01*
X15710Y65870D02*
X19530Y62050D01*
Y32170D02*
Y62050D01*
X80400Y25000D02*
X104900Y49500D01*
Y57500D01*
Y76400D01*
X13700Y85510D02*
Y102800D01*
Y85510D02*
X15710Y83500D01*
Y65870D02*
Y83500D01*
X19530Y32170D02*
X26700Y25000D01*
X80400D01*
X104900Y33000D02*
Y35000D01*
Y41000D02*
Y43000D01*
X99900Y38000D02*
X101900D01*
X107900D02*
X109900D01*
X101900Y35000D02*
X103900Y37000D01*
X105900D02*
X107900Y35000D01*
X105900Y39000D02*
X107900Y41000D01*
X101900D02*
X103900Y39000D01*
X104900Y41000D02*
X105900Y42000D01*
X103900D02*
X104900Y41000D01*
X107900Y38000D02*
X108900Y37000D01*
X107900Y38000D02*
X108900Y39000D01*
X104900Y35000D02*
X105900Y34000D01*
X103900D02*
X104900Y35000D01*
X100900Y37000D02*
X101900Y38000D01*
X100900Y39000D02*
X101900Y38000D01*
X102900D02*
X104900D01*
Y40000D01*
Y36000D02*
Y38000D01*
X106900D01*
X104900Y33000D02*
Y35000D01*
Y41000D02*
Y43000D01*
X107900Y38000D02*
X109900D01*
X99900D02*
X101900D01*
X105900Y37000D02*
X107900Y35000D01*
X101900D02*
X103900Y37000D01*
X101900Y41000D02*
X103900Y39000D01*
X105900D02*
X107900Y41000D01*
X103900Y42000D02*
X104900Y41000D01*
X105900Y42000D01*
X100900Y37000D02*
X101900Y38000D01*
X100900Y39000D02*
X101900Y38000D01*
X103900Y34000D02*
X104900Y35000D01*
X105900Y34000D01*
X107900Y38000D02*
X108900Y37000D01*
X107900Y38000D02*
X108900Y39000D01*
X104900Y38000D02*
X106900D01*
X104900D02*
Y40000D01*
Y36000D02*
Y38000D01*
X102900D02*
X104900D01*
D14*
X5500Y122800D02*
X13700D01*
Y132800D02*
X22500D01*
X22980D01*
D15*
X114900Y17500D02*
D03*
X104900D02*
D03*
X94900D02*
D03*
X84900D02*
D03*
X74900D02*
D03*
X64900D02*
D03*
X54900D02*
D03*
X44900D02*
D03*
X34900D02*
D03*
X24900D02*
D03*
X14900D02*
D03*
X114900Y57500D02*
D03*
X104900D02*
D03*
X94900D02*
D03*
X84900D02*
D03*
X74900D02*
D03*
X64900D02*
D03*
X54900D02*
D03*
X44900D02*
D03*
X34900D02*
D03*
X24900D02*
D03*
D16*
X14900D02*
D03*
D17*
X72692Y135037D02*
D03*
X67692Y131100D02*
D03*
X62692Y135037D02*
D03*
X77692D02*
D03*
X57692D02*
D03*
X52692Y131100D02*
D03*
D18*
X93204Y133069D02*
D03*
X42180D02*
D03*
D19*
X82692Y131100D02*
D03*
D20*
X13700Y102800D02*
D03*
Y112800D02*
D03*
Y122800D02*
D03*
D21*
Y132800D02*
D03*
D22*
X82400Y44400D02*
D03*
Y39400D02*
D03*
X46300Y29400D02*
D03*
Y34400D02*
D03*
D23*
X29550Y43850D02*
D03*
X72350Y79650D02*
D03*
X58850D02*
D03*
D24*
X27300Y35000D02*
D03*
X36300D02*
D03*
X85300Y141600D02*
D03*
X76300D02*
D03*
D25*
X24800Y75000D02*
D03*
X43200D02*
D03*
X104900Y76400D02*
D03*
X121000Y122500D02*
D03*
Y139300D02*
D03*
X104400Y90900D02*
D03*
D26*
X123480Y69200D02*
D03*
X66450Y6300D02*
D03*
X9380Y69200D02*
D03*
D27*
X5500Y122800D02*
D03*
X22500Y132800D02*
D03*
D28*
X43050Y43850D02*
D03*
X63800Y100800D02*
D03*
X73400Y100600D02*
D03*
X97700Y102200D02*
D03*
D43*
X57031Y89361D02*
D03*
Y94479D02*
D03*
Y97039D02*
D03*
X73369Y89361D02*
D03*
Y94479D02*
D03*
Y97039D02*
D03*
X57031Y91920D02*
D03*
X73369D02*
D03*
D44*
X60745Y91749D02*
X62097Y90397D01*
Y86997D02*
Y90397D01*
X58850Y83750D02*
X62097Y86997D01*
X58850Y79650D02*
Y83750D01*
X57202Y91749D02*
X60745D01*
X57031Y91920D02*
X57202Y91749D01*
M02*
