%FSLAX25Y25*%
%MOIN*%
G70*
G01*
G75*
G04 Layer_Physical_Order=4*
G04 Layer_Color=16440176*
%ADD10O,0.08661X0.02362*%
%ADD11R,0.05000X0.06000*%
%ADD12C,0.01500*%
%ADD13C,0.01000*%
%ADD14C,0.02500*%
%ADD15O,0.06300X0.07874*%
%ADD16R,0.06300X0.07874*%
%ADD17C,0.03937*%
G04:AMPARAMS|DCode=18|XSize=78.74mil|YSize=78.74mil|CornerRadius=19.69mil|HoleSize=0mil|Usage=FLASHONLY|Rotation=180.000|XOffset=0mil|YOffset=0mil|HoleType=Round|Shape=RoundedRectangle|*
%AMROUNDEDRECTD18*
21,1,0.07874,0.03937,0,0,180.0*
21,1,0.03937,0.07874,0,0,180.0*
1,1,0.03937,-0.01969,0.01969*
1,1,0.03937,0.01969,0.01969*
1,1,0.03937,0.01969,-0.01969*
1,1,0.03937,-0.01969,-0.01969*
%
%ADD18ROUNDEDRECTD18*%
%ADD19R,0.03937X0.03937*%
%ADD20C,0.05200*%
%ADD21R,0.05200X0.05200*%
%ADD22R,0.02000X0.02500*%
%ADD23R,0.06000X0.06000*%
%ADD24R,0.06000X0.05000*%
%ADD25R,0.15000X0.08500*%
%ADD26C,0.09700*%
%ADD27C,0.05000*%
%ADD28C,0.02000*%
%ADD29C,0.04000*%
%ADD30C,0.09100*%
G04:AMPARAMS|DCode=31|XSize=111mil|YSize=111mil|CornerRadius=0mil|HoleSize=0mil|Usage=FLASHONLY|Rotation=0.000|XOffset=0mil|YOffset=0mil|HoleType=Round|Shape=Relief|Width=10mil|Gap=10mil|Entries=4|*
%AMTHD31*
7,0,0,0.11100,0.09100,0.01000,45*
%
%ADD31THD31*%
%ADD32C,0.06913*%
%ADD33C,0.09315*%
%ADD34C,0.07800*%
%ADD35C,0.04800*%
G04:AMPARAMS|DCode=36|XSize=68mil|YSize=68mil|CornerRadius=0mil|HoleSize=0mil|Usage=FLASHONLY|Rotation=0.000|XOffset=0mil|YOffset=0mil|HoleType=Round|Shape=Relief|Width=10mil|Gap=10mil|Entries=4|*
%AMTHD36*
7,0,0,0.06800,0.04800,0.01000,45*
%
%ADD36THD36*%
%ADD37C,0.12500*%
G04:AMPARAMS|DCode=38|XSize=88mil|YSize=88mil|CornerRadius=0mil|HoleSize=0mil|Usage=FLASHONLY|Rotation=0.000|XOffset=0mil|YOffset=0mil|HoleType=Round|Shape=Relief|Width=10mil|Gap=10mil|Entries=4|*
%AMTHD38*
7,0,0,0.08800,0.06800,0.01000,45*
%
%ADD38THD38*%
%ADD39C,0.06800*%
%ADD40C,0.03000*%
%ADD41C,0.00600*%
G36*
X86500Y97500D02*
X115000D01*
Y84000D01*
X92500D01*
Y67000D01*
X100000D01*
Y50500D01*
X80000D01*
Y63500D01*
X69083D01*
X68626Y63957D01*
Y75670D01*
X76330D01*
Y83630D01*
X68626D01*
Y95707D01*
X70297Y97378D01*
X70680Y97950D01*
X70814Y98625D01*
X70814Y98625D01*
X70814Y98625D01*
Y98625D01*
Y102974D01*
X70814Y102975D01*
Y111320D01*
X76880D01*
Y119280D01*
X70814D01*
Y120000D01*
X86500D01*
Y97500D01*
D02*
G37*
G36*
X48500Y120000D02*
X64786D01*
Y109401D01*
X64324Y109210D01*
X59580Y113954D01*
Y119280D01*
X52620D01*
Y111320D01*
X57946D01*
X58504Y110762D01*
X58313Y110300D01*
X56600D01*
Y106300D01*
X56100D01*
Y105800D01*
X52600D01*
Y102309D01*
X49000D01*
Y105500D01*
X42000D01*
Y102309D01*
X35825D01*
X24267Y113867D01*
X23777Y114194D01*
X23200Y114309D01*
X16950D01*
X16827Y114605D01*
X16253Y115353D01*
X15505Y115927D01*
X14635Y116288D01*
X13700Y116411D01*
X12765Y116288D01*
X11895Y115927D01*
X11147Y115353D01*
X10573Y114605D01*
X10212Y113735D01*
X10089Y112800D01*
X10212Y111865D01*
X10573Y110995D01*
X11147Y110247D01*
X11895Y109673D01*
X12765Y109312D01*
X13700Y109189D01*
X14635Y109312D01*
X15505Y109673D01*
X16253Y110247D01*
X16827Y110995D01*
X16950Y111291D01*
X22575D01*
X34133Y99733D01*
X34133D01*
X34133Y99733D01*
X34133Y99733D01*
Y99733D01*
X34622Y99406D01*
X35200Y99291D01*
X62494D01*
X62971Y98973D01*
X62703Y98571D01*
X62568Y97896D01*
Y83650D01*
X59350D01*
Y79650D01*
Y75650D01*
X62568D01*
Y65351D01*
X60717Y63500D01*
X60000D01*
Y62783D01*
X58773Y61556D01*
X58464Y61094D01*
X57964Y61077D01*
X57846Y61233D01*
X56983Y61895D01*
X55978Y62311D01*
X54900Y62453D01*
X53822Y62311D01*
X52817Y61895D01*
X51954Y61233D01*
X51292Y60370D01*
X50876Y59365D01*
X50734Y58287D01*
Y56713D01*
X50876Y55635D01*
X51292Y54630D01*
X51954Y53767D01*
X52817Y53105D01*
X53822Y52689D01*
X54900Y52547D01*
X55978Y52689D01*
X56983Y53105D01*
X57846Y53767D01*
X57964Y53922D01*
X58464Y53906D01*
X58773Y53444D01*
X60000Y52217D01*
Y51500D01*
X40000D01*
Y65000D01*
X55000D01*
Y75650D01*
X58350D01*
Y79650D01*
Y83650D01*
X55000D01*
Y84000D01*
X22500D01*
Y107500D01*
X9000D01*
Y122724D01*
X9010Y122800D01*
X9000Y122876D01*
Y145783D01*
X48500D01*
Y120000D01*
D02*
G37*
G36*
X130983Y7622D02*
X95140Y1617D01*
X70675D01*
X70507Y2088D01*
X70592Y2158D01*
X71321Y3045D01*
X71862Y4058D01*
X72196Y5157D01*
X72308Y6300D01*
X72196Y7443D01*
X71862Y8542D01*
X71321Y9555D01*
X70592Y10442D01*
X69705Y11171D01*
X68692Y11712D01*
X67593Y12046D01*
X66450Y12158D01*
X65307Y12046D01*
X64208Y11712D01*
X63195Y11171D01*
X62308Y10442D01*
X61579Y9555D01*
X61038Y8542D01*
X60704Y7443D01*
X60592Y6300D01*
X60704Y5157D01*
X61038Y4058D01*
X61579Y3045D01*
X62308Y2158D01*
X62393Y2088D01*
X62225Y1617D01*
X37760D01*
X1917Y7622D01*
Y121075D01*
X2407Y121173D01*
X2460Y121045D01*
X3018Y120318D01*
X3226Y120158D01*
Y86500D01*
X3226Y86500D01*
X3226D01*
X3399Y85630D01*
X3892Y84892D01*
X18236Y70548D01*
Y62417D01*
X10770D01*
Y52583D01*
X18236D01*
Y44674D01*
X17899Y44170D01*
X17726Y43300D01*
Y29000D01*
X17726Y29000D01*
X17726D01*
X17899Y28130D01*
X18392Y27392D01*
X22626Y23158D01*
Y21748D01*
X21954Y21233D01*
X21292Y20370D01*
X20876Y19365D01*
X20734Y18287D01*
Y16713D01*
X20876Y15635D01*
X21292Y14630D01*
X21954Y13767D01*
X22817Y13105D01*
X23822Y12689D01*
X24900Y12547D01*
X25978Y12689D01*
X26983Y13105D01*
X27845Y13767D01*
X28508Y14630D01*
X28924Y15635D01*
X29066Y16713D01*
Y18287D01*
X28924Y19365D01*
X28508Y20370D01*
X27845Y21233D01*
X27174Y21748D01*
Y24100D01*
X27001Y24970D01*
X26508Y25708D01*
X22274Y29942D01*
Y43300D01*
X22101Y44170D01*
X21764Y44674D01*
Y53348D01*
X22212Y53570D01*
X22817Y53105D01*
X23822Y52689D01*
X24900Y52547D01*
X25978Y52689D01*
X26983Y53105D01*
X27845Y53767D01*
X28508Y54630D01*
X28924Y55635D01*
X29066Y56713D01*
Y58287D01*
X28924Y59365D01*
X28508Y60370D01*
X27845Y61233D01*
X26983Y61895D01*
X25978Y62311D01*
X24900Y62453D01*
X23822Y62311D01*
X22817Y61895D01*
X22212Y61430D01*
X21764Y61652D01*
Y70626D01*
X22101Y71130D01*
X22274Y72000D01*
X22101Y72870D01*
X21608Y73608D01*
X7774Y87442D01*
Y106710D01*
X8252Y106855D01*
X8293Y106793D01*
X8618Y106577D01*
X9000Y106501D01*
X11998D01*
X12096Y106010D01*
X11895Y105927D01*
X11147Y105353D01*
X10573Y104605D01*
X10212Y103735D01*
X10089Y102800D01*
X10212Y101865D01*
X10573Y100995D01*
X11147Y100247D01*
X11895Y99673D01*
X12765Y99312D01*
X13700Y99189D01*
X14635Y99312D01*
X15505Y99673D01*
X16253Y100247D01*
X16827Y100995D01*
X17188Y101865D01*
X17311Y102800D01*
X17188Y103735D01*
X16827Y104605D01*
X16253Y105353D01*
X15505Y105927D01*
X15304Y106010D01*
X15402Y106501D01*
X21501D01*
Y84000D01*
X21577Y83618D01*
X21793Y83293D01*
X22118Y83077D01*
X22500Y83001D01*
X54255D01*
X54294Y82943D01*
X54618Y82727D01*
X54870Y82677D01*
Y76623D01*
X54618Y76573D01*
X54294Y76357D01*
X54077Y76032D01*
X54001Y75650D01*
Y65999D01*
X40000D01*
X39618Y65923D01*
X39294Y65706D01*
X39077Y65382D01*
X39001Y65000D01*
Y60461D01*
X38510Y60363D01*
X38508Y60370D01*
X37846Y61233D01*
X36983Y61895D01*
X35978Y62311D01*
X34900Y62453D01*
X33822Y62311D01*
X32817Y61895D01*
X31955Y61233D01*
X31293Y60370D01*
X30876Y59365D01*
X30734Y58287D01*
Y56713D01*
X30876Y55635D01*
X31293Y54630D01*
X31955Y53767D01*
X32817Y53105D01*
X33822Y52689D01*
X34900Y52547D01*
X35978Y52689D01*
X36983Y53105D01*
X37846Y53767D01*
X38508Y54630D01*
X38510Y54637D01*
X39001Y54540D01*
Y51500D01*
X39077Y51118D01*
X39294Y50793D01*
X39618Y50577D01*
X40000Y50501D01*
X60000D01*
X60382Y50577D01*
X60707Y50793D01*
X60775Y50896D01*
X61272Y50945D01*
X61631Y50586D01*
X62204Y50203D01*
X62267Y50191D01*
X62568Y49890D01*
Y42931D01*
X61418Y41780D01*
X58957D01*
X58908Y42278D01*
X59344Y42364D01*
X60059Y42842D01*
X60536Y43557D01*
X60704Y44400D01*
X60536Y45243D01*
X60059Y45958D01*
X59344Y46436D01*
X58501Y46603D01*
X52202D01*
X51358Y46436D01*
X50643Y45958D01*
X50166Y45243D01*
X49998Y44400D01*
X50166Y43557D01*
X50643Y42842D01*
X51358Y42364D01*
X51794Y42278D01*
X51745Y41780D01*
X44781D01*
X44237Y41672D01*
X44055Y42110D01*
X44055D01*
X44045Y42134D01*
X44477Y42423D01*
X44915Y43077D01*
X45069Y43850D01*
X44915Y44623D01*
X44477Y45278D01*
X43823Y45715D01*
X43050Y45869D01*
X42277Y45715D01*
X41622Y45278D01*
X41185Y44623D01*
X41031Y43850D01*
X41185Y43077D01*
X41622Y42423D01*
X42277Y41985D01*
X43050Y41831D01*
X43691Y41959D01*
X43873Y41521D01*
X43873D01*
X43883Y41497D01*
X43533Y41263D01*
X41185Y38915D01*
X41185Y38915D01*
X40750Y38480D01*
X40280Y38480D01*
Y38480D01*
X32320D01*
Y31520D01*
X40280D01*
Y32237D01*
X40742Y32428D01*
X41185Y31985D01*
X41185Y31985D01*
X44320Y28850D01*
Y27170D01*
X48280D01*
Y31630D01*
X46869D01*
X46591Y32046D01*
X46642Y32170D01*
X48280D01*
Y35752D01*
X63184D01*
X63859Y35886D01*
X64431Y36269D01*
X68080Y39917D01*
X68462Y40490D01*
X68596Y41164D01*
Y51013D01*
X71027Y53444D01*
X71336Y53906D01*
X71836Y53922D01*
X71954Y53767D01*
X72817Y53105D01*
X73822Y52689D01*
X74900Y52547D01*
X75978Y52689D01*
X76983Y53105D01*
X77846Y53767D01*
X78508Y54630D01*
X78510Y54637D01*
X79001Y54540D01*
Y50500D01*
X79077Y50118D01*
X79294Y49793D01*
X79618Y49577D01*
X80000Y49501D01*
X100000D01*
X100382Y49577D01*
X100707Y49793D01*
X100923Y50118D01*
X100999Y50500D01*
Y54235D01*
X101473Y54395D01*
X101954Y53767D01*
X102817Y53105D01*
X103822Y52689D01*
X104900Y52547D01*
X105978Y52689D01*
X106983Y53105D01*
X107846Y53767D01*
X108508Y54630D01*
X108924Y55635D01*
X109066Y56713D01*
Y58287D01*
X108924Y59365D01*
X108508Y60370D01*
X107846Y61233D01*
X106983Y61895D01*
X105978Y62311D01*
X104900Y62453D01*
X103822Y62311D01*
X102817Y61895D01*
X101954Y61233D01*
X101473Y60605D01*
X100999Y60765D01*
Y67000D01*
X100923Y67382D01*
X100707Y67707D01*
X100382Y67923D01*
X100000Y67999D01*
X93499D01*
Y83001D01*
X115000D01*
X115382Y83077D01*
X115707Y83293D01*
X115923Y83618D01*
X115999Y84000D01*
Y97500D01*
X115923Y97882D01*
X115707Y98207D01*
X115382Y98423D01*
X115000Y98499D01*
X87499D01*
Y120000D01*
X87423Y120382D01*
X87207Y120706D01*
X86882Y120923D01*
X86500Y120999D01*
X70814D01*
Y123050D01*
X70680Y123725D01*
X70297Y124297D01*
X66833Y127762D01*
X67054Y128210D01*
X67692Y128126D01*
X68462Y128227D01*
X69179Y128524D01*
X69795Y128997D01*
X70268Y129613D01*
X70565Y130330D01*
X70666Y131100D01*
X70565Y131870D01*
X70277Y132565D01*
X70673Y132870D01*
X71205Y132462D01*
X71922Y132164D01*
X72692Y132063D01*
X73462Y132164D01*
X74179Y132462D01*
X74795Y132934D01*
X74942Y133126D01*
X75442D01*
X75589Y132934D01*
X76205Y132462D01*
X76923Y132164D01*
X77692Y132063D01*
X78462Y132164D01*
X79179Y132462D01*
X79295Y132551D01*
X79744Y132329D01*
Y128152D01*
X85641D01*
Y134048D01*
X80915D01*
X80585Y134424D01*
X80666Y135037D01*
X80565Y135807D01*
X80268Y136524D01*
X79795Y137140D01*
X79179Y137612D01*
X79138Y137630D01*
X79235Y138120D01*
X80280D01*
Y145080D01*
X72320D01*
Y140838D01*
X72320D01*
X72320Y140838D01*
X72320Y138120D01*
Y138120D01*
Y137962D01*
X71922Y137910D01*
X71205Y137612D01*
X70589Y137140D01*
X70117Y136524D01*
X69820Y135807D01*
X69718Y135037D01*
X69820Y134267D01*
X70108Y133572D01*
X69711Y133267D01*
X69179Y133676D01*
X68462Y133973D01*
X67692Y134074D01*
X66922Y133973D01*
X66205Y133676D01*
X65673Y133267D01*
X65277Y133572D01*
X65565Y134267D01*
X65666Y135037D01*
X65565Y135807D01*
X65268Y136524D01*
X64795Y137140D01*
X64179Y137612D01*
X63462Y137910D01*
X62692Y138011D01*
X61923Y137910D01*
X61205Y137612D01*
X60589Y137140D01*
X60442Y136948D01*
X59942D01*
X59795Y137140D01*
X59179Y137612D01*
X58462Y137910D01*
X57692Y138011D01*
X56923Y137910D01*
X56205Y137612D01*
X55589Y137140D01*
X55117Y136524D01*
X54820Y135807D01*
X54718Y135037D01*
X54820Y134267D01*
X55092Y133609D01*
X54696Y133304D01*
X54189Y133693D01*
X53467Y133992D01*
X53192Y134028D01*
Y131100D01*
Y128172D01*
X53467Y128208D01*
X54189Y128507D01*
X54809Y128983D01*
X55285Y129603D01*
X55561Y130268D01*
X56058Y130219D01*
X56063Y130197D01*
X56445Y129625D01*
X64609Y121461D01*
X64417Y120999D01*
X49499D01*
Y129770D01*
X49990Y129867D01*
X50099Y129603D01*
X50575Y128983D01*
X51195Y128507D01*
X51917Y128208D01*
X52192Y128172D01*
Y131100D01*
Y134028D01*
X51917Y133992D01*
X51195Y133693D01*
X50575Y133217D01*
X50099Y132597D01*
X49990Y132333D01*
X49499Y132430D01*
Y145783D01*
X130983D01*
Y7622D01*
D02*
G37*
%LPC*%
G36*
X104900Y44509D02*
X104323Y44394D01*
X103833Y44067D01*
X103506Y43578D01*
X103475Y43424D01*
X103323Y43394D01*
X102833Y43067D01*
X102506Y42577D01*
X102288Y42432D01*
X101900Y42509D01*
X101322Y42394D01*
X100833Y42067D01*
X100506Y41578D01*
X100391Y41000D01*
X100504Y40430D01*
X100322Y40394D01*
X99833Y40067D01*
X99506Y39577D01*
X99476Y39424D01*
X99322Y39394D01*
X98833Y39067D01*
X98506Y38577D01*
X98391Y38000D01*
X98506Y37422D01*
X98833Y36933D01*
X99322Y36606D01*
X99476Y36575D01*
X99506Y36423D01*
X99833Y35933D01*
X100322Y35606D01*
X100504Y35570D01*
X100406Y35075D01*
X100391Y35000D01*
X100506Y34422D01*
X100833Y33933D01*
X101322Y33606D01*
X101900Y33491D01*
X102288Y33568D01*
X102506Y33422D01*
X102833Y32933D01*
X103323Y32606D01*
X103475Y32576D01*
X103506Y32423D01*
X103833Y31933D01*
X104323Y31606D01*
X104900Y31491D01*
X105477Y31606D01*
X105967Y31933D01*
X106294Y32423D01*
X106325Y32576D01*
X106477Y32606D01*
X106967Y32933D01*
X107294Y33422D01*
X107294Y33422D01*
Y33422D01*
X107512Y33568D01*
X107900Y33491D01*
X108477Y33606D01*
X108967Y33933D01*
X109294Y34422D01*
X109409Y35000D01*
X109332Y35388D01*
X109477Y35606D01*
X109477D01*
X109477Y35606D01*
X109967Y35933D01*
X110294Y36423D01*
X110325Y36575D01*
X110477Y36606D01*
X110967Y36933D01*
X111294Y37422D01*
X111409Y38000D01*
X111294Y38577D01*
X110967Y39067D01*
X110477Y39394D01*
X110325Y39424D01*
X110294Y39577D01*
X109967Y40067D01*
X109477Y40394D01*
X109477Y40394D01*
X109477D01*
X109332Y40612D01*
X109409Y41000D01*
X109294Y41578D01*
X108967Y42067D01*
X108477Y42394D01*
X107900Y42509D01*
X107512Y42432D01*
X107294Y42577D01*
Y42577D01*
X107294Y42577D01*
X106967Y43067D01*
X106477Y43394D01*
X106325Y43424D01*
X106294Y43578D01*
X105967Y44067D01*
X105477Y44394D01*
X104900Y44509D01*
D02*
G37*
G36*
X84380Y46630D02*
X80420D01*
Y42170D01*
X84380D01*
Y46630D01*
D02*
G37*
G36*
X33550Y43350D02*
X30050D01*
Y39850D01*
X33550D01*
Y43350D01*
D02*
G37*
G36*
X31300Y38500D02*
X27800D01*
Y35500D01*
X31300D01*
Y38500D01*
D02*
G37*
G36*
X26800D02*
X23300D01*
Y35500D01*
X26800D01*
Y38500D01*
D02*
G37*
G36*
X29050Y43350D02*
X25550D01*
Y39850D01*
X29050D01*
Y43350D01*
D02*
G37*
G36*
X84380Y41630D02*
X80420D01*
Y37170D01*
X84380D01*
Y41630D01*
D02*
G37*
G36*
X119086Y57000D02*
X115400D01*
Y52593D01*
X115983Y52670D01*
X116993Y53088D01*
X117860Y53753D01*
X118525Y54620D01*
X118943Y55630D01*
X119086Y56713D01*
Y57000D01*
D02*
G37*
G36*
X114400D02*
X110714D01*
Y56713D01*
X110857Y55630D01*
X111275Y54620D01*
X111940Y53753D01*
X112807Y53088D01*
X113817Y52670D01*
X114400Y52593D01*
Y57000D01*
D02*
G37*
G36*
X45400Y62407D02*
Y58000D01*
X49086D01*
Y58287D01*
X48943Y59370D01*
X48525Y60380D01*
X47860Y61247D01*
X46993Y61912D01*
X45983Y62330D01*
X45400Y62407D01*
D02*
G37*
G36*
X44400D02*
X43817Y62330D01*
X42807Y61912D01*
X41940Y61247D01*
X41275Y60380D01*
X40857Y59370D01*
X40714Y58287D01*
Y58000D01*
X44400D01*
Y62407D01*
D02*
G37*
G36*
X49086Y57000D02*
X45400D01*
Y52593D01*
X45983Y52670D01*
X46993Y53088D01*
X47860Y53753D01*
X48525Y54620D01*
X48943Y55630D01*
X49086Y56713D01*
Y57000D01*
D02*
G37*
G36*
X33550Y47850D02*
X30050D01*
Y44350D01*
X33550D01*
Y47850D01*
D02*
G37*
G36*
X29050D02*
X25550D01*
Y44350D01*
X29050D01*
Y47850D01*
D02*
G37*
G36*
X44400Y57000D02*
X40714D01*
Y56713D01*
X40857Y55630D01*
X41275Y54620D01*
X41940Y53753D01*
X42807Y53088D01*
X43817Y52670D01*
X44400Y52593D01*
Y57000D01*
D02*
G37*
G36*
X84900Y62453D02*
X83822Y62311D01*
X82817Y61895D01*
X81954Y61233D01*
X81292Y60370D01*
X80876Y59365D01*
X80734Y58287D01*
Y56713D01*
X80876Y55635D01*
X81292Y54630D01*
X81954Y53767D01*
X82817Y53105D01*
X83822Y52689D01*
X84900Y52547D01*
X85978Y52689D01*
X86983Y53105D01*
X87846Y53767D01*
X88508Y54630D01*
X88924Y55635D01*
X89066Y56713D01*
Y58287D01*
X88924Y59365D01*
X88508Y60370D01*
X87846Y61233D01*
X86983Y61895D01*
X85978Y62311D01*
X84900Y62453D01*
D02*
G37*
G36*
X74900Y22453D02*
X73822Y22311D01*
X72817Y21895D01*
X71954Y21233D01*
X71292Y20370D01*
X70876Y19365D01*
X70734Y18287D01*
Y16713D01*
X70876Y15635D01*
X71292Y14630D01*
X71954Y13767D01*
X72817Y13105D01*
X73822Y12689D01*
X74900Y12547D01*
X75978Y12689D01*
X76983Y13105D01*
X77846Y13767D01*
X78508Y14630D01*
X78924Y15635D01*
X79066Y16713D01*
Y18287D01*
X78924Y19365D01*
X78508Y20370D01*
X77846Y21233D01*
X76983Y21895D01*
X75978Y22311D01*
X74900Y22453D01*
D02*
G37*
G36*
X64900D02*
X63822Y22311D01*
X62817Y21895D01*
X61954Y21233D01*
X61292Y20370D01*
X60876Y19365D01*
X60734Y18287D01*
Y16713D01*
X60876Y15635D01*
X61292Y14630D01*
X61954Y13767D01*
X62817Y13105D01*
X63822Y12689D01*
X64900Y12547D01*
X65978Y12689D01*
X66983Y13105D01*
X67846Y13767D01*
X68508Y14630D01*
X68924Y15635D01*
X69066Y16713D01*
Y18287D01*
X68924Y19365D01*
X68508Y20370D01*
X67846Y21233D01*
X66983Y21895D01*
X65978Y22311D01*
X64900Y22453D01*
D02*
G37*
G36*
X94900D02*
X93822Y22311D01*
X92817Y21895D01*
X91954Y21233D01*
X91292Y20370D01*
X90876Y19365D01*
X90734Y18287D01*
Y16713D01*
X90876Y15635D01*
X91292Y14630D01*
X91954Y13767D01*
X92817Y13105D01*
X93822Y12689D01*
X94900Y12547D01*
X95978Y12689D01*
X96983Y13105D01*
X97846Y13767D01*
X98508Y14630D01*
X98924Y15635D01*
X99066Y16713D01*
Y18287D01*
X98924Y19365D01*
X98508Y20370D01*
X97846Y21233D01*
X96983Y21895D01*
X95978Y22311D01*
X94900Y22453D01*
D02*
G37*
G36*
X84900D02*
X83822Y22311D01*
X82817Y21895D01*
X81954Y21233D01*
X81292Y20370D01*
X80876Y19365D01*
X80734Y18287D01*
Y16713D01*
X80876Y15635D01*
X81292Y14630D01*
X81954Y13767D01*
X82817Y13105D01*
X83822Y12689D01*
X84900Y12547D01*
X85978Y12689D01*
X86983Y13105D01*
X87846Y13767D01*
X88508Y14630D01*
X88924Y15635D01*
X89066Y16713D01*
Y18287D01*
X88924Y19365D01*
X88508Y20370D01*
X87846Y21233D01*
X86983Y21895D01*
X85978Y22311D01*
X84900Y22453D01*
D02*
G37*
G36*
X54900D02*
X53822Y22311D01*
X52817Y21895D01*
X51954Y21233D01*
X51292Y20370D01*
X50876Y19365D01*
X50734Y18287D01*
Y16713D01*
X50876Y15635D01*
X51292Y14630D01*
X51954Y13767D01*
X52817Y13105D01*
X53822Y12689D01*
X54900Y12547D01*
X55978Y12689D01*
X56983Y13105D01*
X57846Y13767D01*
X58508Y14630D01*
X58924Y15635D01*
X59066Y16713D01*
Y18287D01*
X58924Y19365D01*
X58508Y20370D01*
X57846Y21233D01*
X56983Y21895D01*
X55978Y22311D01*
X54900Y22453D01*
D02*
G37*
G36*
X14900D02*
X13822Y22311D01*
X12817Y21895D01*
X11954Y21233D01*
X11292Y20370D01*
X10876Y19365D01*
X10734Y18287D01*
Y16713D01*
X10876Y15635D01*
X11292Y14630D01*
X11954Y13767D01*
X12817Y13105D01*
X13822Y12689D01*
X14900Y12547D01*
X15978Y12689D01*
X16983Y13105D01*
X17846Y13767D01*
X18508Y14630D01*
X18924Y15635D01*
X19066Y16713D01*
Y18287D01*
X18924Y19365D01*
X18508Y20370D01*
X17846Y21233D01*
X16983Y21895D01*
X15978Y22311D01*
X14900Y22453D01*
D02*
G37*
G36*
X47076Y10479D02*
X30720D01*
Y3720D01*
X47076D01*
Y10479D01*
D02*
G37*
G36*
X44900Y22453D02*
X43822Y22311D01*
X42817Y21895D01*
X41954Y21233D01*
X41293Y20370D01*
X40876Y19365D01*
X40734Y18287D01*
Y16713D01*
X40876Y15635D01*
X41293Y14630D01*
X41954Y13767D01*
X42817Y13105D01*
X43822Y12689D01*
X44900Y12547D01*
X45978Y12689D01*
X46983Y13105D01*
X47846Y13767D01*
X48507Y14630D01*
X48924Y15635D01*
X49066Y16713D01*
Y18287D01*
X48924Y19365D01*
X48507Y20370D01*
X47846Y21233D01*
X46983Y21895D01*
X45978Y22311D01*
X44900Y22453D01*
D02*
G37*
G36*
X34900D02*
X33822Y22311D01*
X32817Y21895D01*
X31955Y21233D01*
X31293Y20370D01*
X30876Y19365D01*
X30734Y18287D01*
Y16713D01*
X30876Y15635D01*
X31293Y14630D01*
X31955Y13767D01*
X32817Y13105D01*
X33822Y12689D01*
X34900Y12547D01*
X35978Y12689D01*
X36983Y13105D01*
X37846Y13767D01*
X38508Y14630D01*
X38924Y15635D01*
X39066Y16713D01*
Y18287D01*
X38924Y19365D01*
X38508Y20370D01*
X37846Y21233D01*
X36983Y21895D01*
X35978Y22311D01*
X34900Y22453D01*
D02*
G37*
G36*
X26800Y34500D02*
X23300D01*
Y31500D01*
X26800D01*
Y34500D01*
D02*
G37*
G36*
X77398Y31624D02*
X74749D01*
Y29900D01*
X79523D01*
X79453Y30251D01*
X78971Y30972D01*
X78249Y31455D01*
X77398Y31624D01*
D02*
G37*
G36*
Y36603D02*
X71099D01*
X70256Y36436D01*
X69541Y35958D01*
X69064Y35243D01*
X68896Y34400D01*
X69064Y33557D01*
X69541Y32842D01*
X70256Y32364D01*
X71099Y32197D01*
X77398D01*
X78242Y32364D01*
X78957Y32842D01*
X79434Y33557D01*
X79602Y34400D01*
X79434Y35243D01*
X78957Y35958D01*
X78242Y36436D01*
X77398Y36603D01*
D02*
G37*
G36*
X31300Y34500D02*
X27800D01*
Y31500D01*
X31300D01*
Y34500D01*
D02*
G37*
G36*
X73749Y31624D02*
X71099D01*
X70248Y31455D01*
X69527Y30972D01*
X69045Y30251D01*
X68975Y29900D01*
X73749D01*
Y31624D01*
D02*
G37*
G36*
X114900Y22453D02*
X113822Y22311D01*
X112817Y21895D01*
X111954Y21233D01*
X111293Y20370D01*
X110876Y19365D01*
X110734Y18287D01*
Y16713D01*
X110876Y15635D01*
X111293Y14630D01*
X111954Y13767D01*
X112817Y13105D01*
X113822Y12689D01*
X114900Y12547D01*
X115978Y12689D01*
X116983Y13105D01*
X117846Y13767D01*
X118508Y14630D01*
X118924Y15635D01*
X119066Y16713D01*
Y18287D01*
X118924Y19365D01*
X118508Y20370D01*
X117846Y21233D01*
X116983Y21895D01*
X115978Y22311D01*
X114900Y22453D01*
D02*
G37*
G36*
X104900D02*
X103822Y22311D01*
X102817Y21895D01*
X101954Y21233D01*
X101292Y20370D01*
X100876Y19365D01*
X100734Y18287D01*
Y16713D01*
X100876Y15635D01*
X101292Y14630D01*
X101954Y13767D01*
X102817Y13105D01*
X103822Y12689D01*
X104900Y12547D01*
X105978Y12689D01*
X106983Y13105D01*
X107846Y13767D01*
X108508Y14630D01*
X108924Y15635D01*
X109066Y16713D01*
Y18287D01*
X108924Y19365D01*
X108508Y20370D01*
X107846Y21233D01*
X106983Y21895D01*
X105978Y22311D01*
X104900Y22453D01*
D02*
G37*
G36*
X79523Y28900D02*
X74749D01*
Y27176D01*
X77398D01*
X78249Y27345D01*
X78971Y27828D01*
X79453Y28549D01*
X79523Y28900D01*
D02*
G37*
G36*
X73749D02*
X68975D01*
X69045Y28549D01*
X69527Y27828D01*
X70248Y27345D01*
X71099Y27176D01*
X73749D01*
Y28900D01*
D02*
G37*
G36*
X13200Y132300D02*
X10100D01*
Y129200D01*
X13200D01*
Y132300D01*
D02*
G37*
G36*
X44149Y138011D02*
X40212D01*
X39442Y137910D01*
X38725Y137613D01*
X38109Y137140D01*
X37636Y136524D01*
X37339Y135807D01*
X37238Y135037D01*
Y131100D01*
X37339Y130330D01*
X37636Y129613D01*
X38109Y128997D01*
X38725Y128525D01*
X39442Y128227D01*
X40212Y128126D01*
X44149D01*
X44918Y128227D01*
X45636Y128525D01*
X46252Y128997D01*
X46724Y129613D01*
X47021Y130330D01*
X47123Y131100D01*
Y135037D01*
X47021Y135807D01*
X46724Y136524D01*
X46252Y137140D01*
X45636Y137613D01*
X44918Y137910D01*
X44149Y138011D01*
D02*
G37*
G36*
X22500Y136310D02*
X21591Y136190D01*
X20745Y135840D01*
X20018Y135282D01*
X19460Y134555D01*
X19110Y133709D01*
X18990Y132800D01*
X19110Y131892D01*
X19460Y131045D01*
X20018Y130318D01*
X20745Y129760D01*
X21591Y129410D01*
X22500Y129290D01*
X23408Y129410D01*
X24255Y129760D01*
X24982Y130318D01*
X25540Y131045D01*
X25890Y131892D01*
X26010Y132800D01*
X25890Y133709D01*
X25540Y134555D01*
X24982Y135282D01*
X24255Y135840D01*
X23408Y136190D01*
X22500Y136310D01*
D02*
G37*
G36*
X17300Y132300D02*
X14200D01*
Y129200D01*
X17300D01*
Y132300D01*
D02*
G37*
G36*
X13700Y126411D02*
X12765Y126288D01*
X11895Y125927D01*
X11147Y125353D01*
X10573Y124605D01*
X10212Y123735D01*
X10089Y122800D01*
X10212Y121865D01*
X10573Y120995D01*
X11147Y120247D01*
X11895Y119673D01*
X12765Y119312D01*
X13700Y119189D01*
X14635Y119312D01*
X15505Y119673D01*
X16253Y120247D01*
X16827Y120995D01*
X17188Y121865D01*
X17311Y122800D01*
X17188Y123735D01*
X16827Y124605D01*
X16253Y125353D01*
X15505Y125927D01*
X14635Y126288D01*
X13700Y126411D01*
D02*
G37*
G36*
X129480Y127730D02*
X112520D01*
Y117270D01*
X129480D01*
Y127730D01*
D02*
G37*
G36*
X98167Y132569D02*
X93704D01*
Y128106D01*
X95173D01*
X95947Y128208D01*
X96670Y128507D01*
X97290Y128983D01*
X97765Y129603D01*
X98065Y130325D01*
X98167Y131100D01*
Y132569D01*
D02*
G37*
G36*
X92704D02*
X88241D01*
Y131100D01*
X88343Y130325D01*
X88643Y129603D01*
X89118Y128983D01*
X89738Y128507D01*
X90460Y128208D01*
X91236Y128106D01*
X92704D01*
Y132569D01*
D02*
G37*
G36*
X13200Y136400D02*
X10100D01*
Y133300D01*
X13200D01*
Y136400D01*
D02*
G37*
G36*
X89280Y145080D02*
X81320D01*
Y138120D01*
X89280D01*
Y145080D01*
D02*
G37*
G36*
X129500Y138800D02*
X121500D01*
Y134050D01*
X129500D01*
Y138800D01*
D02*
G37*
G36*
Y144550D02*
X121500D01*
Y139800D01*
X129500D01*
Y144550D01*
D02*
G37*
G36*
X120500D02*
X112500D01*
Y139800D01*
X120500D01*
Y144550D01*
D02*
G37*
G36*
X92704Y138031D02*
X91236D01*
X90460Y137929D01*
X89738Y137630D01*
X89118Y137154D01*
X88643Y136534D01*
X88343Y135812D01*
X88241Y135037D01*
Y133569D01*
X92704D01*
Y138031D01*
D02*
G37*
G36*
X17300Y136400D02*
X14200D01*
Y133300D01*
X17300D01*
Y136400D01*
D02*
G37*
G36*
X120500Y138800D02*
X112500D01*
Y134050D01*
X120500D01*
Y138800D01*
D02*
G37*
G36*
X95173Y138031D02*
X93704D01*
Y133569D01*
X98167D01*
Y135037D01*
X98065Y135812D01*
X97765Y136534D01*
X97290Y137154D01*
X96670Y137630D01*
X95947Y137929D01*
X95173Y138031D01*
D02*
G37*
G36*
X42176Y123979D02*
X25820D01*
Y117220D01*
X42176D01*
Y123979D01*
D02*
G37*
G36*
X112880Y96130D02*
X95920D01*
Y92664D01*
X94300D01*
X93625Y92530D01*
X93053Y92147D01*
X86953Y86047D01*
X86570Y85475D01*
X86436Y84800D01*
Y65600D01*
X86436Y65600D01*
X86436D01*
X86570Y64925D01*
X86953Y64353D01*
X91188Y60118D01*
X90876Y59365D01*
X90734Y58287D01*
Y56713D01*
X90876Y55635D01*
X91292Y54630D01*
X91954Y53767D01*
X92817Y53105D01*
X93822Y52689D01*
X94900Y52547D01*
X95978Y52689D01*
X96983Y53105D01*
X97846Y53767D01*
X98508Y54630D01*
X98924Y55635D01*
X99066Y56713D01*
Y58287D01*
X98924Y59365D01*
X98508Y60370D01*
X97846Y61233D01*
X96983Y61895D01*
X95978Y62311D01*
X94900Y62453D01*
X93965Y62330D01*
X89964Y66331D01*
Y84069D01*
X95031Y89136D01*
X95920D01*
Y85670D01*
X112880D01*
Y96130D01*
D02*
G37*
G36*
X84080Y92880D02*
X77120D01*
Y84920D01*
X84080D01*
Y92880D01*
D02*
G37*
G36*
X73400Y102619D02*
X72627Y102465D01*
X71973Y102027D01*
X71535Y101373D01*
X71381Y100600D01*
X71535Y99827D01*
X71973Y99173D01*
X72627Y98735D01*
X73400Y98581D01*
X74173Y98735D01*
X74827Y99173D01*
X75265Y99827D01*
X75419Y100600D01*
X75265Y101373D01*
X74827Y102027D01*
X74173Y102465D01*
X73400Y102619D01*
D02*
G37*
G36*
X43634Y92880D02*
Y92880D01*
X43520Y92880D01*
X43400D01*
X43280D01*
X43166Y92880D01*
X43166Y92880D01*
Y92880D01*
X36320D01*
Y84920D01*
X43166D01*
X43166Y84920D01*
Y84920D01*
X43280Y84920D01*
X43400D01*
X43520D01*
X43634Y84920D01*
X43634Y84920D01*
Y84920D01*
X50480D01*
Y92880D01*
X43634D01*
X43634Y92880D01*
D02*
G37*
G36*
X115400Y62407D02*
Y58000D01*
X119086D01*
Y58287D01*
X118943Y59370D01*
X118525Y60380D01*
X117860Y61247D01*
X116993Y61912D01*
X115983Y62330D01*
X115400Y62407D01*
D02*
G37*
G36*
X114400D02*
X113817Y62330D01*
X112807Y61912D01*
X111940Y61247D01*
X111275Y60380D01*
X110857Y59370D01*
X110714Y58287D01*
Y58000D01*
X114400D01*
Y62407D01*
D02*
G37*
G36*
X123480Y75058D02*
X122337Y74946D01*
X121238Y74612D01*
X120225Y74071D01*
X119338Y73342D01*
X118609Y72455D01*
X118068Y71442D01*
X117734Y70343D01*
X117622Y69200D01*
X117734Y68057D01*
X118068Y66958D01*
X118609Y65945D01*
X119338Y65058D01*
X120225Y64329D01*
X121238Y63788D01*
X122337Y63454D01*
X123480Y63342D01*
X124623Y63454D01*
X125722Y63788D01*
X126735Y64329D01*
X127622Y65058D01*
X128351Y65945D01*
X128892Y66958D01*
X129226Y68057D01*
X129338Y69200D01*
X129226Y70343D01*
X128892Y71442D01*
X128351Y72455D01*
X127622Y73342D01*
X126735Y74071D01*
X125722Y74612D01*
X124623Y74946D01*
X123480Y75058D01*
D02*
G37*
G36*
X9380D02*
X8237Y74946D01*
X7138Y74612D01*
X6125Y74071D01*
X5238Y73342D01*
X4509Y72455D01*
X3968Y71442D01*
X3634Y70343D01*
X3522Y69200D01*
X3634Y68057D01*
X3968Y66958D01*
X4509Y65945D01*
X5238Y65058D01*
X6125Y64329D01*
X7138Y63788D01*
X8237Y63454D01*
X9380Y63342D01*
X10523Y63454D01*
X11622Y63788D01*
X12635Y64329D01*
X13522Y65058D01*
X14251Y65945D01*
X14792Y66958D01*
X15126Y68057D01*
X15238Y69200D01*
X15126Y70343D01*
X14792Y71442D01*
X14251Y72455D01*
X13522Y73342D01*
X12635Y74071D01*
X11622Y74612D01*
X10523Y74946D01*
X9380Y75058D01*
D02*
G37*
G36*
X97700Y104219D02*
X96927Y104065D01*
X96272Y103628D01*
X95835Y102973D01*
X95681Y102200D01*
X95835Y101427D01*
X96272Y100773D01*
X96927Y100335D01*
X97700Y100181D01*
X98473Y100335D01*
X99128Y100773D01*
X99565Y101427D01*
X99719Y102200D01*
X99565Y102973D01*
X99128Y103628D01*
X98473Y104065D01*
X97700Y104219D01*
D02*
G37*
G36*
X81900Y110300D02*
X78900D01*
Y106800D01*
X81900D01*
Y110300D01*
D02*
G37*
G36*
X55600D02*
X52600D01*
Y106800D01*
X55600D01*
Y110300D01*
D02*
G37*
G36*
X85880Y119280D02*
X78920D01*
Y111320D01*
X85880D01*
Y119280D01*
D02*
G37*
G36*
X85900Y110300D02*
X82900D01*
Y106800D01*
X85900D01*
Y110300D01*
D02*
G37*
G36*
Y105800D02*
X82900D01*
Y102300D01*
X85900D01*
Y105800D01*
D02*
G37*
G36*
X81900D02*
X78900D01*
Y102300D01*
X81900D01*
Y105800D01*
D02*
G37*
G36*
X49000Y110000D02*
X46000D01*
Y106500D01*
X49000D01*
Y110000D01*
D02*
G37*
G36*
X45000D02*
X42000D01*
Y106500D01*
X45000D01*
Y110000D01*
D02*
G37*
%LPD*%
D10*
X74249Y29400D02*
D03*
D11*
X56100Y115300D02*
D03*
X82400Y106300D02*
D03*
X45500Y106000D02*
D03*
X56100Y106300D02*
D03*
D12*
X62148Y40016D02*
X64332Y42200D01*
X69050Y102975D02*
Y123050D01*
X69050Y98625D02*
Y102975D01*
X66862Y96438D02*
X69050Y98625D01*
X62692Y129408D02*
Y135037D01*
Y129408D02*
X69050Y123050D01*
X66550Y99661D02*
Y122014D01*
X57692Y130872D02*
X66550Y122014D01*
X64939Y98050D02*
X66550Y99661D01*
X64332Y97896D02*
X64486Y98050D01*
X64939D01*
X64332Y42200D02*
Y50620D01*
X57692Y130872D02*
Y135037D01*
X63184Y37516D02*
X66832Y41164D01*
X44781Y40016D02*
X62148D01*
X42432Y37668D02*
X44781Y40016D01*
X45816Y37516D02*
X63184D01*
X44200Y35900D02*
X45816Y37516D01*
X42432Y37668D02*
Y37668D01*
X41700Y36935D02*
X42432Y37668D01*
X41700Y33964D02*
Y36935D01*
Y33964D02*
X42432Y33232D01*
Y33232D02*
Y33232D01*
X44200Y35000D02*
Y35900D01*
X42432Y33232D02*
X46264Y29400D01*
X46300D01*
X44200Y35000D02*
X44800Y34400D01*
X46300D01*
X60020Y60308D02*
X64332Y64621D01*
X60020Y54692D02*
Y60308D01*
Y54692D02*
X62879Y51833D01*
X63120D01*
X64332Y50620D01*
Y64621D02*
Y97896D01*
X66862Y63226D02*
X69780Y60308D01*
Y54692D02*
Y60308D01*
X66862Y63226D02*
Y96438D01*
X66832Y41164D02*
Y51744D01*
X69780Y54692D01*
X20000Y43300D02*
Y72000D01*
X94900Y57500D02*
Y58900D01*
X88200Y65600D02*
X94900Y58900D01*
X88200Y65600D02*
Y84800D01*
X94300Y90900D01*
X104400D01*
D13*
X63800Y100800D02*
Y107600D01*
X56100Y115300D02*
X63800Y107600D01*
X13700Y112800D02*
X23200D01*
X35200Y100800D01*
X63800D01*
X104900Y33000D02*
Y35000D01*
Y41000D02*
Y43000D01*
X99900Y38000D02*
X101900D01*
X107900D02*
X109900D01*
X101900Y35000D02*
X103900Y37000D01*
X105900D02*
X107900Y35000D01*
X105900Y39000D02*
X107900Y41000D01*
X101900D02*
X103900Y39000D01*
X104900Y41000D02*
X105900Y42000D01*
X103900D02*
X104900Y41000D01*
X107900Y38000D02*
X108900Y37000D01*
X107900Y38000D02*
X108900Y39000D01*
X104900Y35000D02*
X105900Y34000D01*
X103900D02*
X104900Y35000D01*
X100900Y37000D02*
X101900Y38000D01*
X100900Y39000D02*
X101900Y38000D01*
X102900D02*
X104900D01*
Y40000D01*
Y36000D02*
Y38000D01*
X106900D01*
X104900Y33000D02*
Y35000D01*
Y41000D02*
Y43000D01*
X107900Y38000D02*
X109900D01*
X99900D02*
X101900D01*
X105900Y37000D02*
X107900Y35000D01*
X101900D02*
X103900Y37000D01*
X101900Y41000D02*
X103900Y39000D01*
X105900D02*
X107900Y41000D01*
X103900Y42000D02*
X104900Y41000D01*
X105900Y42000D01*
X100900Y37000D02*
X101900Y38000D01*
X100900Y39000D02*
X101900Y38000D01*
X103900Y34000D02*
X104900Y35000D01*
X105900Y34000D01*
X107900Y38000D02*
X108900Y37000D01*
X107900Y38000D02*
X108900Y39000D01*
X104900Y38000D02*
X106900D01*
X104900D02*
Y40000D01*
Y36000D02*
Y38000D01*
X102900D02*
X104900D01*
D14*
X24900Y17500D02*
Y24100D01*
X20000Y29000D02*
X24900Y24100D01*
X5500Y86500D02*
Y122800D01*
Y86500D02*
X20000Y72000D01*
Y29000D02*
Y43300D01*
D15*
X24900Y17500D02*
D03*
X114900Y57500D02*
D03*
X94900D02*
D03*
X44900D02*
D03*
D17*
X62692Y135037D02*
D03*
X57692D02*
D03*
X52692Y131100D02*
D03*
D18*
X93204Y133069D02*
D03*
D20*
X13700Y112800D02*
D03*
D21*
Y132800D02*
D03*
D22*
X46300Y29400D02*
D03*
Y34400D02*
D03*
D23*
X29550Y43850D02*
D03*
X58850Y79650D02*
D03*
D24*
X27300Y35000D02*
D03*
D25*
X121000Y139300D02*
D03*
X104400Y90900D02*
D03*
D27*
X5500Y122800D02*
D03*
D28*
X63800Y100800D02*
D03*
D41*
X32300Y8899D02*
Y5300D01*
X34099D01*
X34699Y5900D01*
Y8299D01*
X34099Y8899D01*
X32300D01*
X38298Y8299D02*
X37698Y8899D01*
X36499D01*
X35899Y8299D01*
Y5900D01*
X36499Y5300D01*
X37698D01*
X38298Y5900D01*
Y7099D01*
X37099D01*
X39498Y5300D02*
Y8899D01*
X41897Y5300D01*
Y8899D01*
X43097D02*
Y5300D01*
X44896D01*
X45496Y5900D01*
Y8299D01*
X44896Y8899D01*
X43097D01*
X27400Y118800D02*
Y121199D01*
X28600Y122399D01*
X29799Y121199D01*
Y118800D01*
Y120599D01*
X27400D01*
X33398Y121799D02*
X32798Y122399D01*
X31599D01*
X30999Y121799D01*
Y119400D01*
X31599Y118800D01*
X32798D01*
X33398Y119400D01*
Y120599D01*
X32199D01*
X34598Y118800D02*
Y122399D01*
X36997Y118800D01*
Y122399D01*
X38197D02*
Y118800D01*
X39996D01*
X40596Y119400D01*
Y121799D01*
X39996Y122399D01*
X38197D01*
M02*
