M48
;Layer_Color=9474304
;FILE_FORMAT=2:5
INCH,LZ
;TYPE=PLATED
T1F00S00C0.00800
T2F00S00C0.02800
T3F00S00C0.02913
T4F00S00C0.03800
T5F00S00C0.05100
T6F00S00C0.05315
T7F00S00C0.08500
%
T01
X00463Y00294
Y00344
X004305Y004385
X0055351Y00444
X00824
Y00394
X0074249Y00344
Y00294
X00363Y0035
X00273
X002955Y004385
X00398Y00889
X0047
X00455Y0106
X00561Y01063
Y01153
X00734
X00824
Y01063
X00734Y01006
X00638Y01008
X005885Y007965
X007235
X00806Y00889
X01044Y00909
X00977Y01022
X0121Y01225
Y01393
X00853Y01416
X00763
T02
X00055Y01228
X00225Y01328
T03
X0052692Y01311
X0057692Y0135037
X0062692
X0067692Y01311
X0072692Y0135037
X0077692
X0082692Y01311
T04
X00137Y01028
Y01128
Y01228
Y01328
T05
X00449Y00175
X00549
X00649
X00749
X00849
X00949
X01049
X01149
Y00575
X01049
X00949
X00849
X00749
X00649
X00549
X00449
X00349
X00249
X00149
Y00175
X00249
X00349
T06
X004218Y0133069
X0093204
T07
X006645Y00063
X012348Y00692
X000938
M30
